<svg width="101" height="100" viewBox="0 0 101 100" fill="none" xmlns="http://www.w3.org/2000/svg">
<g clip-path="url(#clip0_123_194)">
<path d="M31.8939 59.3514C32.5972 60.4129 32.9681 61.6399 32.9681 62.9032C32.9681 66.4613 30.0746 69.3549 26.5165 69.3549C25.2532 69.3549 24.0262 68.9839 22.9647 68.2807L21.1841 70.971C22.7746 72.0238 24.6185 72.5807 26.5165 72.5807C31.8538 72.5807 36.194 68.2405 36.194 62.9032C36.194 61.0053 35.6371 59.1615 34.5843 57.5692L31.8939 59.3514ZM26.5165 56.4516C27.7798 56.4516 29.0085 56.8226 30.0669 57.5242L31.8492 54.8355C30.2595 53.7827 28.4167 53.2258 26.5165 53.2258C21.1792 53.2258 16.8391 57.566 16.8391 62.9032C16.8391 64.8012 17.396 66.645 18.4488 68.2373L21.1391 66.4567C20.4359 65.3936 20.0649 64.1664 20.0649 62.9032C20.0649 59.3452 22.9585 56.4516 26.5165 56.4516ZM58.7746 67.742V77.4194H65.2262V74.1936H62.0004V67.742H58.7746Z" fill="#FF1641"/>
<path d="M60.3874 58.0645C56.3056 58.0645 52.3183 59.4868 49.16 62.0707L51.2054 64.5681C53.3681 62.7969 56.0118 61.703 58.7745 61.3919V64.5161H62.0003V61.3856C68.7181 62.1322 74.0616 67.4772 74.8082 74.1935H71.6778V77.4193H74.802C74.4909 80.1834 73.3969 82.8257 71.6258 84.9899L74.1217 87.0336C76.7052 83.8755 78.1294 79.8884 78.1294 75.8064C78.1294 66.0241 70.1697 58.0645 60.3874 58.0645ZM62.0003 90.2209V87.0967H58.7745V90.2272C52.0568 89.4806 46.7133 84.1354 45.9667 77.4193H49.0971V74.1935H45.9729C46.284 71.4294 47.378 68.787 49.1491 66.6229L46.6532 64.579C44.0697 67.7374 42.6455 71.7247 42.6455 75.8064C42.6455 85.5886 50.6052 93.5483 60.3874 93.5483C64.4693 93.5483 68.4566 92.1259 71.6149 89.5421L69.5695 87.0447C67.4068 88.8159 64.7647 89.9098 62.0003 90.2209Z" fill="#162082"/>
<path d="M91.0325 74.1937H87.8067V29.0324H78.1293V59.413C77.1433 58.3465 76.0637 57.3705 74.9035 56.4967V37.0969H65.2261V52.0997C64.1763 51.8856 63.0942 51.7667 62.0003 51.6933V45.1614H52.3229V53.0243C50.7128 53.5959 49.1681 54.3372 47.715 55.2358C47.3904 54.3372 47.0329 53.4552 46.6005 52.6132L49.1507 49.0416L40.3781 40.266L36.8049 42.8177C35.7238 42.2653 34.5997 41.8015 33.4436 41.4308L32.7231 37.0969H20.3114L19.5906 41.4308C18.4346 41.8015 17.3106 42.2653 16.2295 42.8177L12.6569 40.266L3.88375 49.0416L6.43395 52.6132C5.87984 53.6937 5.41544 54.8179 5.04544 55.9745L0.709961 56.6983V69.1084L5.04383 69.8306C5.41451 70.9869 5.87888 72.111 6.43234 73.1918L3.88214 76.7626L12.6547 85.539L16.2279 82.9874C17.309 83.5399 18.4331 84.0038 19.5892 84.3745L20.3098 88.7098H32.7215L33.4422 84.3759C34.5982 84.0052 35.7223 83.5414 36.8033 82.989L37.4485 83.4497C40.6602 93.0515 49.72 100 60.3874 100C73.1844 100 83.6636 90.0084 84.4991 77.4195H100.71V16.1292H91.0325V74.1937ZM81.3551 32.2582H84.5809V74.1937H84.4991C84.2487 70.4245 83.1404 66.8923 81.3551 63.7884V32.2582ZM68.4519 40.3227H71.6777V54.4261C70.6469 53.8787 69.5648 53.4213 68.4519 53.0259V40.3227ZM55.5487 48.3872H58.7745V51.6949C57.6805 51.7683 56.5985 51.887 55.5487 52.1021V48.3872ZM36.1213 79.6908C34.6986 80.5045 33.1775 81.1326 31.5952 81.5598L30.5967 81.8306L29.9872 85.484H23.044L22.4346 81.8306L21.436 81.5596C19.842 81.1273 18.3196 80.4987 16.9098 79.6906L16.0114 79.1757L13.0037 81.3257L8.09242 76.416L10.2424 73.4054L9.7275 72.5068C8.91366 71.0847 8.28555 69.5641 7.85855 67.9822L7.58919 66.9836L3.93577 66.3757V59.431L7.58919 58.8231L7.86016 57.8245C8.29565 56.2257 8.92266 54.7035 9.72911 53.2999L10.244 52.4013L8.09403 49.3906L13.0053 44.481L16.0128 46.631L16.9114 46.1158C18.3341 45.3021 19.8552 44.674 21.4376 44.2469L22.4362 43.9761L23.0456 40.3227H29.9888L30.5983 43.9761L31.5969 44.2471C33.1908 44.6793 34.7132 45.308 36.1231 46.116L37.0215 46.631L40.0291 44.481L44.9404 49.3906L42.7904 52.4013L43.3053 53.2999C44.0017 54.5128 44.5372 55.8271 44.9586 57.189C44.015 57.9725 43.1487 58.8418 42.3344 59.7564C40.8648 52.3644 34.3329 46.7743 26.5164 46.7743C17.6227 46.7743 10.3874 54.0096 10.3874 62.9033C10.3874 71.7971 17.6227 79.0324 26.5164 79.0324C30.0392 79.0324 33.4279 77.8408 36.1954 75.7632C36.1954 75.7773 36.1938 75.7925 36.1938 75.8066C36.1938 77.0566 36.3182 78.2739 36.5017 79.4727L36.1213 79.6908ZM39.3793 63.8531C38.165 65.9812 37.2555 68.3005 36.7293 70.7662C34.2934 73.9227 30.5055 75.8066 26.5164 75.8066C19.4015 75.8066 13.6132 70.0183 13.6132 62.9033C13.6132 55.7884 19.4015 50.0001 26.5164 50.0001C33.6313 50.0001 39.4196 55.7884 39.4196 62.9033C39.4196 63.2247 39.4015 63.5388 39.3793 63.8529V63.8531ZM60.3874 96.7743C48.8261 96.7743 39.4196 87.3679 39.4196 75.8066C39.4196 64.2453 48.8261 54.8388 60.3874 54.8388C71.9487 54.8388 81.3551 64.2453 81.3551 75.8066C81.3551 87.3679 71.9487 96.7743 60.3874 96.7743ZM94.2583 19.355H97.4842V74.1937H94.2583V19.355Z" fill="#162082"/>
<path d="M91.0325 0V3.22581H94.4985L83.0878 12.355L78.1293 7.39677L70.5247 15.0012C69.8938 14.698 69.1969 14.5161 68.4519 14.5161C65.7846 14.5161 63.6132 16.6875 63.6132 19.3548C63.6132 20.1889 63.8454 20.9631 64.218 21.6482L55.7874 31.0161C55.2007 30.7714 54.5714 30.6453 53.9358 30.6452C53.9051 30.6452 53.8773 30.6532 53.8469 30.6546L47.3614 13.3583C48.4134 12.471 49.0971 11.1599 49.0971 9.67742C49.0971 7.01008 46.9257 4.83871 44.2583 4.83871C41.591 4.83871 39.4196 7.01008 39.4196 9.67742C39.4196 10.0256 39.46 10.3641 39.5305 10.6935L26.3088 18.8286C25.4791 18.1593 24.4374 17.7419 23.2906 17.7419C21.191 17.7419 19.4166 19.0948 18.7489 20.9677H10.0904C9.42266 19.0948 7.64827 17.7419 5.54867 17.7419C2.88133 17.7419 0.709961 19.9133 0.709961 22.5806C0.709961 25.248 2.88133 27.4194 5.54867 27.4194C7.64827 27.4194 9.42266 26.0665 10.0904 24.1935H18.7503C19.4182 26.0665 21.1926 27.4194 23.2922 27.4194C25.9596 27.4194 28.1309 25.248 28.1309 22.5806C28.1309 22.2325 28.0906 21.894 28.0198 21.5645L41.242 13.4294C42.0698 14.0988 43.1118 14.5161 44.2583 14.5161C44.289 14.5161 44.3168 14.5081 44.3473 14.5067L50.8327 31.8012C49.7807 32.6903 49.0971 34.0016 49.0971 35.4839C49.0971 38.1512 51.2684 40.3226 53.9358 40.3226C56.6031 40.3226 58.7745 38.1512 58.7745 35.4839C58.7745 34.6498 58.5436 33.8756 58.1696 33.1905L66.6003 23.8226C67.1869 24.0673 67.8163 24.1934 68.4519 24.1935C71.1192 24.1935 73.2906 22.0222 73.2906 19.3548C73.2906 18.6099 73.1087 17.9129 72.8055 17.2821L78.1293 11.9583L82.8483 16.6772L97.4842 4.96956V9.67742H100.71V0H91.0325ZM5.54867 24.1935C4.65875 24.1935 3.93577 23.469 3.93577 22.5806C3.93577 21.6923 4.65875 20.9677 5.54867 20.9677C6.43859 20.9677 7.16157 21.6923 7.16157 22.5806C7.16157 23.469 6.43859 24.1935 5.54867 24.1935ZM23.2906 24.1935C22.4007 24.1935 21.6777 23.469 21.6777 22.5806C21.6777 21.6923 22.4007 20.9677 23.2906 20.9677C24.1805 20.9677 24.9035 21.6923 24.9035 22.5806C24.9035 23.469 24.1805 24.1935 23.2906 24.1935ZM42.6454 9.67742C42.6454 8.78911 43.3684 8.06452 44.2583 8.06452C45.1483 8.06452 45.8713 8.78911 45.8713 9.67742C45.8713 10.5657 45.1483 11.2903 44.2583 11.2903C43.3684 11.2903 42.6454 10.5657 42.6454 9.67742ZM53.9358 37.0968C53.0458 37.0968 52.3229 36.3722 52.3229 35.4839C52.3229 34.5956 53.0458 33.871 53.9358 33.871C54.8257 33.871 55.5487 34.5956 55.5487 35.4839C55.5487 36.3722 54.8257 37.0968 53.9358 37.0968ZM68.4519 20.9677C67.562 20.9677 66.839 20.2431 66.839 19.3548C66.839 18.4665 67.562 17.7419 68.4519 17.7419C69.3418 17.7419 70.0648 18.4665 70.0648 19.3548C70.0648 20.2431 69.3418 20.9677 68.4519 20.9677Z" fill="#FF1641"/>
</g>
<defs>
<clipPath id="clip0_123_194">
<rect width="100" height="100" fill="white" transform="translate(0.709961)"/>
</clipPath>
</defs>
</svg>
