<svg width="101" height="100" viewBox="0 0 101 100" fill="none" xmlns="http://www.w3.org/2000/svg">
<g clip-path="url(#clip0_123_200)">
<path d="M93.9371 69.3934L89.9571 69.8601L89.0604 62.2151C88.9673 61.4151 88.7036 60.6444 88.2871 59.9551C89.7251 59.8805 91.1112 59.3936 92.2799 58.5525C93.4486 57.7114 94.3505 56.5516 94.8778 55.2117C95.4051 53.8718 95.5355 52.4085 95.2536 50.9965C94.9716 49.5844 94.2891 48.2834 93.2876 47.2488C92.2862 46.2142 91.008 45.4898 89.6059 45.162C88.2038 44.8343 86.737 44.9171 85.3806 45.4005C84.0243 45.884 82.8358 46.7476 81.9571 47.8884C81.0785 49.0291 80.5467 50.3986 80.4254 51.8334L75.3954 46.8118C74.3169 45.7382 72.8572 45.1355 71.3354 45.1355C69.8137 45.1355 68.3539 45.7382 67.2754 46.8118L62.9171 51.1451C62.3687 51.6768 61.9316 52.3123 61.6311 53.0146C61.3307 53.7168 61.173 54.4719 61.1672 55.2357C61.1614 55.9995 61.3077 56.7568 61.5974 57.4636C61.8872 58.1703 62.3146 58.8124 62.8549 59.3523C63.3952 59.8923 64.0375 60.3193 64.7444 60.6087C65.4513 60.898 66.2088 61.0437 66.9726 61.0375C67.7364 61.0312 68.4913 60.8731 69.1934 60.5722C69.8955 60.2714 70.5307 59.8338 71.0621 59.2851L71.3338 59.0134L73.3104 60.9918L47.0238 87.2901C45.9706 88.3749 45.3868 89.8307 45.3989 91.3426C45.411 92.8545 46.018 94.3009 47.0884 95.3687C48.1588 96.4365 49.6066 97.0398 51.1186 97.0482C52.6305 97.0566 54.0849 96.4693 55.1671 95.4134L64.1004 86.4801L66.0771 88.4584L64.3688 90.1668C63.3171 91.2524 62.7344 92.7079 62.7465 94.2194C62.7586 95.7308 63.3644 97.1769 64.4333 98.2455C65.5022 99.3142 66.9484 99.9198 68.4598 99.9315C69.9712 99.9433 71.4267 99.3603 72.5121 98.3084L78.2988 92.5234C79.3783 91.443 79.9847 89.9782 79.9847 88.4509C79.9847 86.9236 79.3783 85.4588 78.2988 84.3784L72.2404 78.3451L78.6054 71.9801L79.1838 76.8934C79.2686 77.6438 79.5008 78.37 79.867 79.0304C80.2332 79.6908 80.7262 80.2724 81.3178 80.7417C81.9093 81.2111 82.5877 81.559 83.3141 81.7655C84.0404 81.972 84.8004 82.0331 85.5504 81.9451L95.2871 80.8201C96.7912 80.6278 98.1585 79.8494 99.0918 78.6543C100.025 77.4593 100.449 75.9441 100.271 74.4382C100.093 72.9324 99.3278 71.5576 98.1417 70.6129C96.9557 69.6682 95.4446 69.23 93.9371 69.3934ZM84.9104 49.5601C85.5928 48.8791 86.4902 48.4558 87.4497 48.3623C88.4092 48.2688 89.3715 48.5109 90.1725 49.0474C90.9734 49.5839 91.5636 50.3815 91.8424 51.3044C92.1212 52.2273 92.0713 53.2183 91.7013 54.1085C91.3313 54.9987 90.6641 55.7331 89.8133 56.1865C88.9625 56.6398 87.9808 56.7842 87.0355 56.5949C86.0902 56.4055 85.2399 55.8943 84.6293 55.1482C84.0187 54.4022 83.6857 53.4675 83.6871 52.5034C83.687 51.9554 83.795 51.4128 84.0049 50.9066C84.2148 50.4004 84.5225 49.9405 84.9104 49.5534V49.5601ZM94.9004 77.5168L85.1621 78.6418C84.8478 78.6784 84.5294 78.6526 84.2251 78.5659C83.9207 78.4792 83.6366 78.3333 83.3888 78.1365C83.141 77.9396 82.9346 77.6958 82.7813 77.419C82.628 77.1422 82.5308 76.8379 82.4954 76.5234L81.7571 70.2618C81.6973 69.7612 81.4979 69.2875 81.1815 68.895C80.8651 68.5025 80.4446 68.207 79.9681 68.0423C79.4916 67.8776 78.9784 67.8504 78.4871 67.9638C77.9959 68.0772 77.5465 68.3266 77.1904 68.6834L68.7038 77.1668C68.5488 77.3215 68.4259 77.5054 68.342 77.7077C68.2581 77.91 68.215 78.1269 68.215 78.3459C68.215 78.565 68.2581 78.7818 68.342 78.9842C68.4259 79.1865 68.5488 79.3703 68.7038 79.5251L75.9404 86.7418C76.8854 87.6901 76.8854 89.2251 75.9404 90.1718L70.1521 95.9568C69.6902 96.3974 69.0763 96.6433 68.4379 96.6433C67.7995 96.6433 67.1857 96.3974 66.7238 95.9568C66.2761 95.4985 66.0256 94.8832 66.0256 94.2426C66.0256 93.602 66.2761 92.9867 66.7238 92.5284L68.8904 90.3618C69.1425 90.1127 69.3426 89.816 69.4792 89.489C69.6158 89.162 69.6861 88.8111 69.6861 88.4568C69.6861 88.1024 69.6158 87.7515 69.4792 87.4245C69.3426 87.0975 69.1425 86.8009 68.8904 86.5518L66.0104 83.6668C65.7622 83.4135 65.4659 83.2124 65.1389 83.075C64.812 82.9377 64.4609 82.867 64.1063 82.867C63.7516 82.867 63.4006 82.9377 63.0736 83.075C62.7466 83.2124 62.4504 83.4135 62.2021 83.6668L52.8171 93.0501C52.4817 93.3928 52.0516 93.6275 51.582 93.7241C51.1123 93.8207 50.6245 93.7748 50.1811 93.5924C49.7377 93.4099 49.3589 93.0991 49.0933 92.6999C48.8277 92.3007 48.6874 91.8312 48.6904 91.3518C48.688 91.0355 48.7484 90.7218 48.8683 90.4291C48.9882 90.1364 49.1651 89.8704 49.3888 89.6468L76.1304 62.8834C76.6305 62.3798 76.9111 61.6989 76.9111 60.9893C76.9111 60.2796 76.6305 59.5987 76.1304 59.0951L73.2271 56.1901C72.7241 55.6889 72.043 55.4074 71.3329 55.4074C70.6228 55.4074 69.9417 55.6889 69.4388 56.1901L68.7038 56.9251C68.2467 57.3751 67.631 57.6273 66.9896 57.6273C66.3482 57.6273 65.7325 57.3751 65.2754 56.9251C65.0483 56.7013 64.8679 56.4346 64.7447 56.1405C64.6216 55.8463 64.5582 55.5306 64.5582 55.2118C64.5582 54.8929 64.6216 54.5772 64.7447 54.2831C64.8679 53.9889 65.0483 53.7222 65.2754 53.4984L69.6321 49.1651C70.0843 48.713 70.6976 48.459 71.3371 48.459C71.9766 48.459 72.5898 48.713 73.0421 49.1651L85.0638 61.1651C85.4504 61.5484 85.6938 62.0518 85.7521 62.5934L86.7904 71.4451C86.8168 71.7197 86.8975 71.9863 87.0278 72.2295C87.158 72.4727 87.3353 72.6875 87.5492 72.8616C87.7632 73.0358 88.0096 73.1657 88.2742 73.2438C88.5387 73.3219 88.8162 73.3467 89.0904 73.3168L94.3254 72.7034C94.6425 72.666 94.9638 72.6914 95.271 72.7782C95.5782 72.865 95.8654 73.0115 96.1159 73.2093C96.3665 73.4071 96.5757 73.6524 96.7315 73.931C96.8872 74.2097 96.9865 74.5164 97.0238 74.8334C97.0288 74.9284 97.0288 75.0234 97.0238 75.1184C97.0227 75.7075 96.8063 76.2759 96.4152 76.7165C96.024 77.157 95.4853 77.4393 94.9004 77.5101V77.5168ZM53.6521 18.3718C52.8363 17.5545 51.7962 16.9978 50.6637 16.7721C49.5312 16.5465 48.3573 16.662 47.2905 17.1041C46.2237 17.5462 45.3121 18.295 44.6713 19.2556C44.0304 20.2162 43.689 21.3453 43.6904 22.5001V42.1018C43.2416 42.4722 42.8292 42.8846 42.4588 43.3334H29.5238C27.9767 43.3334 26.4929 43.948 25.399 45.042C24.305 46.1359 23.6904 47.6197 23.6904 49.1668C23.6904 50.7139 24.305 52.1976 25.399 53.2916C26.4929 54.3855 27.9767 55.0001 29.5238 55.0001H42.4588C43.2694 55.9924 44.279 56.8036 45.4225 57.3816C46.566 57.9596 47.818 58.2915 49.0976 58.3558C50.3773 58.4201 51.6562 58.2154 52.8519 57.7549C54.0476 57.2945 55.1335 56.5885 56.0395 55.6825C56.9455 54.7765 57.6515 53.6906 58.1119 52.4949C58.5724 51.2992 58.7771 50.0203 58.7128 48.7407C58.6485 47.461 58.3166 46.209 57.7386 45.0655C57.1606 43.922 56.3493 42.9124 55.3571 42.1018V22.5001C55.3601 21.7334 55.211 20.9737 54.9183 20.2651C54.6256 19.5564 54.1953 18.9129 53.6521 18.3718ZM47.0238 22.5001C47.0238 21.8371 47.2872 21.2012 47.756 20.7323C48.2248 20.2635 48.8607 20.0001 49.5238 20.0001C50.1868 20.0001 50.8227 20.2635 51.2915 20.7323C51.7604 21.2012 52.0238 21.8371 52.0238 22.5001V40.3551C50.3907 39.8817 48.6568 39.8817 47.0238 40.3551V22.5001ZM29.5238 51.6668C28.8607 51.6668 28.2248 51.4034 27.756 50.9345C27.2872 50.4657 27.0238 49.8298 27.0238 49.1668C27.0238 48.5037 27.2872 47.8678 27.756 47.399C28.2248 46.9302 28.8607 46.6668 29.5238 46.6668H40.7121C40.2387 48.2998 40.2387 50.0337 40.7121 51.6668H29.5238ZM49.5238 55.0001C47.9767 55.0001 46.4929 54.3855 45.399 53.2916C44.305 52.1976 43.6904 50.7139 43.6904 49.1668C43.6904 47.6197 44.305 46.1359 45.399 45.042C46.4929 43.948 47.9767 43.3334 49.5238 43.3334C51.0709 43.3334 52.5546 43.948 53.6486 45.042C54.7425 46.1359 55.3571 47.6197 55.3571 49.1668C55.3571 50.7139 54.7425 52.1976 53.6486 53.2916C52.5546 54.3855 51.0709 55.0001 49.5238 55.0001Z" fill="#FF1641"/>
<path d="M62.0237 64.9999C62.0237 64.5579 61.8481 64.134 61.5355 63.8214C61.223 63.5088 60.799 63.3333 60.357 63.3333H40.357C39.915 63.3333 39.4911 63.5088 39.1785 63.8214C38.8659 64.134 38.6903 64.5579 38.6903 64.9999C38.6903 65.4419 38.8659 65.8659 39.1785 66.1784C39.4911 66.491 39.915 66.6666 40.357 66.6666H60.357C60.799 66.6666 61.223 66.491 61.5355 66.1784C61.8481 65.8659 62.0237 65.4419 62.0237 64.9999ZM53.6903 73.3333C53.6903 72.8912 53.5148 72.4673 53.2022 72.1547C52.8896 71.8422 52.4657 71.6666 52.0237 71.6666H33.6903C33.2483 71.6666 32.8244 71.8422 32.5118 72.1547C32.1993 72.4673 32.0237 72.8912 32.0237 73.3333C32.0237 73.7753 32.1993 74.1992 32.5118 74.5118C32.8244 74.8243 33.2483 74.9999 33.6903 74.9999H52.0237C52.4657 74.9999 52.8896 74.8243 53.2022 74.5118C53.5148 74.1992 53.6903 73.7753 53.6903 73.3333ZM43.6903 79.9999H35.357C34.915 79.9999 34.4911 80.1755 34.1785 80.4881C33.8659 80.8006 33.6903 81.2246 33.6903 81.6666C33.6903 82.1086 33.8659 82.5325 34.1785 82.8451C34.4911 83.1577 34.915 83.3333 35.357 83.3333H43.6903C44.1324 83.3333 44.5563 83.1577 44.8689 82.8451C45.1814 82.5325 45.357 82.1086 45.357 81.6666C45.357 81.2246 45.1814 80.8006 44.8689 80.4881C44.5563 80.1755 44.1324 79.9999 43.6903 79.9999Z" fill="#162082"/>
<path d="M26.8104 91.4433C26.6837 91.4433 26.557 91.4367 26.4304 91.4217L24.3704 91.1883L10.2687 88.8867C9.64319 88.7846 9.05973 88.5064 8.58674 88.0845C8.11374 87.6627 7.77082 87.1147 7.59816 86.5049C7.4255 85.8951 7.43027 85.2487 7.61191 84.6415C7.79355 84.0343 8.14453 83.4915 8.6237 83.0767L11.6454 80.46C7.40822 75.3866 4.24947 69.5029 2.36194 63.168C0.474416 56.8332 -0.10229 50.1802 0.66703 43.615C3.1837 21.435 20.3254 3.73167 42.412 0.505007C64.5004 -2.72166 85.9904 9.33668 94.747 29.87C95.2839 31.1557 95.3364 32.5925 94.8948 33.914C94.4532 35.2355 93.5474 36.3521 92.3454 37.0567C91.6301 37.4843 90.832 37.7548 90.0041 37.8502C89.1762 37.9456 88.3375 37.8637 87.5437 37.61C86.7433 37.3462 86.0081 36.915 85.3871 36.3452C84.7662 35.7753 84.2735 35.0799 83.942 34.305C81.8342 29.4084 78.7063 25.0176 74.767 21.4258C70.8277 17.8339 66.1677 15.1235 61.0978 13.4754C56.028 11.8273 50.6649 11.2795 45.3665 11.8685C40.0681 12.4575 34.9563 14.1698 30.3722 16.891C25.788 19.6123 21.837 23.28 18.7827 27.6493C15.7284 32.0186 13.6412 36.9891 12.6602 42.2291C11.6793 47.4691 11.8272 52.858 13.0941 58.0363C14.361 63.2146 16.7177 68.0631 20.007 72.2583L22.6587 69.6083C23.1029 69.1653 23.6631 68.8566 24.2749 68.7178C24.8866 68.5789 25.5252 68.6155 26.1171 68.8234C26.709 69.0313 27.2303 69.4019 27.6209 69.8928C28.0115 70.3837 28.2557 70.9749 28.3254 71.5983L30.1137 87.7433C30.1652 88.2086 30.1181 88.6796 29.9755 89.1254C29.8329 89.5713 29.598 89.9822 29.286 90.3312C28.9741 90.6803 28.5921 90.9597 28.165 91.1513C27.7379 91.3429 27.2752 91.4424 26.807 91.4433H26.8104ZM49.4854 3.33334C48.1587 3.33334 46.8254 3.38834 45.4854 3.50001C37.0309 4.23922 28.9482 7.31339 22.1394 12.3794C15.3306 17.4454 10.0636 24.3039 6.92621 32.1894C3.78884 40.0749 2.90458 48.6771 4.37211 57.036C5.83964 65.3949 9.60123 73.1814 15.237 79.5267C15.3835 79.6916 15.4958 79.884 15.5674 80.0927C15.639 80.3014 15.6684 80.5222 15.654 80.7424C15.6396 80.9625 15.5816 81.1777 15.4834 81.3752C15.3852 81.5728 15.2488 81.7489 15.082 81.8933L10.807 85.595L24.8254 87.8883L26.8054 88.11L25.0237 71.965L21.077 75.9117C20.9152 76.0736 20.7218 76.2004 20.5088 76.2843C20.2958 76.3681 20.0678 76.4072 19.839 76.3991C19.6102 76.391 19.3856 76.3358 19.1791 76.237C18.9726 76.1383 18.7886 75.998 18.6387 75.825C14.9636 71.6043 12.2024 66.6683 10.5289 61.3278C8.85549 55.9874 8.3061 50.3582 8.91536 44.795C9.88156 35.8277 13.7895 27.4327 20.0291 20.9202C26.2687 14.4077 34.4889 10.1442 43.4066 8.79531C52.3243 7.44638 61.4377 9.08789 69.3243 13.4636C77.2109 17.8393 83.4269 24.703 87.002 32.9833C87.2937 33.6717 87.8654 34.2017 88.5737 34.44C88.9169 34.5503 89.2799 34.585 89.6377 34.5419C89.9956 34.4987 90.3399 34.3787 90.647 34.19C91.1525 33.899 91.5357 33.4351 91.726 32.8837C91.9162 32.3323 91.9006 31.7308 91.682 31.19C88.1533 22.9218 82.2722 15.8732 74.7699 10.9205C67.2676 5.96772 58.475 3.32933 49.4854 3.33334Z" fill="#162082"/>
</g>
<defs>
<clipPath id="clip0_123_200">
<rect width="100" height="100" fill="white" transform="translate(0.356934)"/>
</clipPath>
</defs>
</svg>
