<svg width="101" height="100" viewBox="0 0 101 100" fill="none" xmlns="http://www.w3.org/2000/svg">
<path d="M92.5444 73.4375C92.5444 63.7516 86.2116 55.5281 77.4726 52.6594C79.2196 51.5269 80.6558 49.9757 81.6507 48.1468C82.6456 46.318 83.1677 44.2695 83.1694 42.1875C83.1694 35.2953 77.5616 29.6875 70.6694 29.6875C70.0203 29.6926 69.3725 29.7479 68.7319 29.8531C68.8194 29.6 68.9304 29.3531 69.0069 29.0969L72.2319 28.3375V18.6156L69.0101 17.8563C68.6318 16.5867 68.1228 15.3598 67.4913 14.1953L69.2335 11.3781L62.4163 4.55938L59.5991 6.30312C58.4335 5.67276 57.2062 5.16384 55.9366 4.78437L55.1788 1.5625H45.5351L44.7772 4.78437C43.5069 5.16406 42.2804 5.67188 41.1147 6.30312L38.2976 4.55938L31.4804 11.3781L33.2226 14.1953C32.5924 15.3604 32.0834 16.5872 31.7038 17.8563L28.4819 18.6172V28.3406L31.7054 29.1C31.7819 29.3547 31.8929 29.6016 31.9804 29.8547C31.3405 29.7481 30.6931 29.6922 30.0444 29.6875C23.1522 29.6875 17.5444 35.2953 17.5444 42.1875C17.5462 44.2695 18.0682 46.318 19.0632 48.1468C20.0581 49.9757 21.4943 51.5269 23.2413 52.6594C14.5022 55.5281 8.16943 63.7516 8.16943 73.4375V79.6875H32.4304C29.8591 83.3485 28.4802 87.7138 28.4819 92.1875V98.4375H72.2319V92.1875C72.2319 87.5406 70.7647 83.2344 68.2835 79.6875H92.5444V73.4375ZM73.7944 56.25C73.7944 58.7906 72.3632 60.9375 70.6694 60.9375C68.9757 60.9375 67.5444 58.7906 67.5444 56.25C67.5444 55.8063 67.6069 55.3672 67.7007 54.9312C68.6788 54.775 69.6694 54.6875 70.6694 54.6875C71.6835 54.6875 72.6726 54.7906 73.6429 54.9469C73.7335 55.3781 73.7944 55.8125 73.7944 56.25ZM50.3569 70.3125C45.1866 70.3125 40.9819 66.1078 40.9819 60.9375C40.9819 55.7672 45.1866 51.5625 50.3569 51.5625C55.5272 51.5625 59.7319 55.7672 59.7319 60.9375C59.7319 66.1078 55.5272 70.3125 50.3569 70.3125ZM38.1944 56.5594C38.3272 56.6234 38.4616 56.6828 38.5929 56.75C38.1093 58.0933 37.8603 59.5098 37.8569 60.9375C37.8569 61.5609 37.9179 62.1703 38.0069 62.7703L35.9257 67.35L32.1382 62.6172L38.1944 56.5594ZM50.3569 48.4375C48.3093 48.438 46.2933 48.9418 44.486 49.9044C42.6788 50.867 41.1359 52.2589 39.9929 53.9578C38.9808 53.4435 37.9303 53.0089 36.8507 52.6578C38.5967 51.5249 40.032 49.9737 41.0263 48.1452C42.0207 46.3168 42.5425 44.2689 42.5444 42.1875C42.5444 41.8969 42.521 41.6125 42.5007 41.3281C43.2413 41.6547 44.0007 41.9375 44.7772 42.1703L45.5351 45.3922H55.1788L55.9366 42.1703C56.7132 41.9375 57.4726 41.6547 58.2132 41.3281C58.1929 41.6125 58.1694 41.8969 58.1694 42.1875C58.1712 44.2689 58.693 46.3168 59.6873 48.1453C60.6817 49.9739 62.1171 51.525 63.8632 52.6578C62.7839 53.009 61.7338 53.4442 60.7226 53.9594C59.5793 52.2603 58.0361 50.8681 56.2286 49.9052C54.4212 48.9424 52.4049 48.4384 50.3569 48.4375ZM80.0444 42.1875C80.0444 47.3578 75.8397 51.5625 70.6694 51.5625C65.4991 51.5625 61.2944 47.3578 61.2944 42.1875C61.2944 37.0172 65.4991 32.8125 70.6694 32.8125C75.8397 32.8125 80.0444 37.0172 80.0444 42.1875ZM34.4866 27.4188L34.2585 26.4891L31.6069 25.8641V21.0891L34.2569 20.4656L34.4851 19.5359C34.8784 17.9279 35.516 16.3897 36.3757 14.975L36.871 14.1578L35.4366 11.8406L38.7569 8.52031L41.0741 9.95469L41.8913 9.45781C43.3069 8.59844 44.8429 7.96094 46.4538 7.56719L47.3835 7.33906L48.0101 4.6875H52.7038L53.3272 7.3375L54.2569 7.56563C55.8679 7.96094 57.4038 8.59688 58.8194 9.45625L59.6366 9.95312L61.9538 8.51875L65.2741 11.8391L63.8413 14.1578L64.3366 14.975C65.1991 16.3937 65.8335 17.9297 66.2272 19.5359L66.4554 20.4656L69.1069 21.0906V25.8656L66.4569 26.4891L66.2288 27.4188C65.9132 28.7109 65.4007 29.9703 64.7522 31.1812C62.2603 32.5284 60.2959 34.6772 59.1772 37.2797L58.821 37.4953C57.4054 38.3547 55.8694 38.9922 54.2585 39.3859L53.3288 39.6141L52.7054 42.2641H48.0116L47.3882 39.6125L46.4585 39.3844C44.8501 38.9907 43.3115 38.3531 41.896 37.4938L41.5397 37.2781C40.4216 34.6749 38.4571 32.5254 35.9647 31.1781C35.3148 29.9926 34.8182 28.7294 34.4866 27.4188ZM20.6694 42.1875C20.6694 37.0172 24.8741 32.8125 30.0444 32.8125C35.2147 32.8125 39.4194 37.0172 39.4194 42.1875C39.4194 47.3578 35.2147 51.5625 30.0444 51.5625C24.8741 51.5625 20.6694 47.3578 20.6694 42.1875ZM34.9835 55.3516L30.0444 60.2906L25.1194 55.3656C26.7234 54.9206 28.3798 54.6926 30.0444 54.6875C31.7241 54.6875 33.3835 54.9156 34.9835 55.3516ZM27.9507 62.6156L24.1632 67.3484L19.8007 57.7516C20.4726 57.3109 21.1788 56.9234 21.9069 56.5703L27.9507 62.6156ZM11.2944 73.4375C11.2944 68.0344 13.6054 63.1719 17.2757 59.7469L23.4257 73.2766L30.0444 65.0016L36.6632 73.2766L39.4804 67.0781C40.4723 68.8267 41.8685 70.3124 43.5522 71.4109C40.3694 72.457 37.4694 74.22 35.0757 76.5641H19.1069V67.1891H15.9819V76.5641H11.2944V73.4375ZM50.3569 73.4375C53.0726 73.4375 55.6476 74.0297 57.9804 75.0734L50.3569 92.8984L42.7335 75.0719C45.131 73.9956 47.729 73.4386 50.3569 73.4375ZM31.6069 92.1875C31.6069 85.6844 34.9366 79.9484 39.9788 76.5844L47.9882 95.3125H39.4194V85.9375H36.2944V95.3125H31.6069V92.1875ZM69.1069 95.3125H64.4194V85.9375H61.2944V95.3125H52.7257L60.7351 76.5844C65.7772 79.9484 69.1069 85.6844 69.1069 92.1875V95.3125ZM89.4194 76.5625H84.7319V67.1875H81.6069V76.5625H65.6366C63.2427 74.2188 60.3427 72.4558 57.1601 71.4094C58.9071 70.2769 60.3433 68.7257 61.3382 66.8968C62.3331 65.068 62.8552 63.0195 62.8569 60.9375C62.8569 59.4688 62.5882 58.0641 62.121 56.7531C62.8788 56.3641 63.6616 56.0266 64.4632 55.7469C64.4538 55.9141 64.4194 56.0812 64.4194 56.25C64.4194 60.5578 67.2226 64.0625 70.6694 64.0625C74.1163 64.0625 76.9194 60.5578 76.9194 56.25C76.9194 56.0875 76.8866 55.9281 76.8772 55.7656C84.1694 58.3359 89.4194 65.2766 89.4194 73.4375V76.5625Z" fill="#162082"/>
<path d="M50.3569 29.6875C53.8038 29.6875 56.6069 26.8844 56.6069 23.4375C56.6069 19.9906 53.8038 17.1875 50.3569 17.1875C46.9101 17.1875 44.1069 19.9906 44.1069 23.4375C44.1069 26.8844 46.9101 29.6875 50.3569 29.6875ZM50.3569 20.3125C52.0804 20.3125 53.4819 21.7141 53.4819 23.4375C53.4819 25.1609 52.0804 26.5625 50.3569 26.5625C48.6335 26.5625 47.2319 25.1609 47.2319 23.4375C47.2319 21.7141 48.6335 20.3125 50.3569 20.3125Z" fill="#FF1641"/>
<path d="M50.3569 35.9375C57.2491 35.9375 62.8569 30.3297 62.8569 23.4375C62.8569 16.5453 57.2491 10.9375 50.3569 10.9375C43.4647 10.9375 37.8569 16.5453 37.8569 23.4375C37.8569 30.3297 43.4647 35.9375 50.3569 35.9375ZM50.3569 14.0625C55.5272 14.0625 59.7319 18.2672 59.7319 23.4375C59.7319 28.6078 55.5272 32.8125 50.3569 32.8125C45.1866 32.8125 40.9819 28.6078 40.9819 23.4375C40.9819 18.2672 45.1866 14.0625 50.3569 14.0625Z" fill="#FF1641"/>
</svg>
