<svg width="101" height="100" viewBox="0 0 101 100" fill="none" xmlns="http://www.w3.org/2000/svg">
<path d="M93.3493 61.3393V39.05C93.3493 37.3924 92.6908 35.8027 91.5187 34.6306C90.3466 33.4585 88.7569 32.8 87.0993 32.8C85.4417 32.8 83.852 33.4585 82.6799 34.6306C81.5078 35.8027 80.8493 37.3924 80.8493 39.05V49.9786C79.5824 49.2609 78.0902 49.0513 76.6746 49.3921C75.259 49.7329 74.0258 50.5987 73.2243 51.8143L66.8743 61.3571L65.5243 61.8321C62.1526 63.0387 59.3255 65.4144 57.5561 68.5278C55.7868 71.6412 55.1926 75.2858 55.8814 78.8L56.3743 81.2429C56.1374 81.3995 55.9422 81.6114 55.8053 81.8603C55.6684 82.1091 55.5941 82.3875 55.5886 82.6714V92.8571C55.5886 93.3307 55.7767 93.785 56.1116 94.1198C56.4465 94.4547 56.9007 94.6429 57.3743 94.6429H78.9493C79.4229 94.6429 79.8771 94.4547 80.212 94.1198C80.5469 93.785 80.735 93.3307 80.735 92.8571V82.6929C80.7315 82.2561 80.566 81.8361 80.2707 81.5143L93.035 62.3286C93.2354 62.0372 93.3448 61.6929 93.3493 61.3393ZM77.1778 91.0714H59.1743V84.4786H77.1778V91.0714ZM76.4243 80.8821V80.9071H59.9957L59.435 78.1071C58.9092 75.4375 59.359 72.6678 60.7026 70.3017C62.0462 67.9357 64.1944 66.1304 66.7564 65.2143L68.6671 64.5357C69.0319 64.4075 69.3452 64.1644 69.56 63.8429L76.235 53.8036C76.5628 53.3247 77.0646 52.9925 77.6335 52.8778C78.2024 52.7631 78.7936 52.8748 79.2814 53.1893C79.5282 53.3511 79.7398 53.561 79.9036 53.8065C80.0675 54.0519 80.1802 54.3279 80.235 54.6179C80.2927 54.9052 80.293 55.201 80.236 55.4885C80.179 55.7759 80.0658 56.0493 79.9029 56.2929L79.6993 56.6L77.6779 59.6357L72.2421 67.8036C72.112 67.9987 72.0215 68.2175 71.976 68.4476C71.9304 68.6776 71.9306 68.9144 71.9765 69.1444C72.0224 69.3744 72.1132 69.5931 72.2437 69.788C72.3741 69.9829 72.5417 70.1502 72.7368 70.2803C73.1308 70.5432 73.6131 70.6388 74.0776 70.546C74.3076 70.5001 74.5263 70.4093 74.7212 70.2788C74.9161 70.1484 75.0834 69.9808 75.2136 69.7857L81.7029 60.0393L82.8814 58.2536L84.1136 56.4C84.3089 56.107 84.4133 55.7628 84.4136 55.4107V39.0643C84.4119 38.5369 84.5667 38.0208 84.8586 37.5815C85.1504 37.1422 85.566 36.7993 86.0529 36.5964C86.4586 36.4255 86.9003 36.3577 87.3386 36.3989C87.777 36.4402 88.1983 36.5893 88.565 36.8329C88.9317 37.0766 89.2324 37.4072 89.4403 37.7953C89.6482 38.1834 89.7568 38.6169 89.7564 39.0571V60.8L76.4243 80.8821ZM45.5243 78.8107C46.2131 75.2965 45.6189 71.6519 43.8496 68.5385C42.0802 65.4251 39.2531 63.0494 35.8814 61.8429L34.5314 61.3679L28.21 51.825C27.4065 50.6065 26.1692 49.7397 24.7495 49.4007C23.3299 49.0618 21.8345 49.276 20.5671 50V39.0714C20.5671 38.2507 20.4055 37.4379 20.0914 36.6797C19.7773 35.9214 19.3169 35.2324 18.7366 34.652C18.1562 34.0716 17.4672 33.6113 16.7089 33.2972C15.9506 32.9831 15.1379 32.8214 14.3171 32.8214C13.4964 32.8214 12.6837 32.9831 11.9254 33.2972C11.1671 33.6113 10.4781 34.0716 9.89772 34.652C9.31736 35.2324 8.85698 35.9214 8.54289 36.6797C8.2288 37.4379 8.06714 38.2507 8.06714 39.0714V61.3571C8.06741 61.7093 8.17179 62.0535 8.36714 62.3464L21.1314 81.5321C20.8361 81.854 20.6707 82.2739 20.6671 82.7107V92.8571C20.6671 93.3307 20.8553 93.785 21.1902 94.1198C21.525 94.4547 21.9793 94.6429 22.4529 94.6429H44.0314C44.505 94.6429 44.9592 94.4547 45.2941 94.1198C45.629 93.785 45.8171 93.3307 45.8171 92.8571V82.6929C45.8116 82.4089 45.7373 82.1306 45.6004 81.8817C45.4635 81.6329 45.2683 81.421 45.0314 81.2643L45.5243 78.8107ZM11.6421 60.7964V39.0571C11.641 38.6157 11.7493 38.1808 11.9573 37.7914C12.1653 37.4021 12.4666 37.0703 12.8342 36.8259C13.2018 36.5814 13.6242 36.4318 14.0637 36.3905C14.5033 36.3493 14.9462 36.4175 15.3529 36.5893C15.8403 36.7927 16.2566 37.136 16.549 37.5759C16.8414 38.0158 16.9969 38.5325 16.9957 39.0607V55.4071C16.996 55.7593 17.1004 56.1035 17.2957 56.3964L26.1993 69.775C26.3294 69.9701 26.4967 70.1377 26.6916 70.2681C26.8865 70.3986 27.1052 70.4893 27.3352 70.5353C27.5652 70.5812 27.802 70.5814 28.0321 70.5358C28.2621 70.4902 28.481 70.3998 28.6761 70.2696C28.8712 70.1395 29.0387 69.9722 29.1692 69.7773C29.2996 69.5824 29.3904 69.3637 29.4363 69.1337C29.4823 68.9037 29.4825 68.6669 29.4369 68.4369C29.3913 68.2068 29.3009 67.988 29.1707 67.7929L23.7314 59.6429L21.5064 56.3C21.3401 56.0551 21.2243 55.7794 21.166 55.4892C21.1077 55.1989 21.108 54.8999 21.1669 54.6098C21.2258 54.3196 21.3421 54.0442 21.509 53.7996C21.6758 53.5551 21.8899 53.3464 22.1386 53.1857C22.6313 52.8619 23.2309 52.7428 23.81 52.8536C24.0992 52.9093 24.3744 53.022 24.6197 53.1851C24.8649 53.3482 25.0753 53.5584 25.2386 53.8036L31.9171 63.8429C32.1319 64.1644 32.4452 64.4075 32.81 64.5357L34.7243 65.2143C37.2857 66.1311 39.4331 67.9366 40.776 70.3026C42.1189 72.6686 42.5682 75.438 42.0421 78.1071L41.4814 80.9071H25.0529V80.8821L11.6421 60.7964ZM42.2457 91.0714H24.2421V84.4786H42.2457V91.0714ZM73.9243 32.9357V16.3857C73.9248 16.0378 73.8237 15.6973 73.6333 15.4061C73.443 15.1149 73.1717 14.8856 72.8529 14.7464L51.4243 5.50357C51.199 5.40524 50.9558 5.35449 50.71 5.35449C50.4642 5.35449 50.221 5.40524 49.9957 5.50357L28.5671 14.7464C28.2483 14.8856 27.977 15.1149 27.7867 15.4061C27.5963 15.6973 27.4952 16.0378 27.4957 16.3857V32.9357C27.4908 36.3033 28.2289 39.6305 29.6574 42.6802C31.0859 45.7298 33.1696 48.4267 35.76 50.5786L49.5671 62.0857C49.888 62.353 50.2924 62.4993 50.71 62.4993C51.1276 62.4993 51.532 62.353 51.8529 62.0857L65.66 50.5786C68.2504 48.4267 70.3341 45.7298 71.7626 42.6802C73.1911 39.6305 73.9292 36.3033 73.9243 32.9357ZM63.3707 47.8571L50.71 58.3929L38.0457 47.8571C35.8565 46.0365 34.0959 43.7552 32.8897 41.176C31.6834 38.5967 31.0611 35.7831 31.0671 32.9357V17.5786L50.71 9.08929L70.3529 17.5607V32.9357C70.3592 35.7835 69.7367 38.5975 68.5297 41.1769C67.3228 43.7563 65.5612 46.0373 63.3707 47.8571Z" fill="#162082"/>
<path d="M57.4958 23.7356L48.0315 33.1892L43.9243 29.0927C43.7583 28.9267 43.5612 28.795 43.3443 28.7052C43.1273 28.6153 42.8948 28.5691 42.66 28.5691C42.4252 28.5691 42.1927 28.6153 41.9758 28.7052C41.7589 28.795 41.5618 28.9267 41.3958 29.0927C41.2297 29.2588 41.098 29.4559 41.0082 29.6728C40.9183 29.8897 40.8721 30.1222 40.8721 30.357C40.8721 30.5918 40.9183 30.8243 41.0082 31.0413C41.098 31.2582 41.2297 31.4553 41.3958 31.6213L46.7529 36.9785C46.9188 37.1448 47.1158 37.2767 47.3328 37.3667C47.5497 37.4567 47.7823 37.5031 48.0172 37.5031C48.2521 37.5031 48.4846 37.4567 48.7016 37.3667C48.9185 37.2767 49.1156 37.1448 49.2815 36.9785L59.9958 26.2642C60.3311 25.9289 60.5194 25.4741 60.5194 24.9999C60.5194 24.5257 60.3311 24.0709 59.9958 23.7356C59.6604 23.4003 59.2057 23.2119 58.7315 23.2119C58.2573 23.2119 57.8025 23.4003 57.4672 23.7356H57.4958Z" fill="#FF1641"/>
</svg>
