<svg width="341" height="275" viewBox="0 0 341 275" fill="none" xmlns="http://www.w3.org/2000/svg">
<path d="M173.429 274.314C256.881 274.314 324.531 260.007 324.531 242.358C324.531 224.709 256.881 210.401 173.429 210.401C89.9781 210.401 22.3275 224.709 22.3275 242.358C22.3275 260.007 89.9781 274.314 173.429 274.314Z" fill="#FF1641"/>
<path opacity="0.3" d="M173.429 274.314C256.881 274.314 324.531 260.007 324.531 242.358C324.531 224.709 256.881 210.401 173.429 210.401C89.9781 210.401 22.3275 224.709 22.3275 242.358C22.3275 260.007 89.9781 274.314 173.429 274.314Z" fill="white"/>
<path d="M1.06283 28.2428C0.878753 27.5771 0.83681 26.88 0.939727 26.197C1.04265 25.514 1.28812 24.8603 1.66021 24.2783C2.03229 23.6964 2.52266 23.1993 3.09944 22.8192C3.67622 22.4392 4.32651 22.1848 5.00805 22.0725C9.13475 21.5123 14.2004 27.0514 15.8101 30.4048C15.9442 30.6967 17.5933 35.4783 17.5144 35.4783C17.4355 35.4783 10.2 35.6441 7.25683 34.3342C4.67666 33.2217 1.7493 31.0992 1.06283 28.2428ZM107.047 15.5077C106.44 18.3798 103.567 20.5812 101.058 21.7648C98.5492 22.9483 92.5919 23.1535 91.1322 23.1772C90.3431 24.1161 89.4988 25.134 88.5914 26.2702C87.0134 28.2902 85.2617 30.5863 83.5258 33.2059C83.0602 33.9082 82.5868 34.6735 82.1134 35.4152C83.1707 34.3342 84.6304 32.8745 84.7883 32.7483C87.6998 30.4364 94.675 27.6668 98.1389 29.9708C98.7041 30.3684 99.1794 30.8805 99.5337 31.4739C99.8879 32.0673 100.113 32.7285 100.195 33.4148C100.277 34.101 100.214 34.7967 100.009 35.4568C99.8041 36.1168 99.4627 36.7264 99.0068 37.2458C97.1368 39.5183 93.5782 40.1495 90.8008 40.039C88.0233 39.9286 82.4764 37.2853 81.2928 36.6935C80.2749 38.3426 79.265 40.0627 78.3181 41.9169C76.5552 45.2595 75.0949 48.7531 73.9547 52.356L74.1677 52.4586C75.012 51.346 76.8505 49.0499 77.0241 48.8842C79.6595 46.2567 86.2953 42.7454 89.9959 44.647C90.5945 44.9825 91.1165 45.4392 91.5285 45.9879C91.9406 46.5365 92.2335 47.1652 92.3887 47.8335C92.544 48.5019 92.558 49.1953 92.4299 49.8694C92.3019 50.5436 92.0345 51.1835 91.6451 51.7484C90.067 54.2181 86.5715 55.236 83.802 55.4254C80.6458 55.6542 74.0099 53.1608 73.7574 53.0582C72.7334 56.6675 71.9427 60.3388 71.3903 64.0496C70.9642 66.7955 70.6407 69.5729 70.3409 72.4056C70.9169 71.6165 73.3313 68.5945 73.497 68.3972C76.1325 65.7776 82.7683 62.2585 86.461 64.168C87.0669 64.5014 87.5958 64.9588 88.0131 65.5102C88.4305 66.0617 88.727 66.6949 88.8833 67.3686C89.0396 68.0423 89.0523 68.7413 88.9204 69.4202C88.7886 70.0991 88.5152 70.7426 88.118 71.3088C86.5399 73.7706 83.0445 74.7885 80.2749 74.9779C77.1582 75.1988 70.8064 72.8396 70.2856 72.6107C70.1515 73.889 70.0174 75.1593 69.8911 76.4455C69.4808 80.6195 69.1021 84.8173 68.5813 88.9439C68.3998 90.3721 68.1789 91.7766 67.958 93.1811C68.8575 92.0133 70.5302 89.9224 70.6959 89.7567C73.3313 87.137 79.9672 83.6179 83.6678 85.5274C84.2673 85.862 84.7902 86.3182 85.2029 86.8668C85.6156 87.4154 85.9091 88.0443 86.0644 88.713C86.2197 89.3818 86.2334 90.0756 86.1047 90.7499C85.9759 91.4243 85.7076 92.0643 85.3169 92.6288C83.7388 95.0906 80.2434 96.1085 77.4738 96.3057C74.7043 96.503 69.323 94.6329 67.8159 94.0806C67.4293 96.4478 67.0269 98.7281 66.4588 100.977C66.2063 101.947 66.0169 102.949 65.7171 103.865L64.928 106.619C64.2968 108.481 63.7208 110.209 63.0896 111.929C62.7739 112.797 62.4662 113.609 62.1506 114.454C62.8844 113.128 64.0838 111.061 64.21 110.879C66.4193 107.889 72.4397 103.415 76.3849 104.741C77.0346 104.977 77.627 105.348 78.1235 105.829C78.62 106.311 79.0094 106.891 79.2663 107.533C79.5232 108.175 79.6419 108.864 79.6144 109.555C79.587 110.245 79.4141 110.923 79.1071 111.542C77.892 114.225 74.6175 115.756 71.9032 116.363C68.9206 117.042 62.5136 115.74 61.7324 115.574C60.9434 117.634 60.1543 119.622 59.4126 121.476C57.0455 127.339 54.7967 132.136 53.195 135.474L52.9346 136.01H64.6045L60.5725 214.599C60.4621 217.505 59.2282 220.254 57.1307 222.267C55.0333 224.281 52.2361 225.401 49.3286 225.393C46.4493 225.395 43.6793 224.291 41.5911 222.308C39.5029 220.326 38.2561 217.617 38.1084 214.741L34.0764 136.152H46.6064C46.5433 135.608 46.4802 135.032 46.4092 134.385C45.991 130.755 45.3124 125.563 44.2235 119.393C43.9158 117.61 43.5607 115.724 43.1662 113.791C42.3772 113.893 35.8912 114.714 32.9639 113.791C30.3127 113.002 27.1565 111.203 26.1465 108.441C25.8877 107.801 25.7666 107.113 25.7911 106.422C25.8156 105.731 25.9852 105.054 26.2889 104.433C26.5925 103.812 27.0234 103.263 27.5535 102.819C28.0837 102.376 28.7012 102.049 29.3658 101.861C33.3978 100.827 39.0711 105.751 41.0516 108.891C41.1778 109.096 42.4008 111.645 43.0005 112.962C42.7638 111.795 42.535 110.635 42.2667 109.42C41.888 107.676 41.4777 105.845 41.0121 104.062C40.7596 103.147 40.4992 102.224 40.2231 101.292C39.9469 100.361 39.6313 99.4777 39.3393 98.5466C38.8817 97.2052 38.3373 95.8402 37.7613 94.4751C36.0096 94.9643 30.8335 96.2978 28.1744 95.9112C25.5153 95.5246 22.0356 94.2384 20.6232 91.6661C20.2692 91.0718 20.0444 90.4095 19.9635 89.7225C19.8825 89.0355 19.9473 88.3391 20.1535 87.6788C20.3597 87.0184 20.7028 86.409 21.1603 85.8901C21.6178 85.3712 22.1795 84.9546 22.8089 84.6673C26.6357 83.034 32.9875 87.0345 35.4336 89.8513C35.5125 89.9381 35.9701 90.5852 36.4988 91.3584C35.9307 90.0486 35.3705 88.7309 34.755 87.4132C33.0033 83.6889 31.1017 79.941 29.2317 76.1851C28.8372 75.3961 28.4426 74.607 28.0639 73.818C26.5884 74.2362 20.9625 75.7354 18.2088 75.3329C15.455 74.9305 12.07 73.6602 10.6576 71.08C10.3095 70.4859 10.0899 69.8254 10.0129 69.1411C9.93595 68.4568 10.0034 67.764 10.2108 67.1074C10.4183 66.4508 10.7612 65.845 11.2173 65.3292C11.6735 64.8134 12.2328 64.399 12.859 64.1127C16.6859 62.4873 23.0377 66.4799 25.4837 69.3046C25.5705 69.3993 26.115 70.1726 26.7068 71.0484C25.7126 68.989 24.742 66.9296 23.8425 64.8466C22.2891 61.2916 20.9712 57.6383 19.8973 53.9104C19.3844 54.0603 12.859 55.954 9.7581 55.4885C7.01222 55.094 3.62723 53.8157 2.21484 51.2434C1.86057 50.6496 1.63536 49.9878 1.55387 49.3011C1.47239 48.6144 1.53646 47.9183 1.7419 47.2581C1.94735 46.5978 2.28957 45.9882 2.74628 45.469C3.20299 44.9498 3.76394 44.5326 4.3926 44.2446C8.22735 42.6192 14.5792 46.6118 17.0173 49.4286C17.1909 49.6338 19.1162 52.4428 19.7711 53.4764C19.7676 53.4318 19.7676 53.3869 19.7711 53.3423C18.806 49.6529 18.1722 45.8847 17.8774 42.0826C17.5873 38.6901 17.4924 35.2837 17.5933 31.8803C17.6722 28.7241 17.9326 25.8362 18.1851 23.2876C18.335 21.9068 18.4928 20.6443 18.6585 19.4687L18.5875 19.516C18.5165 19.5633 17.1278 14.7028 17.0725 14.3872C16.4571 10.7182 17.4355 3.27748 21.1282 1.3601C21.7514 1.05976 22.4308 0.893896 23.1223 0.873284C23.8138 0.852671 24.5019 0.977769 25.1419 1.24046C25.7818 1.50315 26.3594 1.89754 26.837 2.39802C27.3146 2.8985 27.6815 3.49386 27.914 4.14543C28.9871 6.88341 27.8035 10.3 26.3359 12.675C24.8683 15.05 20.0236 18.4981 18.84 19.3266C18.698 20.5496 18.5559 21.8595 18.4297 23.2718C18.2324 25.8205 18.0352 28.7005 18.0273 31.8487C18.0273 32.693 18.0273 33.5925 18.0667 34.4684C18.3508 32.985 18.769 30.965 18.8558 30.7678C19.9999 27.2328 24.2923 21.0783 28.4584 21.0862C29.1495 21.1063 29.8286 21.2717 30.4514 21.5717C31.0743 21.8716 31.6271 22.2994 32.0737 22.8271C32.5203 23.3549 32.8507 23.9707 33.0435 24.6346C33.2363 25.2986 33.2872 25.9957 33.1927 26.6805C32.8929 29.6079 30.2653 32.0934 27.8903 33.5373C25.5153 34.9813 19.4002 35.8729 18.0904 36.0228C18.1535 37.9638 18.2561 39.968 18.4928 42.0195C18.8671 45.7781 19.5747 49.496 20.6074 53.1292H20.8442C20.9388 51.7326 21.2071 48.8053 21.2545 48.5607C22.0435 44.9232 25.5942 38.3031 29.7367 37.8849C30.4257 37.8293 31.1188 37.9194 31.7707 38.1493C32.4227 38.3792 33.0189 38.7439 33.5206 39.2195C34.0222 39.6951 34.4181 40.2711 34.6825 40.9098C34.9468 41.5486 35.0737 42.2359 35.0548 42.9269C35.0548 45.8622 32.7429 48.6317 30.5415 50.3203C28.0008 52.2692 21.1203 53.8315 20.8599 53.8867C21.9839 57.4698 23.3413 60.9754 24.9235 64.381C26.0834 66.906 27.3538 69.423 28.6557 71.9322C28.703 70.9459 29.0502 67.1032 29.1054 66.827C29.8945 63.1896 33.4452 56.5695 37.5877 56.1434C38.2765 56.089 38.969 56.18 39.6204 56.4104C40.2717 56.6407 40.8675 57.0055 41.3689 57.4808C41.8703 57.9562 42.2662 58.5316 42.531 59.1698C42.7957 59.808 42.9234 60.4947 42.9058 61.1854C42.9058 64.1285 40.586 66.8902 38.3846 68.5787C35.907 70.4803 29.3264 72.0111 28.7662 72.1373C29.3579 73.2735 29.9497 74.4177 30.5494 75.5539C32.5141 79.2703 34.4946 82.9788 36.3568 86.7031C36.9959 87.9971 37.5798 89.2911 38.1716 90.5852C38.2741 89.1096 38.5266 86.4427 38.5661 86.2139C39.3551 82.5764 42.9137 75.9563 47.0483 75.5302C47.7374 75.4746 48.4304 75.5646 49.0824 75.7946C49.7343 76.0245 50.3305 76.3892 50.8322 76.8648C51.3339 77.3404 51.7297 77.9164 51.9941 78.5551C52.2584 79.1939 52.3853 79.8811 52.3665 80.5722C52.3665 83.5153 50.0546 86.277 47.8531 87.9655C45.6517 89.6541 40.1284 91.0665 38.574 91.4452C39.5445 93.623 40.4756 95.7534 41.2646 97.9312C41.5881 98.878 41.9748 99.817 42.2351 100.74L43.0715 103.494C43.5686 105.395 44.042 107.155 44.4681 108.938C44.6891 109.838 44.8705 110.69 45.0757 111.558C44.9573 110.059 44.8153 107.668 44.8232 107.447C45.0205 103.739 47.5691 96.6766 51.5932 95.6114C52.2661 95.452 52.9651 95.4362 53.6446 95.565C54.324 95.6937 54.9687 95.9642 55.5367 96.3587C56.1047 96.7532 56.5832 97.263 56.941 97.8548C57.2989 98.4465 57.528 99.1071 57.6136 99.7933C57.6692 100.153 57.6929 100.518 57.6846 100.882C59.3049 103.72 60.1714 106.925 60.2017 110.193C60.2017 110.43 59.815 113.231 59.5862 114.659C60.036 113.554 60.4778 112.457 60.9197 111.305C61.5746 109.641 62.2058 107.865 62.8371 106.145L63.7208 103.407C64.0364 102.484 64.2258 101.569 64.5098 100.63C64.8728 99.2568 65.1726 97.8128 65.4725 96.3846C63.7445 95.8165 58.6867 94.0806 56.6825 92.2895C54.6783 90.4984 52.4927 87.5079 52.7373 84.5805C52.7712 83.8902 52.9497 83.2148 53.2615 82.5979C53.5732 81.9811 54.0111 81.4367 54.5467 80.9999C55.0824 80.5632 55.7039 80.244 56.3709 80.0629C57.0378 79.8818 57.7354 79.843 58.4184 79.9488C62.5135 80.7379 65.6066 87.5473 66.08 91.2322C66.08 91.3505 66.1195 92.1396 66.1353 93.0785C66.3878 91.674 66.6481 90.2616 66.8533 88.8256C67.453 84.7541 67.9264 80.5801 68.4314 76.406C68.534 75.5302 68.6523 74.6623 68.7549 73.7943C67.2952 73.3288 61.8034 71.4982 59.7046 69.6203C57.6057 67.7423 55.5147 64.8387 55.7593 61.9113C55.7908 61.2201 55.9677 60.5434 56.2787 59.9253C56.5896 59.3073 57.0276 58.7618 57.5638 58.3246C58.1001 57.8874 58.7225 57.5684 59.3906 57.3883C60.0586 57.2082 60.7571 57.1712 61.4405 57.2796C65.5356 58.0687 68.6208 64.8781 69.1021 68.563C69.1021 68.6892 69.1021 69.636 69.1573 70.6934C69.4571 68.4209 69.7885 66.1721 70.1909 63.9392C70.8456 60.0994 71.7604 56.3085 72.9289 52.5927C72.4082 52.4349 65.9301 50.415 63.5945 48.3319C61.5194 46.4776 59.3968 43.5503 59.6493 40.6229C59.6808 39.9318 59.8577 39.255 60.1687 38.6369C60.4796 38.0189 60.9175 37.4734 61.4538 37.0362C61.99 36.599 62.6125 36.28 63.2806 36.0999C63.9486 35.9198 64.6471 35.8828 65.3304 35.9912C69.4177 36.7803 72.5107 43.5897 72.9921 47.2745C72.9921 47.5349 73.0788 50.9436 73.0552 52.1666C73.0552 52.1193 73.0552 52.0719 73.0946 52.0325C74.3275 48.423 75.8774 44.9296 77.7263 41.5934C79.368 38.5986 81.1806 35.7007 83.1549 32.914C84.9618 30.318 86.7688 28.0613 88.3942 26.0729C89.2779 24.9998 90.1064 24.0372 90.8876 23.1456H90.8008C90.7219 23.1456 92.2447 18.3167 92.3789 18.0247C93.8938 14.6318 98.8096 8.95859 102.944 9.40046C103.633 9.4943 104.294 9.73287 104.884 10.1005C105.473 10.4681 105.979 10.9564 106.366 11.5333C106.754 12.1101 107.015 12.7625 107.132 13.4475C107.25 14.1326 107.221 14.8347 107.047 15.5077ZM59.3179 115.401C58.6078 115.061 53.1555 112.363 51.0251 110.051C49.1811 111.055 47.2788 111.948 45.3282 112.726C45.8095 114.872 46.2671 116.963 46.6538 118.928C47.8847 125.145 48.6816 130.369 49.1866 134.038C49.2892 134.827 49.3839 135.513 49.4628 136.152H49.7389L50.6542 134.377C52.3033 131.118 54.5994 126.416 57.1086 120.656C57.8345 118.999 58.5762 117.231 59.3179 115.401ZM81.1271 35.9439C81.1902 35.9439 82.4527 31.0913 82.5 30.7678C83.0129 27.0908 81.8372 19.6738 78.0893 17.859C77.4578 17.5759 76.7738 17.4289 76.0818 17.4276C75.3898 17.4262 74.7052 17.5705 74.0726 17.8511C73.4401 18.1317 72.8736 18.5422 72.4101 19.0561C71.9466 19.57 71.5965 20.1756 71.3824 20.8337C70.3803 23.5954 71.6586 26.9803 73.1656 29.308C74.9331 32.0776 81.1192 35.9439 81.1271 35.9439Z" fill="#FF1641"/>
<path opacity="0.3" d="M1.06283 28.2428C0.878753 27.5771 0.83681 26.88 0.939727 26.197C1.04265 25.514 1.28812 24.8603 1.66021 24.2783C2.03229 23.6964 2.52266 23.1993 3.09944 22.8192C3.67622 22.4392 4.32651 22.1848 5.00805 22.0725C9.13475 21.5123 14.2004 27.0514 15.8101 30.4048C15.9442 30.6967 17.5933 35.4783 17.5144 35.4783C17.4355 35.4783 10.2 35.6441 7.25683 34.3342C4.67666 33.2217 1.7493 31.0992 1.06283 28.2428ZM107.047 15.5077C106.44 18.3798 103.567 20.5812 101.058 21.7648C98.5492 22.9483 92.5919 23.1535 91.1322 23.1772C90.3431 24.1161 89.4988 25.134 88.5914 26.2702C87.0134 28.2902 85.2617 30.5863 83.5258 33.2059C83.0602 33.9082 82.5868 34.6735 82.1134 35.4152C83.1707 34.3342 84.6304 32.8745 84.7883 32.7483C87.6998 30.4364 94.675 27.6668 98.1389 29.9708C98.7041 30.3684 99.1794 30.8805 99.5337 31.4739C99.8879 32.0673 100.113 32.7285 100.195 33.4148C100.277 34.101 100.214 34.7967 100.009 35.4568C99.8041 36.1168 99.4627 36.7264 99.0068 37.2458C97.1368 39.5183 93.5782 40.1495 90.8008 40.039C88.0233 39.9286 82.4764 37.2853 81.2928 36.6935C80.2749 38.3426 79.265 40.0627 78.3181 41.9169C76.5552 45.2595 75.0949 48.7531 73.9547 52.356L74.1677 52.4586C75.012 51.346 76.8505 49.0499 77.0241 48.8842C79.6595 46.2567 86.2953 42.7454 89.9959 44.647C90.5945 44.9825 91.1165 45.4392 91.5285 45.9879C91.9406 46.5365 92.2335 47.1652 92.3887 47.8335C92.544 48.5019 92.558 49.1953 92.4299 49.8694C92.3019 50.5436 92.0345 51.1835 91.6451 51.7484C90.067 54.2181 86.5715 55.236 83.802 55.4254C80.6458 55.6542 74.0099 53.1608 73.7574 53.0582C72.7334 56.6675 71.9427 60.3388 71.3903 64.0496C70.9642 66.7955 70.6407 69.5729 70.3409 72.4056C70.9169 71.6165 73.3313 68.5945 73.497 68.3972C76.1325 65.7776 82.7683 62.2585 86.461 64.168C87.0669 64.5014 87.5958 64.9588 88.0131 65.5102C88.4305 66.0617 88.727 66.6949 88.8833 67.3686C89.0396 68.0423 89.0523 68.7413 88.9204 69.4202C88.7886 70.0991 88.5152 70.7426 88.118 71.3088C86.5399 73.7706 83.0445 74.7885 80.2749 74.9779C77.1582 75.1988 70.8064 72.8396 70.2856 72.6107C70.1515 73.889 70.0174 75.1593 69.8911 76.4455C69.4808 80.6195 69.1021 84.8173 68.5813 88.9439C68.3998 90.3721 68.1789 91.7766 67.958 93.1811C68.8575 92.0133 70.5302 89.9224 70.6959 89.7567C73.3313 87.137 79.9672 83.6179 83.6678 85.5274C84.2673 85.862 84.7902 86.3182 85.2029 86.8668C85.6156 87.4154 85.9091 88.0443 86.0644 88.713C86.2197 89.3818 86.2334 90.0756 86.1047 90.7499C85.9759 91.4243 85.7076 92.0643 85.3169 92.6288C83.7388 95.0906 80.2434 96.1085 77.4738 96.3057C74.7043 96.503 69.323 94.6329 67.8159 94.0806C67.4293 96.4478 67.0269 98.7281 66.4588 100.977C66.2063 101.947 66.0169 102.949 65.7171 103.865L64.928 106.619C64.2968 108.481 63.7208 110.209 63.0896 111.929C62.7739 112.797 62.4662 113.609 62.1506 114.454C62.8844 113.128 64.0838 111.061 64.21 110.879C66.4193 107.889 72.4397 103.415 76.3849 104.741C77.0346 104.977 77.627 105.348 78.1235 105.829C78.62 106.311 79.0094 106.891 79.2663 107.533C79.5232 108.175 79.6419 108.864 79.6144 109.555C79.587 110.245 79.4141 110.923 79.1071 111.542C77.892 114.225 74.6175 115.756 71.9032 116.363C68.9206 117.042 62.5136 115.74 61.7324 115.574C60.9434 117.634 60.1543 119.622 59.4126 121.476C57.0455 127.339 54.7967 132.136 53.195 135.474L52.9346 136.01H64.6045L60.5725 214.599C60.4621 217.505 59.2282 220.254 57.1307 222.267C55.0333 224.281 52.2361 225.401 49.3286 225.393C46.4493 225.395 43.6793 224.291 41.5911 222.308C39.5029 220.326 38.2561 217.617 38.1084 214.741L34.0764 136.152H46.6064C46.5433 135.608 46.4802 135.032 46.4092 134.385C45.991 130.755 45.3124 125.563 44.2235 119.393C43.9158 117.61 43.5607 115.724 43.1662 113.791C42.3772 113.893 35.8912 114.714 32.9639 113.791C30.3127 113.002 27.1565 111.203 26.1465 108.441C25.8877 107.801 25.7666 107.113 25.7911 106.422C25.8156 105.731 25.9852 105.054 26.2889 104.433C26.5925 103.812 27.0234 103.263 27.5535 102.819C28.0837 102.376 28.7012 102.049 29.3658 101.861C33.3978 100.827 39.0711 105.751 41.0516 108.891C41.1778 109.096 42.4008 111.645 43.0005 112.962C42.7638 111.795 42.535 110.635 42.2667 109.42C41.888 107.676 41.4777 105.845 41.0121 104.062C40.7596 103.147 40.4992 102.224 40.2231 101.292C39.9469 100.361 39.6313 99.4777 39.3393 98.5466C38.8817 97.2052 38.3373 95.8402 37.7613 94.4751C36.0096 94.9643 30.8335 96.2978 28.1744 95.9112C25.5153 95.5246 22.0356 94.2384 20.6232 91.6661C20.2692 91.0718 20.0444 90.4095 19.9635 89.7225C19.8825 89.0355 19.9473 88.3391 20.1535 87.6788C20.3597 87.0184 20.7028 86.409 21.1603 85.8901C21.6178 85.3712 22.1795 84.9546 22.8089 84.6673C26.6357 83.034 32.9875 87.0345 35.4336 89.8513C35.5125 89.9381 35.9701 90.5852 36.4988 91.3584C35.9307 90.0486 35.3705 88.7309 34.755 87.4132C33.0033 83.6889 31.1017 79.941 29.2317 76.1851C28.8372 75.3961 28.4426 74.607 28.0639 73.818C26.5884 74.2362 20.9625 75.7354 18.2088 75.3329C15.455 74.9305 12.07 73.6602 10.6576 71.08C10.3095 70.4859 10.0899 69.8254 10.0129 69.1411C9.93595 68.4568 10.0034 67.764 10.2108 67.1074C10.4183 66.4508 10.7612 65.845 11.2173 65.3292C11.6735 64.8134 12.2328 64.399 12.859 64.1127C16.6859 62.4873 23.0377 66.4799 25.4837 69.3046C25.5705 69.3993 26.115 70.1726 26.7068 71.0484C25.7126 68.989 24.742 66.9296 23.8425 64.8466C22.2891 61.2916 20.9712 57.6383 19.8973 53.9104C19.3844 54.0603 12.859 55.954 9.7581 55.4885C7.01222 55.094 3.62723 53.8157 2.21484 51.2434C1.86057 50.6496 1.63536 49.9878 1.55387 49.3011C1.47239 48.6144 1.53646 47.9183 1.7419 47.2581C1.94735 46.5978 2.28957 45.9882 2.74628 45.469C3.20299 44.9498 3.76394 44.5326 4.3926 44.2446C8.22735 42.6192 14.5792 46.6118 17.0173 49.4286C17.1909 49.6338 19.1162 52.4428 19.7711 53.4764C19.7676 53.4318 19.7676 53.3869 19.7711 53.3423C18.806 49.6529 18.1722 45.8847 17.8774 42.0826C17.5873 38.6901 17.4924 35.2837 17.5933 31.8803C17.6722 28.7241 17.9326 25.8362 18.1851 23.2876C18.335 21.9068 18.4928 20.6443 18.6585 19.4687L18.5875 19.516C18.5165 19.5633 17.1278 14.7028 17.0725 14.3872C16.4571 10.7182 17.4355 3.27748 21.1282 1.3601C21.7514 1.05976 22.4308 0.893896 23.1223 0.873284C23.8138 0.852671 24.5019 0.977769 25.1419 1.24046C25.7818 1.50315 26.3594 1.89754 26.837 2.39802C27.3146 2.8985 27.6815 3.49386 27.914 4.14543C28.9871 6.88341 27.8035 10.3 26.3359 12.675C24.8683 15.05 20.0236 18.4981 18.84 19.3266C18.698 20.5496 18.5559 21.8595 18.4297 23.2718C18.2324 25.8205 18.0352 28.7005 18.0273 31.8487C18.0273 32.693 18.0273 33.5925 18.0667 34.4684C18.3508 32.985 18.769 30.965 18.8558 30.7678C19.9999 27.2328 24.2923 21.0783 28.4584 21.0862C29.1495 21.1063 29.8286 21.2717 30.4514 21.5717C31.0743 21.8716 31.6271 22.2994 32.0737 22.8271C32.5203 23.3549 32.8507 23.9707 33.0435 24.6346C33.2363 25.2986 33.2872 25.9957 33.1927 26.6805C32.8929 29.6079 30.2653 32.0934 27.8903 33.5373C25.5153 34.9813 19.4002 35.8729 18.0904 36.0228C18.1535 37.9638 18.2561 39.968 18.4928 42.0195C18.8671 45.7781 19.5747 49.496 20.6074 53.1292H20.8442C20.9388 51.7326 21.2071 48.8053 21.2545 48.5607C22.0435 44.9232 25.5942 38.3031 29.7367 37.8849C30.4257 37.8293 31.1188 37.9194 31.7707 38.1493C32.4227 38.3792 33.0189 38.7439 33.5206 39.2195C34.0222 39.6951 34.4181 40.2711 34.6825 40.9098C34.9468 41.5486 35.0737 42.2359 35.0548 42.9269C35.0548 45.8622 32.7429 48.6317 30.5415 50.3203C28.0008 52.2692 21.1203 53.8315 20.8599 53.8867C21.9839 57.4698 23.3413 60.9754 24.9235 64.381C26.0834 66.906 27.3538 69.423 28.6557 71.9322C28.703 70.9459 29.0502 67.1032 29.1054 66.827C29.8945 63.1896 33.4452 56.5695 37.5877 56.1434C38.2765 56.089 38.969 56.18 39.6204 56.4104C40.2717 56.6407 40.8675 57.0055 41.3689 57.4808C41.8703 57.9562 42.2662 58.5316 42.531 59.1698C42.7957 59.808 42.9234 60.4947 42.9058 61.1854C42.9058 64.1285 40.586 66.8902 38.3846 68.5787C35.907 70.4803 29.3264 72.0111 28.7662 72.1373C29.3579 73.2735 29.9497 74.4177 30.5494 75.5539C32.5141 79.2703 34.4946 82.9788 36.3568 86.7031C36.9959 87.9971 37.5798 89.2911 38.1716 90.5852C38.2741 89.1096 38.5266 86.4427 38.5661 86.2139C39.3551 82.5764 42.9137 75.9563 47.0483 75.5302C47.7374 75.4746 48.4304 75.5646 49.0824 75.7946C49.7343 76.0245 50.3305 76.3892 50.8322 76.8648C51.3339 77.3404 51.7297 77.9164 51.9941 78.5551C52.2584 79.1939 52.3853 79.8811 52.3665 80.5722C52.3665 83.5153 50.0546 86.277 47.8531 87.9655C45.6517 89.6541 40.1284 91.0665 38.574 91.4452C39.5445 93.623 40.4756 95.7534 41.2646 97.9312C41.5881 98.878 41.9748 99.817 42.2351 100.74L43.0715 103.494C43.5686 105.395 44.042 107.155 44.4681 108.938C44.6891 109.838 44.8705 110.69 45.0757 111.558C44.9573 110.059 44.8153 107.668 44.8232 107.447C45.0205 103.739 47.5691 96.6766 51.5932 95.6114C52.2661 95.452 52.9651 95.4362 53.6446 95.565C54.324 95.6937 54.9687 95.9642 55.5367 96.3587C56.1047 96.7532 56.5832 97.263 56.941 97.8548C57.2989 98.4465 57.528 99.1071 57.6136 99.7933C57.6692 100.153 57.6929 100.518 57.6846 100.882C59.3049 103.72 60.1714 106.925 60.2017 110.193C60.2017 110.43 59.815 113.231 59.5862 114.659C60.036 113.554 60.4778 112.457 60.9197 111.305C61.5746 109.641 62.2058 107.865 62.8371 106.145L63.7208 103.407C64.0364 102.484 64.2258 101.569 64.5098 100.63C64.8728 99.2568 65.1726 97.8128 65.4725 96.3846C63.7445 95.8165 58.6867 94.0806 56.6825 92.2895C54.6783 90.4984 52.4927 87.5079 52.7373 84.5805C52.7712 83.8902 52.9497 83.2148 53.2615 82.5979C53.5732 81.9811 54.0111 81.4367 54.5467 80.9999C55.0824 80.5632 55.7039 80.244 56.3709 80.0629C57.0378 79.8818 57.7354 79.843 58.4184 79.9488C62.5135 80.7379 65.6066 87.5473 66.08 91.2322C66.08 91.3505 66.1195 92.1396 66.1353 93.0785C66.3878 91.674 66.6481 90.2616 66.8533 88.8256C67.453 84.7541 67.9264 80.5801 68.4314 76.406C68.534 75.5302 68.6523 74.6623 68.7549 73.7943C67.2952 73.3288 61.8034 71.4982 59.7046 69.6203C57.6057 67.7423 55.5147 64.8387 55.7593 61.9113C55.7908 61.2201 55.9677 60.5434 56.2787 59.9253C56.5896 59.3073 57.0276 58.7618 57.5638 58.3246C58.1001 57.8874 58.7225 57.5684 59.3906 57.3883C60.0586 57.2082 60.7571 57.1712 61.4405 57.2796C65.5356 58.0687 68.6208 64.8781 69.1021 68.563C69.1021 68.6892 69.1021 69.636 69.1573 70.6934C69.4571 68.4209 69.7885 66.1721 70.1909 63.9392C70.8456 60.0994 71.7604 56.3085 72.9289 52.5927C72.4082 52.4349 65.9301 50.415 63.5945 48.3319C61.5194 46.4776 59.3968 43.5503 59.6493 40.6229C59.6808 39.9318 59.8577 39.255 60.1687 38.6369C60.4796 38.0189 60.9175 37.4734 61.4538 37.0362C61.99 36.599 62.6125 36.28 63.2806 36.0999C63.9486 35.9198 64.6471 35.8828 65.3304 35.9912C69.4177 36.7803 72.5107 43.5897 72.9921 47.2745C72.9921 47.5349 73.0788 50.9436 73.0552 52.1666C73.0552 52.1193 73.0552 52.0719 73.0946 52.0325C74.3275 48.423 75.8774 44.9296 77.7263 41.5934C79.368 38.5986 81.1806 35.7007 83.1549 32.914C84.9618 30.318 86.7688 28.0613 88.3942 26.0729C89.2779 24.9998 90.1064 24.0372 90.8876 23.1456H90.8008C90.7219 23.1456 92.2447 18.3167 92.3789 18.0247C93.8938 14.6318 98.8096 8.95859 102.944 9.40046C103.633 9.4943 104.294 9.73287 104.884 10.1005C105.473 10.4681 105.979 10.9564 106.366 11.5333C106.754 12.1101 107.015 12.7625 107.132 13.4475C107.25 14.1326 107.221 14.8347 107.047 15.5077ZM59.3179 115.401C58.6078 115.061 53.1555 112.363 51.0251 110.051C49.1811 111.055 47.2788 111.948 45.3282 112.726C45.8095 114.872 46.2671 116.963 46.6538 118.928C47.8847 125.145 48.6816 130.369 49.1866 134.038C49.2892 134.827 49.3839 135.513 49.4628 136.152H49.7389L50.6542 134.377C52.3033 131.118 54.5994 126.416 57.1086 120.656C57.8345 118.999 58.5762 117.231 59.3179 115.401ZM81.1271 35.9439C81.1902 35.9439 82.4527 31.0913 82.5 30.7678C83.0129 27.0908 81.8372 19.6738 78.0893 17.859C77.4578 17.5759 76.7738 17.4289 76.0818 17.4276C75.3898 17.4262 74.7052 17.5705 74.0726 17.8511C73.4401 18.1317 72.8736 18.5422 72.4101 19.0561C71.9466 19.57 71.5965 20.1756 71.3824 20.8337C70.3803 23.5954 71.6586 26.9803 73.1656 29.308C74.9331 32.0776 81.1192 35.9439 81.1271 35.9439Z" fill="white"/>
<path d="M304.497 63.8444C304.497 63.8444 296.78 69.7465 295.715 74.2914C294.65 78.8362 296.023 83.6731 296.93 86.5531C297.838 89.4331 297.988 103.36 289.513 109.562C281.039 115.763 277.252 121.973 278.159 129.698C279.066 137.423 290.571 145.897 300.11 147.846C309.65 149.795 323.119 145.424 328.413 134.069C333.708 122.715 326.598 110.193 322.661 103.091C318.724 95.9901 319.031 89.3148 323.45 89.0149C327.869 88.7151 330.11 89.804 330.267 83.5626C330.425 77.3213 328.902 67.6713 320.878 62.8266C312.853 57.9818 304.497 63.8444 304.497 63.8444Z" fill="#2E353A" stroke="#2E353A" stroke-linecap="round" stroke-linejoin="round"/>
<path d="M285.497 139.987C286.286 140.516 293.388 143.412 298.643 135.253C303.898 127.094 296.741 119.575 298.122 112.371" stroke="white" stroke-width="0.5" stroke-miterlimit="10"/>
<path d="M313.129 73.234C313.129 73.234 310.668 65.2804 316.001 67.8606C321.722 70.6223 326.259 83.6415 324.286 86.6004" stroke="white" stroke-width="0.5" stroke-miterlimit="10"/>
<path d="M311.662 72.2003C311.662 72.2003 308.703 66.4798 310.676 63.9154C312.648 61.351 317.185 64.3099 319.552 66.0853" stroke="white" stroke-width="0.5" stroke-miterlimit="10"/>
<path d="M318.369 87.784C318.369 87.784 319.158 91.3347 316.791 98.4361C314.423 105.537 310.084 113.625 314.423 121.121C318.763 128.617 322.117 133.746 317.185 141.242" stroke="white" stroke-width="0.5" stroke-miterlimit="10"/>
<path d="M318.369 91.9265C318.54 96.5513 318.21 101.181 317.382 105.735C316.002 113.625 320.341 118.754 324.878 123.685C329.415 128.617 328.232 132.759 326.654 137.296" stroke="white" stroke-width="0.5" stroke-miterlimit="10"/>
<path d="M311.465 73.384C311.465 73.384 302.193 74.173 299.432 72.9895C296.67 71.8059 297.262 70.8196 297.262 70.8196" stroke="white" stroke-width="0.5" stroke-miterlimit="10"/>
<path d="M312.695 104.898C312.695 104.898 313.903 117.16 315.449 124.254C316.996 131.347 319.457 140.303 318.842 142.772C318.227 145.242 304.639 166.223 304.639 166.223L300.631 163.445L308.963 138.448L301.949 115.014C301.949 115.014 308.371 105.601 312.695 104.898Z" fill="white" stroke="#2E353A" stroke-linecap="round" stroke-linejoin="round"/>
<path d="M311.615 102.902C309.642 100.63 305.405 94.7276 305.405 94.7276L298.745 86.8371L289.513 74.1256C288.298 72.4608 284.211 73.0604 272.407 73.2182C260.603 73.3761 224.772 66.5587 224.772 66.5587L223.565 74.4492C223.565 74.4492 256.358 81.5505 264.682 82.3396C273.007 83.1286 280.731 84.1544 280.731 84.1544C279.594 86.4194 278.583 88.7454 277.701 91.1216C276.794 93.8438 266.197 108.378 266.197 108.378C266.197 108.378 265.937 108.536 265.487 108.836C265.369 111.471 265.621 117.065 269.559 120.016C272.604 122.297 277.062 123.259 280.282 123.662C280.337 123.48 280.384 123.323 280.424 123.212C280.881 121.997 284.211 120.182 286.026 120.056C287.841 119.93 293.443 120.206 296.781 119.906C300.118 119.606 301.925 115.061 301.925 115.061C301.925 115.061 309.279 107.881 312.664 104.946C312.454 104.201 312.097 103.506 311.615 102.902Z" fill="white" stroke="#2E353A" stroke-linecap="round" stroke-linejoin="round"/>
<path d="M284.921 85.985L280.731 84.1307L283.777 88.9755" stroke="#2E353A" stroke-width="0.75" stroke-linecap="round" stroke-linejoin="round"/>
<path d="M274.356 113.554C277.509 115.511 281.24 116.321 284.921 115.85" stroke="#2E353A" stroke-width="0.75" stroke-linecap="round" stroke-linejoin="round"/>
<path d="M270.876 108.039C270.876 108.039 271.563 110.8 275.934 112.639" stroke="#2E353A" stroke-width="0.75" stroke-linecap="round" stroke-linejoin="round"/>
<path d="M308.94 138.448C308.94 138.448 311.804 137.218 314.1 140.437" stroke="#2E353A" stroke-width="0.75" stroke-linecap="round" stroke-linejoin="round"/>
<path d="M309.737 117.002L301.925 115.014L308.813 120.45" stroke="#2E353A" stroke-width="0.75" stroke-linecap="round" stroke-linejoin="round"/>
<path d="M288.369 77.053C288.369 77.053 284.464 83.9413 279.871 83.7125C273.63 83.3969 255.971 78.1892 255.971 76.3586C255.971 74.528 260.8 73.8337 260.8 73.8337" stroke="#2E353A" stroke-width="0.75" stroke-linecap="round" stroke-linejoin="round"/>
<path d="M301.925 82.7656C301.925 82.7656 298.769 81.9766 296.473 83.3732C294.177 84.7698 288.148 97.9074 288.148 97.9074C288.148 97.9074 288.598 98.515 290.421 98.515C292.243 98.515 292.693 100.937 292.693 103.202C292.693 105.466 292.535 106.532 293.293 106.358C294.05 106.184 298.595 104.543 299.503 105.151C300.41 105.758 298.288 108.78 298.714 109.096C299.14 109.412 302.951 105.608 304.166 101.521C305.381 97.434 306.588 91.382 306.281 88.9596C305.973 86.5373 304.016 83.3653 301.925 82.7656Z" fill="#FF1641" stroke="#2E353A" stroke-linecap="round" stroke-linejoin="round"/>
<path d="M304.497 95.3351C302.83 97.195 301.063 98.9625 299.203 100.63C295.715 103.786 292.843 106.082 292.993 104.575C293.143 103.068 296.623 94.8853 297.53 90.372C298.437 85.8587 300.11 82.7972 301.925 82.7972C303.74 82.7972 307.677 92.0448 304.497 95.3351Z" fill="white" stroke="#2E353A" stroke-linecap="round" stroke-linejoin="round"/>
<path d="M302.682 75.8063C302.803 76.1748 303.001 76.5137 303.262 76.8006C303.523 77.0875 303.842 77.316 304.197 77.4712C305.255 77.771 313.129 73.234 313.129 73.234C313.129 73.234 318.732 85.188 317.816 87.0028C316.901 88.8176 314.187 91.098 311.157 93.2126C308.127 95.3272 302.533 97 300.41 95.7849C298.287 94.5698 299.802 82.166 299.802 82.166C299.802 82.166 298.138 80.1934 299.952 77.0135C301.767 73.8337 302.682 75.8063 302.682 75.8063Z" fill="white" stroke="#2E353A" stroke-linecap="round" stroke-linejoin="round"/>
<path d="M315.363 88.1548C315.363 88.1548 315.497 87.2159 313.745 87.2159C311.993 87.2159 308.916 90.4352 308.916 90.4352" stroke="#2E353A" stroke-width="0.75" stroke-linecap="round" stroke-linejoin="round"/>
<path d="M307.709 90.7034L306.77 89.7645" stroke="#2E353A" stroke-width="0.75" stroke-linecap="round" stroke-linejoin="round"/>
<path d="M306.383 92.4551C306.383 92.4551 303.969 92.0527 303.566 88.9597" stroke="#2E353A" stroke-width="0.75" stroke-linecap="round" stroke-linejoin="round"/>
<path d="M311.97 83.2786C311.97 83.2786 311.37 80.3354 308.813 79.7673" stroke="#2E353A" stroke-width="0.75" stroke-linecap="round" stroke-linejoin="round"/>
<path d="M308.932 84.8566C308.316 85.3379 307.638 85.4957 307.409 85.2038C307.18 84.9119 307.488 84.2885 308.095 83.8072C308.703 83.3259 309.389 83.1681 309.618 83.46C309.847 83.752 309.539 84.3753 308.932 84.8566Z" fill="#2E353A"/>
<path d="M312.735 89.8276C312.23 90.2221 311.67 90.3563 311.48 90.1117C311.291 89.867 311.543 89.3226 312.048 88.9518C312.553 88.5809 313.114 88.431 313.303 88.6677C313.492 88.9044 313.24 89.4252 312.735 89.8276Z" fill="#2E353A"/>
<path d="M298.003 218.663L305.744 229.417C305.744 229.417 305.744 231.39 302.982 231.39C300.221 231.39 298.643 231.39 297.064 229.417C295.486 227.445 295.486 226.261 293.908 225.472C292.33 224.683 290.752 224.683 291.541 220.343C292.33 216.004 298.003 218.663 298.003 218.663Z" fill="white" stroke="#2E353A" stroke-linecap="round" stroke-linejoin="round"/>
<path d="M305.712 229.662C304.486 230.251 303.111 230.454 301.767 230.246C298.974 229.741 297.277 226.948 296.244 225.748C295.21 224.549 293.948 224.557 292.756 223.555C292.189 223.07 291.695 222.507 291.289 221.882C291.123 224.691 292.488 224.786 293.845 225.472C295.423 226.261 295.423 227.445 297.001 229.417C298.579 231.39 300.157 231.39 302.919 231.39C305.136 231.39 305.594 230.191 305.712 229.662Z" fill="white" stroke="#2E353A" stroke-linecap="round" stroke-linejoin="round"/>
<path d="M297.562 217.298C295.984 212.563 293.735 184.221 292.567 175.249C290.2 157.007 279.674 133.328 279.674 133.328L280.282 123.638C277.062 123.236 272.604 122.273 269.559 119.993C265.613 117.042 265.369 111.447 265.487 108.812C263.491 110.098 257.597 113.972 252.57 118.044C246.369 123.038 242.123 140.753 240.916 146.347C239.709 151.941 238.344 168.44 238.344 168.44C238.344 168.44 227.439 172.677 223.052 178.698C218.665 184.718 205.338 198.376 205.338 198.376L206.553 202.921C206.553 202.921 210.641 200.049 214.12 197.319C217.6 194.589 244.704 179.455 246.518 178.382C248.333 177.309 250.464 175.226 252.878 169.15C253.762 166.933 255.009 163.303 256.239 159.587L260.445 146.489L264.493 143.041C268.485 153.835 277.765 174.642 279.082 177.617C280.66 181.183 281.86 197.043 286.223 206.961C290.587 216.879 291.746 221.637 291.746 221.637C291.746 221.637 299.148 222.056 297.562 217.298Z" fill="#2E353A" stroke="#2E353A" stroke-linecap="round" stroke-linejoin="round"/>
<path d="M280.021 125.508L281.528 134.306" stroke="white" stroke-width="0.5" stroke-miterlimit="10"/>
<path d="M66.6558 57.5557L43.8683 251.108C43.8374 251.387 43.8853 251.669 44.0066 251.921C44.1278 252.174 44.3176 252.388 44.5543 252.539C44.791 252.689 45.0651 252.77 45.3456 252.772C45.626 252.775 45.9015 252.698 46.1407 252.552L60.7853 243.541C61.6546 243.002 62.699 242.822 63.6985 243.039C64.698 243.255 65.5744 243.851 66.143 244.701L84.5435 272.057L92.2208 156.983L66.6558 57.5557Z" fill="#FF1641" stroke="#2E353A" stroke-linecap="round" stroke-linejoin="round"/>
<path d="M66.5138 62.4241L45.9198 246.271C45.8753 246.668 45.9475 247.069 46.1277 247.426C46.3079 247.782 46.5882 248.078 46.9342 248.277C47.2802 248.477 47.6768 248.571 48.0755 248.548C48.4741 248.525 48.8575 248.387 49.1785 248.149L59.8858 240.259C60.4427 239.847 61.0777 239.553 61.7521 239.395C62.4265 239.237 63.126 239.219 63.8078 239.341C64.4896 239.463 65.1393 239.722 65.7172 240.104C66.2951 240.486 66.789 240.981 67.1687 241.561L79.6987 260.687C79.8345 260.9 80.0375 261.061 80.2754 261.144C80.5133 261.228 80.7724 261.229 81.0112 261.148C81.2501 261.068 81.455 260.909 81.5932 260.698C81.7315 260.487 81.7951 260.236 81.7739 259.985L67.145 62.432C67.1298 62.3601 67.0906 62.2956 67.0338 62.249C66.977 62.2023 66.906 62.1764 66.8326 62.1755C66.7591 62.1746 66.6875 62.1987 66.6296 62.2439C66.5716 62.2891 66.5308 62.3527 66.5138 62.4241Z" fill="#FF1641" stroke="#2E353A" stroke-linecap="round" stroke-linejoin="round"/>
<path opacity="0.6" d="M66.7979 59.7571L45.904 246.256C45.8595 246.652 45.9318 247.054 46.112 247.41C46.2922 247.766 46.5725 248.062 46.9184 248.262C47.2644 248.461 47.6611 248.555 48.0597 248.532C48.4584 248.51 48.8417 248.371 49.1628 248.133L59.8701 240.243C60.4269 239.831 61.062 239.537 61.7364 239.379C62.4107 239.222 63.1102 239.203 63.792 239.325C64.4738 239.447 65.1236 239.706 65.7015 240.088C66.2794 240.47 66.7733 240.966 67.153 241.545L79.683 260.671C79.8187 260.884 80.0218 261.045 80.2597 261.128C80.4976 261.212 80.7566 261.213 80.9955 261.133C81.2344 261.052 81.4393 260.893 81.5775 260.682C81.7157 260.471 81.7793 260.22 81.7582 259.969L66.9478 59.7571C66.9426 59.7414 66.9326 59.7276 66.9191 59.7179C66.9057 59.7081 66.8895 59.7029 66.8729 59.7029C66.8562 59.7029 66.84 59.7081 66.8266 59.7179C66.8131 59.7276 66.8031 59.7414 66.7979 59.7571Z" fill="#232323"/>
<path d="M62.9868 239.233C63.8157 239.247 64.6286 239.464 65.3546 239.864C66.0807 240.265 66.698 240.836 67.1529 241.529L79.6829 260.656C79.8187 260.868 80.0217 261.029 80.2596 261.113C80.4975 261.196 80.7566 261.198 80.9955 261.117C81.2343 261.036 81.4392 260.877 81.5775 260.667C81.7157 260.456 81.7793 260.205 81.7581 259.953L79.967 235.777L62.7185 239.154C62.8102 239.172 62.9 239.198 62.9868 239.233Z" fill="#FF1641" stroke="#2E353A" stroke-linecap="round" stroke-linejoin="round"/>
<path opacity="0.3" d="M62.9868 239.233C63.8157 239.247 64.6286 239.464 65.3546 239.864C66.0807 240.265 66.698 240.836 67.1529 241.529L79.6829 260.656C79.8187 260.868 80.0217 261.029 80.2596 261.113C80.4975 261.196 80.7566 261.198 80.9955 261.117C81.2343 261.036 81.4392 260.877 81.5775 260.667C81.7157 260.456 81.7793 260.205 81.7581 259.953L79.967 235.777L62.7185 239.154C62.8102 239.172 62.9 239.198 62.9868 239.233Z" fill="#232323"/>
<path d="M67.1213 57.4374L84.5355 272.057L287.596 233.363L239.875 65.9827L67.1213 57.4374Z" fill="#2E353A" stroke="#2E353A" stroke-linecap="round" stroke-linejoin="round"/>
<path d="M76.5348 62.069L88.4967 260.711L279.445 225.993L239.196 71.6638L76.5348 62.069Z" fill="#FF1641" stroke="#2E353A" stroke-linecap="round" stroke-linejoin="round"/>
<path d="M88.2047 159.824L97.2866 253.98L270.782 222.434L254.661 151.665L88.2047 159.824Z" fill="white" stroke="#2E353A" stroke-linecap="round" stroke-linejoin="round"/>
<path d="M121.692 249.293L118.812 219.049" stroke="#2E353A" stroke-linecap="round" stroke-linejoin="round"/>
<path d="M148.243 244.614L145.466 219.404" stroke="#2E353A" stroke-linecap="round" stroke-linejoin="round"/>
<path d="M174.274 239.572L171.031 219.404" stroke="#2E353A" stroke-linecap="round" stroke-linejoin="round"/>
<path d="M201.093 234.972L197.235 210.93" stroke="#2E353A" stroke-linecap="round" stroke-linejoin="round"/>
<path d="M224.717 230.711L221.427 207.245" stroke="#2E353A" stroke-linecap="round" stroke-linejoin="round"/>
<path d="M247.37 226.521L242.47 198.305" stroke="#2E353A" stroke-linecap="round" stroke-linejoin="round"/>
<path d="M300.607 163.445C300.607 163.445 298.193 165.876 298.035 167.138C297.877 168.401 299.14 172.204 299.14 172.204L302.943 172.835L304.616 166.223L300.607 163.445Z" fill="white" stroke="#2E353A" stroke-linecap="round" stroke-linejoin="round"/>
<g style="mix-blend-mode:multiply" opacity="0.49">
<path d="M77.4973 116.947C77.4973 116.947 81.5057 174.634 85.1905 195.67C88.8753 216.706 95.7084 248.189 95.7084 248.189C95.7084 248.189 214.065 229.867 272.454 205.138L267.72 182.524L77.4973 116.947Z" fill="#FF1641"/>
</g>
<path d="M72.1476 59.9071L238.375 68.8627C238.375 68.8627 254.559 117.349 270.663 144.729C286.767 172.109 313.327 170.326 313.327 170.326C313.327 170.326 252.413 203.631 204.967 221.361C155.589 239.801 112.768 243.115 112.768 243.115C112.768 243.115 73.7651 189.839 72.1476 59.9071Z" fill="#FF1641" stroke="#2E353A" stroke-linecap="round" stroke-linejoin="round"/>
<path d="M91.1793 51.2749C88.0942 51.2749 85.8612 54.0129 85.1589 58.3053L88.3151 58.4789C88.8043 56.0013 89.7748 54.4311 91.1714 54.4311C92.7969 54.4311 94.6038 57.0428 94.6038 60.7987C94.6038 64.5545 92.7969 67.1741 91.1714 67.1741C90.7529 67.1741 90.3515 67.3404 90.0556 67.6363C89.7596 67.9323 89.5934 68.3337 89.5934 68.7522C89.5934 69.1707 89.7596 69.5721 90.0556 69.8681C90.3515 70.164 90.7529 70.3303 91.1714 70.3303C94.8642 70.3303 97.76 66.1405 97.76 60.7987C97.76 55.4568 94.8721 51.2749 91.1793 51.2749Z" fill="white" stroke="#2E353A" stroke-miterlimit="10"/>
<path d="M95.7084 63.3552C95.5573 63.9116 95.362 64.4552 95.1245 64.9806" stroke="#2E353A" stroke-width="0.75" stroke-linecap="round" stroke-linejoin="round"/>
<path d="M86.7212 56.885C86.7212 56.885 87.9048 52.6084 91.4002 52.8451C94.1461 53.0345 96.4106 57.1138 96.0319 61.4772" stroke="#2E353A" stroke-width="0.75" stroke-linecap="round" stroke-linejoin="round"/>
<path d="M118.591 52.6558C115.506 52.6558 113.273 55.3937 112.57 59.6861L115.726 59.8597C116.216 57.3821 117.186 55.8119 118.583 55.8119C120.208 55.8119 122.015 58.4237 122.015 62.1795C122.015 65.9354 120.208 68.555 118.583 68.555C118.164 68.555 117.763 68.7212 117.467 69.0172C117.171 69.3131 117.005 69.7145 117.005 70.1331C117.005 70.5516 117.171 70.953 117.467 71.249C117.763 71.5449 118.164 71.7112 118.583 71.7112C122.276 71.7112 125.171 67.5213 125.171 62.1795C125.171 56.8377 122.291 52.6558 118.591 52.6558Z" fill="white" stroke="#2E353A" stroke-miterlimit="10"/>
<path d="M123.128 64.736C122.977 65.2925 122.781 65.836 122.544 66.3615" stroke="#2E353A" stroke-width="0.75" stroke-linecap="round" stroke-linejoin="round"/>
<path d="M114.141 58.2659C114.141 58.2659 115.324 53.9893 118.82 54.226C121.565 54.4153 123.83 58.4947 123.451 62.8581" stroke="#2E353A" stroke-width="0.75" stroke-linecap="round" stroke-linejoin="round"/>
<path d="M146.018 54.0366C142.933 54.0366 140.7 56.7745 139.998 61.0669L143.154 61.2405C143.643 58.7629 144.613 57.1927 146.01 57.1927C147.635 57.1927 149.442 59.8045 149.442 63.5603C149.442 67.3162 147.635 69.9358 146.01 69.9358C145.592 69.9358 145.19 70.102 144.894 70.398C144.598 70.6939 144.432 71.0953 144.432 71.5139C144.432 71.9324 144.598 72.3338 144.894 72.6297C145.19 72.9257 145.592 73.092 146.01 73.092C149.703 73.092 152.599 68.9021 152.599 63.5603C152.599 58.2185 149.711 54.0366 146.018 54.0366Z" fill="white" stroke="#2E353A" stroke-miterlimit="10"/>
<path d="M150.547 66.1168C150.396 66.6733 150.201 67.2168 149.963 67.7422" stroke="#2E353A" stroke-width="0.75" stroke-linecap="round" stroke-linejoin="round"/>
<path d="M141.56 59.6467C141.56 59.6467 142.743 55.3701 146.239 55.6068C148.985 55.7961 151.249 59.8755 150.871 64.2389" stroke="#2E353A" stroke-width="0.75" stroke-linecap="round" stroke-linejoin="round"/>
<path d="M173.437 55.4174C170.352 55.4174 168.119 58.1554 167.417 62.4478L170.573 62.6214C171.062 60.1438 172.033 58.5736 173.429 58.5736C175.055 58.5736 176.862 61.1853 176.862 64.9412C176.862 68.697 175.055 71.3166 173.429 71.3166C173.011 71.3166 172.609 71.4829 172.314 71.7789C172.018 72.0748 171.851 72.4762 171.851 72.8947C171.851 73.3133 172.018 73.7147 172.314 74.0106C172.609 74.3066 173.011 74.4728 173.429 74.4728C177.122 74.4728 180.018 70.283 180.018 64.9412C180.018 59.5993 177.13 55.4174 173.437 55.4174Z" fill="white" stroke="#2E353A" stroke-miterlimit="10"/>
<path d="M177.966 67.4976C177.815 68.0541 177.62 68.5976 177.382 69.123" stroke="#2E353A" stroke-width="0.75" stroke-linecap="round" stroke-linejoin="round"/>
<path d="M168.979 61.0275C168.979 61.0275 170.163 56.7509 173.658 56.9876C176.404 57.177 178.668 61.2563 178.29 65.6198" stroke="#2E353A" stroke-width="0.75" stroke-linecap="round" stroke-linejoin="round"/>
<path d="M201.354 56.6404C198.268 56.6404 196.035 59.3784 195.341 63.6787L198.497 63.8523C198.994 61.3747 199.965 59.7966 201.354 59.7966C202.979 59.7966 204.794 62.4162 204.794 66.1721C204.794 69.9279 202.979 72.5397 201.354 72.5397C200.935 72.5397 200.534 72.7059 200.238 73.0019C199.942 73.2978 199.776 73.6992 199.776 74.1178C199.776 74.5363 199.942 74.9377 200.238 75.2336C200.534 75.5296 200.935 75.6958 201.354 75.6958C205.054 75.6958 207.95 71.5139 207.95 66.1721C207.95 60.8303 205.054 56.6404 201.354 56.6404Z" fill="white" stroke="#2E353A" stroke-miterlimit="10"/>
<path d="M205.883 68.7286C205.733 69.2829 205.537 69.8239 205.299 70.3461" stroke="#2E353A" stroke-width="0.75" stroke-linecap="round" stroke-linejoin="round"/>
<path d="M196.896 62.2584C196.896 62.2584 198.087 57.9739 201.575 58.2106C204.328 58.3999 206.585 62.4872 206.214 66.8506" stroke="#2E353A" stroke-width="0.75" stroke-linecap="round" stroke-linejoin="round"/>
<path d="M228.173 58.116C225.088 58.116 222.855 60.854 222.161 65.1463L225.317 65.3278C225.814 62.8502 226.784 61.2721 228.173 61.2721C229.798 61.2721 231.613 63.8918 231.613 67.6397C231.613 71.3877 229.798 74.0152 228.173 74.0152C227.754 74.0152 227.353 74.1815 227.057 74.4774C226.761 74.7733 226.595 75.1747 226.595 75.5933C226.595 76.0118 226.761 76.4132 227.057 76.7092C227.353 77.0051 227.754 77.1714 228.173 77.1714C231.874 77.1714 234.769 72.9816 234.769 67.6397C234.769 62.2979 231.874 58.116 228.173 58.116Z" fill="white" stroke="#2E353A" stroke-miterlimit="10"/>
<path d="M232.702 70.1567C232.554 70.714 232.358 71.2577 232.118 71.7822" stroke="#2E353A" stroke-width="0.75" stroke-linecap="round" stroke-linejoin="round"/>
<path d="M223.715 63.6945C223.715 63.6945 224.906 59.41 228.394 59.6467C231.148 59.836 233.404 63.9154 233.034 68.2788" stroke="#2E353A" stroke-width="0.75" stroke-linecap="round" stroke-linejoin="round"/>
<path d="M304.616 166.215C304.616 166.215 306.194 168.377 306.194 169.3C306.194 170.223 304.032 171.77 304.032 173.924C304.032 176.078 301.254 175.502 300.947 173.924C300.639 172.346 301.562 170.223 301.562 170.223C301.562 170.223 300.276 169.434 299.984 166.657C299.692 163.879 302.193 164.668 302.193 164.668L304.616 166.215Z" fill="white" stroke="#2E353A" stroke-linecap="round" stroke-linejoin="round"/>
<path d="M265.163 144.855C253.73 125.413 241.721 94.7118 237.452 83.4127L88.899 77.3923C88.8043 187.188 122.039 232.55 122.039 232.55C122.039 232.55 159.873 229.622 203.508 213.321C245.437 197.658 295.447 171.367 295.447 171.367C295.447 171.367 279.39 169.055 265.163 144.855Z" fill="white" stroke="#2E353A" stroke-linecap="round" stroke-linejoin="round"/>
<path d="M237.452 83.4127L88.899 77.3923C88.899 88.1943 89.2068 98.3572 89.7749 107.928L246.653 106.461C242.589 96.7791 239.314 88.2969 237.452 83.4127Z" fill="#2E353A" stroke="#2E353A" stroke-linecap="round" stroke-linejoin="round"/>
<path d="M240.08 116.142L247.102 115.898" stroke="#2E353A" stroke-width="3" stroke-linecap="round" stroke-linejoin="round"/>
<path d="M219.438 116.844L234.817 116.316" stroke="#2E353A" stroke-width="3" stroke-linecap="round" stroke-linejoin="round"/>
<path d="M194.449 117.689L214.215 117.018" stroke="#2E353A" stroke-width="3" stroke-linecap="round" stroke-linejoin="round"/>
<path d="M169.026 118.549L190.086 117.839" stroke="#2E353A" stroke-width="3" stroke-linecap="round" stroke-linejoin="round"/>
<path d="M144.448 119.385L163.756 118.73" stroke="#2E353A" stroke-width="3" stroke-linecap="round" stroke-linejoin="round"/>
<path d="M118.551 120.269L137.875 119.606" stroke="#2E353A" stroke-width="3" stroke-linecap="round" stroke-linejoin="round"/>
<path d="M95.7557 121.042L113.738 120.427" stroke="#2E353A" stroke-width="3" stroke-linecap="round" stroke-linejoin="round"/>
<path d="M92.8284 137.967L256.263 128.009" stroke="#2E353A" stroke-linecap="round" stroke-linejoin="round"/>
<path d="M118.654 136.563C118.654 136.563 121.337 180.023 149.987 228.265" stroke="#2E353A" stroke-linecap="round" stroke-linejoin="round"/>
<path d="M145.024 134.819C145.024 134.819 148.046 184.529 179.458 220.927" stroke="#2E353A" stroke-linecap="round" stroke-linejoin="round"/>
<path d="M168.9 133.351C168.9 133.351 170.478 179.116 205.788 212.003" stroke="#2E353A" stroke-linecap="round" stroke-linejoin="round"/>
<path d="M193.652 132.286C193.652 132.286 197.55 183.164 231.724 201.083" stroke="#2E353A" stroke-linecap="round" stroke-linejoin="round"/>
<path d="M219.588 130.242C219.588 130.242 222.334 168.724 257.289 189.799" stroke="#2E353A" stroke-linecap="round" stroke-linejoin="round"/>
<path d="M240.009 128.996C240.009 128.996 249.414 168.448 275.729 181.223" stroke="#2E353A" stroke-linecap="round" stroke-linejoin="round"/>
<path d="M96.4108 160.384L263.341 142.023" stroke="#2E353A" stroke-linecap="round" stroke-linejoin="round"/>
<path d="M100.766 180.023C100.766 180.023 136.407 178.627 271.105 153.803" stroke="#2E353A" stroke-linecap="round" stroke-linejoin="round"/>
<path d="M107.055 200.814C107.055 200.814 141.773 204.76 277.788 161.449" stroke="#2E353A" stroke-linecap="round" stroke-linejoin="round"/>
<path d="M114.567 218.955C114.567 218.955 143.509 228.541 285.679 167.667" stroke="#2E353A" stroke-linecap="round" stroke-linejoin="round"/>
<path d="M153.064 98.8701L99.5511 98.152C99.1175 98.1456 98.7011 97.982 98.3789 97.6918C98.0568 97.4016 97.8509 97.0045 97.7994 96.574L97.3417 92.25C97.3149 92.0011 97.3412 91.7494 97.4189 91.5115C97.4967 91.2736 97.624 91.0549 97.7926 90.8699C97.9612 90.6849 98.1672 90.5379 98.3968 90.4384C98.6265 90.339 98.8747 90.2895 99.125 90.2932L151.991 91.2085C152.382 91.2153 152.759 91.3503 153.066 91.5926C153.372 91.835 153.591 92.1713 153.687 92.5498L154.76 96.6607C154.828 96.9207 154.835 97.1926 154.781 97.4556C154.727 97.7187 154.614 97.9661 154.451 98.1791C154.287 98.3921 154.078 98.565 153.837 98.6847C153.597 98.8044 153.332 98.8678 153.064 98.8701Z" fill="white"/>
</svg>
