<svg width="37" height="39" viewBox="0 0 37 39" fill="none" xmlns="http://www.w3.org/2000/svg">
<path d="M17.6597 32.5377H3.18411C1.78502 32.5377 0.650879 31.4035 0.650879 30.0045V27.4711H20.093L17.6597 32.5377Z" fill="#D3DCFB"/>
<path d="M33.5866 12.2711V30.0044H3.18411C1.78502 30.0044 0.650879 28.8701 0.650879 27.4711V12.2711L18.3854 5.93774L33.5866 12.2711Z" fill="#EBF5FC"/>
<path d="M5.12462 17.3378H3.77881C3.62134 17.3378 3.47031 17.2752 3.35896 17.1638C3.24761 17.0525 3.18506 16.9015 3.18506 16.744V15.3982C3.18506 15.2407 3.24761 15.0897 3.35896 14.9783C3.47031 14.867 3.62134 14.8044 3.77881 14.8044H5.12462C5.28209 14.8044 5.43311 14.867 5.54446 14.9783C5.65581 15.0897 5.71837 15.2407 5.71837 15.3982V16.744C5.71837 16.9015 5.65581 17.0525 5.54446 17.1638C5.43311 17.2752 5.28209 17.3378 5.12462 17.3378ZM10.1913 17.3378H8.8455C8.68803 17.3378 8.53701 17.2752 8.42566 17.1638C8.31431 17.0525 8.25175 16.9015 8.25175 16.744V15.3982C8.25175 15.2407 8.31431 15.0897 8.42566 14.9783C8.53701 14.867 8.68803 14.8044 8.8455 14.8044H10.1913C10.3488 14.8044 10.4998 14.867 10.6112 14.9783C10.7225 15.0897 10.7851 15.2407 10.7851 15.3982V16.744C10.7851 16.9015 10.7225 17.0525 10.6112 17.1638C10.4998 17.2752 10.3488 17.3378 10.1913 17.3378ZM15.2579 17.3378H13.9121C13.7546 17.3378 13.6036 17.2752 13.4923 17.1638C13.3809 17.0525 13.3184 16.9015 13.3184 16.744V15.3982C13.3184 15.2407 13.3809 15.0897 13.4923 14.9783C13.6036 14.867 13.7546 14.8044 13.9121 14.8044H15.2579C15.4154 14.8044 15.5664 14.867 15.6778 14.9783C15.7891 15.0897 15.8517 15.2407 15.8517 15.3982V16.744C15.8517 16.9015 15.7891 17.0525 15.6778 17.1638C15.5664 17.2752 15.4154 17.3378 15.2579 17.3378ZM20.3246 17.3378H18.9788C18.8213 17.3378 18.6703 17.2752 18.559 17.1638C18.4476 17.0525 18.3851 16.9015 18.3851 16.744V15.3982C18.3851 15.2407 18.4476 15.0897 18.559 14.9783C18.6703 14.867 18.8213 14.8044 18.9788 14.8044H20.3246C20.4821 14.8044 20.6331 14.867 20.7445 14.9783C20.8558 15.0897 20.9184 15.2407 20.9184 15.3982V16.744C20.9184 16.9015 20.8558 17.0525 20.7445 17.1638C20.6331 17.2752 20.4821 17.3378 20.3246 17.3378ZM25.3904 17.3378H24.0446C23.8871 17.3378 23.7361 17.2752 23.6248 17.1638C23.5134 17.0525 23.4509 16.9015 23.4509 16.744V15.3982C23.4509 15.2407 23.5134 15.0897 23.6248 14.9783C23.7361 14.867 23.8871 14.8044 24.0446 14.8044H25.3904C25.5479 14.8044 25.6989 14.867 25.8103 14.9783C25.9216 15.0897 25.9842 15.2407 25.9842 15.3982V16.744C25.9842 16.9015 25.9216 17.0525 25.8103 17.1638C25.6989 17.2752 25.5479 17.3378 25.3904 17.3378ZM30.4571 17.3378H29.1113C28.9538 17.3378 28.8028 17.2752 28.6915 17.1638C28.5801 17.0525 28.5175 16.9015 28.5175 16.744V15.3982C28.5175 15.2407 28.5801 15.0897 28.6915 14.9783C28.8028 14.867 28.9538 14.8044 29.1113 14.8044H30.4571C30.6146 14.8044 30.7656 14.867 30.877 14.9783C30.9883 15.0897 31.0509 15.2407 31.0509 15.3982V16.744C31.0509 16.9015 30.9883 17.0525 30.877 17.1638C30.7656 17.2752 30.6146 17.3378 30.4571 17.3378ZM5.12462 22.4044H3.77881C3.62134 22.4044 3.47031 22.3418 3.35896 22.2305C3.24761 22.1191 3.18506 21.9681 3.18506 21.8106V20.4648C3.18506 20.3073 3.24761 20.1563 3.35896 20.045C3.47031 19.9336 3.62134 19.8711 3.77881 19.8711H5.12462C5.28209 19.8711 5.43311 19.9336 5.54446 20.045C5.65581 20.1563 5.71837 20.3073 5.71837 20.4648V21.8106C5.71837 21.9681 5.65581 22.1191 5.54446 22.2305C5.43311 22.3418 5.28209 22.4044 5.12462 22.4044ZM10.1913 22.4044H8.8455C8.68803 22.4044 8.53701 22.3418 8.42566 22.2305C8.31431 22.1191 8.25175 21.9681 8.25175 21.8106V20.4648C8.25175 20.3073 8.31431 20.1563 8.42566 20.045C8.53701 19.9336 8.68803 19.8711 8.8455 19.8711H10.1913C10.3488 19.8711 10.4998 19.9336 10.6112 20.045C10.7225 20.1563 10.7851 20.3073 10.7851 20.4648V21.8106C10.7851 21.9681 10.7225 22.1191 10.6112 22.2305C10.4998 22.3418 10.3488 22.4044 10.1913 22.4044ZM15.2579 22.4044H13.9121C13.7546 22.4044 13.6036 22.3418 13.4923 22.2305C13.3809 22.1191 13.3184 21.9681 13.3184 21.8106V20.4648C13.3184 20.3073 13.3809 20.1563 13.4923 20.045C13.6036 19.9336 13.7546 19.8711 13.9121 19.8711H15.2579C15.4154 19.8711 15.5664 19.9336 15.6778 20.045C15.7891 20.1563 15.8517 20.3073 15.8517 20.4648V21.8106C15.8517 21.9681 15.7891 22.1191 15.6778 22.2305C15.5664 22.3418 15.4154 22.4044 15.2579 22.4044ZM20.9184 22.4044V20.5044C20.9184 20.4212 20.902 20.3388 20.8702 20.262C20.8383 20.1852 20.7917 20.1154 20.7329 20.0566C20.6741 19.9977 20.6043 19.9511 20.5274 19.9193C20.4506 19.8874 20.3682 19.8711 20.2851 19.8711H19.0184C18.8504 19.8711 18.6893 19.9378 18.5705 20.0566C18.4518 20.1753 18.3851 20.3364 18.3851 20.5044V21.7711C18.3851 21.939 18.4518 22.1001 18.5705 22.2189C18.6893 22.3376 18.8504 22.4044 19.0184 22.4044H20.9184ZM5.12462 27.4711H3.77881C3.62134 27.4711 3.47031 27.4085 3.35896 27.2972C3.24761 27.1858 3.18506 27.0348 3.18506 26.8773V25.5315C3.18506 25.374 3.24761 25.223 3.35896 25.1117C3.47031 25.0003 3.62134 24.9378 3.77881 24.9378H5.12462C5.28209 24.9378 5.43311 25.0003 5.54446 25.1117C5.65581 25.223 5.71837 25.374 5.71837 25.5315V26.8773C5.71837 27.0348 5.65581 27.1858 5.54446 27.2972C5.43311 27.4085 5.28209 27.4711 5.12462 27.4711ZM10.1913 27.4711H8.8455C8.68803 27.4711 8.53701 27.4085 8.42566 27.2972C8.31431 27.1858 8.25175 27.0348 8.25175 26.8773V25.5315C8.25175 25.374 8.31431 25.223 8.42566 25.1117C8.53701 25.0003 8.68803 24.9378 8.8455 24.9378H10.1913C10.3488 24.9378 10.4998 25.0003 10.6112 25.1117C10.7225 25.223 10.7851 25.374 10.7851 25.5315V26.8773C10.7851 27.0348 10.7225 27.1858 10.6112 27.2972C10.4998 27.4085 10.3488 27.4711 10.1913 27.4711ZM15.2579 27.4711H13.9121C13.7546 27.4711 13.6036 27.4085 13.4923 27.2972C13.3809 27.1858 13.3184 27.0348 13.3184 26.8773V25.5315C13.3184 25.374 13.3809 25.223 13.4923 25.1117C13.6036 25.0003 13.7546 24.9378 13.9121 24.9378H15.2579C15.4154 24.9378 15.5664 25.0003 15.6778 25.1117C15.7891 25.223 15.8517 25.374 15.8517 25.5315V26.8773C15.8517 27.0348 15.7891 27.1858 15.6778 27.2972C15.5664 27.4085 15.4154 27.4711 15.2579 27.4711Z" fill="#3C58A0"/>
<path d="M30.4393 14.8044H29.1293C29.05 14.8044 28.9745 14.82 28.905 14.8474C29.0192 14.8924 29.1172 14.9707 29.1863 15.0721C29.2554 15.1735 29.2923 15.2934 29.2923 15.4161V16.726C29.2923 16.9846 29.1317 17.2052 28.905 17.2947C28.9745 17.3222 29.05 17.3378 29.1293 17.3378H30.4393C30.6015 17.3378 30.7571 17.2733 30.8718 17.1586C30.9865 17.0439 31.0509 16.8883 31.051 16.7261V15.4162C31.0509 15.2539 30.9865 15.0983 30.8718 14.9836C30.7571 14.8689 30.6015 14.8045 30.4393 14.8044ZM25.3726 14.8044H24.0626C23.9833 14.8044 23.9079 14.82 23.8383 14.8474C23.9525 14.8924 24.0505 14.9707 24.1196 15.0721C24.1887 15.1735 24.2256 15.2934 24.2257 15.4161V16.726C24.2257 16.9846 24.065 17.2052 23.8383 17.2947C23.9079 17.3222 23.9833 17.3378 24.0626 17.3378H25.3726C25.4529 17.3378 25.5324 17.3219 25.6066 17.2912C25.6808 17.2605 25.7483 17.2154 25.8051 17.1586C25.8619 17.1018 25.9069 17.0344 25.9377 16.9602C25.9684 16.886 25.9842 16.8064 25.9842 16.7261V15.4162C25.9842 15.3358 25.9684 15.2563 25.9377 15.1821C25.9069 15.1079 25.8619 15.0404 25.8051 14.9836C25.7483 14.9268 25.6809 14.8818 25.6066 14.851C25.5324 14.8203 25.4529 14.8044 25.3726 14.8044ZM20.3068 14.8044H18.9968C18.9175 14.8044 18.8421 14.82 18.7725 14.8474C18.9992 14.9369 19.1599 15.1575 19.1599 15.4161V16.726C19.1599 16.9846 18.9992 17.2052 18.7725 17.2947C18.8421 17.3222 18.9175 17.3378 18.9968 17.3378H20.3068C20.469 17.3378 20.6246 17.2733 20.7393 17.1586C20.854 17.0439 20.9184 16.8883 20.9185 16.7261V15.4162C20.9184 15.2539 20.854 15.0983 20.7393 14.9836C20.6246 14.8689 20.469 14.8045 20.3068 14.8044ZM15.2401 14.8044H13.9301C13.8508 14.8044 13.7754 14.82 13.7058 14.8474C13.9326 14.9369 14.0932 15.1575 14.0932 15.4161V16.726C14.0932 16.9846 13.9326 17.2052 13.7058 17.2947C13.7754 17.3222 13.8508 17.3378 13.9301 17.3378H15.2401C15.4023 17.3378 15.5579 17.2733 15.6726 17.1586C15.7873 17.0439 15.8518 16.8883 15.8518 16.7261V15.4162C15.8518 15.2539 15.7873 15.0983 15.6726 14.9836C15.5579 14.8689 15.4023 14.8045 15.2401 14.8044ZM10.1734 14.8044H8.86342C8.78415 14.8044 8.70867 14.82 8.63913 14.8474C8.75331 14.8924 8.85131 14.9707 8.9204 15.0721C8.98948 15.1735 9.02644 15.2934 9.02647 15.4161V16.726C9.02647 16.9846 8.86579 17.2052 8.63913 17.2947C8.70867 17.3222 8.78415 17.3378 8.86342 17.3378H10.1734C10.3356 17.3378 10.4912 17.2733 10.6059 17.1586C10.7206 17.0439 10.7851 16.8883 10.7851 16.7261V15.4162C10.7851 15.2539 10.7206 15.0983 10.6059 14.9836C10.4912 14.8689 10.3356 14.8044 10.1734 14.8044ZM5.10676 14.8044H3.7968C3.71753 14.8044 3.64205 14.82 3.57251 14.8474C3.79925 14.9369 3.95993 15.1575 3.95993 15.4161V16.726C3.95993 16.9846 3.79925 17.2052 3.57251 17.2947C3.64205 17.3222 3.71753 17.3378 3.7968 17.3378H5.10676C5.26898 17.3378 5.42456 17.2733 5.53928 17.1586C5.65399 17.0439 5.71845 16.8883 5.71847 16.7261V15.4162C5.71845 15.2539 5.654 15.0983 5.53928 14.9836C5.42457 14.8689 5.26899 14.8045 5.10676 14.8044ZM5.10676 19.8711H3.7968C3.71753 19.8711 3.64205 19.8867 3.57251 19.9141C3.79925 20.0036 3.95993 20.2242 3.95993 20.4828V21.7928C3.95993 22.0514 3.79925 22.272 3.57251 22.3615C3.64205 22.3889 3.71753 22.4045 3.7968 22.4045H5.10676C5.26898 22.4045 5.42456 22.3401 5.53928 22.2254C5.65399 22.1107 5.71845 21.9551 5.71847 21.7929V20.4828C5.71845 20.3206 5.654 20.165 5.53928 20.0503C5.42457 19.9356 5.26899 19.8712 5.10676 19.8711ZM5.10676 24.9378H3.7968C3.71753 24.9378 3.64205 24.9534 3.57251 24.9808C3.79925 25.0703 3.95993 25.2909 3.95993 25.5495V26.8595C3.95993 27.1181 3.79925 27.3387 3.57251 27.4282C3.64205 27.4556 3.71753 27.4712 3.7968 27.4712H5.10676C5.26898 27.4712 5.42456 27.4068 5.53928 27.2921C5.65399 27.1774 5.71845 27.0218 5.71847 26.8596V25.5495C5.71845 25.3873 5.654 25.2317 5.53928 25.117C5.42457 25.0023 5.26899 24.9378 5.10676 24.9378ZM10.1734 19.8711H8.86342C8.78415 19.8711 8.70867 19.8867 8.63913 19.9141C8.75331 19.9591 8.85131 20.0374 8.9204 20.1388C8.98948 20.2402 9.02644 20.3601 9.02647 20.4828V21.7928C9.02647 22.0514 8.86579 22.272 8.63913 22.3615C8.70867 22.3889 8.78415 22.4045 8.86342 22.4045H10.1734C10.3356 22.4045 10.4912 22.3401 10.6059 22.2254C10.7206 22.1107 10.7851 21.9551 10.7851 21.7929V20.4828C10.7851 20.3206 10.7206 20.165 10.6059 20.0503C10.4912 19.9356 10.3356 19.8711 10.1734 19.8711ZM10.1734 24.9378H8.86342C8.78415 24.9378 8.70867 24.9534 8.63913 24.9808C8.75331 25.0258 8.85131 25.104 8.9204 25.2055C8.98948 25.3069 9.02644 25.4267 9.02647 25.5495V26.8595C9.02647 27.1181 8.86579 27.3387 8.63913 27.4282C8.70867 27.4556 8.78415 27.4712 8.86342 27.4712H10.1734C10.3356 27.4712 10.4912 27.4068 10.6059 27.2921C10.7206 27.1774 10.7851 27.0218 10.7851 26.8596V25.5495C10.7851 25.4692 10.7693 25.3897 10.7385 25.3154C10.7078 25.2412 10.6627 25.1738 10.6059 25.117C10.5491 25.0602 10.4817 25.0151 10.4075 24.9844C10.3333 24.9536 10.2537 24.9378 10.1734 24.9378ZM15.2401 19.8711H13.9301C13.8508 19.8711 13.7754 19.8867 13.7058 19.9141C13.9326 20.0036 14.0932 20.2242 14.0932 20.4828V21.7928C14.0932 22.0514 13.9326 22.272 13.7058 22.3615C13.7754 22.3889 13.8508 22.4045 13.9301 22.4045H15.2401C15.4023 22.4045 15.5579 22.3401 15.6726 22.2254C15.7873 22.1107 15.8518 21.9551 15.8518 21.7929V20.4828C15.8518 20.3206 15.7873 20.165 15.6726 20.0503C15.5579 19.9356 15.4023 19.8712 15.2401 19.8711ZM20.9184 22.4044V20.4828C20.9184 20.4024 20.9026 20.3229 20.8718 20.2487C20.8411 20.1745 20.796 20.1071 20.7392 20.0503C20.6824 19.9935 20.615 19.9484 20.5408 19.9177C20.4666 19.8869 20.387 19.8711 20.3067 19.8711H18.9967C18.9175 19.8711 18.842 19.8867 18.7724 19.9141C18.9992 20.0036 19.1599 20.2242 19.1599 20.4828V21.7928C19.1599 22.0514 18.9992 22.272 18.7724 22.3615C18.842 22.3889 18.9175 22.4045 18.9967 22.4045H20.9184V22.4044ZM15.2401 24.9378H13.9301C13.8508 24.9378 13.7754 24.9534 13.7058 24.9808C13.9326 25.0703 14.0932 25.2909 14.0932 25.5495V26.8595C14.0932 27.1181 13.9326 27.3387 13.7058 27.4282C13.7754 27.4556 13.8508 27.4712 13.9301 27.4712H15.2401C15.4023 27.4712 15.5579 27.4068 15.6726 27.2921C15.7873 27.1774 15.8518 27.0218 15.8518 26.8596V25.5495C15.8518 25.4692 15.836 25.3897 15.8052 25.3154C15.7745 25.2412 15.7294 25.1738 15.6726 25.117C15.6158 25.0602 15.5484 25.0151 15.4742 24.9844C15.3999 24.9536 15.3204 24.9378 15.2401 24.9378Z" fill="#2A428C"/>
<path d="M31.8269 11.5378V30.0044H33.5867V12.271L31.8269 11.5378Z" fill="#D3DCFB"/>
<path d="M33.5866 12.271V5.93765C33.5866 4.53856 32.4524 3.40442 31.0534 3.40442H3.18411C1.78502 3.40442 0.650879 4.53856 0.650879 5.93765V12.271H33.5866Z" fill="#FF4155"/>
<path d="M8.63322 6.51121H6.9843C6.83222 6.51121 6.68637 6.4508 6.57884 6.34326C6.4713 6.23572 6.41089 6.08987 6.41089 5.93779C6.41089 5.78571 6.4713 5.63987 6.57884 5.53233C6.68637 5.42479 6.83222 5.36438 6.9843 5.36438H8.63322C8.7853 5.36438 8.93115 5.42479 9.03869 5.53233C9.14622 5.63987 9.20664 5.78571 9.20664 5.93779C9.20664 6.08987 9.14622 6.23572 9.03869 6.34326C8.93115 6.4508 8.7853 6.51121 8.63322 6.51121ZM12.6842 6.51121H11.0353C10.8832 6.51121 10.7374 6.4508 10.6298 6.34326C10.5223 6.23572 10.4619 6.08987 10.4619 5.93779C10.4619 5.78571 10.5223 5.63987 10.6298 5.53233C10.7374 5.42479 10.8832 5.36438 11.0353 5.36438H12.6842C13.001 5.36438 13.2576 5.6211 13.2576 5.93779C13.2576 6.25449 13.001 6.51121 12.6842 6.51121ZM23.2007 6.51121H21.5517C21.3997 6.51121 21.2538 6.4508 21.1463 6.34326C21.0387 6.23572 20.9783 6.08987 20.9783 5.93779C20.9783 5.78571 21.0387 5.63987 21.1463 5.53233C21.2538 5.42479 21.3997 5.36438 21.5517 5.36438H23.2007C23.5175 5.36438 23.7741 5.6211 23.7741 5.93779C23.7741 6.25449 23.5175 6.51121 23.2007 6.51121ZM27.2518 6.51121H25.6028C25.4507 6.51121 25.3049 6.4508 25.1974 6.34326C25.0898 6.23572 25.0294 6.08987 25.0294 5.93779C25.0294 5.78571 25.0898 5.63987 25.1974 5.53233C25.3049 5.42479 25.4507 5.36438 25.6028 5.36438H27.2518C27.4039 5.36438 27.5497 5.42479 27.6573 5.53233C27.7648 5.63987 27.8252 5.78571 27.8252 5.93779C27.8252 6.08987 27.7648 6.23572 27.6573 6.34326C27.5497 6.4508 27.4039 6.51121 27.2518 6.51121Z" fill="#E80054"/>
<path d="M11.4176 5.62109C11.4176 6.49554 10.7087 7.2044 9.83429 7.2044C8.95984 7.2044 8.25098 6.49554 8.25098 5.62109V2.4544C8.2509 1.57996 8.95977 0.871094 9.83421 0.871094C10.7087 0.871094 11.4175 1.57996 11.4175 2.4544V5.62109H11.4176ZM25.9851 5.62109C25.9851 6.49554 25.2762 7.2044 24.4018 7.2044C23.5273 7.2044 22.8184 6.49554 22.8184 5.62109V2.4544C22.8184 1.57996 23.5273 0.871094 24.4017 0.871094C25.2762 0.871094 25.985 1.57996 25.985 2.4544V5.62109H25.9851Z" fill="#EBF5FC"/>
<path d="M24.4018 0.871094C24.0767 0.871094 23.7748 0.969359 23.5233 1.13739C23.9482 1.42135 24.2282 1.90504 24.2282 2.45448V5.62109C24.2282 6.17046 23.9482 6.65422 23.5233 6.93818C23.7832 7.11215 24.089 7.20485 24.4018 7.20448C25.2762 7.20448 25.9851 6.49561 25.9851 5.62117V2.4544C25.9852 1.57996 25.2763 0.871094 24.4018 0.871094ZM9.83426 0.871094C9.50919 0.871094 9.20726 0.969359 8.95581 1.13739C9.38071 1.42135 9.66074 1.90504 9.66074 2.45448V5.62109C9.66074 6.17046 9.38071 6.65422 8.95581 6.93818C9.21572 7.11215 9.52151 7.20485 9.83426 7.20448C10.7087 7.20448 11.4176 6.49561 11.4176 5.62117V2.4544C11.4176 1.57996 10.7088 0.871094 9.83426 0.871094Z" fill="#D3DCFB"/>
<path d="M31.0534 3.40442H29.2942C30.6933 3.40442 31.8274 4.53856 31.8274 5.93765V12.2711H33.5866V5.93773C33.5866 4.53863 32.4524 3.40442 31.0534 3.40442Z" fill="#E80054"/>
<path d="M0.650879 9.16431H33.5867V10.3112H0.650879V9.16431Z" fill="#E80054"/>
<path d="M26.6189 38.8711C31.8656 38.8711 36.1189 34.6178 36.1189 29.3711C36.1189 24.1244 31.8656 19.8711 26.6189 19.8711C21.3722 19.8711 17.1189 24.1244 17.1189 29.3711C17.1189 34.6178 21.3722 38.8711 26.6189 38.8711Z" fill="#4FABF7"/>
<path d="M26.6188 36.3378C30.4664 36.3378 33.5855 33.2187 33.5855 29.3711C33.5855 25.5235 30.4664 22.4044 26.6188 22.4044C22.7712 22.4044 19.6521 25.5235 19.6521 29.3711C19.6521 33.2187 22.7712 36.3378 26.6188 36.3378Z" fill="#EBF5FC"/>
<path d="M26.6188 28.6778C26.5435 28.6778 26.469 28.663 26.3994 28.6341C26.3298 28.6053 26.2666 28.5631 26.2133 28.5098C26.1601 28.4566 26.1179 28.3934 26.089 28.3238C26.0602 28.2542 26.0454 28.1797 26.0454 28.1044V24.9377C26.0454 24.7856 26.1058 24.6397 26.2134 24.5322C26.3209 24.4247 26.4667 24.3643 26.6188 24.3643C26.7709 24.3643 26.9168 24.4247 27.0243 24.5322C27.1318 24.6397 27.1922 24.7856 27.1922 24.9377V28.1044C27.1922 28.2564 27.1318 28.4023 27.0243 28.5098C26.9168 28.6174 26.7709 28.6778 26.6188 28.6778ZM29.7855 29.9445H27.8854C27.7334 29.9445 27.5875 29.8841 27.48 29.7765C27.3724 29.669 27.312 29.5231 27.312 29.3711C27.312 29.219 27.3724 29.0731 27.48 28.9656C27.5875 28.8581 27.7334 28.7976 27.8854 28.7976H29.7855C29.9376 28.7976 30.0834 28.8581 30.191 28.9656C30.2985 29.0731 30.3589 29.219 30.3589 29.3711C30.3589 29.5231 30.2985 29.669 30.191 29.7765C30.0834 29.8841 29.9376 29.9445 29.7855 29.9445Z" fill="#3C58A0"/>
<path d="M26.6188 19.8711C26.3223 19.8711 26.0292 19.8854 25.7396 19.912C30.574 20.3557 34.3602 24.4209 34.3602 29.3711C34.3602 34.3213 30.5739 38.3864 25.7395 38.8302C26.0291 38.8568 26.3223 38.8711 26.6188 38.8711C31.8654 38.8711 36.1188 34.6178 36.1188 29.3711C36.1188 24.1244 31.8655 19.8711 26.6188 19.8711Z" fill="#1886EA"/>
<path d="M26.6189 22.4044C26.3213 22.4044 26.0281 22.4232 25.7402 22.4594C29.173 22.8914 31.8283 25.8212 31.8283 29.3711C31.8283 32.9211 29.173 35.8508 25.7402 36.2828C26.0281 36.319 26.3213 36.3378 26.6189 36.3378C30.4665 36.3378 33.5856 33.2187 33.5856 29.3711C33.5856 25.5235 30.4665 22.4044 26.6189 22.4044Z" fill="#D3DCFB"/>
<path d="M26.6187 30.6378C27.3183 30.6378 27.8854 30.0706 27.8854 29.3711C27.8854 28.6715 27.3183 28.1044 26.6187 28.1044C25.9192 28.1044 25.3521 28.6715 25.3521 29.3711C25.3521 30.0706 25.9192 30.6378 26.6187 30.6378Z" fill="#FFDD40"/>
</svg>
