<svg width="432" height="448" viewBox="0 0 432 448" fill="none" xmlns="http://www.w3.org/2000/svg">
<path d="M209.908 129.729H241.805V74.7592H209.908V129.729Z" fill="#EBEBEB"/>
<path d="M120.929 130.601H146.116V61.9804H120.929V130.601Z" fill="#EBEBEB"/>
<path d="M120.638 66.9377C120.638 66.7274 126.397 66.5571 133.497 66.5571C140.597 66.5571 146.366 66.7274 146.366 66.9377C146.366 67.148 140.607 67.3182 133.497 67.3182C126.387 67.3182 120.638 67.148 120.638 66.9377Z" fill="#FAFAFA"/>
<path d="M122.03 70.1924C122.03 69.9821 127.478 69.8118 134.198 69.8118C140.918 69.8118 146.366 69.9821 146.366 70.1924C146.366 70.4027 140.918 70.5729 134.198 70.5729C127.478 70.5729 122.03 70.4027 122.03 70.1924Z" fill="#FAFAFA"/>
<path d="M132.776 117.071C132.566 117.071 132.396 107.977 132.396 96.7711C132.396 85.5647 132.566 76.4715 132.776 76.4715C132.986 76.4715 133.157 85.5547 133.157 96.7711C133.157 107.987 133.016 117.071 132.776 117.071Z" fill="#FAFAFA"/>
<path d="M120.929 123.38C120.929 123.17 126.457 122.999 133.257 122.999C140.057 122.999 145.595 123.17 145.595 123.38C145.595 123.59 140.067 123.761 133.257 123.761C126.447 123.761 120.929 123.56 120.929 123.38Z" fill="#FAFAFA"/>
<path d="M120.929 126.294C120.929 126.084 126.587 125.914 133.567 125.914C140.547 125.914 146.206 126.084 146.206 126.294C146.206 126.505 140.547 126.675 133.567 126.675C126.587 126.675 120.929 126.505 120.929 126.294Z" fill="#FAFAFA"/>
<path d="M146.105 130.601H166.335V54.5596H146.105V130.601Z" fill="#E0E0E0"/>
<path d="M145.975 89.4807C147.085 90.1016 148.131 90.8294 149.1 91.6539L156.4 97.192L163.691 102.74C164.745 103.459 165.727 104.278 166.625 105.184C165.479 104.628 164.391 103.957 163.381 103.181C161.438 101.859 158.794 99.966 155.94 97.8029C153.085 95.6397 150.562 93.5967 148.769 92.0745C147.744 91.3172 146.806 90.4472 145.975 89.4807Z" fill="#FAFAFA"/>
<path d="M145.885 77.5837C146.025 77.4235 150.662 81.1689 156.24 85.9459C161.818 90.7229 166.255 94.7387 166.094 94.899C165.934 95.0592 161.327 91.3137 155.739 86.5267C150.151 81.7398 145.795 77.7439 145.885 77.5837Z" fill="#FAFAFA"/>
<path d="M58.1769 130.661H67.8511L67.8511 58.2249H58.1769L58.1769 130.661Z" fill="#EBEBEB"/>
<path d="M58.5674 68.0894C58.5674 68.3397 60.5703 68.54 63.104 68.54C65.6377 68.54 67.6807 68.2997 67.6807 68.0894C67.6807 67.8791 65.6778 67.6287 63.1441 67.6287C60.6104 67.6287 58.5674 67.839 58.5674 68.0894Z" fill="#FAFAFA"/>
<path d="M58.377 66.507C58.377 66.7574 60.3799 66.9677 62.9036 66.9677C65.4272 66.9677 67.4402 66.7574 67.4402 66.507C67.4402 66.2566 65.4373 66.0563 62.9036 66.0563C60.3699 66.0563 58.377 66.2967 58.377 66.507Z" fill="#FAFAFA"/>
<path d="M58.5674 125.053C58.5674 125.303 60.5703 125.513 63.104 125.513C65.6377 125.513 67.6406 125.303 67.6406 125.053C67.6406 124.802 65.6377 124.602 63.104 124.602C60.5703 124.602 58.5674 124.802 58.5674 125.053Z" fill="#FAFAFA"/>
<path d="M58.377 123.48C58.377 123.731 60.3799 123.931 62.9036 123.931C65.4272 123.931 67.4402 123.731 67.4402 123.48C67.4402 123.23 65.4373 123.02 62.9036 123.02C60.3699 123.02 58.377 123.23 58.377 123.48Z" fill="#FAFAFA"/>
<path d="M63.3047 114.017C63.555 114.017 63.7553 105.725 63.7553 95.4896C63.7553 85.2546 63.555 76.9525 63.3047 76.9525C63.0543 76.9525 62.844 85.2546 62.844 95.4896C62.844 105.725 63.0543 114.017 63.3047 114.017Z" fill="#FAFAFA"/>
<path d="M101.53 130.19H120.888L120.888 57.7544H101.53V130.19Z" fill="#E0E0E0"/>
<path d="M115.451 131.121C115.54 131.001 115.614 130.87 115.671 130.731C115.811 130.46 116.001 130.06 116.222 129.519C116.887 127.946 117.362 126.298 117.634 124.612C118.126 121.889 117.729 119.08 116.502 116.6C115.68 115.079 114.501 113.78 113.067 112.815C111.434 111.701 109.448 111.23 107.489 111.493C106.429 111.672 105.436 112.132 104.615 112.825C104.165 113.196 103.806 113.665 103.565 114.196C103.323 114.727 103.206 115.306 103.223 115.889C103.274 116.486 103.447 117.066 103.731 117.593C104.015 118.12 104.405 118.583 104.875 118.954C105.808 119.747 106.961 120.236 108.18 120.356C109.435 120.455 110.697 120.283 111.881 119.853C113.064 119.423 114.141 118.744 115.04 117.862C116.977 116.028 118.186 113.556 118.445 110.902C118.711 108.167 118.369 105.407 117.443 102.82C116.572 100.074 114.923 97.6388 112.697 95.8097C111.494 94.8592 110.038 94.2844 108.51 94.1573C107.717 94.0816 106.917 94.1804 106.166 94.4468C105.415 94.7133 104.732 95.1409 104.164 95.6996C103.568 96.3123 103.212 97.1194 103.163 97.9729C103.142 98.8104 103.376 99.6344 103.834 100.336C104.736 101.702 106.139 102.658 107.739 103C109.285 103.302 110.883 103.197 112.377 102.697C113.87 102.197 115.209 101.318 116.262 100.146C118.199 97.8465 119.359 94.9931 119.577 91.9942C119.908 89.1464 119.625 86.2606 118.745 83.5318C117.901 80.8578 116.124 78.5761 113.738 77.1024C112.609 76.3742 111.324 75.9222 109.988 75.783C108.652 75.6438 107.302 75.8213 106.047 76.3013C105.409 76.5478 104.846 76.9532 104.409 77.4791C103.973 78.005 103.678 78.6337 103.553 79.3057C103.437 79.9405 103.455 80.5924 103.605 81.2201C103.755 81.8477 104.034 82.4372 104.424 82.951C105.215 83.8593 106.26 84.5091 107.424 84.8163C108.589 85.1234 109.818 85.0737 110.954 84.6735C112.978 83.9711 114.76 82.7066 116.091 81.0282C118.445 78.2362 119.804 74.7419 119.957 71.0937C120.046 68.3594 119.429 65.6483 118.164 63.2222C117.393 61.6993 116.378 60.3124 115.16 59.1162C114.843 58.8075 114.508 58.5167 114.159 58.2449C114.044 58.1441 113.916 58.0598 113.778 57.9946C115.47 59.5191 116.863 61.3464 117.884 63.3824C119.062 65.7687 119.614 68.4155 119.486 71.0736C119.286 74.5877 117.935 77.9382 115.641 80.6076C114.376 82.1718 112.696 83.3483 110.794 84.0025C109.799 84.3434 108.725 84.3827 107.708 84.1155C106.69 83.8482 105.774 83.2863 105.075 82.5003C104.758 82.0743 104.531 81.5885 104.407 81.072C104.283 80.5556 104.265 80.0195 104.354 79.4959C104.466 78.9582 104.713 78.458 105.073 78.0426C105.432 77.6273 105.891 77.3105 106.407 77.1225C107.546 76.7052 108.766 76.5594 109.971 76.6967C111.176 76.8341 112.332 77.2508 113.347 77.9136C115.557 79.2961 117.193 81.4299 117.954 83.9224C118.781 86.5278 119.044 89.2793 118.725 91.9942C118.524 94.8052 117.437 97.4802 115.621 99.6353C114.674 100.686 113.473 101.476 112.133 101.928C110.793 102.381 109.359 102.481 107.97 102.219C106.608 101.923 105.413 101.112 104.635 99.9558C104.252 99.4344 104.064 98.7958 104.102 98.1503C104.141 97.5048 104.403 96.893 104.845 96.4206C105.321 95.9592 105.892 95.6073 106.518 95.3893C107.144 95.1714 107.811 95.0927 108.47 95.1588C109.823 95.2666 111.114 95.7757 112.176 96.6209C114.273 98.3519 115.821 100.655 116.632 103.251C117.534 105.712 117.876 108.342 117.634 110.952C117.418 113.416 116.311 115.716 114.519 117.421C113.709 118.234 112.733 118.862 111.658 119.265C110.584 119.668 109.435 119.835 108.29 119.755C106.157 119.574 104.084 117.952 103.954 115.999C103.938 115.522 104.032 115.047 104.228 114.611C104.425 114.176 104.718 113.791 105.085 113.486C105.807 112.859 106.687 112.443 107.629 112.284C109.41 112.004 111.231 112.389 112.747 113.365C114.114 114.261 115.245 115.473 116.041 116.901C117.254 119.266 117.682 121.957 117.263 124.582C117.035 126.254 116.626 127.896 116.041 129.479C115.661 130.54 115.41 131.101 115.451 131.121Z" fill="#FAFAFA"/>
<path d="M67.691 130.22H101.27L101.27 64.2538H67.691V130.22Z" fill="#FAFAFA"/>
<path d="M68.8425 75.2099C68.8425 75.4703 76.1232 75.6706 85.0963 75.6706C94.0693 75.6706 101.35 75.4703 101.35 75.2099C101.35 74.9496 94.0693 74.7593 85.0963 74.7593C76.1232 74.7593 68.8425 74.9596 68.8425 75.2099Z" fill="#E0E0E0"/>
<path d="M68.4324 80.2169C68.4324 80.4673 75.6129 80.6676 84.4558 80.6676C93.2987 80.6676 100.479 80.4673 100.479 80.2169C100.479 79.9666 93.2987 79.7563 84.4558 79.7563C75.6129 79.7563 68.4324 79.9666 68.4324 80.2169Z" fill="#E0E0E0"/>
<path d="M67.3506 122.769C67.3506 123.02 74.9116 123.22 84.2452 123.22C93.5789 123.22 101.14 123.02 101.14 122.769C101.14 122.519 93.5789 122.309 84.2452 122.309C74.9116 122.309 67.3506 122.519 67.3506 122.769Z" fill="#E0E0E0"/>
<path d="M67.801 116.891C67.801 117.141 75.1718 117.341 84.2651 117.341C93.3583 117.341 100.729 117.141 100.729 116.891C100.729 116.64 93.3583 116.43 84.2651 116.43C75.1718 116.43 67.801 116.64 67.801 116.891Z" fill="#E0E0E0"/>
<path d="M166.315 129.729H185.673V57.2937H166.315V129.729Z" fill="#EBEBEB"/>
<path d="M180.225 130.661C180.319 130.538 180.396 130.403 180.456 130.26C180.596 130 180.776 129.589 181.006 129.058C181.672 127.482 182.143 125.831 182.408 124.141C182.901 121.435 182.504 118.642 181.277 116.18C180.466 114.643 179.285 113.332 177.842 112.364C176.209 111.25 174.222 110.78 172.264 111.042C171.198 111.212 170.2 111.673 169.379 112.374C168.931 112.744 168.574 113.211 168.334 113.741C168.094 114.27 167.979 114.848 167.997 115.428C168.048 116.027 168.221 116.608 168.505 117.137C168.79 117.665 169.179 118.13 169.65 118.503C170.585 119.293 171.737 119.782 172.955 119.905C174.211 120.002 175.473 119.829 176.656 119.397C177.84 118.965 178.917 118.285 179.815 117.401C181.751 115.569 182.958 113.096 183.21 110.441C183.484 107.706 183.142 104.945 182.208 102.359C181.338 99.615 179.693 97.1807 177.471 95.3491C176.269 94.399 174.812 93.8273 173.285 93.7067C172.492 93.6275 171.691 93.7247 170.939 93.9913C170.188 94.2579 169.505 94.6874 168.939 95.249C168.341 95.8565 167.985 96.6612 167.937 97.5123C167.918 98.3514 168.148 99.1773 168.598 99.8857C169.508 101.244 170.907 102.199 172.504 102.55C174.052 102.851 175.651 102.746 177.146 102.246C178.641 101.746 179.982 100.867 181.037 99.6955C182.975 97.3925 184.135 94.5357 184.351 91.5335C184.682 88.6891 184.398 85.8068 183.52 83.0812C182.681 80.4042 180.903 78.1207 178.513 76.6518C177.384 75.9242 176.1 75.4717 174.764 75.3308C173.428 75.1899 172.078 75.3645 170.822 75.8406C170.192 76.0876 169.634 76.4868 169.198 77.0024C168.761 77.5179 168.458 78.1339 168.318 78.795C168.206 79.4321 168.226 80.0855 168.378 80.7144C168.529 81.3434 168.809 81.9343 169.199 82.4503C169.989 83.3566 171.032 84.0052 172.195 84.3123C173.357 84.6194 174.584 84.5708 175.719 84.1728C177.748 83.4708 179.535 82.2024 180.866 80.5175C183.221 77.7269 184.577 74.2311 184.722 70.583C184.814 67.8496 184.2 65.1387 182.939 62.7115C182.168 61.1914 181.153 59.8078 179.935 58.6155C179.618 58.3065 179.283 58.0156 178.933 57.7442C178.703 57.564 178.573 57.4738 178.563 57.4939C180.257 59.0129 181.65 60.8373 182.669 62.8717C183.842 65.2593 184.39 67.9057 184.261 70.5629C184.074 74.078 182.725 77.4313 180.426 80.0969C179.162 81.6695 177.478 82.8504 175.569 83.5018C174.572 83.8402 173.498 83.8773 172.481 83.6083C171.464 83.3393 170.549 82.7762 169.85 81.9896C169.534 81.5634 169.307 81.0772 169.185 80.5607C169.063 80.0441 169.047 79.508 169.139 78.9852C169.252 78.4494 169.5 77.9512 169.86 77.5377C170.219 77.1242 170.677 76.809 171.192 76.6218C172.33 76.1997 173.551 76.0515 174.757 76.1889C175.962 76.3263 177.119 76.7457 178.132 77.4129C180.338 78.7994 181.973 80.9317 182.739 83.4217C183.566 86.0305 183.829 88.7854 183.51 91.5035C183.296 94.3116 182.21 96.9828 180.406 99.1447C179.458 100.194 178.257 100.982 176.917 101.432C175.577 101.883 174.143 101.982 172.754 101.718C171.392 101.429 170.196 100.621 169.42 99.4651C169.037 98.9437 168.849 98.3051 168.887 97.6596C168.926 97.0141 169.188 96.4023 169.63 95.93C170.103 95.4645 170.674 95.11 171.301 94.8917C171.928 94.6735 172.595 94.5972 173.255 94.6681C174.606 94.7789 175.894 95.2838 176.961 96.1202C179.054 97.854 180.602 100.156 181.417 102.75C182.317 105.211 182.659 107.842 182.419 110.451C182.196 112.916 181.09 115.217 179.304 116.931C178.493 117.743 177.518 118.372 176.443 118.774C175.368 119.177 174.22 119.344 173.075 119.264C170.942 119.084 168.869 117.461 168.739 115.509C168.721 115.029 168.814 114.552 169.01 114.115C169.206 113.677 169.501 113.29 169.87 112.985C170.595 112.366 171.474 111.954 172.414 111.793C174.214 111.531 176.048 111.945 177.561 112.955C178.935 113.851 180.069 115.067 180.866 116.5C182.079 118.866 182.507 121.556 182.088 124.181C181.849 125.824 181.432 127.435 180.846 128.988C180.436 130.08 180.195 130.641 180.225 130.661Z" fill="#FAFAFA"/>
<path d="M31.2682 129.729H58.1675L58.1675 53.6384H31.2682L31.2682 129.729Z" fill="#E0E0E0"/>
<path d="M185.673 129.729H210.83V61.9806H185.673V129.729Z" fill="#E0E0E0"/>
<path d="M211.461 95.77C212.681 96.87 214.026 97.8245 215.467 98.6142C217.052 99.3969 218.772 99.8726 220.534 100.016C222.685 100.178 224.843 99.8031 226.813 98.9246C228.936 98.0133 230.879 96.8516 232.822 96.1706C234.558 95.4662 236.464 95.2919 238.3 95.6699C239.54 95.9464 240.655 96.6218 241.474 97.5927C241.799 97.9264 242.018 98.3476 242.105 98.8045C242.035 98.8045 241.845 98.3838 241.254 97.803C240.411 96.9776 239.34 96.4231 238.18 96.2107C236.449 95.9308 234.674 96.1496 233.062 96.8416C231.179 97.5326 229.277 98.6943 227.053 99.6357C224.971 100.565 222.684 100.941 220.414 100.727C218.573 100.545 216.788 99.9936 215.166 99.1049C214.077 98.5153 213.09 97.7545 212.242 96.8516C211.917 96.5422 211.652 96.1755 211.461 95.77Z" fill="#FAFAFA"/>
<path d="M210.89 102.469C212.109 103.572 213.453 104.526 214.896 105.314C216.477 106.098 218.194 106.574 219.953 106.716C222.104 106.878 224.262 106.502 226.232 105.624C228.355 104.723 230.298 103.551 232.241 102.87C233.982 102.171 235.89 101.996 237.729 102.369C238.986 102.661 240.112 103.357 240.934 104.352C241.258 104.684 241.475 105.107 241.555 105.564C241.495 105.564 241.304 105.143 240.713 104.562C239.868 103.738 238.799 103.181 237.639 102.96C235.903 102.689 234.127 102.911 232.511 103.601C230.639 104.282 228.726 105.454 226.503 106.395C224.418 107.316 222.132 107.689 219.863 107.477C218.022 107.295 216.237 106.743 214.615 105.854C213.524 105.267 212.534 104.51 211.681 103.611C211.346 103.286 211.077 102.898 210.89 102.469Z" fill="#FAFAFA"/>
<path d="M211.31 80.7781C211.31 80.5578 218.24 80.3875 226.773 80.3875C235.305 80.3875 242.245 80.5578 242.245 80.7781C242.245 80.9984 235.325 81.1587 226.773 81.1587C218.22 81.1587 211.31 80.9884 211.31 80.7781Z" fill="#FAFAFA"/>
<path d="M199.874 72.8962C199.182 72.6144 198.42 72.5515 197.691 72.716C197.32 72.8113 196.976 72.9873 196.681 73.2314C196.387 73.4756 196.15 73.7817 195.988 74.128C195.859 74.5562 195.851 75.0115 195.964 75.4441C196.077 75.8767 196.307 76.2697 196.629 76.5801C196.951 76.8905 197.352 77.1063 197.788 77.2037C198.225 77.3011 198.679 77.2765 199.103 77.1324C199.442 76.9538 199.738 76.7037 199.972 76.3994C200.205 76.0951 200.37 75.7439 200.455 75.3699C200.591 74.6349 200.497 73.8757 200.184 73.1967C200.184 73.1967 200.435 73.2868 200.665 73.6674C200.981 74.2152 201.095 74.8569 200.985 75.48C200.917 75.9548 200.741 76.4075 200.47 76.8034C200.199 77.1992 199.841 77.5276 199.423 77.7633C198.868 77.9926 198.258 78.0551 197.667 77.9435C197.077 77.8318 196.532 77.5506 196.099 77.1344C195.665 76.7181 195.363 76.1847 195.227 75.5993C195.092 75.0138 195.13 74.4017 195.337 73.8376C195.554 73.4089 195.868 73.0364 196.254 72.7497C196.64 72.463 197.087 72.2697 197.56 72.1852C198.182 72.0574 198.829 72.1457 199.393 72.4356C199.814 72.6559 199.944 72.8662 199.874 72.8962Z" fill="#FAFAFA"/>
<path d="M198.291 122.95C198.081 122.95 197.901 113.446 197.901 101.739C197.901 90.0315 198.081 80.5276 198.291 80.5276C198.502 80.5276 198.672 90.0215 198.672 101.739C198.672 113.456 198.502 122.95 198.291 122.95Z" fill="#FAFAFA"/>
<path d="M268.084 129.339H7.7439V144.201H268.084V129.339Z" fill="#EBEBEB"/>
<path d="M268.084 129.339H245.351V144.201H268.084V129.339Z" fill="#E0E0E0"/>
<path d="M395.159 313.458C402.169 309.862 410.331 309.392 418.062 310.673C422.218 311.354 426.554 312.596 429.378 315.681C432.203 318.765 432.743 324.293 429.499 326.977C427.566 328.58 424.872 328.82 422.368 328.79C416.309 328.72 409.59 327.648 404.752 331.294C401.988 333.377 400.156 336.832 396.861 337.853C393.566 338.875 389.981 336.942 388.268 334.038C386.556 331.133 386.506 327.478 387.267 324.193C387.668 321.917 388.589 319.765 389.957 317.903C391.326 316.041 393.106 314.519 395.159 313.458Z" fill="#EBEBEB"/>
<path d="M379.135 282.612C383.402 288.691 391.684 286.678 395.519 282.963C399.355 279.248 400.977 273.87 402.46 268.732C405.834 257.005 409.239 244.697 406.726 232.76C406.119 229.139 404.529 225.754 402.129 222.975C399.625 220.332 395.76 218.759 392.235 219.691C388.058 220.792 385.465 224.878 383.592 228.764C378.066 240.256 375.175 252.836 375.13 265.588C375.13 271.516 375.801 277.735 379.135 282.612Z" fill="#EBEBEB"/>
<path d="M367.469 291.375C372.096 285.877 372.977 277.875 370.914 270.995C368.851 264.115 364.204 258.267 358.846 253.49C352.539 247.877 345.198 243.546 337.235 240.741C334.154 239.496 330.84 238.932 327.52 239.089C324.226 239.409 320.901 241.092 319.369 244.026C317.095 248.362 319.268 253.62 321.632 257.916C325.789 265.48 330.534 272.706 335.823 279.528C340.079 285.016 344.946 290.424 351.435 292.897C357.925 295.371 364.655 295.091 368.09 290.594" fill="#EBEBEB"/>
<path d="M378.885 374.427C379.105 373.52 379.233 372.594 379.266 371.663C379.466 369.66 379.706 367.126 379.997 364.122C380.374 360.403 380.943 356.706 381.699 353.045C382.685 348.606 384.024 344.252 385.705 340.026C387.352 335.789 389.598 331.809 392.375 328.209C394.626 325.272 397.508 322.876 400.807 321.199C403.041 320.089 405.438 319.342 407.907 318.986C408.837 318.951 409.76 318.817 410.661 318.585C409.729 318.483 408.789 318.483 407.857 318.585C405.295 318.779 402.789 319.43 400.456 320.508C396.986 322.151 393.94 324.57 391.553 327.578C388.674 331.224 386.346 335.273 384.643 339.596C382.925 343.897 381.584 348.341 380.638 352.875C379.919 356.577 379.428 360.32 379.165 364.081C378.925 367.286 378.835 369.88 378.795 371.673C378.725 372.591 378.755 373.515 378.885 374.427Z" fill="#E0E0E0"/>
<path d="M379.396 368.618C379.477 368.196 379.504 367.765 379.476 367.336C379.476 366.335 379.476 365.163 379.476 363.671C379.476 360.486 379.476 355.88 379.636 350.191C379.917 338.815 380.898 326.567 382.791 309.302C384.584 293.058 386.987 274.17 389.531 261.882C390.072 259.088 390.622 256.575 391.133 254.371C391.644 252.168 392.044 250.265 392.455 248.723C392.866 247.181 393.086 246.099 393.316 245.158C393.44 244.748 393.514 244.324 393.537 243.896C393.339 244.277 393.187 244.681 393.086 245.098L392.024 248.613C391.554 250.135 391.073 252.028 390.512 254.231C389.951 256.434 389.331 258.928 388.74 261.712C385.597 276.24 383.233 290.926 381.659 305.706C379.757 323.012 378.905 338.755 378.835 350.171C378.765 355.88 378.885 360.496 379.035 363.681C379.126 365.173 379.196 366.385 379.256 367.346C379.256 367.774 379.303 368.201 379.396 368.618Z" fill="#E0E0E0"/>
<path d="M379.476 338.234C379.581 336.961 379.581 335.681 379.476 334.408C379.261 330.929 378.87 327.463 378.304 324.023C377.466 318.919 376.34 313.867 374.929 308.891C373.281 302.772 371.165 296.789 368.6 290.995C363.353 278.547 356.232 268.372 350.023 262.063C348.655 260.62 347.196 259.265 345.657 258.007C344.986 257.436 344.395 256.875 343.784 256.424L342.081 255.253C341.062 254.482 339.984 253.792 338.857 253.19C338.677 253.44 343.423 256.194 349.432 262.623C355.441 269.053 362.341 279.107 367.549 291.445C370.062 297.209 372.186 303.134 373.908 309.181C375.359 314.125 376.559 319.139 377.503 324.203C378.294 328.52 378.755 332.045 379.025 334.478C379.079 335.74 379.23 336.995 379.476 338.234Z" fill="#E0E0E0"/>
<path d="M350.113 391.832L353.158 433.543H406.736L409.78 391.832H350.113Z" fill="#E0E0E0"/>
<path d="M416.179 375.398H344.935V391.842H416.179V375.398Z" fill="#E0E0E0"/>
<path d="M344.935 431.95V436.507H348.28H414.998V431.95H344.935Z" fill="#EBEBEB"/>
<path d="M351.565 444.529L348.28 436.507H412.444L408.618 444.529H351.565Z" fill="#E0E0E0"/>
<path d="M408.789 405.462C408.723 405.602 408.639 405.734 408.539 405.852L407.737 406.914L404.613 410.92L404.473 411.09L404.342 410.91L396.671 400.304H397.162C394.889 403.529 392.345 407.134 389.611 410.99L389.381 411.33L389.11 411.01L380.137 400.344H380.658L380.157 400.965L372.145 410.98L371.875 411.31L371.635 410.97L364.074 400.274H364.514C360.799 404.52 357.634 408.116 355.211 410.88L355.051 411.07L354.92 410.85L352.006 405.963L351.265 404.661C351.168 404.514 351.091 404.356 351.035 404.19C351.154 404.314 351.259 404.452 351.345 404.601L352.176 405.862L355.231 410.659H354.94L364.114 399.954L364.344 399.683L364.554 399.974L372.125 410.609H371.615L379.626 400.595L380.127 399.974L380.377 399.653L380.638 399.974L389.571 410.649H389.07L396.691 400.004L396.922 399.693L397.132 400.004L404.643 410.729H404.373L407.617 406.834L408.489 405.832C408.58 405.702 408.68 405.578 408.789 405.462Z" fill="#F5F5F5"/>
<path d="M410.531 391.562C410.531 391.742 397.102 391.892 380.548 391.892C363.993 391.892 350.504 391.742 350.504 391.562C350.504 391.381 363.933 391.221 380.548 391.221C397.162 391.221 410.531 391.371 410.531 391.562Z" fill="#F5F5F5"/>
<path d="M413.235 436.958C413.235 437.138 398.644 437.288 380.648 437.288C362.652 437.288 348.09 437.138 348.09 436.958C348.09 436.778 362.672 436.627 380.678 436.627C398.684 436.627 413.235 436.768 413.235 436.958Z" fill="#F5F5F5"/>
<path d="M244.128 44.4849L250.267 42.7223C250.267 42.7223 251.75 47.8798 257.137 46.4277C258.18 46.1685 259.115 45.5916 259.815 44.777C260.515 43.9624 260.944 42.9504 261.043 41.8811C261.137 40.9811 261.016 40.0717 260.69 39.2275C260.365 38.3833 259.844 37.6281 259.17 37.024C257.638 35.6119 254.904 34.7006 250.978 36.6234L246.973 22.7732L253.041 21.0306L255.375 29.1425C258.079 29.1511 260.706 30.0475 262.852 31.6939C264.998 33.3403 266.544 35.6456 267.252 38.2558C269.826 47.2689 262.375 51.6353 258.92 52.6267C256.286 53.4079 247.123 55.3507 244.128 44.4849Z" fill="#EBEBEB"/>
<path d="M250.673 12.384L244.513 14.1528L246.166 19.909L252.326 18.1402L250.673 12.384Z" fill="#EBEBEB"/>
<path d="M420.306 131.902L414.718 128.808C414.718 128.808 417.311 124.111 412.484 121.327C411.561 120.763 410.484 120.503 409.406 120.586C408.327 120.669 407.302 121.089 406.476 121.788C405.773 122.355 405.215 123.082 404.848 123.907C404.48 124.732 404.314 125.633 404.363 126.535C404.443 128.618 405.735 131.191 409.871 132.613L402.86 145.222L397.332 142.157L401.428 134.777C399.526 132.855 398.308 130.361 397.962 127.679C397.617 124.997 398.162 122.276 399.515 119.935C404.042 111.763 412.424 113.926 415.539 115.659C418.022 116.991 425.874 122.098 420.306 131.902Z" fill="#EBEBEB"/>
<path d="M392.969 149.975L398.576 153.08L401.478 147.841L395.871 144.736L392.969 149.975Z" fill="#EBEBEB"/>
<path d="M21.2029 391.662L29.0343 443.157H74.5608L85.1262 392.403L21.2029 391.662Z" fill="#EBEBEB"/>
<path d="M78.7569 424.66C78.7569 424.81 67.0899 424.93 52.7189 424.93C38.3479 424.93 26.6809 424.81 26.6809 424.66C26.6809 424.51 38.3479 424.39 52.7189 424.39C67.0899 424.39 78.7569 424.51 78.7569 424.66Z" fill="#FAFAFA"/>
<path d="M78.9373 422.126C78.9373 422.276 67.1901 422.396 52.709 422.396C38.2279 422.396 26.4807 422.276 26.4807 422.126C26.4807 421.976 38.2178 421.866 52.709 421.866C67.2002 421.866 78.9373 421.976 78.9373 422.126Z" fill="#FAFAFA"/>
<path d="M78.8474 419.272C78.8474 419.412 67.1003 419.532 52.6192 419.532C38.138 419.532 26.3909 419.412 26.3909 419.272C26.3909 419.132 38.128 419.002 52.6192 419.002C67.1103 419.002 78.8474 419.122 78.8474 419.272Z" fill="#FAFAFA"/>
<path d="M34.2621 440.213C33.6257 438.093 33.1602 435.927 32.87 433.733C32.3981 431.568 32.1067 429.367 31.9988 427.154C32.633 429.277 33.0985 431.447 33.3908 433.643C33.8619 435.805 34.1533 438.002 34.2621 440.213Z" fill="#FAFAFA"/>
<path d="M37.3566 439.672C37.0387 437.576 36.8514 435.462 36.7958 433.342C36.5599 431.235 36.4596 429.114 36.4953 426.993C36.9982 429.06 37.2769 431.176 37.3266 433.302C37.5616 435.418 37.5717 437.554 37.3566 439.672Z" fill="#FAFAFA"/>
<path d="M43.0048 439.662C41.9411 435.388 41.4262 430.996 41.4726 426.593C42.137 430.929 42.648 435.289 43.0048 439.662Z" fill="#FAFAFA"/>
<path d="M46.9708 439.932C46.2738 435.568 46.1292 431.133 46.5402 426.733C46.7781 428.925 46.8884 431.128 46.8707 433.333C47.0277 435.529 47.0612 437.732 46.9708 439.932Z" fill="#FAFAFA"/>
<path d="M53.9805 439.672C53.6439 437.603 53.4831 435.509 53.4998 433.413C53.3367 431.325 53.3568 429.228 53.5599 427.144C53.891 429.21 54.0484 431.3 54.0306 433.393C54.1934 435.483 54.1766 437.584 53.9805 439.672Z" fill="#FAFAFA"/>
<path d="M59.1082 439.942C58.8534 437.796 58.7797 435.632 58.8878 433.473C58.8158 431.311 58.923 429.147 59.2083 427.003C59.4568 429.15 59.5272 431.314 59.4186 433.473C59.4907 435.634 59.3869 437.798 59.1082 439.942Z" fill="#FAFAFA"/>
<path d="M63.9057 439.251C63.8635 436.991 63.9941 434.731 64.2962 432.491C64.4228 430.234 64.7309 427.99 65.2176 425.782C65.2596 428.041 65.129 430.301 64.827 432.541C64.6984 434.799 64.3903 437.043 63.9057 439.251Z" fill="#FAFAFA"/>
<path d="M70.1042 438.58C70.1146 436.636 70.3703 434.701 70.8654 432.822C71.1971 430.909 71.7656 429.045 72.5578 427.273C72.2817 429.185 71.8904 431.078 71.3861 432.942C71.0618 434.843 70.6339 436.725 70.1042 438.58Z" fill="#FAFAFA"/>
<path d="M15.9758 381.457V391.101C15.9758 391.599 16.0741 392.092 16.2649 392.552C16.4558 393.012 16.7355 393.43 17.0881 393.781C17.4407 394.133 17.8592 394.411 18.3196 394.601C18.7801 394.791 19.2734 394.888 19.7714 394.886H85.7076C86.7125 394.886 87.6764 394.488 88.3879 393.778C89.0994 393.069 89.5005 392.106 89.5032 391.101V381.457H15.9758Z" fill="#EBEBEB"/>
<path d="M83.0637 402.297L84.6059 394.886H21.6941L22.2349 397.961" fill="#E0E0E0"/>
<path d="M25.9001 381.507C25.9001 381.507 0.272691 351.964 3.11684 350.892C5.96099 349.821 28.7442 366.205 28.7442 366.205C28.7442 366.205 9.17569 322.421 13.0914 319.216C17.0071 316.011 37.6372 358.013 37.6372 358.013C37.6372 358.013 34.4326 296.793 37.6372 296.082C40.8419 295.371 52.5891 357.302 52.5891 357.302C52.5891 357.302 70.0345 300.709 75.0118 300.709C79.989 300.709 69.684 355.168 69.684 355.168C69.684 355.168 90.3341 320.288 93.5388 324.914C96.7435 329.541 78.9375 367.266 78.9375 367.266C78.9375 367.266 104.976 345.554 105.977 348.409C106.978 351.263 77.8559 381.507 77.8559 381.507H25.9001Z" fill="#F5F5F5"/>
<path d="M22.3248 337.012C22.5051 336.932 27.0517 346.676 32.4797 358.784C37.9076 370.891 42.1638 380.756 41.9936 380.816C41.8233 380.876 37.2667 371.152 31.8387 359.044C26.4108 346.936 22.1446 337.092 22.3248 337.012Z" fill="#E0E0E0"/>
<path d="M43.0251 342.46C43.2254 342.46 44.0266 351.032 44.7176 361.648C45.4086 372.263 45.8993 380.866 45.7191 380.876C45.5388 380.886 44.7777 372.303 44.0366 361.688C43.2955 351.072 42.8349 342.47 43.0251 342.46Z" fill="#E0E0E0"/>
<path d="M71.5866 315.04C71.5719 315.277 71.5213 315.51 71.4364 315.731C71.2862 316.252 71.1059 316.903 70.8756 317.684C70.3348 319.466 69.6137 321.88 68.7324 324.814C66.9298 330.823 64.4962 339.175 62.0226 348.439C59.549 357.702 57.496 366.155 56.0639 372.274C55.3729 375.278 54.7921 377.711 54.3715 379.524C54.1812 380.315 54.021 380.966 53.8908 381.527C53.8478 381.758 53.7772 381.984 53.6805 382.198C53.668 381.962 53.6917 381.726 53.7506 381.497C53.8507 380.956 53.9609 380.305 54.1011 379.494C54.4215 377.762 54.9223 375.268 55.5832 372.183C56.8951 366.034 58.868 357.562 61.3416 348.278C63.8152 338.995 66.3489 330.673 68.2617 324.684C69.2632 321.68 70.0243 319.276 70.6152 317.614C70.8956 316.853 71.1159 316.222 71.3062 315.711C71.3702 315.476 71.4645 315.251 71.5866 315.04Z" fill="#E0E0E0"/>
<path d="M83.9345 346.596C84.0948 346.706 79.0975 354.167 72.7682 363.26C66.439 372.354 61.1713 379.624 61.0111 379.514C60.8508 379.404 65.8581 371.943 72.1874 362.86C78.5166 353.776 83.7843 346.486 83.9345 346.596Z" fill="#E0E0E0"/>
<path d="M34.5522 380.886C33.7342 380.458 32.9793 379.918 32.3089 379.283C30.6042 377.869 28.9762 376.365 27.4318 374.777C25.8814 373.19 24.4204 371.518 23.0554 369.77C22.4285 369.091 21.9084 368.321 21.5132 367.486C21.6734 367.356 24.3373 370.591 27.9326 374.266C31.5278 377.942 34.6824 380.756 34.5522 380.886Z" fill="#E0E0E0"/>
<path d="M50.1154 369.149C50.3057 369.149 50.7163 371.853 51.0268 375.238C51.3372 378.623 51.4274 381.377 51.2371 381.397C51.0468 381.417 50.6362 378.683 50.3257 375.308C50.0153 371.933 49.9252 369.159 50.1154 369.149Z" fill="#E0E0E0"/>
<path d="M348.862 235.965C349.176 233.925 349.083 231.844 348.59 229.841C348.097 227.837 347.212 225.951 345.988 224.291C344.763 222.63 343.222 221.229 341.453 220.166C339.685 219.103 337.723 218.401 335.682 218.099C335.306 217.999 334.905 218.045 334.561 218.229C334.368 218.422 334.228 218.662 334.154 218.925C334.08 219.188 334.076 219.466 334.14 219.731C334.516 223.709 336.142 227.467 338.785 230.464C341.428 233.461 344.952 235.545 348.852 236.415" fill="#3A82A5"/>
<path d="M326.939 264.837C330.885 272.969 336.563 278.457 343.584 278.717C344.996 278.767 346.057 277.846 347.399 277.766C348.181 277.944 348.936 278.227 349.642 278.607C350.012 278.772 350.41 278.864 350.814 278.878C358.075 278.487 364.264 273.379 368.43 264.857C374.238 252.89 372.436 240.041 364.424 236.135C363.37 235.609 362.271 235.18 361.139 234.853C359.835 234.499 358.484 234.343 357.133 234.393C354.009 234.597 350.937 235.294 348.03 236.456L347.639 236.596C341.13 233.722 335.922 233.702 330.885 236.135C322.913 240.021 321.131 252.87 326.939 264.837Z" fill="#162082"/>
<path d="M327.059 252.719C326.676 251.972 326.451 251.154 326.398 250.316C326.152 248.285 326.395 246.224 327.109 244.307C327.818 242.399 328.963 240.684 330.454 239.3C331.042 238.698 331.748 238.224 332.527 237.908C332.587 237.988 331.786 238.498 330.735 239.58C329.367 240.985 328.309 242.661 327.63 244.499C326.95 246.338 326.664 248.299 326.789 250.256C326.909 251.778 327.179 252.689 327.059 252.719Z" fill="#FAFAFA"/>
<path d="M328.551 258.408C328.401 258.408 328.141 257.877 327.981 257.146C327.82 256.415 327.79 255.794 327.981 255.764C328.171 255.734 328.391 256.295 328.551 257.026C328.712 257.757 328.702 258.368 328.551 258.408Z" fill="#FAFAFA"/>
<path d="M365.415 216.396C365.466 216.496 363.923 217.067 361.66 218.399C360.343 219.196 359.088 220.089 357.904 221.073C356.475 222.295 355.152 223.635 353.949 225.079C352.769 226.545 351.717 228.11 350.804 229.756C350.073 231.109 349.443 232.515 348.921 233.962C348.05 236.446 347.79 238.068 347.68 238.048C347.673 237.663 347.717 237.28 347.81 236.906C347.871 236.458 347.958 236.013 348.07 235.574C348.21 235.064 348.331 234.473 348.551 233.842C349.027 232.351 349.63 230.903 350.353 229.515C351.258 227.826 352.318 226.223 353.518 224.728C354.744 223.268 356.106 221.927 357.584 220.723C358.799 219.734 360.099 218.856 361.47 218.099C362.041 217.758 362.591 217.518 363.072 217.288C363.477 217.09 363.891 216.913 364.314 216.757C364.665 216.591 365.035 216.47 365.415 216.396Z" fill="#263238"/>
<path d="M320.53 187.584C322.513 190.271 324.355 193.058 326.048 195.936C327.894 198.722 329.593 201.604 331.135 204.569C329.148 201.88 327.303 199.089 325.607 196.207C323.767 193.422 322.073 190.544 320.53 187.584Z" fill="#263238"/>
<path d="M315.042 174.816C315.042 174.665 315.813 174.816 316.103 175.657C316.394 176.498 315.973 177.069 315.853 176.979C315.733 176.889 315.853 176.398 315.613 175.837C315.372 175.276 314.952 174.956 315.042 174.816Z" fill="#263238"/>
<path d="M336.854 163.279C336.994 163.279 338.246 171.841 339.658 182.447C341.07 193.052 342.081 201.675 341.941 201.695C341.801 201.715 340.539 193.132 339.137 182.517C337.735 171.901 336.703 163.289 336.854 163.279Z" fill="#263238"/>
<path d="M368.58 180.985C368.71 181.045 366.657 186.202 363.983 192.512C361.309 198.821 359.046 203.878 358.906 203.828C358.765 203.778 360.829 198.61 363.502 192.301C366.176 185.992 368.45 180.935 368.58 180.985Z" fill="#263238"/>
<path d="M372.816 171.871C372.946 171.931 372.816 172.462 372.616 173.053C372.416 173.644 372.055 174.055 371.925 174.055C371.795 174.055 371.925 173.474 372.125 172.883C372.325 172.292 372.676 171.821 372.816 171.871Z" fill="#263238"/>
<path d="M395.379 193.993C395.459 194.114 389.661 198.19 382.44 203.107C375.22 208.024 369.291 211.91 369.211 211.799C369.131 211.689 374.919 207.593 382.15 202.676C389.38 197.759 395.299 193.873 395.379 193.993Z" fill="#263238"/>
<path d="M384.534 217.197C382.681 217.508 380.804 217.652 378.925 217.628C377.05 217.773 375.166 217.739 373.297 217.528C375.15 217.218 377.027 217.077 378.905 217.107C380.78 216.962 382.664 216.993 384.534 217.197Z" fill="#263238"/>
<path d="M324.505 213.762C324.425 213.882 318.496 210.127 311.236 205.37C303.975 200.613 298.167 196.657 298.217 196.537C298.267 196.417 304.226 200.172 311.486 204.929C318.747 209.686 324.585 213.642 324.505 213.762Z" fill="#263238"/>
<path d="M317.986 221.113C316.166 221.17 314.345 221.052 312.548 220.763C310.732 220.64 308.932 220.348 307.17 219.891C308.99 219.834 310.811 219.952 312.608 220.242C314.424 220.363 316.225 220.655 317.986 221.113Z" fill="#263238"/>
<path d="M108.74 251.777C108.049 250.775 107.048 249.844 106.788 248.632C106.731 247.61 106.754 246.586 106.858 245.568C106.806 245.006 106.644 244.461 106.382 243.963C106.119 243.464 105.761 243.022 105.328 242.662C104.894 242.302 104.394 242.031 103.856 241.865C103.318 241.698 102.752 241.64 102.191 241.692C103.603 240.39 103.332 237.866 101.92 236.564C101.173 235.954 100.281 235.546 99.33 235.381C98.3791 235.216 97.4018 235.3 96.4925 235.623C97.4911 234.32 98.0863 232.754 98.2045 231.117C98.3228 229.479 97.9589 227.844 97.1579 226.411C96.3569 224.978 95.1538 223.811 93.6972 223.055C92.2406 222.298 90.5942 221.985 88.9615 222.153C89.3666 223.142 89.4687 224.229 89.2547 225.275C89.0407 226.322 88.5203 227.282 87.7598 228.032C86.4059 229.138 84.7806 229.86 83.0529 230.125C81.3242 230.378 79.6571 230.949 78.1357 231.807C77.3873 232.252 76.7937 232.917 76.4354 233.71C76.0772 234.504 75.9715 235.388 76.1328 236.244C73.2586 237.005 70.2742 237.956 68.2413 240.13C66.2083 242.303 65.5974 246.068 67.7105 248.141C66.5691 248.531 65.5604 249.234 64.7997 250.171C64.039 251.107 63.557 252.238 63.4087 253.435C63.2603 254.632 63.4517 255.846 63.961 256.94C64.4702 258.033 65.2767 258.961 66.2884 259.618L104.785 265.627C106.901 264.008 108.532 261.84 109.501 259.358C109.963 258.12 110.135 256.793 110.003 255.479C109.871 254.164 109.439 252.898 108.74 251.777Z" fill="#162082"/>
<path d="M67.2395 278.606L61.6013 255.812L64.4254 257.094L67.2395 254.42L69.5429 257.094L72.9178 254.42L75.9022 257.094L79.4774 254.42L82.6621 257.094L87.429 254.42L90.0128 257.094L94.3792 254.42L96.7626 257.094L101.54 254.42L104.354 257.094L108.68 254.42L110.433 257.094L114.448 255.612L106.497 281.37L67.2395 278.606Z" fill="#162082"/>
<path opacity="0.3" d="M67.2395 278.606L61.6013 255.812L64.4254 257.094L67.2395 254.42L69.5429 257.094L72.9178 254.42L75.9022 257.094L79.4774 254.42L82.6621 257.094L87.429 254.42L90.0128 257.094L94.3792 254.42L96.7626 257.094L101.54 254.42L104.354 257.094L108.68 254.42L110.433 257.094L114.448 255.612L106.497 281.37L67.2395 278.606Z" fill="black"/>
<path d="M68.2214 278.756C68.0812 278.756 67.1198 273.949 66.0682 267.97C65.0167 261.991 64.2756 257.114 64.4258 257.094C64.5761 257.074 65.5275 261.891 66.579 267.88C67.6305 273.869 68.3616 278.726 68.2214 278.756Z" fill="#263238"/>
<path d="M71.5161 278.916C71.2294 277.87 71.035 276.801 70.9352 275.721C70.6649 273.718 70.3444 270.994 70.084 267.95C69.8236 264.906 69.6834 262.142 69.6333 260.139C69.535 259.063 69.535 257.98 69.6333 256.904C69.8227 257.966 69.9331 259.04 69.9638 260.119C70.1241 262.272 70.3344 264.946 70.5647 267.91C70.795 270.874 71.0755 273.538 71.2657 275.681C71.4259 276.752 71.5096 277.833 71.5161 278.916Z" fill="#263238"/>
<path d="M75.8124 279.207C75.6928 278.14 75.6492 277.065 75.6822 275.992C75.6822 273.849 75.6021 271.185 75.552 268.241C75.502 265.296 75.552 262.462 75.552 260.469C75.5374 259.396 75.6178 258.324 75.7924 257.265C75.9125 258.332 75.956 259.406 75.9226 260.479C75.9226 262.612 76.0027 265.276 76.0528 268.231C76.1028 271.185 76.0528 274.009 76.0528 275.992C76.067 277.069 75.9866 278.144 75.8124 279.207Z" fill="#263238"/>
<path d="M80.4594 279.747C80.3192 279.747 80.6397 274.74 81.1805 268.601C81.7213 262.462 82.2721 257.485 82.4223 257.495C82.5725 257.505 82.242 262.502 81.7012 268.651C81.1604 274.8 80.5996 279.767 80.4594 279.747Z" fill="#263238"/>
<path d="M85.8075 279.747C85.6673 279.747 86.3883 274.65 87.4298 268.401C88.4714 262.152 89.4328 257.124 89.5629 257.144C89.6931 257.164 88.9821 262.252 87.9406 268.491C86.8991 274.73 85.9477 279.777 85.8075 279.747Z" fill="#263238"/>
<path d="M90.3037 280.108C90.1635 280.108 91.5555 274.84 93.4082 268.431C95.2609 262.021 96.8632 256.854 97.0035 256.894C97.1437 256.934 95.7216 262.162 93.9089 268.591C92.0963 275.02 90.4439 280.148 90.3037 280.108Z" fill="#263238"/>
<path d="M95.6014 280.609C95.4712 280.558 97.3239 275.261 99.7475 268.781C102.171 262.302 104.244 257.084 104.374 257.134C104.504 257.184 102.662 262.482 100.238 268.962C97.8147 275.441 95.7216 280.659 95.6014 280.609Z" fill="#263238"/>
<path d="M100.969 280.609C100.839 280.548 102.862 275.341 105.496 268.962C108.13 262.582 110.363 257.455 110.503 257.515C110.643 257.575 108.62 262.782 105.986 269.162C103.353 275.541 101.109 280.659 100.969 280.609Z" fill="#263238"/>
<g opacity="0.6">
<path d="M102.221 241.692C103.633 240.39 103.363 237.866 101.951 236.564C101.203 235.954 100.311 235.546 99.3604 235.381C98.4095 235.216 97.4321 235.3 96.5228 235.623C97.5214 234.32 98.1166 232.754 98.2349 231.117C98.3531 229.479 97.9893 227.844 97.1882 226.411C96.3872 224.978 95.1841 223.811 93.7275 223.055C92.2709 222.298 90.6246 221.985 88.9918 222.153C89.397 223.142 89.499 224.229 89.285 225.275C89.071 226.322 88.5507 227.282 87.7901 228.032C86.4363 229.138 84.811 229.86 83.0832 230.125C81.3545 230.378 79.6875 230.949 78.166 231.807C77.4176 232.252 76.824 232.917 76.4658 233.71C76.1075 234.504 76.0018 235.388 76.1631 236.244C74.5788 236.628 73.0334 237.158 71.5464 237.826C71.7942 238.816 72.3283 239.71 73.0817 240.398C73.8352 241.085 74.7746 241.535 75.7826 241.692C76.884 241.883 78.0137 241.833 79.0941 241.546C80.1744 241.259 81.18 240.742 82.0417 240.029C82.0417 240.029 79.3778 246.339 85.8372 247.941C87.5949 248.447 89.463 248.421 91.2059 247.867C92.9489 247.312 94.4888 246.254 95.6315 244.826C95.6315 244.826 101.15 246.289 102.221 241.692Z" fill="white"/>
</g>
<path d="M82.3121 234.812H81.9516C81.6896 234.857 81.454 234.999 81.2916 235.209C81.1291 235.42 81.0515 235.683 81.0742 235.948C81.0968 236.213 81.2181 236.46 81.4139 236.64C81.6098 236.82 81.866 236.919 82.1319 236.919C82.3977 236.919 82.6539 236.82 82.8498 236.64C83.0457 236.46 83.1669 236.213 83.1896 235.948C83.2122 235.683 83.1346 235.42 82.9722 235.209C82.8097 234.999 82.5741 234.857 82.3121 234.812Z" fill="#162082"/>
<path d="M93.328 238.717H92.9675C92.7028 238.763 92.4647 238.906 92.3003 239.118C92.136 239.33 92.0573 239.597 92.08 239.864C92.1027 240.132 92.225 240.381 92.4227 240.563C92.6205 240.744 92.8792 240.845 93.1477 240.845C93.4163 240.845 93.675 240.744 93.8728 240.563C94.0705 240.381 94.1928 240.132 94.2155 239.864C94.2381 239.597 94.1595 239.33 93.9952 239.118C93.8308 238.906 93.5927 238.763 93.328 238.717Z" fill="#162082"/>
<path d="M89.7128 232.949H89.3522C89.0902 232.994 88.8547 233.136 88.6922 233.346C88.5297 233.557 88.4522 233.821 88.4748 234.086C88.4975 234.351 88.6187 234.597 88.8146 234.777C89.0104 234.957 89.2666 235.057 89.5325 235.057C89.7984 235.057 90.0546 234.957 90.2504 234.777C90.4463 234.597 90.5675 234.351 90.5902 234.086C90.6128 233.821 90.5353 233.557 90.3728 233.346C90.2103 233.136 89.9748 232.994 89.7128 232.949Z" fill="#162082"/>
<path d="M86.9687 240.49H86.6182C86.3529 240.534 86.1138 240.676 85.9484 240.888C85.783 241.1 85.7035 241.367 85.7255 241.635C85.7476 241.903 85.8697 242.153 86.0675 242.335C86.2654 242.518 86.5245 242.619 86.7935 242.619C87.0625 242.619 87.3216 242.518 87.5194 242.335C87.7173 242.153 87.8394 241.903 87.8614 241.635C87.8835 241.367 87.804 241.1 87.6386 240.888C87.4732 240.676 87.2341 240.534 86.9687 240.49Z" fill="#3A82A5"/>
<path d="M95.3607 228.973H95.0002C94.7328 229.019 94.4921 229.163 94.3259 229.377C94.1597 229.591 94.08 229.86 94.1027 230.13C94.1253 230.4 94.2487 230.652 94.4483 230.836C94.648 231.019 94.9093 231.121 95.1805 231.121C95.4517 231.121 95.7129 231.019 95.9126 230.836C96.1122 230.652 96.2356 230.4 96.2583 230.13C96.2809 229.86 96.2012 229.591 96.035 229.377C95.8688 229.163 95.6281 229.019 95.3607 228.973Z" fill="#3A82A5"/>
<path d="M99.4271 239.479H99.0666C98.8046 239.524 98.569 239.666 98.4066 239.876C98.2441 240.087 98.1665 240.35 98.1892 240.615C98.2118 240.88 98.3331 241.127 98.5289 241.307C98.7248 241.487 98.981 241.586 99.2469 241.586C99.5127 241.586 99.7689 241.487 99.9648 241.307C100.161 241.127 100.282 240.88 100.305 240.615C100.327 240.35 100.25 240.087 100.087 239.876C99.9247 239.666 99.6891 239.524 99.4271 239.479Z" fill="#3A82A5"/>
<path d="M74.8809 238.237C74.8809 238.327 74.1098 238.287 72.9581 238.607C71.4655 239.025 70.1437 239.905 69.1826 241.121C68.2533 242.36 67.7351 243.859 67.7004 245.407C67.7004 246.609 67.9007 247.34 67.8206 247.36C67.4782 246.771 67.3082 246.098 67.3299 245.417C67.2476 243.756 67.7588 242.12 68.772 240.801C69.8008 239.496 71.2533 238.593 72.878 238.247C73.5316 238.057 74.2254 238.053 74.8809 238.237Z" fill="white"/>
<path d="M90.5239 224.527C90.7161 224.727 90.857 224.971 90.9345 225.238C91.1998 225.951 91.2858 226.717 91.1849 227.471C91.0469 228.61 90.5281 229.669 89.7127 230.476C88.6599 231.39 87.3385 231.939 85.9472 232.038C84.5151 232.228 83.1632 232.208 81.9414 232.398C80.8906 232.514 79.8888 232.904 79.0371 233.53C78.4711 233.958 78.0287 234.528 77.7553 235.182C77.575 235.653 77.565 235.944 77.5149 235.944C77.4342 235.676 77.4342 235.39 77.5149 235.122C77.7319 234.385 78.1644 233.729 78.7567 233.24C79.6382 232.529 80.6985 232.075 81.8212 231.928C83.053 231.697 84.425 231.707 85.827 231.527C87.1117 231.431 88.3356 230.941 89.3322 230.125C90.0909 229.402 90.5966 228.454 90.7743 227.421C90.9244 226.45 90.8385 225.458 90.5239 224.527Z" fill="white"/>
<path d="M88.5609 245.728C88.5609 245.778 88.1102 246.098 87.2089 246.138C86.616 246.163 86.0256 246.047 85.4859 245.8C84.9463 245.553 84.4726 245.182 84.1036 244.718C83.7345 244.253 83.4805 243.708 83.3623 243.126C83.2441 242.544 83.265 241.943 83.4234 241.371C83.6637 240.5 84.0944 240.099 84.1344 240.14C84.1745 240.18 83.9141 240.64 83.7839 241.441C83.6856 241.956 83.6993 242.485 83.8239 242.994C83.9486 243.502 84.1813 243.978 84.5063 244.388C84.8313 244.799 85.2409 245.135 85.7073 245.373C86.1736 245.611 86.6858 245.745 87.2089 245.768C88.0301 245.828 88.5308 245.648 88.5609 245.728Z" fill="white"/>
<path d="M97.7248 243.765C97.7248 243.895 96.8335 244.155 95.7219 243.835C94.6103 243.514 93.9994 242.833 94.0995 242.703C94.1997 242.573 94.9007 243.054 95.8621 243.334C96.8235 243.614 97.7248 243.614 97.7248 243.765Z" fill="white"/>
<path d="M68.7823 250.094C67.9372 250.492 67.1294 250.964 66.3688 251.506C65.7146 252.177 65.1214 252.904 64.5962 253.679C64.7534 252.682 65.2613 251.772 66.0285 251.115C66.7958 250.458 67.7721 250.096 68.7823 250.094Z" fill="white"/>
<path d="M75.5521 247.631C75.6522 247.741 75.3217 248.202 75.0814 248.822C74.841 249.443 74.7409 250.004 74.6007 250.014C74.4605 250.024 74.2902 249.373 74.6007 248.632C74.9111 247.891 75.4719 247.561 75.5521 247.631Z" fill="white"/>
<path d="M59.0581 200.622C61.0398 203.311 62.8848 206.099 64.5862 208.974C66.425 211.763 68.1197 214.644 69.6636 217.607C67.6791 214.919 65.8339 212.131 64.1355 209.254C62.2942 206.467 60.5994 203.586 59.0581 200.622Z" fill="#263238"/>
<path d="M53.5398 187.853C53.5398 187.713 54.3009 187.903 54.5913 188.694C54.8818 189.486 54.4611 190.107 54.341 190.016C54.2208 189.926 54.341 189.446 54.1006 188.875C53.8603 188.304 53.4797 187.993 53.5398 187.853Z" fill="#263238"/>
<path d="M75.3821 176.316C75.5223 176.316 76.7741 184.879 78.1862 195.494C79.5982 206.11 80.6097 214.712 80.4695 214.732C80.3293 214.752 79.0775 206.17 77.6654 195.554C76.2534 184.939 75.2319 176.336 75.3821 176.316Z" fill="#263238"/>
<path d="M107.109 194.032C107.239 194.032 105.186 199.24 102.512 205.549C99.8379 211.858 97.5747 216.926 97.4344 216.866C97.2942 216.806 99.3673 211.648 102.031 205.349C104.695 199.05 106.978 193.972 107.109 194.032Z" fill="#263238"/>
<path d="M111.344 184.919C111.474 184.969 111.344 185.5 111.144 186.091C110.944 186.682 110.593 187.092 110.453 187.092C110.313 187.092 110.453 186.511 110.663 185.91C110.874 185.31 111.214 184.859 111.344 184.919Z" fill="#263238"/>
<path d="M133.907 207.031C133.987 207.152 128.199 211.237 120.968 216.145C113.738 221.052 107.819 224.958 107.739 224.837C107.659 224.717 113.447 220.631 120.678 215.714C127.909 210.797 133.827 206.911 133.907 207.031Z" fill="#263238"/>
<path d="M123.061 230.235C121.21 230.558 119.332 230.702 117.453 230.666C115.578 230.804 113.695 230.774 111.825 230.576C113.676 230.254 115.554 230.109 117.433 230.145C119.308 230.006 121.192 230.036 123.061 230.235Z" fill="#263238"/>
<path d="M63.0337 226.8C62.9536 226.92 57.025 223.165 49.7644 218.408C42.5038 213.651 36.7454 209.695 36.7454 209.575C36.7454 209.455 42.7541 213.21 50.0147 217.977C57.2753 222.744 63.1138 226.68 63.0337 226.8Z" fill="#263238"/>
<path d="M56.5145 234.151C54.6981 234.213 52.8799 234.096 51.0866 233.8C49.2692 233.692 47.4675 233.4 45.7087 232.929C47.5253 232.879 49.3426 233 51.1367 233.289C52.9527 233.404 54.7536 233.692 56.5145 234.151Z" fill="#263238"/>
<path d="M427.546 443.127C427.546 443.277 331.886 443.387 213.904 443.387C95.9221 443.387 0.242432 443.277 0.242432 443.127C0.242432 442.977 95.882 442.847 213.894 442.847C331.907 442.847 427.546 442.987 427.546 443.127Z" fill="#263238"/>
<path d="M272.79 210.418L268.093 121.798C267.713 114.598 267.312 107.297 265.089 100.437C262.866 93.577 258.59 87.0775 252.19 83.7527C245.791 80.4278 237.168 80.9986 232.161 86.2763L235.636 91.0633C232.805 145.323 231.604 199.625 232.031 253.971C232.031 258.037 232.191 262.393 234.575 265.688C238.58 271.216 246.692 271.156 253.502 270.545C259.321 270.015 265.93 269.033 269.185 264.176C270.427 262.091 271.228 259.773 271.539 257.366C274.443 241.944 273.622 226.09 272.79 210.418Z" fill="#263238"/>
<path d="M223.969 91.4137C225.812 87.4078 231.17 85.7254 235.406 87.0974C239.642 88.4694 242.797 92.1848 244.67 96.2307C245.501 97.8756 245.952 99.6859 245.992 101.528C246.003 102.448 245.8 103.358 245.398 104.185C244.997 105.013 244.408 105.735 243.678 106.295C242.857 106.808 241.919 107.104 240.953 107.156C239.986 107.209 239.022 107.016 238.15 106.596C236.415 105.731 234.967 104.381 233.984 102.71" fill="#162082"/>
<path d="M261.504 143.409C259.782 124.281 249.667 105.674 233.463 95.3392C217.26 85.0041 195.107 83.9826 178.894 94.2776C168.579 100.827 161.168 111.302 156.911 122.779C152.655 134.256 154.498 143.7 154.598 155.908C154.598 162.237 155.449 179.242 160.907 182.436L246.122 197.729C257.048 181.896 263.227 162.487 261.504 143.409Z" fill="#263238"/>
<path d="M204.36 98.3437C179.864 98.594 160.156 118.573 158.984 142.608C157.983 163.639 157.392 184.9 158.283 192.491C160.967 215.394 181.317 225.299 187.676 225.86C188.327 225.92 188.066 225.86 187.746 225.86C187.769 225.875 187.789 225.896 187.803 225.92C187.817 225.945 187.825 225.972 187.826 226L185.373 252.849C184.822 270.345 201.646 370.02 219.422 370.701C237.198 371.382 244.228 271.396 245.12 253.861L250.447 144.1C251.038 118.954 230.338 98.1133 204.36 98.3437Z" fill="#FFBE9D"/>
<path d="M187.746 225.93C187.746 225.93 187.746 225.93 187.676 225.93C186.915 225.87 187.365 225.91 187.746 225.93Z" fill="#FFBE9D"/>
<path d="M165.744 159.052C165.703 160.014 166.039 160.953 166.68 161.67C167.322 162.386 168.219 162.824 169.179 162.888C169.65 162.949 170.128 162.916 170.586 162.79C171.044 162.664 171.473 162.448 171.846 162.154C172.219 161.86 172.53 161.494 172.76 161.079C172.989 160.663 173.134 160.206 173.185 159.733C173.231 158.773 172.898 157.832 172.258 157.114C171.617 156.397 170.72 155.96 169.76 155.898C169.288 155.836 168.809 155.87 168.351 155.996C167.892 156.122 167.463 156.338 167.089 156.632C166.715 156.925 166.404 157.291 166.173 157.706C165.942 158.122 165.796 158.58 165.744 159.052Z" fill="#263238"/>
<path d="M164.923 148.928C165.143 149.539 168.538 149.038 172.134 150.8C175.729 152.563 177.571 155.527 178.142 155.307C178.423 155.217 178.353 154.306 177.581 152.944C176.489 151.158 174.898 149.731 173.005 148.838C171.15 147.902 169.054 147.553 166.996 147.836C165.544 148.107 164.823 148.647 164.923 148.928Z" fill="#263238"/>
<path d="M204.25 160.324C204.203 161.285 204.536 162.226 205.177 162.943C205.818 163.661 206.715 164.098 207.675 164.16C208.146 164.22 208.624 164.186 209.081 164.059C209.539 163.932 209.966 163.716 210.339 163.422C210.712 163.129 211.023 162.764 211.253 162.349C211.483 161.934 211.629 161.477 211.681 161.005C211.722 160.044 211.386 159.105 210.744 158.388C210.102 157.671 209.206 157.234 208.246 157.17C207.776 157.11 207.298 157.144 206.841 157.271C206.384 157.398 205.958 157.614 205.585 157.908C205.213 158.202 204.904 158.567 204.674 158.982C204.445 159.397 204.301 159.853 204.25 160.324Z" fill="#263238"/>
<path d="M204.36 155.056C204.971 155.337 207.365 152.633 211.481 151.391C215.597 150.149 219.222 150.99 219.492 150.39C219.653 150.129 218.932 149.508 217.349 149.098C215.165 148.581 212.881 148.664 210.74 149.338C208.622 149.959 206.717 151.151 205.232 152.783C204.26 154.035 204.07 154.936 204.36 155.056Z" fill="#263238"/>
<path d="M188.578 179.232C188.578 179.012 186.134 178.491 182.118 177.83C181.117 177.68 180.115 177.449 179.995 176.748C179.875 176.047 180.255 174.946 180.806 173.794L184.171 166.253C188.858 155.497 192.293 146.644 191.852 146.464C191.412 146.284 187.256 154.856 182.569 165.602C181.437 168.256 180.356 170.78 179.334 173.193C178.893 174.325 178.172 175.597 178.623 177.129C178.76 177.49 178.977 177.816 179.258 178.082C179.539 178.347 179.877 178.545 180.245 178.661C180.808 178.835 181.39 178.939 181.978 178.972C186.034 179.342 188.558 179.462 188.578 179.232Z" fill="#263238"/>
<path d="M187.856 225.91C187.856 225.91 203.289 227.753 223.158 217.057C223.158 217.057 216.148 236.936 187.195 233.141L187.856 225.91Z" fill="#EB996E"/>
<path d="M204.01 134.917C204.49 135.919 208.446 135.117 213.173 135.288C217.9 135.458 221.806 136.399 222.356 135.388C222.597 134.907 221.856 133.956 220.253 133.044C218.092 131.938 215.71 131.332 213.283 131.271C210.856 131.211 208.446 131.697 206.233 132.694C204.6 133.515 203.799 134.396 204.01 134.917Z" fill="#263238"/>
<path d="M164.823 142.799C165.494 143.72 168.298 142.899 171.623 142.989C174.948 143.079 177.732 143.82 178.423 142.909C178.723 142.468 178.323 141.557 177.121 140.666C175.502 139.59 173.605 139.009 171.661 138.993C169.718 138.977 167.811 139.527 166.175 140.575C164.953 141.407 164.522 142.408 164.823 142.799Z" fill="#263238"/>
<path d="M229.357 154.336C229.477 154.396 228.936 155.487 227.684 156.208C227.334 156.466 226.935 156.649 226.511 156.745C226.087 156.842 225.648 156.85 225.22 156.769C225.22 156.609 226.292 156.439 227.414 155.768C228.535 155.097 229.236 154.246 229.357 154.336Z" fill="#EB996E"/>
<path d="M229.968 158.882C229.908 159.012 228.966 158.642 227.704 158.542C226.944 158.584 226.182 158.584 225.421 158.542C226.103 158.085 226.938 157.915 227.745 158.071C229.106 158.131 230.048 158.762 229.968 158.882Z" fill="#EB996E"/>
<path d="M163.311 157.31C163.311 157.45 162.509 157.43 161.578 157.31C160.647 157.19 159.926 156.899 159.946 156.759C159.966 156.619 160.747 156.629 161.668 156.759C162.59 156.889 163.331 157.17 163.311 157.31Z" fill="#EB996E"/>
<path d="M162.499 157.49C162.589 157.6 162.169 158.051 161.568 158.492C160.967 158.932 160.406 159.193 160.326 159.073C160.246 158.952 160.656 158.512 161.257 158.071C161.858 157.63 162.419 157.37 162.499 157.49Z" fill="#EB996E"/>
<path d="M210.45 189.477C210.61 188.332 210.451 187.164 209.99 186.104C209.529 185.043 208.783 184.131 207.836 183.468C207.836 183.418 208.276 183.468 208.837 183.879C209.553 184.386 210.118 185.078 210.47 185.882C210.825 186.69 210.95 187.581 210.83 188.455C210.73 189.096 210.51 189.477 210.45 189.477Z" fill="#EB996E"/>
<path d="M176.369 100.276C171.258 103.784 166.932 108.316 163.667 113.584C160.402 118.853 158.268 124.743 157.401 130.881L159.084 141.156C159.705 136.439 160.005 131.142 164.912 126.004C168.207 122.569 174.306 119.344 180.775 117.702C199.293 112.985 205.532 106.265 213.704 94.1676C201.716 91.1632 186.604 93.3364 176.369 100.276Z" fill="#263238"/>
<path d="M256.296 127.436C251.139 108.879 234.264 94.1475 215.236 91.5037L213.724 94.1676L199.704 110.612C198.532 111.974 197.31 113.446 197.05 115.218C196.699 117.602 198.171 119.915 200.054 121.447C204.511 125.093 210.76 125.323 216.518 125.453C222.277 125.583 228.536 126.084 232.772 130.03C237.999 134.947 237.889 143.289 236.127 150.249C234.318 158.555 233.738 167.082 234.404 175.556C235.045 181.956 243.508 166.413 249.066 169.638C250.618 170.539 246.432 195.676 248.064 194.875C249.697 194.073 249.506 185.08 250.067 183.398C252.921 174.305 255.785 165.171 257.308 155.767C258.83 146.364 258.85 136.62 256.296 127.436Z" fill="#263238"/>
<path d="M240.523 175.707C240.954 169.698 247.633 165.762 252.811 168.907C255.655 170.629 257.818 174.024 257.378 180.444C256.306 197.549 239.351 192.942 239.351 192.461C239.351 192.151 240.022 182.777 240.523 175.707Z" fill="#FFBE9D"/>
<path d="M244.939 186.282C245.02 186.232 245.23 186.513 245.711 186.783C246.4 187.129 247.196 187.198 247.934 186.973C249.787 186.432 251.499 183.658 251.789 180.584C251.932 179.122 251.744 177.647 251.239 176.268C251.114 175.721 250.859 175.213 250.494 174.787C250.129 174.362 249.667 174.031 249.146 173.824C248.809 173.711 248.444 173.72 248.113 173.848C247.782 173.976 247.506 174.215 247.333 174.525C247.073 174.986 247.163 175.336 247.073 175.356C246.982 175.376 246.722 175.046 246.902 174.355C247.033 173.946 247.297 173.593 247.653 173.353C248.148 173.034 248.748 172.919 249.326 173.033C250.018 173.219 250.651 173.578 251.165 174.078C251.678 174.578 252.055 175.2 252.26 175.887C252.89 177.417 253.137 179.077 252.981 180.724C252.641 184.169 250.658 187.274 248.144 187.824C247.676 187.925 247.192 187.921 246.726 187.812C246.26 187.702 245.825 187.491 245.45 187.194C244.939 186.703 244.939 186.312 244.939 186.282Z" fill="#EB996E"/>
<path d="M244.85 104.973C247.15 107.652 249.192 110.543 250.949 113.606C252.891 116.909 254.565 120.361 255.956 123.931C257.656 128.309 258.933 132.84 259.771 137.461C261.325 145.874 261.233 154.509 259.501 162.888C259.359 163.651 259.179 164.407 258.96 165.151C258.76 165.862 258.58 166.533 258.409 167.154C258.126 168.23 257.774 169.287 257.358 170.319C257.057 171.14 256.807 171.791 256.617 172.322C256.542 172.554 256.445 172.779 256.326 172.993C256.373 172.75 256.44 172.513 256.527 172.282C256.687 171.771 256.897 171.11 257.168 170.279C257.556 169.239 257.89 168.179 258.169 167.104C258.329 166.473 258.49 165.802 258.67 165.101C258.884 164.357 259.055 163.602 259.181 162.838C260.796 154.504 260.837 145.94 259.301 137.591C258.465 133.003 257.212 128.501 255.555 124.141C254.189 120.585 252.555 117.136 250.668 113.826C250.268 113.115 249.877 112.444 249.516 111.823C249.156 111.203 248.735 110.632 248.385 110.081L247.383 108.569C247.083 108.108 246.762 107.707 246.502 107.337L245.27 105.634C245.109 105.428 244.968 105.207 244.85 104.973Z" fill="#3A82A5"/>
<path d="M246.502 110.181C246.499 110.358 246.468 110.534 246.412 110.702C246.265 111.198 246.035 111.665 245.731 112.084C244.506 113.533 242.872 114.58 241.044 115.088C238.78 115.829 236.036 116.5 233.032 117.171C229.732 117.895 226.386 118.387 223.017 118.643C219.628 118.897 216.221 118.796 212.853 118.343C210.097 117.97 207.391 117.299 204.781 116.34C203.024 115.701 201.331 114.899 199.723 113.946C199.153 113.616 198.722 113.325 198.442 113.125C198.161 112.925 198.011 112.815 198.021 112.795C198.031 112.775 198.662 113.155 199.824 113.796C201.458 114.673 203.159 115.419 204.911 116.029C207.511 116.925 210.195 117.553 212.923 117.902C216.261 118.317 219.632 118.401 222.987 118.153C229.095 117.632 235.134 116.498 241.014 114.768C242.797 114.305 244.408 113.335 245.65 111.973C246.023 111.422 246.31 110.818 246.502 110.181Z" fill="#3A82A5"/>
<path d="M243.417 104.273C243.417 104.273 243.337 104.413 243.137 104.623C242.853 104.943 242.552 105.247 242.236 105.534C241.08 106.6 239.806 107.531 238.44 108.309C233.865 110.816 228.725 112.109 223.508 112.064C218.335 111.99 213.191 111.27 208.196 109.921C206.273 109.44 204.731 109.01 203.669 108.699C203.113 108.563 202.567 108.385 202.037 108.168C202.605 108.24 203.167 108.35 203.719 108.499L208.276 109.56C213.262 110.798 218.372 111.47 223.508 111.563C228.642 111.598 233.706 110.378 238.26 108.008C240.104 106.946 241.833 105.694 243.417 104.273Z" fill="#3A82A5"/>
<path d="M239.932 102.35C239.543 102.528 239.137 102.665 238.72 102.76C237.929 103.011 236.767 103.301 235.325 103.601C227.763 105.167 219.956 105.123 212.412 103.471C210.97 103.151 209.818 102.85 209.037 102.59C208.617 102.496 208.21 102.351 207.825 102.159C208.253 102.196 208.676 102.276 209.087 102.4C209.888 102.59 211.09 102.84 212.492 103.111C220.007 104.549 227.723 104.593 235.255 103.241C236.697 102.991 237.869 102.75 238.67 102.57C239.08 102.445 239.504 102.371 239.932 102.35Z" fill="#3A82A5"/>
<path d="M217.089 87.7982C216.991 88.2187 216.85 88.6281 216.668 89.02C216.242 90.1084 215.76 91.1746 215.226 92.2147C211.715 99.1507 206.558 105.12 200.204 109.6C199.252 110.28 198.266 110.912 197.25 111.493C196.887 111.726 196.501 111.92 196.098 112.074C196.404 111.785 196.74 111.53 197.1 111.313C197.791 110.862 198.772 110.181 199.944 109.31C206.127 104.713 211.23 98.8208 214.896 92.0444C215.607 90.7526 216.138 89.691 216.488 88.9399C216.642 88.5367 216.844 88.1535 217.089 87.7982Z" fill="#3A82A5"/>
<path d="M156.3 124.532C156.3 124.532 156.38 124.372 156.59 124.091C156.801 123.811 157.101 123.4 157.522 122.89C158.696 121.439 159.943 120.049 161.257 118.723C163.203 116.742 165.329 114.945 167.607 113.356C168.964 112.429 170.379 111.59 171.843 110.842C173.42 110.054 175.054 109.385 176.73 108.839C182.629 106.935 188.855 106.253 195.027 106.836C196.888 107.01 198.735 107.312 200.555 107.737C201.196 107.878 201.686 108.028 202.027 108.118C202.201 108.156 202.369 108.216 202.528 108.298C202.528 108.298 201.806 108.178 200.525 107.938C198.701 107.589 196.858 107.345 195.007 107.207C188.885 106.745 182.733 107.476 176.89 109.36C171.086 111.341 165.823 114.646 161.518 119.014C159.835 120.656 158.513 122.018 157.682 123.02L156.681 124.161C156.44 124.382 156.31 124.552 156.3 124.532Z" fill="#3A82A5"/>
<path d="M169.139 106.155C169.55 105.827 169.989 105.535 170.451 105.284C170.965 104.955 171.497 104.654 172.043 104.383C172.684 104.052 173.395 103.651 174.237 103.311C175.127 102.888 176.04 102.514 176.971 102.189C177.972 101.789 179.054 101.478 180.195 101.128C185.206 99.7126 190.428 99.2006 195.618 99.6156C196.81 99.7357 197.941 99.8359 198.983 100.026C200.024 100.216 200.986 100.387 201.887 100.597C202.788 100.807 203.549 101.028 204.24 101.228C204.832 101.388 205.414 101.582 205.983 101.809C206.482 101.966 206.968 102.163 207.435 102.4C206.919 102.314 206.413 102.18 205.923 101.999C205.442 101.849 204.861 101.669 204.16 101.508C203.459 101.348 202.688 101.108 201.807 100.958C200.926 100.807 199.964 100.587 198.923 100.457C197.881 100.327 196.759 100.206 195.578 100.096C193.015 99.935 190.444 99.9718 187.887 100.206C185.335 100.474 182.807 100.936 180.325 101.588C179.194 101.929 178.102 102.219 177.121 102.59C176.139 102.96 175.208 103.301 174.387 103.591C173.566 103.882 172.825 104.292 172.184 104.593C171.543 104.893 170.992 105.174 170.551 105.414C170.102 105.7 169.63 105.948 169.139 106.155Z" fill="#3A82A5"/>
<path d="M254.063 190.588C254.384 190.418 254.884 190.588 255.465 191.209C256.268 192.117 256.802 193.23 257.007 194.424C257.17 195.311 257.17 196.221 257.007 197.108C256.819 198.218 256.377 199.27 255.716 200.182C254.964 201.222 253.956 202.049 252.791 202.586C251.407 203.241 249.836 203.387 248.355 202.996C246.91 202.598 245.639 201.732 244.74 200.533C243.971 199.52 243.465 198.333 243.267 197.078C243.118 196.085 243.168 195.073 243.414 194.1C243.66 193.127 244.097 192.212 244.7 191.41C245.396 190.429 246.344 189.654 247.444 189.166C248.215 188.856 248.755 188.896 248.976 189.166C249.446 189.737 248.495 191.169 247.974 193.172C247.681 194.128 247.681 195.15 247.974 196.106C248.101 196.532 248.323 196.924 248.623 197.252C248.923 197.58 249.294 197.835 249.707 197.999C250.065 198.087 250.442 198.066 250.788 197.939C251.237 197.77 251.649 197.515 252 197.188C252.698 196.492 253.151 195.589 253.292 194.614C253.693 192.591 253.402 190.919 254.063 190.588Z" fill="#FF1641"/>
<path d="M201.606 190.478C201.11 189.127 200.225 187.952 199.062 187.103C198.047 186.394 196.84 186.009 195.602 186.001C194.363 185.993 193.152 186.361 192.127 187.058C191.103 187.754 190.315 188.745 189.867 189.9C189.419 191.054 189.332 192.318 189.618 193.523L189.378 193.803C189.236 194.111 189.192 194.455 189.253 194.789C189.314 195.122 189.476 195.428 189.719 195.666C190.213 196.131 190.81 196.474 191.461 196.667C193.287 197.467 195.281 197.811 197.27 197.669C198.26 197.583 199.208 197.228 200.012 196.642C200.815 196.056 201.442 195.261 201.826 194.344C202.206 193.069 202.128 191.702 201.606 190.478Z" fill="#FF1641"/>
<path d="M203.079 188.906C203.079 189.367 199.664 189.767 195.768 191.29C191.872 192.812 189.048 194.775 188.758 194.424C188.628 194.264 189.178 193.533 190.3 192.621C193.293 190.267 196.926 188.871 200.725 188.616C202.177 188.535 203.069 188.706 203.079 188.906Z" fill="#263238"/>
<path d="M185.854 247.562L132.506 258.468C125.606 259.169 111.095 269.554 107.229 275.312C83.5243 310.574 91.1054 401.336 91.1054 402.498L158.143 359.635L185.854 247.562Z" fill="#3A82A5"/>
<path d="M130.823 259.329L185.853 247.562C185.853 247.562 205.362 360.496 219.422 360.226C233.483 359.956 254.473 240.191 254.473 240.191L304.256 256.344C304.256 256.344 294.532 339.536 292.239 354.367C289.945 369.199 286.5 443.127 286.5 443.127L160.496 442.847C160.496 442.847 158.403 384.992 150.041 356.481C141.679 327.969 130.823 259.329 130.823 259.329Z" fill="#3A82A5"/>
<path d="M250.948 241.773L303.916 254.382C310.796 255.303 324.946 266.149 328.652 272.027C351.215 308.02 340.74 398.502 340.669 399.664L275.064 354.718L250.948 241.773Z" fill="#3A82A5"/>
<path d="M232.501 376.119C232.385 376.296 232.247 376.457 232.091 376.6L230.829 377.922C229.727 379.064 228.095 380.666 226.042 382.619C221.936 386.534 216.087 391.752 209.297 397.11C202.508 402.468 196.048 406.924 191.271 409.999C188.888 411.531 186.935 412.743 185.573 413.544L184.001 414.465C183.824 414.586 183.632 414.684 183.43 414.756C183.59 414.616 183.761 414.489 183.94 414.375L185.463 413.374C186.795 412.522 188.717 411.261 191.061 409.688C195.768 406.544 202.167 402.037 208.947 396.669C215.727 391.301 221.605 386.164 225.771 382.328C227.855 380.406 229.517 378.843 230.669 377.742L232.001 376.5C232.154 376.357 232.322 376.229 232.501 376.119Z" fill="#263238"/>
<path d="M234.534 345.294C234.517 345.431 234.483 345.566 234.434 345.695C234.344 345.975 234.224 346.366 234.064 346.846C233.733 347.848 233.222 349.35 232.531 351.253C231.84 353.156 230.969 355.479 229.908 358.153C229.377 359.485 228.786 360.907 228.145 362.409C227.52 364.025 226.749 365.58 225.842 367.056C225.598 367.454 225.32 367.829 225.01 368.178C224.712 368.545 224.376 368.881 224.009 369.179C223.259 369.852 222.337 370.303 221.345 370.481C220.286 370.591 219.216 370.425 218.24 369.999C217.264 369.572 216.416 368.9 215.777 368.047C212.686 364.693 210.129 360.883 208.196 356.751C206.075 352.204 204.262 347.52 202.768 342.73C201.146 337.773 199.493 332.646 197.921 327.348C191.532 306.187 186.975 286.679 184.121 272.478C182.679 265.388 181.677 259.609 180.976 255.623C180.666 253.62 180.415 252.098 180.235 251.027C180.168 250.519 180.108 250.119 180.055 249.825C180.039 249.688 180.039 249.551 180.055 249.414C180.098 249.544 180.128 249.679 180.145 249.815L180.385 251.007C180.576 252.078 180.856 253.62 181.217 255.593C181.978 259.599 183.039 265.327 184.521 272.408C187.466 286.578 192.072 306.047 198.452 327.198C200.034 332.485 201.686 337.613 203.289 342.57C204.776 347.339 206.572 352.006 208.667 356.541C210.56 360.627 213.062 364.402 216.087 367.737C216.676 368.542 217.464 369.18 218.373 369.589C219.282 369.998 220.282 370.164 221.275 370.07C222.2 369.913 223.062 369.497 223.759 368.869C224.129 368.573 224.465 368.237 224.76 367.867C225.059 367.532 225.33 367.174 225.571 366.796C226.475 365.343 227.246 363.811 227.875 362.219C228.542 360.723 229.14 359.311 229.667 357.983C230.759 355.319 231.67 352.975 232.371 351.123C233.072 349.27 233.613 347.778 233.994 346.756L234.414 345.615C234.474 345.424 234.534 345.294 234.534 345.294Z" fill="#263238"/>
<path d="M173.675 277.235C173.112 275.658 172.233 274.213 171.092 272.989C170.514 272.384 169.795 271.934 168.999 271.678C168.203 271.423 167.356 271.371 166.535 271.527C164.923 271.947 163.53 273.429 161.928 273.269C159.725 273.049 158.814 270.205 156.841 269.213C156.357 269.01 155.834 268.917 155.31 268.941C154.786 268.965 154.274 269.105 153.811 269.352C153.348 269.598 152.946 269.944 152.633 270.366C152.32 270.787 152.105 271.272 152.004 271.787L152.254 271.857C151.257 272.356 150.487 273.215 150.101 274.261C150.019 274.52 149.988 274.792 150.012 275.063C150.035 275.334 150.112 275.597 150.238 275.839C150.363 276.08 150.535 276.293 150.744 276.468C150.952 276.642 151.193 276.773 151.453 276.854C152.845 277.105 154.037 275.492 155.459 275.683C157.021 275.903 157.462 278.046 158.703 278.947C160.206 280.019 162.269 279.078 163.851 278.146C165.433 277.215 167.546 276.324 168.998 277.445C169.68 278.149 170.206 278.988 170.541 279.909C171.001 280.77 171.833 281.611 172.794 281.471C173.201 281.368 173.563 281.135 173.827 280.808C174.09 280.481 174.241 280.078 174.256 279.658C174.258 278.816 174.059 277.985 173.675 277.235Z" fill="white"/>
<path d="M331.195 343.321C330.632 341.747 329.757 340.303 328.622 339.075C328.043 338.472 327.324 338.023 326.528 337.77C325.732 337.516 324.885 337.466 324.065 337.623C322.453 338.044 321.111 339.516 319.448 339.355C317.245 339.145 316.344 336.291 314.361 335.35C313.879 335.144 313.357 335.05 312.833 335.072C312.31 335.095 311.798 335.234 311.336 335.48C310.873 335.725 310.471 336.071 310.159 336.493C309.847 336.914 309.634 337.399 309.534 337.913L309.774 337.993C308.776 338.485 308.005 339.342 307.621 340.387C307.458 340.913 307.509 341.482 307.765 341.97C308.02 342.458 308.458 342.825 308.983 342.991C310.365 343.241 311.557 341.619 312.989 341.819C314.421 342.019 314.942 344.173 316.234 345.084C317.736 346.145 319.789 345.204 321.381 344.273C322.973 343.341 325.066 342.45 326.519 343.582C327.202 344.282 327.73 345.118 328.071 346.035C328.532 346.896 329.353 347.748 330.324 347.598C330.732 347.495 331.095 347.263 331.359 346.936C331.623 346.609 331.773 346.205 331.786 345.785C331.79 344.928 331.587 344.083 331.195 343.321Z" fill="white"/>
<path d="M147.247 311.535C148.469 312.536 150.401 311.765 151.323 310.533C152.244 309.302 152.535 307.649 153.135 306.197C153.736 304.745 154.898 303.293 156.47 303.243C157.091 303.243 157.702 303.433 158.313 303.353C159.915 303.163 160.656 301.35 161.548 300.008C163.02 297.775 166.034 296.403 168.498 297.474C170.961 298.546 171.763 302.482 169.549 303.994C167.597 305.326 164.392 304.455 163.08 306.417C161.768 308.38 163.511 311.255 161.978 312.907C160.446 314.559 157.372 313.117 155.539 314.459C153.937 315.631 154.337 318.205 155.469 319.837C156.6 321.469 158.293 322.741 159.044 324.584C160.456 328.019 158.043 331.875 155.198 334.248C154.329 335.079 153.23 335.631 152.044 335.83C149.59 336.041 147.708 333.707 146.706 331.454C145.388 328.438 144.754 325.167 144.851 321.877C144.948 318.587 145.773 315.359 147.267 312.426" fill="white"/>
<path d="M281.623 283.905C283.155 283.564 283.756 281.581 283.345 280.059C282.935 278.537 281.833 277.325 281.072 275.953C280.311 274.581 279.9 272.759 280.842 271.507C281.212 271.006 281.753 270.655 282.074 270.125C282.915 268.753 281.963 267.05 281.473 265.518C280.641 262.964 281.473 259.75 283.816 258.508C286.16 257.266 289.765 259.069 289.574 261.742C289.394 264.096 286.72 266.059 287.441 268.312C288.162 270.565 291.447 270.986 291.838 273.219C292.228 275.452 289.124 276.955 289.034 279.228C288.964 281.231 291.217 282.503 293.2 282.633C295.183 282.763 297.206 282.242 299.148 282.793C302.714 283.795 304.246 288.101 304.306 291.806C304.419 293.006 304.164 294.211 303.575 295.261C302.223 297.314 299.219 297.334 296.835 296.724C293.656 295.876 290.704 294.334 288.191 292.21C285.678 290.085 283.668 287.43 282.304 284.436" fill="white"/>
<path d="M197.871 362.669C196.561 361.302 194.959 360.247 193.184 359.585C191.372 359.064 189.118 359.585 188.177 361.217C187.716 362.059 187.656 363.08 187.175 363.901C185.823 366.205 182.348 365.664 179.975 366.906C176.971 368.478 176.62 373.505 179.454 375.438C178.222 377.962 177.081 380.686 177.311 383.45C177.541 386.214 179.554 389.108 182.318 389.348C183.73 389.469 185.152 388.928 186.555 389.178C188.167 389.459 189.399 390.71 190.731 391.672C192.063 392.633 193.915 393.314 195.287 392.413C197.29 391.051 196.89 387.035 199.293 386.574C201.406 386.164 203.68 389.208 205.302 387.786C206.303 386.915 205.733 385.252 206.243 384.041C207.044 382.168 209.708 382.328 211.541 381.427C212.516 380.934 213.274 380.097 213.666 379.077C214.059 378.057 214.059 376.928 213.666 375.909C213.272 374.889 212.515 374.052 211.539 373.56C210.564 373.068 209.44 372.955 208.386 373.245C205.032 374.246 203.499 378.833 200.034 379.254C197.731 379.514 195.157 377.751 193.254 379.073C192.153 379.835 191.792 381.367 190.681 382.078C189.998 382.428 189.209 382.511 188.469 382.311C187.728 382.111 187.088 381.642 186.675 380.996C186.291 380.319 186.064 379.564 186.012 378.787C185.96 378.01 186.084 377.232 186.374 376.51C187.175 374.176 188.988 372.354 190.741 370.621C191.552 369.82 192.603 368.959 193.675 369.309C194.306 369.499 194.736 370.06 195.307 370.391C197.05 371.392 199.313 369.6 199.594 367.617C199.874 365.634 198.832 363.711 197.811 361.978" fill="white"/>
<path d="M111.415 334.128C110.105 332.76 108.503 331.706 106.728 331.043C104.915 330.513 102.662 331.043 101.721 332.676C101.26 333.517 101.2 334.529 100.719 335.36C99.3672 337.653 95.8921 337.122 93.5187 338.364C90.5143 339.936 90.1638 344.964 92.9979 346.897C91.7661 349.42 90.6244 352.144 90.8548 354.908C91.0851 357.672 93.098 360.567 95.8621 360.797C97.2741 360.917 98.6962 360.386 100.098 360.637C101.711 360.917 102.942 362.169 104.274 363.13C105.606 364.092 107.459 364.773 108.821 363.861C110.824 362.509 110.433 358.494 112.827 358.023C114.94 357.612 117.213 360.667 118.836 359.235C119.837 358.373 119.266 356.711 119.777 355.499C120.578 353.626 123.242 353.777 125.075 352.885C126.05 352.393 126.807 351.555 127.2 350.535C127.593 349.516 127.592 348.387 127.199 347.367C126.806 346.348 126.048 345.511 125.073 345.018C124.097 344.526 122.974 344.414 121.92 344.703C118.565 345.705 117.033 350.292 113.568 350.712C111.265 350.973 108.691 349.21 106.788 350.532C105.686 351.283 105.326 352.815 104.214 353.536C103.528 353.904 102.728 353.999 101.975 353.8C101.222 353.601 100.573 353.124 100.158 352.465C99.774 351.786 99.5474 351.029 99.4954 350.251C99.4434 349.472 99.5673 348.692 99.8579 347.968C100.659 345.635 102.472 343.822 104.224 342.08C105.035 341.288 106.087 340.427 107.159 340.768C107.789 340.968 108.22 341.529 108.791 341.849C110.533 342.851 112.797 341.068 113.077 339.075C113.358 337.082 112.316 335.18 111.295 333.447" fill="white"/>
<path d="M280.852 318.535C279.541 317.173 277.943 316.119 276.175 315.451C274.362 314.93 272.099 315.451 271.168 317.083C270.707 317.924 270.647 318.946 270.166 319.767C268.804 322.07 265.329 321.53 262.966 322.771C259.961 324.334 259.611 329.371 262.435 331.304C261.203 333.828 260.071 336.552 260.292 339.316C260.512 342.08 262.535 344.964 265.299 345.204C266.711 345.324 268.143 344.794 269.535 345.034C271.148 345.324 272.379 346.576 273.711 347.528C275.043 348.479 276.906 349.17 278.268 348.269C280.271 346.907 279.87 342.901 282.274 342.43C284.397 342.02 286.66 345.064 288.283 343.642C289.284 342.771 288.703 341.108 289.224 339.906C290.015 338.034 292.689 338.184 294.512 337.283C295.515 336.808 296.302 335.972 296.715 334.941C297.127 333.911 297.134 332.762 296.735 331.726C296.336 330.691 295.559 329.844 294.562 329.357C293.564 328.87 292.419 328.779 291.357 329.101C288.002 330.102 286.47 334.689 283.005 335.109C280.702 335.36 278.138 333.607 276.225 334.919C275.133 335.68 274.773 337.213 273.661 337.924C272.974 338.291 272.173 338.383 271.42 338.183C270.667 337.982 270.019 337.503 269.605 336.842C269.222 336.165 268.995 335.41 268.941 334.634C268.887 333.858 269.008 333.079 269.295 332.355C270.106 330.022 271.909 328.199 273.671 326.467C274.473 325.676 275.524 324.814 276.606 325.155C277.227 325.355 277.657 325.916 278.228 326.237C279.981 327.238 282.234 325.455 282.524 323.462C282.815 321.47 281.753 319.557 280.732 317.824" fill="white"/>
<path d="M204.6 434.304C205.206 434.307 205.807 434.188 206.365 433.953C206.924 433.718 207.429 433.373 207.851 432.938C208.273 432.503 208.602 431.988 208.82 431.422C209.038 430.857 209.139 430.253 209.117 429.647C208.937 427.494 207.204 425.241 208.346 423.418C209.277 421.936 211.51 421.906 212.692 420.624C214.445 418.731 213.073 415.186 214.935 413.404C215.937 412.402 217.449 412.402 218.831 412.402C220.443 412.402 222.376 412.613 223.137 414.045C223.798 415.296 223.137 416.899 222.086 417.86C220.956 418.721 219.746 419.469 218.471 420.093C217.836 420.419 217.286 420.886 216.862 421.46C216.438 422.033 216.152 422.696 216.027 423.398C215.937 424.75 216.788 425.952 217.299 427.214C217.81 428.476 217.75 430.218 216.508 430.799C215.975 430.917 215.452 431.078 214.945 431.28C214.294 431.7 214.194 432.572 213.944 433.283C213.013 435.556 210.128 436.167 207.685 436.467C207.09 436.588 206.477 436.588 205.882 436.467C205.588 436.392 205.324 436.231 205.122 436.004C204.92 435.778 204.791 435.496 204.751 435.195C204.751 434.595 205.402 434.014 205.952 434.284" fill="white"/>
<path d="M126.677 266.76C126.176 265.498 125.315 264.296 125.415 262.934L126.307 260.531L118.235 265.348L118.505 269.173C118.197 270.595 117.734 271.979 117.123 273.299C116.552 273.99 115.291 273.8 115.291 273.8C114.75 273.53 114.069 274.11 114.099 274.711C114.138 275.012 114.267 275.295 114.469 275.522C114.671 275.749 114.936 275.909 115.231 275.983C115.822 276.104 116.432 276.104 117.023 275.983C119.477 275.683 122.361 275.072 123.292 272.799C123.583 272.088 123.683 271.216 124.294 270.796C124.754 270.495 125.365 270.535 125.866 270.315C127.138 269.794 127.178 268.012 126.677 266.76Z" fill="white"/>
<path d="M276.035 408.066C276.107 407.468 276.058 406.863 275.891 406.284C275.724 405.706 275.443 405.167 275.064 404.7C274.684 404.233 274.215 403.847 273.683 403.565C273.151 403.283 272.569 403.111 271.969 403.059C269.816 402.968 267.362 404.411 265.7 403.059C264.348 401.957 264.598 399.734 263.477 398.402C261.814 396.399 258.129 397.35 256.587 395.277C255.765 394.176 255.916 392.653 256.096 391.271C256.316 389.669 256.757 387.776 258.269 387.195C259.601 386.695 261.103 387.556 261.924 388.718C262.636 389.948 263.229 391.242 263.697 392.583C263.939 393.259 264.337 393.868 264.86 394.36C265.382 394.853 266.013 395.215 266.701 395.417C268.023 395.688 269.335 394.987 270.647 394.646C271.959 394.306 273.711 394.566 274.102 395.868C274.154 396.415 274.248 396.958 274.382 397.49C274.723 398.171 275.574 398.392 276.235 398.762C278.388 399.974 278.629 402.918 278.619 405.372C278.655 405.978 278.566 406.584 278.358 407.155C278.256 407.444 278.068 407.694 277.819 407.873C277.57 408.052 277.273 408.151 276.966 408.156C276.365 408.096 275.875 407.355 276.205 406.854" fill="white"/>
<path d="M142.34 299.908L115.481 313.658C116.963 337.373 115.06 374.237 113.909 387.967L105.737 393.164C104.034 408.116 119.096 441.815 133.978 446.011C148.86 450.207 163.14 445.821 167.026 437.208C177.041 414.936 155.359 339.205 155.359 339.205L142.34 299.908Z" fill="#FFBE9D"/>
<path d="M142.34 299.908L115.481 313.658C116.963 337.373 115.06 374.237 113.909 387.967L105.737 393.164C104.034 408.116 119.096 441.815 133.978 446.011C148.86 450.207 163.14 445.821 167.026 437.208C177.041 414.936 155.359 339.205 155.359 339.205L142.34 299.908Z" fill="#FFBE9D"/>
<path d="M142.34 299.908C142.34 299.908 140.047 289.993 135.47 285.797C135.47 285.797 128.75 283.314 122.601 281.351C116.452 279.388 106.578 281.631 98.1357 281.351C89.6933 281.07 52.7895 277.866 52.7895 277.866C52.7895 277.866 48.8838 277.866 47.0711 279.538C47.0711 279.538 37.0565 277.025 33.8018 285.687V287.219L36.4556 288.892C36.4556 288.892 48.7436 288.742 51.3974 288.892C54.0513 289.042 80.7202 299.908 80.7202 299.908C80.7202 299.908 88.4015 304.395 92.868 304.535C97.3345 304.675 95.9324 304.254 105.296 305.927C114.66 307.599 115.481 313.658 115.481 313.658L142.34 299.908Z" fill="#FFBE9D"/>
<path d="M103.614 293.228C103.444 293.278 103.269 293.311 103.093 293.328C102.742 293.328 102.232 293.429 101.571 293.479C99.7016 293.621 97.8262 293.665 95.9525 293.609C94.6512 293.59 93.3528 293.479 92.0668 293.278C90.6848 293.038 89.2327 292.667 87.7205 292.277C84.7161 291.426 81.4213 290.344 78.0163 289.132C76.6143 288.632 75.2423 288.131 73.9204 287.63H74.0105L64.6769 287.62H64.4365V287.38C64.5677 285.621 65.2712 283.954 66.4394 282.633C67.3596 281.646 68.5291 280.927 69.8244 280.55C70.6402 280.301 71.4856 280.163 72.3381 280.139C72.6359 280.109 72.9368 280.125 73.2294 280.189C72.0999 280.246 70.9825 280.448 69.9045 280.79C68.6759 281.193 67.5745 281.912 66.7098 282.873C65.6324 284.155 64.9936 285.749 64.8872 287.42L64.6669 287.179H74.0205H74.0706L78.1465 288.672C81.5515 289.873 84.8163 290.965 87.8106 291.846C89.3128 292.277 90.7449 292.657 92.0969 292.918C93.3628 293.125 94.6405 293.252 95.9225 293.298C98.2859 293.419 100.199 293.379 101.521 293.298L103.043 293.238C103.232 293.208 103.424 293.204 103.614 293.228Z" fill="#EB996E"/>
<path d="M95.5921 299.497C95.3932 299.496 95.195 299.473 95.0013 299.427C94.6107 299.367 93.9998 299.267 93.3188 299.117C91.8667 298.816 89.7737 298.346 87.2099 297.655C82.0624 296.293 75.1924 293.739 67.6313 290.855C65.4782 290.014 63.3851 289.192 61.3922 288.351C60.3908 287.931 59.3893 287.53 58.488 287.059C57.6012 286.658 56.6594 286.391 55.6939 286.268C53.92 286.003 52.1297 285.862 50.3361 285.848C48.6837 285.848 47.1815 285.848 45.8796 285.848H45.7294V285.697C45.4106 284.092 45.5176 282.431 46.0398 280.88C46.4805 279.809 47.0413 279.468 47.0413 279.508C46.9341 279.612 46.8338 279.722 46.7408 279.839C46.4887 280.174 46.2894 280.545 46.15 280.94C45.7109 282.473 45.6593 284.09 45.9998 285.647L45.8295 285.517C47.1514 285.437 48.6536 285.387 50.3161 285.407C52.1286 285.4 53.9393 285.524 55.734 285.777C56.7493 285.906 57.7389 286.19 58.6683 286.619C59.5796 287.059 60.561 287.46 61.5425 287.881C63.5454 288.702 65.6284 289.523 67.7816 290.354C75.3226 293.238 82.1726 295.852 87.27 297.294C89.8137 298.025 91.8867 298.556 93.3288 298.907L94.9813 299.317C95.1932 299.344 95.3994 299.405 95.5921 299.497Z" fill="#EB996E"/>
<path d="M115.751 310.754C115.785 310.844 115.805 310.938 115.811 311.034C115.811 311.245 115.881 311.515 115.922 311.855C116.012 312.587 116.172 313.658 116.302 315.05C116.613 317.824 116.923 321.85 117.093 326.837C117.263 331.825 117.253 337.773 116.973 344.363C116.693 350.953 116.152 358.183 115.401 365.754C114.549 372.845 114.147 379.983 114.199 387.125C114.306 392.955 115.32 398.732 117.203 404.25C118.481 407.963 120.325 411.456 122.671 414.605C123.082 415.176 123.483 415.607 123.823 416.048C124.103 416.396 124.401 416.73 124.714 417.049L125.275 417.67L125.455 417.89C124.376 416.924 123.39 415.857 122.511 414.706C120.08 411.581 118.169 408.084 116.853 404.35C114.915 398.809 113.87 392.995 113.758 387.125C113.665 379.978 114.04 372.832 114.88 365.734C115.631 358.173 116.192 350.953 116.492 344.373C116.793 337.793 116.853 331.855 116.723 326.877C116.593 321.9 116.342 317.864 116.102 315.1C116.002 313.708 115.871 312.627 115.821 311.895C115.821 311.555 115.821 311.285 115.751 311.064C115.735 310.961 115.735 310.857 115.751 310.754Z" fill="#EB996E"/>
<path d="M286.57 299.638L314.291 311.475C314.431 335.23 318.848 371.883 320.921 385.513L329.463 390.19C332.177 404.981 319.448 439.632 304.887 444.84C290.326 450.047 275.775 446.632 271.338 438.3C259.851 416.749 276.346 339.726 276.346 339.726L286.57 299.638Z" fill="#FFBE9D"/>
<path d="M286.57 299.638C286.57 299.638 288.173 289.623 292.459 285.086C292.459 285.086 298.998 282.152 304.987 279.789C310.976 277.425 321.011 278.977 329.403 278.116C337.795 277.255 374.409 271.597 374.409 271.597C374.409 271.597 378.304 271.326 380.227 272.878C380.227 272.878 390.091 269.684 393.887 278.106L393.987 279.638L391.453 281.481C391.453 281.481 379.186 282.172 376.552 282.482C373.918 282.793 348.04 295.501 348.04 295.501C348.04 295.501 340.689 300.509 336.243 300.939C331.796 301.37 333.158 300.869 323.935 303.183C314.711 305.496 314.291 311.535 314.291 311.535L286.57 299.638Z" fill="#FFBE9D"/>
<path d="M324.746 290.364C324.922 290.341 325.101 290.341 325.277 290.364L326.799 290.314C328.121 290.314 330.034 290.174 332.377 289.904C333.652 289.767 334.916 289.549 336.163 289.253C337.505 288.902 338.907 288.421 340.379 287.891C343.303 286.819 346.488 285.507 349.793 284.065L353.799 282.302H353.849L363.182 281.702L362.982 281.952C362.766 280.29 362.022 278.742 360.859 277.535C359.928 276.642 358.783 276.004 357.534 275.683C356.433 275.414 355.302 275.29 354.169 275.312C354.457 275.221 354.759 275.181 355.061 275.192C355.912 275.159 356.764 275.24 357.594 275.432C358.908 275.726 360.12 276.362 361.109 277.275C362.358 278.52 363.17 280.137 363.423 281.882V282.122H363.172L353.849 282.793H353.939C352.647 283.384 351.315 283.975 349.933 284.566C346.618 286.008 343.424 287.31 340.469 288.361C338.987 288.882 337.565 289.363 336.203 289.693C334.933 289.978 333.645 290.175 332.347 290.284C330.48 290.466 328.605 290.55 326.729 290.534C326.068 290.534 325.558 290.534 325.207 290.484C325.049 290.464 324.894 290.424 324.746 290.364Z" fill="#EB996E"/>
<path d="M333.168 296.072C333.346 295.981 333.534 295.91 333.729 295.862L335.361 295.341C336.763 294.891 338.806 294.23 341.29 293.338C346.297 291.556 352.927 288.491 360.318 285.096C362.401 284.095 364.434 283.154 366.327 282.192C367.278 281.712 368.229 281.251 369.101 280.74C370.008 280.267 370.98 279.93 371.985 279.739C373.761 279.369 375.562 279.125 377.373 279.008C379.025 278.877 380.527 278.817 381.859 278.807L381.699 278.958C381.925 277.379 381.76 275.77 381.218 274.271C381.058 273.883 380.834 273.524 380.557 273.209C380.456 273.1 380.349 272.997 380.237 272.899C380.237 272.899 380.868 273.149 381.379 274.191C382.007 275.706 382.228 277.36 382.02 278.988V279.128H381.869C380.557 279.128 379.055 279.248 377.413 279.398C375.628 279.545 373.855 279.81 372.105 280.189C371.145 280.384 370.22 280.722 369.361 281.191C368.46 281.722 367.518 282.192 366.557 282.683C364.634 283.684 362.601 284.616 360.548 285.597C353.207 288.992 346.528 292.007 341.52 293.719C339.007 294.58 336.944 295.191 335.512 295.592C334.801 295.782 334.24 295.932 333.859 296.012C333.633 296.067 333.4 296.087 333.168 296.072Z" fill="#EB996E"/>
<path d="M313.83 308.651C313.839 308.747 313.839 308.845 313.83 308.941C313.83 309.162 313.83 309.432 313.83 309.772C313.83 310.513 313.77 311.595 313.76 312.987C313.71 315.771 313.76 319.807 313.94 324.784C314.12 329.762 314.621 335.67 315.372 342.22C316.123 348.769 317.175 355.93 318.427 363.421C319.767 370.469 320.643 377.598 321.051 384.762C321.336 390.628 320.69 396.503 319.138 402.167C318.076 405.98 316.409 409.598 314.201 412.883C313.396 414.087 312.484 415.217 311.477 416.258C311.523 416.173 311.576 416.093 311.637 416.017L312.158 415.367C312.388 415.086 312.668 414.726 312.979 414.285C313.289 413.844 313.66 413.364 314.03 412.763C316.158 409.46 317.762 405.849 318.787 402.057C320.277 396.42 320.882 390.585 320.58 384.762C320.148 377.632 319.261 370.538 317.926 363.521C316.664 356.02 315.623 348.839 314.922 342.28C314.221 335.72 313.77 329.792 313.61 324.804C313.449 319.817 313.479 315.791 313.61 312.987C313.61 311.595 313.73 310.513 313.77 309.782C313.77 309.442 313.82 309.161 313.83 308.951C313.819 308.851 313.819 308.751 313.83 308.651Z" fill="#EB996E"/>
<path d="M259.651 282.493C259.03 275.012 262.856 268.001 265.289 260.911C270.216 246.59 269.866 238.619 270.757 210.417L247.804 205.1C247.043 214.503 248.395 210.828 247.503 221.003C246.612 231.178 244.028 241.373 238.58 250.045C234.695 256.224 229.227 261.953 228.496 269.213C227.424 279.719 236.658 288.782 237.248 299.327C238.06 313.969 222.226 326.036 224.139 340.567C224.57 343.782 226.082 347.087 228.956 348.579C231.029 349.661 233.473 349.661 235.806 349.631L251.209 349.42C252.861 349.42 254.684 349.31 255.866 348.148C257.778 346.286 256.767 343.141 256.376 340.487C254.644 329.061 266.882 319.687 267.172 308.13C267.402 299.147 260.392 291.426 259.651 282.493Z" fill="#263238"/>
<path d="M252.952 116.63C252.819 116.779 252.671 116.913 252.511 117.031C252.201 117.281 251.77 117.672 251.169 118.113C249.479 119.388 247.695 120.533 245.831 121.538C239.667 124.902 232.799 126.771 225.781 126.996C218.762 127.22 211.789 125.793 205.422 122.83C203.502 121.945 201.651 120.917 199.884 119.755C199.253 119.354 198.803 118.994 198.482 118.754C198.308 118.65 198.149 118.522 198.011 118.373C198.197 118.456 198.375 118.557 198.542 118.673C198.873 118.864 199.353 119.204 199.994 119.575C201.791 120.668 203.658 121.641 205.583 122.489C211.92 125.325 218.82 126.683 225.759 126.461C232.699 126.239 239.497 124.442 245.641 121.207C247.502 120.23 249.301 119.14 251.029 117.942C251.65 117.532 252.1 117.161 252.421 116.941C252.584 116.815 252.762 116.711 252.952 116.63Z" fill="white"/>
<path d="M348.173 116.065C377.826 111.337 398.031 83.4655 393.302 53.8127C388.574 24.16 360.703 3.95477 331.05 8.68314C301.397 13.4115 281.192 41.2829 285.92 70.9357C290.649 100.588 318.52 120.794 348.173 116.065Z" fill="#FAFAFA"/>
<path d="M289.635 100.347C289.635 100.397 290.225 100.437 291.177 100.827C292.527 101.396 293.665 102.373 294.432 103.621C294.967 104.46 295.309 105.408 295.433 106.395C295.563 107.53 295.361 108.678 294.852 109.7C294.312 110.887 293.425 111.882 292.308 112.554C291.191 113.227 289.897 113.545 288.596 113.467C287.294 113.389 286.047 112.918 285.019 112.117C283.99 111.316 283.229 110.222 282.835 108.979C282.45 107.906 282.384 106.744 282.644 105.634C282.887 104.67 283.338 103.771 283.966 103C284.879 101.854 286.124 101.018 287.531 100.607C288.533 100.337 289.114 100.367 289.114 100.317C288.975 100.293 288.832 100.293 288.693 100.317C288.52 100.298 288.346 100.298 288.172 100.317C287.94 100.338 287.709 100.374 287.481 100.427C286.232 100.739 285.088 101.377 284.165 102.276C283.243 103.175 282.577 104.303 282.234 105.544C281.938 106.733 281.994 107.982 282.394 109.139C282.836 110.415 283.614 111.546 284.647 112.414C285.759 113.359 287.139 113.93 288.593 114.047C290.047 114.108 291.483 113.701 292.689 112.885C293.826 112.146 294.734 111.106 295.313 109.881C295.854 108.779 296.06 107.543 295.904 106.325C295.711 105.052 295.183 103.853 294.373 102.851C293.563 101.85 292.502 101.082 291.297 100.627C291.08 100.538 290.856 100.471 290.626 100.427C290.459 100.38 290.288 100.353 290.115 100.347C289.956 100.317 289.793 100.317 289.635 100.347Z" fill="#263238"/>
<path d="M278.368 115.669C278.368 115.669 278.659 115.669 279.14 115.909C279.812 116.194 280.379 116.68 280.762 117.301C281.029 117.723 281.2 118.198 281.263 118.693C281.341 119.269 281.247 119.854 280.992 120.376C280.726 120.974 280.284 121.476 279.725 121.816C279.166 122.155 278.516 122.316 277.863 122.277C277.21 122.238 276.584 122.001 276.07 121.596C275.555 121.192 275.176 120.641 274.984 120.015C274.787 119.483 274.753 118.905 274.883 118.353C275.003 117.869 275.228 117.417 275.544 117.031C275.998 116.461 276.617 116.044 277.317 115.839C277.818 115.699 278.118 115.719 278.108 115.689H277.898C277.815 115.674 277.73 115.674 277.647 115.689C277.529 115.696 277.411 115.716 277.297 115.749C276.672 115.9 276.099 116.217 275.639 116.667C275.179 117.116 274.849 117.681 274.683 118.303C274.53 118.895 274.558 119.519 274.763 120.096C274.983 120.731 275.371 121.295 275.885 121.728C276.447 122.207 277.15 122.492 277.888 122.539C278.617 122.573 279.337 122.369 279.941 121.958C280.504 121.594 280.954 121.081 281.243 120.476C281.514 119.927 281.619 119.311 281.543 118.703C281.464 118.181 281.273 117.682 280.982 117.241C280.565 116.605 279.954 116.121 279.24 115.859C279.133 115.815 279.022 115.781 278.909 115.759C278.823 115.747 278.735 115.747 278.649 115.759C278.439 115.659 278.368 115.659 278.368 115.669Z" fill="#263238"/>
<path d="M285.519 66.5774C285.519 66.5774 285.519 66.277 285.519 65.6961C285.519 65.1153 285.519 64.244 285.519 63.1224C285.519 62.5516 285.519 61.9206 285.519 61.2196C285.519 60.5186 285.619 59.7575 285.679 58.9363C285.739 58.1151 285.809 57.2238 285.89 56.2724C285.915 55.7808 285.979 55.292 286.08 54.8102C286.17 54.3095 286.26 53.8088 286.36 53.268C287.22 48.1148 288.855 43.1212 291.207 38.4564C294.259 32.2618 298.475 26.7128 303.625 22.1125L305.819 20.2298C306.59 19.6289 307.411 19.0781 308.222 18.4872L309.454 17.6059C309.857 17.2958 310.283 17.0147 310.726 16.7647L313.42 15.2024L314.782 14.4113C315.262 14.201 315.783 13.9807 316.234 13.7503L319.178 12.4184C320.18 11.9978 321.241 11.6873 322.283 11.3168L323.865 10.776C324.125 10.6959 324.386 10.5857 324.656 10.5156L325.477 10.3253C327.692 9.73395 329.943 9.29231 332.217 9.00339C333.379 8.8732 334.541 8.67291 335.712 8.59279L339.288 8.50266C339.888 8.50266 340.489 8.44257 341.1 8.50266L342.913 8.64286C344.125 8.74301 345.356 8.79308 346.578 8.9433C349.053 9.29759 351.501 9.81277 353.909 10.4856L355.752 11.0063C356.052 11.0964 356.362 11.1665 356.663 11.2667L357.564 11.6172L361.169 13.0193C362.351 13.55 363.493 14.1809 364.675 14.7618C365.245 15.0722 365.856 15.3226 366.417 15.6831L368.12 16.6746C370.391 18.0986 372.565 19.6709 374.629 21.3815L377.633 24.1755L378.385 24.8766C378.615 25.1269 378.835 25.3973 379.066 25.6477L380.347 27.24L381.719 28.8023L382.941 30.4847L384.143 32.1372L384.754 32.9884L385.285 33.8997L387.408 37.5451C387.999 38.8269 388.579 40.1188 389.18 41.4107C391.379 46.7549 392.759 52.3997 393.276 58.1551C393.662 63.9129 393.179 69.696 391.844 75.3102L390.703 79.4061C390.195 80.7414 389.684 82.0533 389.17 83.3419L388.78 84.3434L388.309 85.2747L387.368 87.1475L386.426 89.0002L385.315 90.7527L384.213 92.4953L383.662 93.3565L383.031 94.1677L380.528 97.3924C378.756 99.3996 376.856 101.29 374.839 103.051L373.347 104.353C372.847 104.793 372.286 105.134 371.765 105.534C370.693 106.285 369.662 107.087 368.57 107.798L365.225 109.74L364.394 110.221C364.114 110.371 363.813 110.492 363.533 110.632L361.79 111.423C359.516 112.466 357.174 113.356 354.78 114.087C353.588 114.427 352.387 114.668 351.205 114.958L349.432 115.369C348.841 115.499 348.231 115.539 347.64 115.629L344.095 116.09C342.923 116.2 341.741 116.17 340.579 116.22C338.286 116.293 335.991 116.209 333.709 115.97L332.868 115.909L332.047 115.769L330.405 115.479C329.313 115.279 328.221 115.138 327.16 114.878L324.045 114.007L322.513 113.586L321.041 113.015L318.147 111.894C317.669 111.716 317.203 111.505 316.755 111.263L315.403 110.582C314.511 110.121 313.61 109.7 312.749 109.23L310.285 107.667C304.461 103.93 299.412 99.1052 295.413 93.4567C294.973 92.8358 294.512 92.2349 294.102 91.634L293.01 89.7813L291.958 87.9787C291.788 87.6882 291.598 87.3978 291.458 87.0974L291.037 86.2061C290.496 85.0143 289.976 83.8827 289.475 82.8011C288.974 81.7195 288.694 80.6079 288.323 79.5964C288.143 79.0857 287.973 78.595 287.812 78.1143C287.631 77.6568 287.49 77.1843 287.392 76.7022L286.771 74.1084C286.591 73.2972 286.38 72.5662 286.26 71.8752C286.14 71.1841 286.08 70.5532 286 69.9924C285.85 68.8808 285.729 67.9895 285.649 67.4487C285.569 66.9079 285.509 66.5774 285.509 66.5774C285.509 66.5774 285.509 66.8679 285.599 67.4487C285.689 68.0295 285.769 68.8908 285.9 70.0124C285.97 70.5733 286.05 71.2042 286.14 71.8952C286.23 72.5862 286.45 73.3273 286.631 74.1385C286.811 74.9496 287.011 75.8209 287.222 76.7523C287.323 77.2359 287.46 77.7113 287.632 78.1744L288.133 79.6565C288.503 80.658 288.804 81.7796 289.275 82.8812L290.827 86.3062C290.957 86.6067 291.097 86.9071 291.237 87.2176C291.378 87.528 291.568 87.7984 291.738 88.0988L292.74 89.9115L293.831 91.7942C294.252 92.4051 294.702 93.016 295.143 93.6369C299.139 99.3399 304.203 104.214 310.055 107.988L312.528 109.56C313.39 110.041 314.301 110.472 315.192 110.932L316.554 111.623C317.006 111.869 317.475 112.083 317.956 112.264L320.871 113.406C321.361 113.596 321.872 113.796 322.353 113.977L323.895 114.407L327.03 115.289C328.091 115.559 329.193 115.699 330.294 115.909L331.947 116.2L332.778 116.34L333.629 116.4C335.927 116.652 338.239 116.742 340.549 116.671C341.721 116.671 342.903 116.671 344.095 116.54L347.67 116.08C348.271 116 348.872 115.949 349.472 115.829L351.255 115.409C352.447 115.118 353.669 114.888 354.86 114.537C357.276 113.802 359.641 112.908 361.941 111.864L363.683 111.062L364.564 110.662L365.396 110.171L368.771 108.168C369.872 107.457 370.914 106.656 371.995 105.895C372.526 105.494 373.097 105.144 373.598 104.703L375.1 103.381C377.141 101.612 379.061 99.7085 380.848 97.6828L383.372 94.4281L384.013 93.6069L384.574 92.7356L385.685 90.973L386.797 89.2105L387.798 87.3377L388.75 85.455L389.23 84.5136L389.611 83.5121C390.132 82.1902 390.612 80.8683 391.163 79.5063C391.714 78.1443 391.934 76.7523 392.325 75.3703C393.678 69.6943 394.171 63.8473 393.787 58.0249C393.252 52.2629 391.861 46.6127 389.661 41.2605L387.868 37.3548L385.725 33.6694C385.545 33.369 385.375 33.0585 385.185 32.7581L384.574 31.8968L383.342 30.1943L382.14 28.4518L380.768 26.8795L379.396 25.3172L378.705 24.5361L377.954 23.835L374.95 21.0109C372.857 19.2719 370.653 17.6728 368.35 16.2239L366.657 15.2225C366.097 14.8619 365.476 14.6016 364.895 14.2911C363.703 13.7103 362.551 13.0693 361.36 12.5386L357.714 11.1265L356.813 10.776C356.513 10.6758 356.192 10.5957 355.892 10.5156L354.039 9.99484C351.609 9.31489 349.137 8.79634 346.638 8.44257C345.396 8.29235 344.165 8.25229 342.943 8.14213L341.08 7.99191C340.469 7.99191 339.858 7.99191 339.257 7.99191L335.652 8.09206C334.47 8.16216 333.299 8.37247 332.137 8.51267C329.842 8.80239 327.57 9.25079 325.337 9.85463L324.516 10.0449C324.246 10.125 323.975 10.2252 323.715 10.3153L322.122 10.8561C321.071 11.2366 320.009 11.5471 318.998 11.9677L315.994 13.3297L314.541 14.0007C314.071 14.251 313.62 14.5315 313.159 14.7918L310.455 16.3641C310.009 16.6187 309.581 16.9031 309.174 17.2154L307.942 18.1067C307.121 18.7076 306.299 19.2784 305.518 19.8793C304.737 20.4801 304.046 21.1812 303.315 21.8121C298.12 26.4512 293.872 32.0523 290.807 38.3062C288.479 43.0267 286.889 48.0759 286.09 53.278C285.99 53.8088 285.91 54.3296 285.819 54.8303C285.716 55.3114 285.656 55.8007 285.639 56.2924C285.569 57.2939 285.509 58.1351 285.449 58.9663C285.389 59.7975 285.319 60.5586 285.309 61.2597C285.299 61.9607 285.359 62.5916 285.379 63.1624C285.379 64.2841 285.449 65.1654 285.469 65.7362C285.489 66.307 285.519 66.5774 285.519 66.5774Z" fill="#263238"/>
<path d="M326.278 50.4036H333.98C333.98 50.4036 333.98 43.9341 340.709 43.8139C342.003 43.7747 343.277 44.1394 344.354 44.8572C345.43 45.5751 346.257 46.6106 346.718 47.8198C347.128 48.8288 347.292 49.9209 347.196 51.0059C347.101 52.0908 346.748 53.1373 346.167 54.0589C344.865 56.212 342.001 58.1749 336.804 57.2636V74.6389H344.425V64.434C344.425 64.434 355.1 61.67 355.1 49.8928C355.1 38.6264 344.996 36.0025 340.669 36.0025C337.405 36.0025 326.128 36.8037 326.278 50.4036Z" fill="#FF1641"/>
<path d="M344.545 78.1944H336.814V85.4149H344.545V78.1944Z" fill="#FF1641"/>
</svg>
