<svg width="53" height="52" viewBox="0 0 53 52" fill="none" xmlns="http://www.w3.org/2000/svg">
<path d="M20.6079 4.89612C20.6831 4.89868 20.7582 4.88964 20.8306 4.86931C21.9547 4.54992 23.1043 4.3281 24.2666 4.20631C24.3737 4.19645 24.4778 4.16543 24.5728 4.11504C24.6678 4.06466 24.7519 3.99591 24.8201 3.91279C24.8884 3.82966 24.9394 3.73382 24.9703 3.63081C25.0013 3.52781 25.0114 3.41969 25.0002 3.31272C24.989 3.20576 24.9567 3.10208 24.9052 3.0077C24.8536 2.91332 24.7838 2.83011 24.6999 2.76291C24.6159 2.6957 24.5194 2.64583 24.4161 2.61619C24.3127 2.58656 24.2044 2.57774 24.0976 2.59025C22.8456 2.72187 21.5967 2.96237 20.3861 3.30606C20.2835 3.33527 20.1876 3.38442 20.1039 3.45071C20.0202 3.51699 19.9505 3.59911 19.8986 3.69237C19.8466 3.78563 19.8136 3.8882 19.8014 3.99423C19.7891 4.10026 19.7979 4.20766 19.8271 4.31031C19.9222 4.64506 20.2634 4.88556 20.6079 4.89612ZM14.0307 7.92025C14.1913 7.92404 14.3492 7.87868 14.4833 7.79025C15.4523 7.13799 16.4714 6.56338 17.531 6.07181C17.6278 6.027 17.7149 5.96355 17.7872 5.88509C17.8595 5.80663 17.9156 5.7147 17.9524 5.61455C17.9892 5.51439 18.0059 5.40797 18.0016 5.30136C17.9972 5.19475 17.9719 5.09005 17.9271 4.99322C17.8823 4.89639 17.8188 4.80933 17.7404 4.73702C17.6619 4.66471 17.57 4.60857 17.4698 4.57178C17.2675 4.4975 17.0441 4.50662 16.8485 4.59712C15.7111 5.12501 14.6171 5.74171 13.5766 6.4415C13.488 6.50103 13.412 6.57742 13.353 6.66632C13.2939 6.75521 13.253 6.85487 13.2325 6.95959C13.2119 7.06432 13.2122 7.17206 13.2334 7.27667C13.2545 7.38127 13.296 7.48069 13.3556 7.56925C13.5059 7.79187 13.7683 7.91618 14.0307 7.92025ZM38.9591 44.2097C37.9901 44.862 36.971 45.4366 35.9114 45.9282C35.8146 45.973 35.7275 46.0364 35.6552 46.1148C35.5829 46.1932 35.5268 46.2851 35.4901 46.3853C35.4533 46.4854 35.4367 46.5918 35.4411 46.6984C35.4454 46.8049 35.4708 46.9096 35.5157 47.0064C35.6078 47.2004 35.7722 47.3506 35.9738 47.4247C36.1754 47.4989 36.398 47.491 36.5939 47.4029C37.7313 46.875 38.8253 46.2583 39.8658 45.5585C40.0447 45.4383 40.1684 45.2519 40.2099 45.0404C40.2513 44.8289 40.2071 44.6096 40.0868 44.4307C39.9666 44.2519 39.7802 44.1281 39.5687 44.0867C39.3572 44.0452 39.1379 44.0895 38.9591 44.2097ZM25.6698 47.9164C20.221 47.6536 15.0655 45.3704 11.2089 41.5122C7.06681 37.3693 4.78531 31.8597 4.78531 26C4.78531 20.1402 7.06681 14.6307 11.2089 10.4877C11.4494 10.2472 11.5014 9.82475 11.3422 9.53062C11.1846 9.23893 10.8059 9.04881 10.4752 9.11625L4.73006 10.2659C4.51879 10.3081 4.33292 10.4324 4.21332 10.6116C4.09371 10.7908 4.05016 11.0102 4.09225 11.2214C4.17756 11.6464 4.62118 11.947 5.04856 11.8592L8.39606 11.1897C5.0055 15.3692 3.16031 20.5416 3.16031 26C3.16031 32.2944 5.61081 38.2119 10.0601 42.6611C14.2117 46.8145 19.7646 49.2679 25.6308 49.5406C25.8463 49.5457 26.055 49.4651 26.211 49.3164C26.3671 49.1677 26.4576 48.9631 26.4628 48.7476C26.468 48.5321 26.3873 48.3234 26.2386 48.1673C26.0899 48.0113 25.8853 47.9215 25.6698 47.9164ZM32.6118 47.1307C31.4906 47.4492 30.3352 47.6726 29.1757 47.7937C28.9614 47.8162 28.7649 47.9229 28.6293 48.0904C28.4936 48.2579 28.4301 48.4723 28.4526 48.6866C28.4981 49.1221 28.9084 49.4585 29.3447 49.4097C30.6002 49.2784 31.842 49.0389 33.0562 48.6939C33.2635 48.635 33.4389 48.4961 33.5438 48.3079C33.6488 48.1196 33.6746 47.8974 33.6157 47.6901C33.5567 47.4828 33.4178 47.3074 33.2296 47.2025C33.0413 47.0976 32.8191 47.0718 32.6118 47.1307ZM48.3938 40.1407L45.0463 40.8102C48.4369 36.6307 50.2821 31.4584 50.2821 26C50.2821 19.7056 47.8316 13.7881 43.3823 9.33887C39.241 5.19519 33.7046 2.74285 27.853 2.46025C27.6428 2.45811 27.44 2.53741 27.287 2.68152C27.1341 2.82563 27.0428 3.02336 27.0324 3.23327C27.022 3.44318 27.0933 3.64896 27.2312 3.80749C27.3692 3.96601 27.5632 4.06497 27.7726 4.08362C33.2214 4.34639 38.3769 6.62956 42.2334 10.4877C46.3756 14.6307 48.6571 20.1402 48.6571 26C48.6571 31.8597 46.3756 37.3693 42.2334 41.5122C41.9986 41.7462 41.9442 42.1541 42.0888 42.4466C42.244 42.7619 42.621 42.9544 42.9671 42.8829L48.7123 41.7341C48.8199 41.7164 48.9229 41.6772 49.015 41.6189C49.1071 41.5605 49.1866 41.4843 49.2487 41.3946C49.3107 41.3049 49.3541 41.2037 49.3761 41.0969C49.3982 40.9901 49.3986 40.8799 49.3772 40.773C49.3558 40.666 49.3131 40.5645 49.2517 40.4744C49.1902 40.3843 49.1112 40.3076 49.0195 40.2486C48.9277 40.1897 48.825 40.1499 48.7175 40.1315C48.61 40.1131 48.4999 40.1157 48.3938 40.1407Z" fill="white"/>
<path d="M38.7137 41.5838L42.3049 37.9925C42.8818 37.4156 42.9387 36.5056 42.4512 35.8638L40.9318 33.8487C41.5168 32.7925 41.9881 31.6631 42.3131 30.4931L44.8156 30.1519C45.204 30.0972 45.5598 29.9046 45.8179 29.6092C46.076 29.3138 46.2192 28.9354 46.2212 28.5431V23.4569C46.2212 22.6525 45.6199 21.9619 44.8156 21.8481L42.3212 21.4987C41.9881 20.3369 41.5168 19.2075 40.9237 18.1512L42.4512 16.1444C42.9387 15.4944 42.8737 14.5844 42.3049 14.0075L38.7137 10.4162C38.1449 9.83937 37.2268 9.7825 36.5849 10.27L34.5699 11.7894C33.5137 11.2044 32.3843 10.7331 31.2143 10.4081L30.8731 7.90562C30.8184 7.51718 30.6258 7.16138 30.3304 6.90328C30.035 6.64518 29.6566 6.50203 29.2643 6.5H24.1781C23.3737 6.5 22.6831 7.10125 22.5693 7.90562L22.2199 10.4C21.0581 10.7331 19.9287 11.2044 18.8724 11.7975L16.8656 10.27C16.2156 9.7825 15.2974 9.83937 14.7287 10.4162L11.1374 14.0075C10.5687 14.5844 10.5037 15.4944 10.9912 16.1363L12.5106 18.1512C11.9256 19.2075 11.4543 20.3369 11.1293 21.5069L8.62682 21.8481C7.82244 21.9619 7.22119 22.6525 7.22119 23.4569V28.5431C7.22119 29.3475 7.82244 30.0381 8.62682 30.1519L11.1212 30.5013C11.4543 31.6631 11.9256 32.7925 12.5187 33.8487L10.9912 35.8556C10.5037 36.5056 10.5606 37.4156 11.1374 37.9925L14.7287 41.5838C15.2974 42.1606 16.2156 42.2175 16.8574 41.73L18.8724 40.2106C19.9287 40.7956 21.0581 41.2669 22.2281 41.5919L22.5693 44.0944C22.6831 44.8988 23.3737 45.5 24.1781 45.5H29.2643C30.0687 45.5 30.7593 44.8988 30.8731 44.0944L31.2224 41.6C32.3843 41.2669 33.5137 40.7956 34.5699 40.2025L36.5768 41.73C37.2268 42.2175 38.1368 42.1525 38.7137 41.5838ZM33.7818 38.7887C32.8312 39.3169 31.8156 39.7394 30.7674 40.04C30.1499 40.2188 29.6868 40.7387 29.6056 41.3725L29.2643 43.875H24.1781L23.8368 41.3725C23.7556 40.7387 23.2924 40.2188 22.6749 40.04C21.6268 39.7394 20.6112 39.3169 19.6606 38.7887C19.4087 38.6506 19.1324 38.5856 18.8643 38.5856C18.5149 38.5856 18.1737 38.6912 17.8893 38.9106L15.8743 40.4381L12.2831 36.8388L13.8106 34.8319C14.2006 34.3281 14.2493 33.6294 13.9324 33.0606C13.4043 32.11 12.9818 31.0944 12.6812 30.0462C12.5024 29.4287 11.9824 28.9656 11.3487 28.8844L8.84619 28.5431V23.4569L11.3487 23.1156C11.9824 23.0344 12.5024 22.5713 12.6812 21.9538C12.9818 20.9056 13.4043 19.89 13.9324 18.9394C14.2493 18.3706 14.2006 17.6719 13.8106 17.1681L12.2831 15.1531L15.8743 11.5619L17.8893 13.0894C18.3931 13.4794 19.0918 13.5281 19.6606 13.2113C20.6112 12.6831 21.6268 12.2606 22.6749 11.96C23.2924 11.7812 23.7556 11.2613 23.8368 10.6275L24.1781 8.125H29.2643L29.6056 10.6275C29.6868 11.2613 30.1499 11.7812 30.7674 11.96C31.8156 12.2606 32.8312 12.6831 33.7818 13.2113C34.3506 13.52 35.0412 13.4794 35.5531 13.0894L37.5681 11.5619L41.1593 15.1613L39.6318 17.1681C39.2418 17.6719 39.1931 18.3706 39.5099 18.9394C40.0381 19.89 40.4606 20.9056 40.7612 21.9538C40.9399 22.5713 41.4599 23.0344 42.0937 23.1156L44.5962 23.4569V28.5431L42.0937 28.8844C41.4599 28.9656 40.9399 29.4287 40.7612 30.0462C40.4606 31.0944 40.0381 32.11 39.5099 33.0606C39.1931 33.6294 39.2418 34.3281 39.6318 34.8319L41.1593 36.8388L37.5681 40.4381L35.5531 38.9106C35.0493 38.5206 34.3506 38.4719 33.7818 38.7887Z" fill="white"/>
<path d="M27.5337 23.7088V19.5C27.5337 19.0531 27.1681 18.6875 26.7212 18.6875C26.2743 18.6875 25.9087 19.0531 25.9087 19.5V23.7088C25.2181 23.9606 24.6818 24.4969 24.4299 25.1875H21.8462C21.3993 25.1875 21.0337 25.5531 21.0337 26C21.0337 26.4469 21.3993 26.8125 21.8462 26.8125H24.4299C24.7712 27.755 25.6649 28.4375 26.7212 28.4375C28.0618 28.4375 29.1587 27.3406 29.1587 26C29.1587 24.9437 28.4762 24.05 27.5337 23.7088ZM26.7212 26.8125C26.2743 26.8125 25.9087 26.4469 25.9087 26C25.9087 25.5531 26.2743 25.1875 26.7212 25.1875C27.1681 25.1875 27.5337 25.5531 27.5337 26C27.5337 26.4469 27.1681 26.8125 26.7212 26.8125Z" fill="white"/>
<path d="M26.7212 13C19.5533 13 13.7212 18.8321 13.7212 26C13.7212 33.1679 19.5533 39 26.7212 39C33.8891 39 39.7212 33.1679 39.7212 26C39.7212 18.8321 33.8891 13 26.7212 13ZM36.4712 26.8125H38.0556C37.8825 29.2605 36.918 31.5858 35.3077 33.4376L34.1897 32.3196C34.1147 32.242 34.0251 32.1801 33.926 32.1375C33.8268 32.095 33.7202 32.0725 33.6123 32.0716C33.5044 32.0707 33.3975 32.0912 33.2976 32.1321C33.1978 32.1729 33.107 32.2333 33.0307 32.3096C32.9545 32.3858 32.8941 32.4766 32.8533 32.5764C32.8124 32.6763 32.7919 32.7833 32.7928 32.8911C32.7937 32.999 32.8162 33.1056 32.8587 33.2048C32.9013 33.3039 32.9632 33.3936 33.0408 33.4685L34.1588 34.5865C32.307 36.1968 29.9817 37.1613 27.5337 37.3344V35.75C27.5337 35.5345 27.4481 35.3278 27.2957 35.1755C27.1433 35.0231 26.9367 34.9375 26.7212 34.9375C26.5057 34.9375 26.299 35.0231 26.1467 35.1755C25.9943 35.3278 25.9087 35.5345 25.9087 35.75V37.3344C23.4607 37.1613 21.1354 36.1968 19.2836 34.5865L20.4016 33.4685C20.4792 33.3936 20.5411 33.3039 20.5836 33.2048C20.6262 33.1056 20.6486 32.999 20.6496 32.8911C20.6505 32.7833 20.63 32.6763 20.5891 32.5764C20.5483 32.4766 20.4879 32.3858 20.4116 32.3096C20.3353 32.2333 20.2446 32.1729 20.1448 32.1321C20.0449 32.0912 19.9379 32.0707 19.8301 32.0716C19.7222 32.0725 19.6156 32.095 19.5164 32.1375C19.4173 32.1801 19.3276 32.242 19.2527 32.3196L18.1347 33.4376C16.5244 31.5858 15.5599 29.2605 15.3868 26.8125H16.9712C17.1867 26.8125 17.3933 26.7269 17.5457 26.5745C17.6981 26.4222 17.7837 26.2155 17.7837 26C17.7837 25.7845 17.6981 25.5778 17.5457 25.4255C17.3933 25.2731 17.1867 25.1875 16.9712 25.1875H15.3868C15.5599 22.7395 16.5244 20.4142 18.1347 18.5624L19.2527 19.6804C19.328 19.7561 19.4175 19.8162 19.5161 19.8572C19.6146 19.8982 19.7204 19.9193 19.8271 19.9193C19.9339 19.9193 20.0396 19.8982 20.1382 19.8572C20.2368 19.8162 20.3263 19.7561 20.4016 19.6804C20.5539 19.528 20.6395 19.3214 20.6395 19.1059C20.6395 18.8905 20.5539 18.6839 20.4016 18.5315L19.2836 17.4135C21.1354 15.8032 23.4607 14.8387 25.9087 14.6656V16.25C25.9087 16.4655 25.9943 16.6722 26.1467 16.8245C26.299 16.9769 26.5057 17.0625 26.7212 17.0625C26.9367 17.0625 27.1433 16.9769 27.2957 16.8245C27.4481 16.6722 27.5337 16.4655 27.5337 16.25V14.6656C29.9817 14.8387 32.307 15.8032 34.1588 17.4135L33.0408 18.5315C32.9632 18.6065 32.9013 18.6961 32.8587 18.7952C32.8162 18.8944 32.7937 19.001 32.7928 19.1089C32.7919 19.2167 32.8124 19.3237 32.8533 19.4236C32.8941 19.5234 32.9545 19.6142 33.0307 19.6904C33.107 19.7667 33.1978 19.8271 33.2976 19.8679C33.3975 19.9088 33.5044 19.9293 33.6123 19.9284C33.7202 19.9275 33.8268 19.905 33.926 19.8625C34.0251 19.8199 34.1147 19.758 34.1897 19.6804L35.3077 18.5624C36.918 20.4142 37.8825 22.7395 38.0556 25.1875H36.4712C36.2557 25.1875 36.049 25.2731 35.8967 25.4255C35.7443 25.5778 35.6587 25.7845 35.6587 26C35.6587 26.2155 35.7443 26.4222 35.8967 26.5745C36.049 26.7269 36.2557 26.8125 36.4712 26.8125Z" fill="white"/>
</svg>
