<svg width="53" height="52" viewBox="0 0 53 52" fill="none" xmlns="http://www.w3.org/2000/svg">
<g clip-path="url(#clip0_303_167)">
<path d="M52.4626 31.6459C52.3095 31.2742 52.0493 30.9565 51.7151 30.7333C51.3809 30.51 50.9879 30.3912 50.5859 30.392L44.3876 30.393V2.53906C44.3876 1.19509 43.2942 0.101562 41.9501 0.101562H24.2285C22.8846 0.101562 21.791 1.19509 21.791 2.53906V9.42906C20.5271 9.13551 19.2336 8.98762 17.936 8.98828C8.55572 8.98828 0.924316 16.6197 0.924316 26C0.924316 35.3803 8.55572 43.0117 17.936 43.0117C19.5692 43.0117 21.149 42.7799 22.6451 42.3482L31.6531 51.3562C31.8412 51.5454 32.0651 51.6954 32.3116 51.7975C32.5582 51.8997 32.8225 51.9519 33.0894 51.9511C33.6319 51.9511 34.1421 51.7399 34.5257 51.3562L52.0222 33.8596C52.307 33.576 52.501 33.214 52.5794 32.8198C52.6578 32.4256 52.6172 32.017 52.4626 31.646V31.6459ZM2.54932 26C2.54932 17.5158 9.45171 10.6133 17.936 10.6133C26.4204 10.6133 33.3228 17.5158 33.3228 26C33.3228 34.4842 26.4204 41.3867 17.936 41.3867C9.45171 41.3867 2.54932 34.4842 2.54932 26ZM50.8733 32.7104L33.3766 50.2072C33.3389 50.245 33.2941 50.2749 33.2448 50.2953C33.1955 50.3157 33.1427 50.3262 33.0894 50.326C33.0265 50.326 32.9055 50.3106 32.802 50.2071L24.35 41.7551C30.5603 39.2178 34.9478 33.1121 34.9478 26C34.9478 18.5362 30.1159 12.1799 23.416 9.89402V2.53906C23.416 2.09107 23.7806 1.72656 24.2285 1.72656H41.9502C42.3981 1.72656 42.7627 2.09107 42.7627 2.53906V30.392C42.7627 31.288 43.4916 32.017 44.3877 32.017H50.586C50.8309 32.017 50.93 32.1924 50.9613 32.2678C50.9925 32.3432 51.0464 32.5373 50.8733 32.7104Z" fill="white"/>
<path d="M17.2077 20.9972H18.6643C19.6129 20.9972 20.3848 21.769 20.3848 22.7177C20.3848 22.9332 20.4704 23.1399 20.6228 23.2922C20.7752 23.4446 20.9818 23.5302 21.1973 23.5302C21.4128 23.5302 21.6195 23.4446 21.7718 23.2922C21.9242 23.1399 22.0098 22.9332 22.0098 22.7177C22.0098 20.9012 20.5543 19.4194 18.7485 19.3744V18.5962C18.7485 18.3807 18.6629 18.174 18.5106 18.0217C18.3582 17.8693 18.1515 17.7837 17.936 17.7837C17.7205 17.7837 17.5139 17.8693 17.3615 18.0217C17.2091 18.174 17.1235 18.3807 17.1235 18.5962V19.3744C15.3178 19.4194 13.8624 20.9012 13.8624 22.7177V23.4671C13.8624 25.3118 15.3631 26.8125 17.2077 26.8125H18.6643C19.6129 26.8125 20.3848 27.5843 20.3848 28.533V29.2823C20.3848 30.231 19.6129 31.0028 18.6643 31.0028H17.2078C16.2592 31.0028 15.4874 30.231 15.4874 29.2823V29.2122C15.4874 28.9967 15.4018 28.7901 15.2494 28.6377C15.097 28.4853 14.8904 28.3997 14.6749 28.3997C14.4594 28.3997 14.2527 28.4853 14.1003 28.6377C13.948 28.7901 13.8624 28.9967 13.8624 29.2122V29.2823C13.8624 31.0988 15.3179 32.5806 17.1236 32.6256V33.4038C17.1236 33.6193 17.2092 33.826 17.3616 33.9783C17.514 34.1307 17.7207 34.2163 17.9361 34.2163C18.1516 34.2163 18.3583 34.1307 18.5107 33.9783C18.663 33.826 18.7486 33.6193 18.7486 33.4038V32.6256C20.5544 32.5806 22.0098 31.0988 22.0098 29.2823V28.5329C22.0098 26.6882 20.5091 25.1875 18.6644 25.1875H17.2078C16.2592 25.1875 15.4874 24.4157 15.4874 23.467V22.7177C15.4874 21.769 16.2592 20.9972 17.2078 20.9972H17.2077Z" fill="white"/>
<path d="M17.936 13.2653C10.914 13.2653 5.20132 18.9781 5.20132 26C5.20132 33.0218 10.9141 38.7347 17.936 38.7347C24.958 38.7347 30.6708 33.0218 30.6708 26C30.6708 18.9781 24.958 13.2653 17.936 13.2653ZM17.936 37.1097C11.8102 37.1097 6.82632 32.1258 6.82632 26C6.82632 19.8741 11.8102 14.8903 17.936 14.8903C24.0619 14.8903 29.0458 19.8741 29.0458 26C29.0458 32.1258 24.0619 37.1097 17.936 37.1097Z" fill="white"/>
</g>
<defs>
<clipPath id="clip0_303_167">
<rect width="52" height="52" fill="white" transform="translate(0.721191)"/>
</clipPath>
</defs>
</svg>
