<svg width="53" height="52" viewBox="0 0 53 52" fill="none" xmlns="http://www.w3.org/2000/svg">
<path d="M4.78369 51.1875H14.5337C14.7492 51.1875 14.9558 51.1019 15.1082 50.9495C15.2606 50.7972 15.3462 50.5905 15.3462 50.375V44.6875H16.9712C17.1319 44.6875 17.2889 44.6398 17.4225 44.5505C17.5561 44.4612 17.6602 44.3344 17.7217 44.1859C17.7832 44.0375 17.7992 43.8741 17.7679 43.7165C17.7366 43.559 17.6592 43.4142 17.5456 43.3006L10.2331 35.9881C10.0808 35.8357 9.87414 35.7502 9.65869 35.7502C9.44324 35.7502 9.23662 35.8357 9.08425 35.9881L1.77175 43.3006C1.65816 43.4142 1.5808 43.559 1.54947 43.7165C1.51813 43.8741 1.53422 44.0375 1.5957 44.1859C1.65718 44.3344 1.7613 44.4612 1.89488 44.5505C2.02846 44.6398 2.18552 44.6875 2.34619 44.6875H3.97119V50.375C3.97119 50.5905 4.05679 50.7972 4.20917 50.9495C4.36154 51.1019 4.5682 51.1875 4.78369 51.1875ZM10.4712 49.5625H8.84619V47.125H10.4712V49.5625ZM9.65869 37.7114L15.0098 43.0625H14.5337C14.3182 43.0625 14.1115 43.1481 13.9592 43.3005C13.8068 43.4528 13.7212 43.6595 13.7212 43.875V49.5625H12.0962V46.3125C12.0962 46.097 12.0106 45.8903 11.8582 45.738C11.7058 45.5856 11.4992 45.5 11.2837 45.5H8.03369C7.8182 45.5 7.61154 45.5856 7.45917 45.738C7.30679 45.8903 7.22119 46.097 7.22119 46.3125V49.5625H5.59619V43.875C5.59619 43.6595 5.51059 43.4528 5.35821 43.3005C5.20584 43.1481 4.99918 43.0625 4.78369 43.0625H4.30756L9.65869 37.7114ZM50.2837 0.8125H40.5337C40.1028 0.81293 39.6898 0.984273 39.3851 1.28893C39.0805 1.59358 38.9091 2.00666 38.9087 2.4375V18.6875C38.9087 18.903 38.9943 19.1097 39.1467 19.262C39.299 19.4144 39.5057 19.5 39.7212 19.5H51.0962C51.3117 19.5 51.5183 19.4144 51.6707 19.262C51.8231 19.1097 51.9087 18.903 51.9087 18.6875V2.4375C51.9083 2.00666 51.7369 1.59358 51.4323 1.28893C51.1276 0.984273 50.7145 0.81293 50.2837 0.8125ZM46.2212 15.4375V17.875H44.5962V15.4375H46.2212ZM50.2837 17.875H47.8462V15.4375H48.6587V13.8125H42.1587V15.4375H42.9712V17.875H40.5337V2.4375H50.2837V17.875Z" fill="white"/>
<path d="M41.3462 4.0625H42.9712V5.6875H41.3462V4.0625ZM44.5962 4.0625H46.2212V5.6875H44.5962V4.0625ZM47.8462 4.0625H49.4712V5.6875H47.8462V4.0625ZM41.3462 7.3125H42.9712V8.9375H41.3462V7.3125ZM44.5962 7.3125H46.2212V8.9375H44.5962V7.3125ZM47.8462 7.3125H49.4712V8.9375H47.8462V7.3125ZM41.3462 10.5625H42.9712V12.1875H41.3462V10.5625ZM44.5962 10.5625H46.2212V12.1875H44.5962V10.5625ZM47.8462 10.5625H49.4712V12.1875H47.8462V10.5625ZM26.7212 19.5C25.4356 19.5 24.1789 19.8812 23.11 20.5954C22.0411 21.3097 21.2079 22.3248 20.716 23.5126C20.224 24.7003 20.0953 26.0072 20.3461 27.2681C20.5969 28.529 21.216 29.6872 22.125 30.5962C23.034 31.5052 24.1922 32.1243 25.4531 32.3751C26.714 32.6259 28.0209 32.4972 29.2086 32.0052C30.3964 31.5132 31.4115 30.6801 32.1257 29.6112C32.84 28.5423 33.2212 27.2856 33.2212 26C33.219 24.2768 32.5335 22.6247 31.315 21.4062C30.0965 20.1877 28.4444 19.5021 26.7212 19.5ZM26.7212 30.875C25.757 30.875 24.8145 30.5891 24.0128 30.0534C23.2111 29.5177 22.5863 28.7564 22.2173 27.8656C21.8483 26.9748 21.7518 25.9946 21.9399 25.0489C22.128 24.1033 22.5923 23.2346 23.274 22.5529C23.9558 21.8711 24.8245 21.4068 25.7701 21.2187C26.7158 21.0306 27.696 21.1271 28.5868 21.4961C29.4776 21.8651 30.2389 22.4899 30.7746 23.2916C31.3103 24.0933 31.5962 25.0358 31.5962 26C31.5947 27.2925 31.0806 28.5316 30.1667 29.4455C29.2528 30.3594 28.0137 30.8735 26.7212 30.875Z" fill="white"/>
<path d="M35.3881 21.1364C35.5213 21.0032 35.6042 20.8279 35.6224 20.6404C35.6406 20.4529 35.5931 20.2649 35.4881 20.1086C34.7249 18.9732 33.7486 17.9966 32.6134 17.2331C32.457 17.1282 32.2689 17.0807 32.0814 17.0988C31.8939 17.1169 31.7184 17.1994 31.5848 17.3323L31.1347 17.7832C31.1112 17.799 31.0835 17.8075 31.0552 17.8077C31.0269 17.8078 30.9991 17.7996 30.9754 17.784C30.5092 17.5418 30.0232 17.3399 29.5227 17.1803C29.4674 17.1624 29.4114 17.121 29.4114 17.0674V16.4344C29.4113 16.246 29.3456 16.0634 29.2257 15.918C29.1058 15.7726 28.9391 15.6734 28.7541 15.6374C27.4118 15.3723 26.0306 15.3723 24.6883 15.6374C24.5035 15.6735 24.3369 15.7728 24.2172 15.9182C24.0974 16.0636 24.0319 16.2461 24.0318 16.4344V17.0682C24.0318 17.121 23.9749 17.1624 23.9205 17.1795C23.4199 17.3392 22.9339 17.5414 22.4678 17.784C22.444 17.7997 22.416 17.808 22.3875 17.8077C22.3589 17.8074 22.3312 17.7986 22.3077 17.7824L21.8576 17.3323C21.724 17.1994 21.5485 17.1169 21.361 17.0988C21.1734 17.0807 20.9854 17.1282 20.8289 17.2331C19.6937 17.9966 18.7175 18.9732 17.9543 20.1086C17.8492 20.2649 17.8018 20.4529 17.82 20.6404C17.8382 20.8279 17.921 21.0032 18.0543 21.1364L18.5044 21.5865C18.5204 21.6097 18.5292 21.6372 18.5295 21.6655C18.5298 21.6937 18.5216 21.7214 18.506 21.7449C18.263 22.2114 18.0608 22.698 17.9015 23.1993C17.8836 23.2554 17.8422 23.3106 17.7894 23.3106H17.1556C16.9674 23.3109 16.7851 23.3765 16.6399 23.4962C16.4947 23.616 16.3955 23.7824 16.3594 23.9671C16.0929 25.3093 16.0929 26.6907 16.3594 28.0329C16.3955 28.2176 16.4947 28.384 16.6399 28.5038C16.7851 28.6235 16.9674 28.6891 17.1556 28.6894H17.7894C17.8422 28.6894 17.8836 28.7446 17.9015 28.7999C18.0606 29.3011 18.2625 29.7877 18.5052 30.2543C18.521 30.2778 18.5293 30.3056 18.5292 30.334C18.529 30.3624 18.5204 30.3901 18.5044 30.4135L18.0543 30.8636C17.921 30.9968 17.8382 31.1721 17.82 31.3596C17.8018 31.5471 17.8492 31.7351 17.9543 31.8914C18.7173 33.027 19.6936 34.0036 20.8289 34.7669C20.9853 34.8721 21.1734 34.9198 21.361 34.9017C21.5486 34.8836 21.7242 34.8009 21.8576 34.6678L22.3077 34.2168C22.3312 34.2011 22.3589 34.1927 22.3872 34.1925C22.4155 34.1924 22.4432 34.2005 22.4669 34.216C22.9334 34.4583 23.4197 34.6603 23.9205 34.8197C23.9758 34.8376 24.031 34.879 24.031 34.9326V35.5656C24.0311 35.754 24.0967 35.9366 24.2167 36.082C24.3366 36.2274 24.5033 36.3266 24.6883 36.3626C26.0305 36.6287 27.4119 36.6287 28.7541 36.3626C28.9391 36.3266 29.1058 36.2274 29.2257 36.082C29.3456 35.9366 29.4113 35.754 29.4114 35.5656V34.9318C29.4114 34.879 29.4666 34.8376 29.5219 34.8197C30.0225 34.6603 30.5085 34.4583 30.9746 34.216C30.9984 34.2003 31.0264 34.192 31.0549 34.1923C31.0834 34.1926 31.1112 34.2014 31.1347 34.2176L31.5848 34.6678C31.7185 34.8005 31.8939 34.8829 32.0814 34.901C32.2689 34.919 32.4569 34.8717 32.6134 34.7669C33.7488 34.0036 34.7251 33.027 35.4881 31.8914C35.5931 31.7351 35.6406 31.5471 35.6224 31.3596C35.6042 31.1721 35.5213 30.9968 35.3881 30.8636L34.938 30.4135C34.9219 30.3903 34.9132 30.3628 34.9129 30.3345C34.9126 30.3063 34.9208 30.2786 34.9364 30.2551C35.1793 29.7886 35.3816 29.302 35.5409 28.8007C35.5588 28.7446 35.6002 28.6894 35.653 28.6894H36.2867C36.475 28.6891 36.6573 28.6235 36.8025 28.5038C36.9477 28.384 37.0469 28.2176 37.083 28.0329C37.3495 26.6907 37.3495 25.3093 37.083 23.9671C37.0469 23.7824 36.9477 23.616 36.8025 23.4962C36.6573 23.3765 36.475 23.3109 36.2867 23.3106H35.653C35.6002 23.3106 35.5588 23.2554 35.5409 23.2001C35.3819 22.6989 35.1799 22.2123 34.9372 21.7458C34.9214 21.7222 34.9131 21.6944 34.9132 21.666C34.9134 21.6376 34.922 21.6099 34.938 21.5865L35.3881 21.1364ZM35.5929 24.934C35.6807 25.6417 35.6807 26.3575 35.5929 27.0652C35.2302 27.0811 34.8814 27.2092 34.5947 27.4319C34.3079 27.6546 34.0974 27.9608 33.9923 28.3083C33.8614 28.7211 33.695 29.1218 33.495 29.5059C33.3233 29.8267 33.2555 30.193 33.3011 30.554C33.3466 30.915 33.5033 31.2529 33.7493 31.5209C33.309 32.0818 32.803 32.5878 32.2421 33.0281C31.9741 32.7821 31.6362 32.6254 31.2752 32.5799C30.9142 32.5343 30.5479 32.6021 30.2271 32.7738C29.8431 32.9734 29.4427 33.1397 29.0303 33.2711C28.683 33.3765 28.3769 33.587 28.1542 33.8737C27.9316 34.1604 27.8033 34.5091 27.7872 34.8717C27.0795 34.959 26.3637 34.959 25.656 34.8717C25.6399 34.5091 25.5116 34.1604 25.289 33.8737C25.0663 33.587 24.7602 33.3765 24.4129 33.2711C24.0002 33.1398 23.5996 32.9734 23.2153 32.7738C22.8945 32.6021 22.5282 32.5343 22.1672 32.5799C21.8062 32.6254 21.4683 32.7821 21.2003 33.0281C20.6394 32.5878 20.1334 32.0818 19.6931 31.5209C19.9393 31.2527 20.096 30.9144 20.1415 30.5531C20.1869 30.1917 20.1188 29.8252 19.9466 29.5043C19.747 29.1209 19.5809 28.7211 19.4501 28.3091C19.3449 27.9617 19.1345 27.6554 18.8477 27.4327C18.561 27.2101 18.2122 27.0819 17.8495 27.066C17.7616 26.3581 17.7616 25.642 17.8495 24.934C18.2122 24.9181 18.561 24.79 18.8477 24.5673C19.1345 24.3446 19.3449 24.0384 19.4501 23.6909C19.581 23.2783 19.7474 22.8779 19.9474 22.4941C20.1191 22.1733 20.1869 21.807 20.1413 21.446C20.0957 21.085 19.9391 20.7471 19.6931 20.4791C20.1334 19.9182 20.6394 19.4122 21.2003 18.9719C21.4683 19.2179 21.8062 19.3746 22.1672 19.4201C22.5282 19.4657 22.8945 19.3979 23.2153 19.2262C23.5995 19.0265 24.0002 18.8601 24.4129 18.7289C24.7602 18.6234 25.0662 18.4129 25.2888 18.1262C25.5115 17.8395 25.6397 17.4909 25.656 17.1283C26.3637 17.041 27.0795 17.041 27.7872 17.1283C27.8034 17.4909 27.9317 17.8395 28.1544 18.1262C28.377 18.4129 28.683 18.6234 29.0303 18.7289C29.4427 18.8603 29.8431 19.0266 30.2271 19.2262C30.5479 19.398 30.9141 19.4659 31.2752 19.4203C31.6362 19.3747 31.9741 19.218 32.2421 18.9719C32.803 19.4122 33.309 19.9182 33.7493 20.4791C33.503 20.7474 33.3463 21.0856 33.3009 21.4469C33.2555 21.8083 33.3236 22.1748 33.4958 22.4957C33.6954 22.8791 33.8615 23.2789 33.9923 23.6909C34.0974 24.0384 34.3079 24.3446 34.5947 24.5673C34.8814 24.79 35.2302 24.9181 35.5929 24.934Z" fill="white"/>
<path d="M25.9087 25.6636L24.1374 27.4349L25.2863 28.5837L27.2956 26.5744C27.448 26.4221 27.5336 26.2155 27.5337 26V22.75H25.9087V25.6636ZM27.5337 44.6493V42.25C27.5337 42.1029 27.4938 41.9586 27.4182 41.8324C27.3426 41.7062 27.2342 41.6029 27.1045 41.5335C26.9748 41.4641 26.8287 41.4312 26.6818 41.4383C26.5348 41.4455 26.3926 41.4924 26.2703 41.574L21.3953 44.824C21.284 44.8982 21.1927 44.9987 21.1296 45.1166C21.0665 45.2346 21.0335 45.3663 21.0335 45.5C21.0335 45.6337 21.0665 45.7654 21.1296 45.8834C21.1927 46.0013 21.284 46.1018 21.3953 46.176L26.2703 49.426C26.3926 49.5076 26.5348 49.5545 26.6818 49.5617C26.8287 49.5688 26.9748 49.5359 27.1045 49.4665C27.2342 49.3971 27.3426 49.2938 27.4182 49.1676C27.4938 49.0414 27.5337 48.8971 27.5337 48.75V46.2743C32.3346 46.0825 36.9121 44.1954 40.4535 40.9482C43.9948 37.701 46.2706 33.3038 46.8769 28.5374L45.2641 28.3368C44.7074 32.7102 42.6226 36.7462 39.3781 39.7312C36.1336 42.7163 31.9383 44.4582 27.5337 44.6493ZM25.9087 47.2314L23.3111 45.5L25.9087 43.7686V47.2314ZM47.0166 26.8458C47.028 26.5652 47.0337 26.2833 47.0337 26C47.0337 25.7167 47.028 25.4348 47.0166 25.1542L45.3924 25.2208C45.4033 25.4792 45.4087 25.7389 45.4087 26C45.4087 26.2611 45.4033 26.5208 45.3924 26.7792L47.0166 26.8458ZM9.44744 33.1427C9.23896 32.6392 9.05272 32.1269 8.88925 31.6071L7.339 32.0946C7.51613 32.6584 7.72088 33.2207 7.94594 33.7651L9.44744 33.1427ZM6.57769 28.6292C6.65406 29.2183 6.75644 29.8074 6.88238 30.3786L8.46919 30.0292C8.3521 29.497 8.2583 28.96 8.18806 28.4196L6.57769 28.6292ZM44.9716 21.9659C45.0869 22.4884 45.1812 23.0303 45.2535 23.5763L46.8639 23.3651C46.7873 22.7781 46.6853 22.1947 46.5584 21.6166L44.9716 21.9659ZM32.0471 5.824L27.1721 2.574C27.0498 2.49236 26.9075 2.44547 26.7606 2.43833C26.6137 2.4312 26.4676 2.46408 26.3379 2.53348C26.2082 2.60287 26.0998 2.70618 26.0242 2.83237C25.9486 2.95856 25.9087 3.1029 25.9087 3.25V5.70781C20.6689 5.92301 15.7148 8.15425 12.0811 11.9355C8.44747 15.7168 6.41517 20.7558 6.40869 26C6.40869 26.2833 6.41438 26.5652 6.42575 26.8458L8.04913 26.7792C8.03884 26.5208 8.03369 26.2611 8.03369 26C8.03957 21.1864 9.90056 16.5604 13.2297 13.0837C16.5588 9.60701 21.0999 7.54729 25.9087 7.33281V9.75C25.9087 9.8971 25.9486 10.0414 26.0242 10.1676C26.0998 10.2938 26.2082 10.3971 26.3379 10.4665C26.4676 10.5359 26.6137 10.5688 26.7606 10.5617C26.9075 10.5545 27.0498 10.5076 27.1721 10.426L32.0471 7.176C32.1584 7.1018 32.2496 7.00128 32.3127 6.88335C32.3759 6.76543 32.4089 6.63375 32.4089 6.5C32.4089 6.36625 32.3759 6.23457 32.3127 6.11665C32.2496 5.99872 32.1584 5.8982 32.0471 5.824ZM27.5337 8.23144V4.76937L30.1313 6.5L27.5337 8.23144Z" fill="white"/>
</svg>
