<svg width="53" height="52" viewBox="0 0 53 52" fill="none" xmlns="http://www.w3.org/2000/svg">
<g clip-path="url(#clip0_303_93)">
<path d="M3.32119 20.8H13.7212C14.4108 20.8 15.0721 20.5261 15.5597 20.0385C16.0473 19.5509 16.3212 18.8896 16.3212 18.2V11.2667C16.3212 10.5771 16.0473 9.91578 15.5597 9.42819C15.0721 8.94059 14.4108 8.66667 13.7212 8.66667H3.32119C2.63163 8.66667 1.97031 8.94059 1.48271 9.42819C0.995119 9.91578 0.721191 10.5771 0.721191 11.2667L0.721191 18.2C0.721191 18.8896 0.995119 19.5509 1.48271 20.0385C1.97031 20.5261 2.63163 20.8 3.32119 20.8ZM2.45452 11.2667C2.45452 11.0368 2.54583 10.8164 2.70837 10.6538C2.8709 10.4913 3.09134 10.4 3.32119 10.4H13.7212C13.951 10.4 14.1715 10.4913 14.334 10.6538C14.4965 10.8164 14.5879 11.0368 14.5879 11.2667V18.2C14.5879 18.4299 14.4965 18.6503 14.334 18.8128C14.1715 18.9754 13.951 19.0667 13.7212 19.0667H3.32119C3.09134 19.0667 2.8709 18.9754 2.70837 18.8128C2.54583 18.6503 2.45452 18.4299 2.45452 18.2V11.2667ZM50.1212 8.66667H39.7212C39.0316 8.66667 38.3703 8.94059 37.8827 9.42819C37.3951 9.91578 37.1212 10.5771 37.1212 11.2667V18.2C37.1212 18.8896 37.3951 19.5509 37.8827 20.0385C38.3703 20.5261 39.0316 20.8 39.7212 20.8H50.1212C50.8108 20.8 51.4721 20.5261 51.9597 20.0385C52.4473 19.5509 52.7212 18.8896 52.7212 18.2V11.2667C52.7212 10.5771 52.4473 9.91578 51.9597 9.42819C51.4721 8.94059 50.8108 8.66667 50.1212 8.66667ZM50.9879 18.2C50.9879 18.4299 50.8965 18.6503 50.734 18.8128C50.5715 18.9754 50.351 19.0667 50.1212 19.0667H39.7212C39.4913 19.0667 39.2709 18.9754 39.1084 18.8128C38.9458 18.6503 38.8545 18.4299 38.8545 18.2V11.2667C38.8545 11.0368 38.9458 10.8164 39.1084 10.6538C39.2709 10.4913 39.4913 10.4 39.7212 10.4H50.1212C50.351 10.4 50.5715 10.4913 50.734 10.6538C50.8965 10.8164 50.9879 11.0368 50.9879 11.2667V18.2ZM34.5212 9.53333V2.6C34.5212 1.91044 34.2473 1.24912 33.7597 0.761522C33.2721 0.273928 32.6108 0 31.9212 0L21.5212 0C20.8316 0 20.1703 0.273928 19.6827 0.761522C19.1951 1.24912 18.9212 1.91044 18.9212 2.6V9.53333C18.9212 10.2229 19.1951 10.8842 19.6827 11.3718C20.1703 11.8594 20.8316 12.1333 21.5212 12.1333H31.9212C32.6108 12.1333 33.2721 11.8594 33.7597 11.3718C34.2473 10.8842 34.5212 10.2229 34.5212 9.53333ZM20.6545 9.53333V2.6C20.6545 2.37015 20.7458 2.14971 20.9084 1.98717C21.0709 1.82464 21.2913 1.73333 21.5212 1.73333H31.9212C32.151 1.73333 32.3715 1.82464 32.534 1.98717C32.6966 2.14971 32.7879 2.37015 32.7879 2.6V9.53333C32.7879 9.76319 32.6966 9.98363 32.534 10.1462C32.3715 10.3087 32.151 10.4 31.9212 10.4H21.5212C21.2913 10.4 21.0709 10.3087 20.9084 10.1462C20.7458 9.98363 20.6545 9.76319 20.6545 9.53333ZM26.7212 24.2667C23.9786 24.2667 21.2976 25.0799 19.0173 26.6036C16.7369 28.1273 14.9596 30.293 13.9101 32.8268C12.8605 35.3606 12.5859 38.1487 13.121 40.8386C13.656 43.5285 14.9767 45.9993 16.916 47.9385C18.8553 49.8778 21.3261 51.1985 24.0159 51.7336C26.7058 52.2686 29.4939 51.994 32.0277 50.9445C34.5615 49.8949 36.7272 48.1176 38.2509 45.8372C39.7746 43.5569 40.5879 40.8759 40.5879 38.1333C40.5835 34.457 39.1212 30.9325 36.5216 28.3329C33.922 25.7334 30.3975 24.271 26.7212 24.2667ZM22.6557 26.7159L23.0023 27.2957C23.2198 27.6622 23.2978 28.0949 23.2218 28.5143C23.1459 28.9336 22.9212 29.3115 22.5889 29.5785C19.7385 31.8569 19.0529 32.4047 18.8718 32.5529C18.6551 32.729 18.4779 32.9487 18.3516 33.1978C18.2253 33.4468 18.1527 33.7196 18.1386 33.9985C18.1219 34.2826 18.1654 34.567 18.2662 34.8331C18.367 35.0993 18.5229 35.3411 18.7236 35.5429C18.8128 35.6359 18.8615 35.7606 18.8588 35.8895C18.8555 36.0241 18.8006 36.1523 18.7054 36.2474C18.6102 36.3426 18.482 36.3976 18.3475 36.4009C17.8639 36.4003 17.3852 36.3041 16.9389 36.1177C16.4927 35.9314 16.0878 35.6585 15.7475 35.3149L15.0905 34.6857C15.6382 32.8571 16.6082 31.1829 17.9224 29.7984C19.2366 28.4139 20.858 27.358 22.6557 26.7159ZM15.913 43.6159L16.2831 43.4677C16.5812 43.348 16.9047 43.3051 17.2237 43.343C17.5428 43.3809 17.8472 43.4982 18.1091 43.6843C18.8303 44.1879 19.5023 44.7584 20.1163 45.3882C20.359 45.6412 20.5277 45.9558 20.6041 46.2979C20.6805 46.64 20.6616 46.9965 20.5497 47.3287L20.203 48.3522C18.3775 47.1835 16.8966 45.5492 15.913 43.6176V43.6159ZM26.7212 50.2667C25.0087 50.2656 23.316 49.8995 21.7561 49.1929L22.1955 47.8799C22.4074 47.2453 22.4412 46.5647 22.2933 45.9123C22.1454 45.2598 21.8214 44.6604 21.3565 44.1792C20.6672 43.474 19.9127 42.8356 19.1032 42.2725C18.6051 41.9192 18.0261 41.6968 17.4195 41.6259C16.813 41.5551 16.1983 41.6379 15.6322 41.8669L15.2361 42.0255C14.6397 40.3134 14.4495 38.486 14.6806 36.6877C15.6758 37.6175 16.9872 38.1343 18.3492 38.1333C18.9443 38.1326 19.5148 37.8959 19.9357 37.4751C20.3565 37.0543 20.5932 36.4838 20.5939 35.8887C20.5957 35.5948 20.539 35.3036 20.4271 35.0319C20.3152 34.7602 20.1503 34.5135 19.9421 34.3061C19.9162 34.2776 19.8965 34.244 19.8843 34.2074C19.8721 34.1709 19.8675 34.1322 19.8711 34.0938C19.8713 34.0575 19.8791 34.0215 19.894 33.9884C19.9089 33.9553 19.9306 33.9256 19.9577 33.9014L23.6714 30.9322C24.331 30.4026 24.777 29.6525 24.9271 28.82C25.0773 27.9875 24.9216 27.1288 24.4887 26.4021L24.3847 26.2288C26.0458 25.9016 27.7571 25.9256 29.4084 26.2994C31.0597 26.6731 32.6145 27.3883 33.9728 28.399C35.3312 29.4097 36.4629 30.6935 37.2953 32.1678C38.1278 33.6421 38.6424 35.2743 38.8062 36.9595C38.97 38.6446 38.7793 40.3454 38.2464 41.9524C37.7135 43.5594 36.8502 45.0372 35.7119 46.2905C34.5737 47.5439 33.1857 48.5451 31.6373 49.2299C30.0889 49.9147 28.4143 50.2679 26.7212 50.2667Z" fill="white"/>
<path d="M33.4743 32.6898C31.5431 32.2534 29.5676 32.0443 27.5879 32.0667C26.4351 32.109 25.3426 32.5925 24.5361 33.4174C23.7297 34.2422 23.2709 35.3453 23.2545 36.4988C23.2575 37.6649 23.7229 38.7822 24.5486 39.6056C25.3743 40.429 26.4928 40.8913 27.6589 40.8911C27.7982 40.8911 27.9331 40.939 28.0412 41.0267C28.1493 41.1144 28.224 41.2367 28.2526 41.3729L28.9919 45.0589C29.0896 45.5939 29.3849 46.0726 29.8192 46.4C30.2536 46.7273 30.7951 46.8793 31.3363 46.8258C31.8776 46.7724 32.3789 46.5173 32.7408 46.1113C33.1026 45.7053 33.2986 45.178 33.2897 44.6342C33.2889 43.7145 33.5479 42.8133 34.0367 42.0342L35.7025 39.3805C36.0629 38.8057 36.2542 38.141 36.2545 37.4625V36.2093C36.2582 35.3945 35.9851 34.6026 35.48 33.9633C34.9749 33.3239 34.2678 32.8749 33.4743 32.6898ZM34.5212 37.4625C34.5215 37.8157 34.4221 38.1618 34.2343 38.4609L32.5695 41.1138C31.9073 42.1683 31.5561 43.3882 31.5563 44.6333C31.562 44.6902 31.5565 44.7477 31.5399 44.8025C31.5234 44.8572 31.4963 44.9082 31.4601 44.9524C31.4238 44.9967 31.3793 45.0334 31.3289 45.0604C31.2785 45.0875 31.2232 45.1043 31.1663 45.11C31.1094 45.1157 31.052 45.1101 30.9972 45.0936C30.9425 45.0771 30.8915 45.0499 30.8472 45.0137C30.803 44.9775 30.7663 44.9329 30.7392 44.8825C30.7122 44.8321 30.6954 44.7769 30.6897 44.72L29.9504 41.0332C29.8421 40.5046 29.5549 40.0296 29.1372 39.6881C28.7195 39.3466 28.1967 39.1596 27.6572 39.1586C26.9508 39.1588 26.2732 38.879 25.7728 38.3804C25.2724 37.8818 24.9902 37.2052 24.9879 36.4988C25.001 35.804 25.2762 35.1398 25.7584 34.6393C26.2405 34.1388 26.894 33.839 27.5879 33.8C29.4339 33.7781 31.2762 33.9718 33.0773 34.3772C33.4898 34.4741 33.8573 34.7081 34.1195 35.0409C34.3818 35.3737 34.5234 35.7856 34.5212 36.2093V37.4625ZM5.05453 13.8667H11.9879C12.2177 13.8667 12.4382 13.7754 12.6007 13.6128C12.7632 13.4503 12.8545 13.2299 12.8545 13C12.8545 12.7702 12.7632 12.5497 12.6007 12.3872C12.4382 12.2247 12.2177 12.1333 11.9879 12.1333H5.05453C4.82468 12.1333 4.60424 12.2247 4.44171 12.3872C4.27918 12.5497 4.18787 12.7702 4.18787 13C4.18787 13.2299 4.27918 13.4503 4.44171 13.6128C4.60424 13.7754 4.82468 13.8667 5.05453 13.8667ZM5.05453 17.3333H9.38787C9.61772 17.3333 9.83816 17.242 10.0007 17.0795C10.1632 16.917 10.2545 16.6965 10.2545 16.4667C10.2545 16.2368 10.1632 16.0164 10.0007 15.8538C9.83816 15.6913 9.61772 15.6 9.38787 15.6H5.05453C4.82468 15.6 4.60424 15.6913 4.44171 15.8538C4.27918 16.0164 4.18787 16.2368 4.18787 16.4667C4.18787 16.6965 4.27918 16.917 4.44171 17.0795C4.60424 17.242 4.82468 17.3333 5.05453 17.3333ZM48.3879 12.1333H41.4545C41.2247 12.1333 41.0042 12.2247 40.8417 12.3872C40.6792 12.5497 40.5879 12.7702 40.5879 13C40.5879 13.2299 40.6792 13.4503 40.8417 13.6128C41.0042 13.7754 41.2247 13.8667 41.4545 13.8667H48.3879C48.6177 13.8667 48.8382 13.7754 49.0007 13.6128C49.1632 13.4503 49.2545 13.2299 49.2545 13C49.2545 12.7702 49.1632 12.5497 49.0007 12.3872C48.8382 12.2247 48.6177 12.1333 48.3879 12.1333ZM45.7879 15.6H41.4545C41.2247 15.6 41.0042 15.6913 40.8417 15.8538C40.6792 16.0164 40.5879 16.2368 40.5879 16.4667C40.5879 16.6965 40.6792 16.917 40.8417 17.0795C41.0042 17.242 41.2247 17.3333 41.4545 17.3333H45.7879C46.0177 17.3333 46.2382 17.242 46.4007 17.0795C46.5632 16.917 46.6545 16.6965 46.6545 16.4667C46.6545 16.2368 46.5632 16.0164 46.4007 15.8538C46.2382 15.6913 46.0177 15.6 45.7879 15.6ZM30.1879 3.46667H23.2545C23.0247 3.46667 22.8042 3.55798 22.6417 3.72052C22.4792 3.88305 22.3879 4.10349 22.3879 4.33334C22.3879 4.5632 22.4792 4.78364 22.6417 4.94617C22.8042 5.1087 23.0247 5.20001 23.2545 5.20001H30.1879C30.4177 5.20001 30.6382 5.1087 30.8007 4.94617C30.9632 4.78364 31.0545 4.5632 31.0545 4.33334C31.0545 4.10349 30.9632 3.88305 30.8007 3.72052C30.6382 3.55798 30.4177 3.46667 30.1879 3.46667ZM27.5879 6.93334H23.2545C23.0247 6.93334 22.8042 7.02465 22.6417 7.18718C22.4792 7.34971 22.3879 7.57015 22.3879 7.80001C22.3879 8.02986 22.4792 8.2503 22.6417 8.41283C22.8042 8.57537 23.0247 8.66667 23.2545 8.66667H27.5879C27.8177 8.66667 28.0382 8.57537 28.2007 8.41283C28.3632 8.2503 28.4545 8.02986 28.4545 7.80001C28.4545 7.57015 28.3632 7.34971 28.2007 7.18718C28.0382 7.02465 27.8177 6.93334 27.5879 6.93334ZM8.5212 22.5333C8.29135 22.5333 8.07091 22.6247 7.90837 22.7872C7.74584 22.9497 7.65453 23.1702 7.65453 23.4V26.1907C7.65337 26.5779 7.78248 26.9543 8.0211 27.2592C8.25973 27.5642 8.59399 27.78 8.97013 27.872L12.6448 28.7907C12.7137 28.8078 12.7844 28.8165 12.8554 28.8167C13.0667 28.8162 13.2706 28.7386 13.4287 28.5984C13.5868 28.4582 13.6882 28.265 13.7138 28.0553C13.7395 27.8455 13.6876 27.6336 13.568 27.4594C13.4484 27.2852 13.2692 27.1607 13.0643 27.1093L9.38787 26.1907V23.4C9.38787 23.1702 9.29656 22.9497 9.13403 22.7872C8.97149 22.6247 8.75105 22.5333 8.5212 22.5333ZM40.5879 28.8167C40.6589 28.8165 40.7296 28.8078 40.7985 28.7907L44.4705 27.8737C44.8466 27.7808 45.1807 27.5645 45.4195 27.2594C45.6583 26.9543 45.788 26.5781 45.7879 26.1907V23.4C45.7879 23.1702 45.6966 22.9497 45.534 22.7872C45.3715 22.6247 45.1511 22.5333 44.9212 22.5333C44.6913 22.5333 44.4709 22.6247 44.3084 22.7872C44.1458 22.9497 44.0545 23.1702 44.0545 23.4V26.1915L40.3799 27.1093C40.175 27.1607 39.9959 27.2851 39.8762 27.4592C39.7566 27.6333 39.7047 27.8451 39.7302 28.0548C39.7558 28.2645 39.857 28.4577 40.015 28.5979C40.1729 28.7382 40.3766 28.816 40.5879 28.8167ZM25.8545 14.7333V21.6667C25.8545 21.8965 25.9458 22.117 26.1084 22.2795C26.2709 22.442 26.4913 22.5333 26.7212 22.5333C26.9511 22.5333 27.1715 22.442 27.334 22.2795C27.4966 22.117 27.5879 21.8965 27.5879 21.6667V14.7333C27.5879 14.5035 27.4966 14.283 27.334 14.1205C27.1715 13.958 26.9511 13.8667 26.7212 13.8667C26.4913 13.8667 26.2709 13.958 26.1084 14.1205C25.9458 14.283 25.8545 14.5035 25.8545 14.7333Z" fill="white"/>
</g>
<defs>
<clipPath id="clip0_303_93">
<rect width="52" height="52" fill="white" transform="translate(0.721191)"/>
</clipPath>
</defs>
</svg>
