<svg width="53" height="52" viewBox="0 0 53 52" fill="none" xmlns="http://www.w3.org/2000/svg">
<path d="M14.5337 17.0625H16.1587V18.6875H14.5337V17.0625ZM21.0337 17.0625H22.6587V18.6875H21.0337V17.0625ZM17.7837 17.0625H19.4087V18.6875H17.7837V17.0625ZM19.4087 10.5625H21.0337V12.1875H19.4087V10.5625ZM25.9087 10.5625H27.5337V12.1875H25.9087V10.5625ZM22.6587 10.5625H24.2837V12.1875H22.6587V10.5625ZM14.5337 4.0625H16.1587V5.6875H14.5337V4.0625ZM17.7837 4.0625H19.4087V5.6875H17.7837V4.0625ZM21.0337 4.0625H22.6587V5.6875H21.0337V4.0625Z" fill="white"/>
<path d="M50.6607 43.9156L38.0962 31.3511L37.2837 32.1636L34.4952 29.3751C36.2526 26.7719 37.2837 23.6519 37.2837 20.3125C37.2837 15.2189 34.8592 10.4041 30.7837 7.33687V3.25C30.7837 1.90612 29.6901 0.8125 28.3462 0.8125H13.7212C12.3773 0.8125 11.2837 1.90612 11.2837 3.25V7.33687C7.20819 10.4041 4.78369 15.2189 4.78369 20.3125C4.78369 23.3504 5.65713 26.3226 7.248 28.8836C6.74645 28.9663 6.28321 29.2035 5.92282 29.562L4.28319 31.2016C3.89527 31.5904 3.64862 32.0979 3.5825 32.6431C3.51639 33.1884 3.63463 33.7401 3.91838 34.2103C4.05082 34.4321 4.0695 34.7108 3.95982 34.9716C3.90873 35.0925 3.83 35.1997 3.72995 35.2847C3.6299 35.3696 3.51133 35.4299 3.38375 35.4608C2.85457 35.5951 2.3853 35.902 2.05021 36.3331C1.71512 36.7641 1.53336 37.2946 1.53369 37.8406V40.1594C1.5346 40.7086 1.71911 41.2417 2.05787 41.674C2.39663 42.1062 2.8702 42.4128 3.40325 42.5449C3.64538 42.6067 3.842 42.7716 3.94844 42.9999L3.96713 43.0471C4.0695 43.29 4.05163 43.5687 3.90944 43.8076C3.63 44.2769 3.51511 44.8261 3.58295 45.3681C3.6508 45.9101 3.8975 46.414 4.284 46.8L5.92363 48.4396C6.31237 48.8277 6.81983 49.0744 7.3651 49.1405C7.91038 49.2066 8.4621 49.0883 8.93232 48.8044C9.04686 48.7377 9.17562 48.6992 9.30798 48.692C9.44034 48.6848 9.57252 48.7091 9.69363 48.763L9.70663 48.7679C9.94307 48.8719 10.1145 49.0726 10.1828 49.3391C10.3172 49.8679 10.6242 50.3368 11.055 50.6715C11.4859 51.0063 12.0161 51.1879 12.5618 51.1875H14.8806C15.4298 51.1866 15.9629 51.0021 16.3952 50.6633C16.8274 50.3246 17.134 49.851 17.2661 49.3179C17.3279 49.0758 17.4928 48.8792 17.7211 48.7728L17.7683 48.7541C18.0104 48.6509 18.2899 48.6704 18.5288 48.8117C18.9981 49.0913 19.5473 49.2063 20.0893 49.1385C20.6314 49.0706 21.1353 48.8238 21.5212 48.4372L23.1608 46.7976C23.5487 46.4087 23.7954 45.9013 23.8615 45.3561C23.9276 44.8108 23.8094 44.2591 23.5256 43.7889C23.4592 43.6742 23.4208 43.5455 23.4136 43.4132C23.4064 43.2809 23.4306 43.1487 23.4842 43.0276L23.4891 43.0146C23.5931 42.7781 23.7938 42.6067 24.0603 42.5384C24.5891 42.404 25.058 42.097 25.3927 41.6661C25.7275 41.2353 25.9091 40.7051 25.9087 40.1594V37.8406C25.9086 37.4972 25.8362 37.1576 25.6963 36.844C25.5563 36.5305 25.3518 36.2499 25.0962 36.0206C26.8803 35.5646 28.5731 34.8064 30.1012 33.7789L32.8848 36.5625L32.0723 37.375L44.6376 49.9411C45.0325 50.3375 45.502 50.6517 46.0189 50.8656C46.5359 51.0795 47.0901 51.1889 47.6496 51.1875C48.7787 51.186 49.8611 50.7368 50.6596 49.9384C51.458 49.14 51.9072 48.0575 51.9087 46.9284C51.9102 46.3686 51.8007 45.8141 51.5864 45.297C51.3722 44.7799 51.0576 44.3103 50.6607 43.9156ZM35.6587 20.3125C35.6587 27.4836 30.4351 33.5628 23.4192 34.7165C23.4 34.5346 23.4402 34.3513 23.5338 34.1941C23.7596 33.8138 23.8685 33.3937 23.875 32.9753C29.8063 31.6599 34.0337 26.4672 34.0337 20.3125C34.0337 17.1527 32.8759 14.1294 30.7837 11.7504V9.43394C33.8598 12.194 35.6587 16.1509 35.6587 20.3125ZM11.8021 26.9368C10.4035 25.0117 9.6529 22.692 9.65869 20.3125C9.65869 18.2423 10.2299 16.2394 11.2837 14.4877V19.5C11.2837 20.8439 12.3773 21.9375 13.7212 21.9375H28.3462C29.6901 21.9375 30.7837 20.8439 30.7837 19.5V14.4869C31.8375 16.2386 32.4087 18.2414 32.4087 20.3125C32.4087 25.7563 28.6273 30.3396 23.3469 31.4251C23.2868 31.3487 23.2283 31.2715 23.1584 31.2016L21.5188 29.562C21.1301 29.1741 20.6228 28.9275 20.0777 28.8614C19.5326 28.7953 18.981 28.9135 18.5109 29.1972C18.3958 29.2629 18.267 29.3008 18.1347 29.308C18.0024 29.3152 17.8703 29.2914 17.7488 29.2386L17.7358 29.2337C17.6176 29.1819 17.5131 29.1033 17.4305 29.0042C17.3479 28.9051 17.2894 28.7881 17.2596 28.6626C17.1256 28.1334 16.8188 27.664 16.3879 27.3289C15.957 26.9938 15.4265 26.8121 14.8806 26.8125H12.5618C12.2977 26.8125 12.0434 26.858 11.8021 26.9368ZM12.9087 15.4375H29.1587V19.5C29.1587 19.7155 29.0731 19.9222 28.9207 20.0745C28.7683 20.2269 28.5617 20.3125 28.3462 20.3125H13.7212C13.5057 20.3125 13.299 20.2269 13.1467 20.0745C12.9943 19.9222 12.9087 19.7155 12.9087 19.5V15.4375ZM29.1587 13.8125H12.9087V8.9375H29.1587V13.8125ZM13.7212 2.4375H28.3462C28.5617 2.4375 28.7683 2.5231 28.9207 2.67548C29.0731 2.82785 29.1587 3.03451 29.1587 3.25V7.3125H12.9087V3.25C12.9087 3.03451 12.9943 2.82785 13.1467 2.67548C13.299 2.5231 13.5057 2.4375 13.7212 2.4375ZM11.2837 9.43394V11.7512C9.1915 14.1302 8.03369 17.1535 8.03369 20.3125C8.03369 23.0417 8.91525 25.7124 10.5118 27.9207C10.3623 28.1482 10.2478 28.4042 10.1771 28.6821C10.1153 28.9242 9.95038 29.1208 9.72207 29.2272L9.67575 29.2459C9.62158 29.2679 9.56519 29.284 9.50757 29.2939C7.50496 26.7278 6.41457 23.5675 6.40869 20.3125C6.40869 16.1509 8.20757 12.194 11.2837 9.43394ZM24.2837 40.1594C24.2837 40.5397 24.0261 40.8712 23.6394 40.9703C23.2714 41.0652 22.9303 41.2438 22.6428 41.4923C22.3552 41.7408 22.1291 42.0524 21.9819 42.4027L21.9616 42.4548C21.8212 42.8074 21.7641 43.1877 21.7945 43.566C21.8249 43.9444 21.9422 44.3106 22.1371 44.6363C22.3313 44.9637 22.2793 45.3806 22.0103 45.6495L20.3707 47.2891C20.2374 47.4215 20.0634 47.505 19.8768 47.5264C19.6902 47.5478 19.5018 47.5057 19.3421 47.4069C19.0177 47.2155 18.6538 47.101 18.2783 47.0723C17.9027 47.0436 17.5256 47.1013 17.1759 47.2412L17.1239 47.2615C16.7712 47.4106 16.4578 47.6396 16.2084 47.9303C15.959 48.2209 15.7804 48.5655 15.6866 48.9369C15.5924 49.3049 15.2609 49.5625 14.8806 49.5625H12.5618C12.1815 49.5625 11.85 49.3049 11.7509 48.9182C11.656 48.5502 11.4774 48.2091 11.2289 47.9216C10.9804 47.634 10.6688 47.4079 10.3184 47.2607L10.2664 47.2404C9.9139 47.0994 9.53354 47.0419 9.15509 47.0724C8.77664 47.1028 8.41035 47.2204 8.08488 47.4159C7.75744 47.6109 7.34144 47.5589 7.07169 47.2891L5.43207 45.6495C5.29987 45.5161 5.21637 45.3422 5.195 45.1556C5.17363 44.969 5.21563 44.7807 5.31425 44.6209C5.50585 44.2966 5.62043 43.9327 5.64917 43.5571C5.67791 43.1815 5.62003 42.8044 5.48 42.4548L5.45969 42.4027C5.31055 42.05 5.08164 41.7366 4.79094 41.4872C4.50024 41.2378 4.15568 41.0592 3.78432 40.9654C3.60535 40.9196 3.44673 40.8155 3.33345 40.6696C3.22018 40.5237 3.15869 40.3442 3.15869 40.1594V37.8406C3.15869 37.4603 3.41625 37.1288 3.803 37.0297C4.17318 36.9341 4.51606 36.7538 4.80457 36.5029C5.09308 36.2521 5.3193 35.9376 5.46538 35.5843C5.61456 35.2276 5.67787 34.841 5.65021 34.4554C5.62254 34.0698 5.50469 33.6962 5.30613 33.3645C5.21167 33.2055 5.17285 33.0196 5.1958 32.8362C5.21875 32.6527 5.30217 32.4821 5.43288 32.3513L7.0725 30.7117C7.20601 30.5794 7.38011 30.4959 7.56682 30.4745C7.75353 30.4532 7.94201 30.4952 8.10194 30.5939C8.76494 30.9879 9.588 31.044 10.2291 30.771L10.3193 30.7393C10.672 30.5902 10.9854 30.3613 11.2348 30.0706C11.4842 29.7799 11.6628 29.4353 11.7566 29.0639C11.85 28.6951 12.1815 28.4375 12.5618 28.4375H14.8806C15.2609 28.4375 15.5924 28.6951 15.6915 29.0818C15.7874 29.452 15.9679 29.7948 16.2189 30.0833C16.4699 30.3717 16.7844 30.598 17.1378 30.7442C17.8528 31.0456 18.6774 30.9904 19.3567 30.5849C19.5157 30.4906 19.7015 30.4519 19.885 30.4748C20.0684 30.4978 20.239 30.5811 20.3699 30.7117L22.0095 32.3513C22.2784 32.6203 22.3313 33.0371 22.1273 33.3799C21.9315 33.7125 21.8164 34.0863 21.7913 34.4714C21.7662 34.8565 21.8317 35.2421 21.9827 35.5973C22.1312 35.9504 22.3598 36.2642 22.6504 36.5138C22.941 36.7634 23.2857 36.9419 23.6573 37.0354C24.0261 37.1288 24.2837 37.4603 24.2837 37.8406V40.1594ZM31.4109 32.7909C32.1734 32.1554 32.8764 31.4519 33.5113 30.6889L36.1348 33.3125L34.0337 35.4136L31.4109 32.7909ZM47.6496 49.5625C46.9468 49.5625 46.2846 49.2887 45.7865 48.7914L34.3701 37.375L38.0962 33.6489L49.5118 45.0645C49.8794 45.4333 50.1296 45.9026 50.2309 46.4134C50.3321 46.9241 50.2798 47.4534 50.0806 47.9345C49.8815 48.4156 49.5443 48.8269 49.1116 49.1167C48.679 49.4064 48.1703 49.5615 47.6496 49.5625Z" fill="white"/>
<path d="M13.7212 31.6875C9.68875 31.6875 6.40869 34.9676 6.40869 39C6.40869 43.0324 9.68875 46.3125 13.7212 46.3125C17.7536 46.3125 21.0337 43.0324 21.0337 39C21.0337 34.9676 17.7536 31.6875 13.7212 31.6875ZM13.7212 44.6875C10.5858 44.6875 8.03369 42.1354 8.03369 39C8.03369 35.8646 10.5858 33.3125 13.7212 33.3125C16.8566 33.3125 19.4087 35.8646 19.4087 39C19.4087 42.1354 16.8566 44.6875 13.7212 44.6875Z" fill="white"/>
<path d="M12.0962 40.2886L11.0456 39.238L9.89673 40.3869L12.0962 42.5864L17.5456 37.1369L16.3967 35.988L12.0962 40.2886Z" fill="white"/>
<path d="M47.8462 47.9375C48.2949 47.9375 48.6587 47.5737 48.6587 47.125C48.6587 46.6763 48.2949 46.3125 47.8462 46.3125C47.3975 46.3125 47.0337 46.6763 47.0337 47.125C47.0337 47.5737 47.3975 47.9375 47.8462 47.9375Z" fill="white"/>
<path d="M41.3462 8.125H42.9712V9.75H41.3462V8.125ZM41.3462 11.375H42.9712V13H41.3462V11.375ZM42.9712 9.75H44.5962V11.375H42.9712V9.75ZM39.7212 9.75H41.3462V11.375H39.7212V9.75ZM47.0337 2.4375H48.6587V4.0625H47.0337V2.4375ZM47.0337 5.6875H48.6587V7.3125H47.0337V5.6875ZM48.6587 4.0625H50.2837V5.6875H48.6587V4.0625ZM45.4087 4.0625H47.0337V5.6875H45.4087V4.0625ZM46.2212 23.5625H47.8462V25.1875H46.2212V23.5625ZM46.2212 26.8125H47.8462V28.4375H46.2212V26.8125ZM47.8462 25.1875H49.4712V26.8125H47.8462V25.1875ZM44.5962 25.1875H46.2212V26.8125H44.5962V25.1875ZM28.3462 43.0625H29.9712V44.6875H28.3462V43.0625ZM28.3462 46.3125H29.9712V47.9375H28.3462V46.3125ZM29.9712 44.6875H31.5962V46.3125H29.9712V44.6875ZM26.7212 44.6875H28.3462V46.3125H26.7212V44.6875Z" fill="white"/>
</svg>
