<svg width="53" height="52" viewBox="0 0 53 52" fill="none" xmlns="http://www.w3.org/2000/svg">
<path d="M5.05456 26C5.05398 21.9313 6.19925 17.9446 8.35922 14.4965C10.5192 11.0484 13.6065 8.27836 17.2678 6.50347C20.929 4.72857 25.016 4.02062 29.0609 4.46069C33.1058 4.90076 36.945 6.47104 40.1388 8.99174H36.843C36.5575 8.9945 36.2847 9.10986 36.0837 9.31272C35.8828 9.51558 35.7701 9.78955 35.7701 10.0751C35.7701 10.3606 35.8828 10.6345 36.0837 10.8374C36.2847 11.0403 36.5575 11.1556 36.843 11.1584H42.9712C43.2585 11.1584 43.5341 11.0442 43.7372 10.8411C43.9404 10.6379 44.0546 10.3623 44.0546 10.075V3.94662C44.0559 3.80348 44.0289 3.66148 43.9751 3.52883C43.9213 3.39618 43.8417 3.27551 43.741 3.17379C43.6403 3.07208 43.5204 2.99134 43.3883 2.93624C43.2561 2.88114 43.1144 2.85277 42.9712 2.85277C42.8281 2.85277 42.6864 2.88114 42.5542 2.93624C42.4221 2.99134 42.3022 3.07208 42.2015 3.17379C42.1008 3.27551 42.0212 3.39618 41.9674 3.52883C41.9135 3.66148 41.8865 3.80348 41.8879 3.94662V7.61506C37.1641 3.71824 31.1216 1.78921 25.0136 2.22807C18.9056 2.66693 13.201 5.44 9.08276 9.97213C4.96455 14.5043 2.74884 20.4476 2.89518 26.5696C3.04152 32.6916 5.53868 38.5223 9.86873 42.8525C9.96889 42.955 10.0884 43.0366 10.2203 43.0926C10.3522 43.1485 10.4939 43.1778 10.6372 43.1786C10.7806 43.1794 10.9226 43.1518 11.0552 43.0974C11.1877 43.0429 11.3081 42.9627 11.4095 42.8614C11.5108 42.76 11.591 42.6396 11.6455 42.507C11.6999 42.3745 11.7276 42.2324 11.7267 42.0891C11.7259 41.9458 11.6967 41.8041 11.6407 41.6722C11.5847 41.5403 11.5031 41.4208 11.4006 41.3206C9.38236 39.3134 7.78229 36.9257 6.693 34.296C5.6037 31.6662 5.04681 28.8465 5.05456 26ZM17.2526 45.4952C16.6348 45.1945 16.0315 44.8648 15.4448 44.5071C15.1996 44.3574 14.9049 44.3113 14.6257 44.3788C14.3464 44.4464 14.1055 44.6221 13.9558 44.8673C13.8061 45.1125 13.7599 45.4072 13.8275 45.6865C13.895 45.9657 14.0707 46.2067 14.3159 46.3564C14.9617 46.7503 15.6257 47.1132 16.306 47.4439C16.4339 47.5061 16.5729 47.5424 16.7149 47.5509C16.8569 47.5594 16.9992 47.5398 17.1336 47.4933C17.268 47.4468 17.392 47.3743 17.4984 47.2798C17.6048 47.1854 17.6916 47.071 17.7537 46.943C17.8159 46.8151 17.8523 46.6761 17.8607 46.5341C17.8692 46.3921 17.8496 46.2498 17.8031 46.1154C17.7566 45.9809 17.6841 45.857 17.5897 45.7506C17.4952 45.6442 17.3808 45.5574 17.2528 45.4952H17.2526ZM46.226 16.5515C46.288 16.6796 46.3746 16.7942 46.4809 16.8887C46.5872 16.9833 46.7111 17.056 46.8455 17.1026C46.9799 17.1493 47.1221 17.1691 47.2642 17.1608C47.4062 17.1525 47.5452 17.1163 47.6732 17.0543C47.8013 16.9923 47.9158 16.9056 48.0104 16.7993C48.105 16.693 48.1777 16.5692 48.2243 16.4348C48.271 16.3004 48.2908 16.1581 48.2825 16.0161C48.2742 15.8741 48.238 15.7351 48.176 15.607C47.8463 14.9267 47.4844 14.2624 47.0916 13.6164C47.0176 13.4948 46.9205 13.389 46.8056 13.305C46.6908 13.221 46.5605 13.1604 46.4223 13.1268C46.1431 13.0588 45.8483 13.1045 45.6028 13.2538C45.3573 13.4032 45.1811 13.6439 45.1132 13.9231C45.0452 14.2023 45.0909 14.4971 45.2402 14.7426C45.5971 15.3297 45.9261 15.9334 46.226 16.5515ZM29.2914 47.5149C28.6075 47.5962 27.9156 47.6445 27.2343 47.661C26.9522 47.6717 26.6854 47.7922 26.4909 47.9968C26.2963 48.2013 26.1892 48.4737 26.1925 48.756C26.1958 49.0383 26.3092 49.3082 26.5084 49.5081C26.7077 49.7081 26.9772 49.8223 27.2595 49.8266C27.2679 49.8266 27.2769 49.8266 27.2854 49.8261C28.0344 49.8086 28.7945 49.755 29.5456 49.6663C29.8307 49.6323 30.0907 49.4866 30.2684 49.2611C30.4461 49.0356 30.527 48.7487 30.4934 48.4636C30.4597 48.1785 30.3143 47.9183 30.089 47.7404C29.8637 47.5624 29.5769 47.4812 29.2917 47.5145L29.2914 47.5149ZM23.1259 47.3678C22.448 47.2545 21.776 47.1088 21.1121 46.9311C20.8345 46.8569 20.5387 46.896 20.2899 47.0399C20.0411 47.1837 19.8597 47.4205 19.7854 47.6982C19.7112 47.9758 19.7504 48.2716 19.8942 48.5204C20.0381 48.7692 20.2749 48.9506 20.5525 49.0248C21.2834 49.2199 22.0232 49.38 22.7694 49.5046C22.9097 49.528 23.0533 49.5236 23.1919 49.4915C23.3305 49.4594 23.4614 49.4004 23.5772 49.3177C23.693 49.235 23.7913 49.1303 23.8666 49.0097C23.942 48.889 23.9928 48.7546 24.0162 48.6143C24.0396 48.474 24.0351 48.3304 24.0031 48.1918C23.971 48.0532 23.9119 47.9223 23.8292 47.8065C23.7466 47.6908 23.6419 47.5924 23.5212 47.5171C23.4005 47.4418 23.2662 47.3909 23.1259 47.3675V47.3678ZM49.4908 25.4777C49.2036 25.4707 48.9254 25.578 48.7173 25.7761C48.5092 25.9741 48.3882 26.2467 48.381 26.5339C48.3635 27.2216 48.3139 27.908 48.2323 28.5911C48.1984 28.8764 48.2791 29.1635 48.4567 29.3894C48.6344 29.6152 48.8944 29.7613 49.1797 29.7955C49.2229 29.8003 49.2663 29.8028 49.3098 29.8029C49.5746 29.8025 49.8301 29.7052 50.028 29.5293C50.2259 29.3534 50.3526 29.1111 50.3841 28.8482C50.4734 28.0977 50.5276 27.3435 50.5466 26.5879C50.5503 26.4457 50.5258 26.3041 50.4747 26.1714C50.4236 26.0386 50.3468 25.9171 50.2488 25.814C50.1507 25.7109 50.0333 25.6282 49.9032 25.5704C49.7732 25.5127 49.633 25.4812 49.4908 25.4777ZM46.1656 37.8691C45.9279 37.7079 45.6359 37.6477 45.3538 37.7015C45.0716 37.7554 44.8224 37.9189 44.6607 38.1563C44.2741 38.7251 43.8609 39.2753 43.4223 39.8051C43.3294 39.9144 43.2592 40.041 43.2156 40.1776C43.1721 40.3143 43.1561 40.4582 43.1686 40.6011C43.1811 40.744 43.2219 40.8829 43.2885 41.0099C43.3552 41.1369 43.4464 41.2494 43.5568 41.3408C43.6673 41.4323 43.7948 41.5009 43.932 41.5427C44.0692 41.5845 44.2134 41.5986 44.3561 41.5842C44.4988 41.5698 44.6372 41.5273 44.7633 41.459C44.8894 41.3907 45.0007 41.298 45.0907 41.1863C45.5732 40.604 46.0277 39.999 46.4528 39.3736C46.5327 39.2559 46.5887 39.1237 46.6175 38.9844C46.6463 38.8451 46.6475 38.7016 46.6208 38.5619C46.5941 38.4222 46.5402 38.2891 46.4621 38.1702C46.384 38.0513 46.2833 37.949 46.1656 37.8691ZM47.6584 20.4109C47.835 21.0751 47.9799 21.7473 48.0927 22.4252C48.1347 22.6781 48.2649 22.9079 48.4604 23.0738C48.6558 23.2397 48.9037 23.331 49.1601 23.3313C49.2198 23.3312 49.2794 23.3263 49.3383 23.3165C49.4787 23.2932 49.6131 23.2425 49.7339 23.1673C49.8547 23.0921 49.9594 22.9938 50.0422 22.878C50.125 22.7623 50.1841 22.6314 50.2163 22.4928C50.2485 22.3542 50.253 22.2106 50.2297 22.0702C50.1059 21.3241 49.9466 20.5843 49.7523 19.8533C49.6784 19.5757 49.4972 19.3388 49.2486 19.1948C49 19.0507 48.7043 19.0113 48.4267 19.0853C48.149 19.1592 47.9121 19.3404 47.7681 19.589C47.6241 19.8376 47.5847 20.1333 47.6586 20.4109H47.6584ZM40.5078 42.7161C39.9781 43.1542 39.4279 43.5669 38.859 43.9528C38.7413 44.0326 38.6404 44.1348 38.5622 44.2536C38.484 44.3724 38.4299 44.5055 38.4031 44.6452C38.3762 44.7849 38.3772 44.9285 38.4059 45.0678C38.4346 45.2071 38.4904 45.3395 38.5702 45.4572C38.6501 45.5749 38.7523 45.6758 38.8711 45.754C38.9899 45.8323 39.1229 45.8863 39.2626 45.9132C39.4023 45.94 39.5459 45.939 39.6853 45.9103C39.8246 45.8817 39.9569 45.8258 40.0746 45.746C40.7003 45.3217 41.3056 44.8681 41.8884 44.3866C42.11 44.2035 42.2497 43.9399 42.2769 43.6538C42.304 43.3677 42.2164 43.0825 42.0334 42.861C41.8503 42.6395 41.5867 42.4998 41.3006 42.4726C41.0145 42.4454 40.7293 42.533 40.5078 42.7161ZM48.7179 31.9124C48.4442 31.8254 48.1472 31.8506 47.8921 31.9824C47.6369 32.1142 47.4445 32.3419 47.357 32.6154C47.1479 33.2699 46.9076 33.914 46.637 34.5456C46.5779 34.6768 46.5455 34.8184 46.5418 34.9623C46.5381 35.1061 46.563 35.2492 46.6152 35.3833C46.6674 35.5174 46.7458 35.6398 46.8458 35.7432C46.9458 35.8467 47.0654 35.9292 47.1977 35.9859C47.3299 36.0426 47.4721 36.0724 47.616 36.0735C47.7599 36.0747 47.9026 36.0471 48.0357 35.9925C48.1688 35.9379 48.2897 35.8573 48.3913 35.7555C48.493 35.6536 48.5733 35.5326 48.6276 35.3993C48.9262 34.7039 49.1908 33.9944 49.4205 33.2734C49.4638 33.1379 49.48 32.9952 49.4681 32.8534C49.4562 32.7117 49.4165 32.5737 49.3513 32.4473C49.286 32.3209 49.1965 32.2086 49.0878 32.1168C48.9791 32.025 48.8534 31.9555 48.7179 31.9124ZM35.246 45.9247C34.6143 46.195 33.97 46.4349 33.3153 46.6436C33.1798 46.6868 33.0541 46.7563 32.9454 46.8481C32.8368 46.9398 32.7472 47.0521 32.682 47.1785C32.6167 47.3049 32.5769 47.4429 32.565 47.5847C32.553 47.7264 32.5691 47.8691 32.6123 48.0046C32.6555 48.1402 32.725 48.2659 32.8168 48.3745C32.9086 48.4832 33.0209 48.5727 33.1472 48.638C33.2736 48.7033 33.4116 48.7431 33.5534 48.755C33.6951 48.7669 33.8378 48.7509 33.9734 48.7077C34.694 48.4781 35.4033 48.2142 36.0988 47.9169C36.3629 47.8038 36.5714 47.5903 36.6782 47.3235C36.785 47.0567 36.7814 46.7584 36.6683 46.4943C36.5551 46.2301 36.3417 46.0217 36.0749 45.9149C35.8081 45.8081 35.5098 45.8116 35.2456 45.9247H35.246Z" fill="white"/>
<path d="M17.5595 23.7868C17.5595 22.0112 16.392 20.5886 14.5851 20.162C13.5924 19.9269 12.5494 20.0352 11.6263 20.4692C10.7031 20.9033 9.95435 21.6374 9.50219 22.5519C9.37558 22.8086 9.35576 23.1051 9.44705 23.3765C9.53834 23.6478 9.73332 23.872 9.9894 24.0001C10.2455 24.1281 10.5418 24.1496 10.8137 24.0598C11.0856 23.9701 11.3108 23.7763 11.4403 23.521C11.6716 23.041 12.0607 22.6549 12.5425 22.4273C13.0243 22.1998 13.5696 22.1445 14.0872 22.2707C14.3935 22.3429 15.3927 22.6661 15.3927 23.7868C15.3927 24.9166 14.0877 25.7881 12.7061 26.7109C11.1503 27.7493 9.38783 28.9262 9.38783 30.875C9.38783 31.1623 9.50197 31.4379 9.70514 31.6411C9.90831 31.8442 10.1839 31.9584 10.4712 31.9584H16.4761C16.6192 31.9598 16.7612 31.9328 16.8939 31.8789C17.0265 31.8251 17.1472 31.7455 17.2489 31.6448C17.3506 31.5441 17.4314 31.4242 17.4865 31.2921C17.5416 31.1599 17.5699 31.0182 17.5699 30.8751C17.5699 30.7319 17.5416 30.5902 17.4865 30.458C17.4314 30.3259 17.3506 30.206 17.2489 30.1053C17.1472 30.0046 17.0265 29.925 16.8939 29.8712C16.7612 29.8174 16.6192 29.7904 16.4761 29.7917H12.1841C12.6379 29.3617 13.2795 28.9332 13.909 28.5127C15.6204 27.3701 17.5595 26.0752 17.5595 23.7868ZM27.8046 27.3541C27.8045 27.0668 27.6904 26.7913 27.4872 26.5881C27.284 26.385 27.0085 26.2709 26.7212 26.2709H25.841V20.5156C25.8409 20.2913 25.7712 20.0724 25.6415 19.8894C25.5118 19.7063 25.3284 19.568 25.1167 19.4936C24.9051 19.4193 24.6755 19.4124 24.4598 19.4741C24.2441 19.5357 24.0528 19.6628 23.9124 19.8378L18.428 26.6766C18.3004 26.8359 18.2204 27.0281 18.1972 27.2308C18.1741 27.4336 18.2086 27.6389 18.297 27.8229C18.3853 28.0069 18.5238 28.1622 18.6965 28.2709C18.8693 28.3797 19.0692 28.4374 19.2733 28.4375H23.6743V31.4844C23.6729 31.6275 23.6999 31.7695 23.7538 31.9022C23.8076 32.0348 23.8872 32.1555 23.9879 32.2572C24.0886 32.3589 24.2085 32.4397 24.3406 32.4948C24.4728 32.5499 24.6145 32.5782 24.7576 32.5782C24.9008 32.5782 25.0425 32.5499 25.1746 32.4948C25.3068 32.4397 25.4267 32.3589 25.5274 32.2572C25.6281 32.1555 25.7077 32.0348 25.7615 31.9022C25.8153 31.7695 25.8423 31.6275 25.841 31.4844V28.4375H26.7212C27.0085 28.4375 27.2841 28.3234 27.4873 28.1202C27.6904 27.917 27.8046 27.6415 27.8046 27.3541ZM23.6743 26.2709H21.5314L23.6743 23.598V26.2709ZM33.3492 18.8441C33.2096 18.8159 33.0659 18.8156 32.9263 18.843C32.7866 18.8705 32.6537 18.9253 32.5353 19.0043C32.4168 19.0832 32.3151 19.1848 32.2361 19.3031C32.157 19.4215 32.102 19.5543 32.0744 19.6939L29.6369 31.8814C29.5805 32.1631 29.6383 32.4557 29.7976 32.6947C29.9569 32.9338 30.2047 33.0998 30.4864 33.1562C30.5567 33.1702 30.6281 33.1773 30.6997 33.1773C30.9499 33.1771 31.1923 33.0902 31.3858 32.9315C31.5792 32.7728 31.7117 32.552 31.7608 32.3066L34.1983 20.1191C34.2263 19.9797 34.2266 19.836 34.1991 19.6964C34.1716 19.5569 34.1168 19.4241 34.0379 19.3057C33.9591 19.1873 33.8577 19.0856 33.7395 19.0064C33.6213 18.9272 33.4887 18.872 33.3492 18.8441ZM38.9082 31.9589C39.1221 31.9588 39.3312 31.8954 39.5092 31.7767C39.6872 31.658 39.8261 31.4893 39.9085 31.2918L43.971 21.5418C44.0397 21.3772 44.0667 21.1982 44.0495 21.0206C44.0324 20.8431 43.9716 20.6725 43.8727 20.5241C43.7738 20.3756 43.6397 20.2539 43.4825 20.1698C43.3252 20.0856 43.1496 20.0416 42.9712 20.0416H37.4868C37.2013 20.0444 36.9285 20.1598 36.7276 20.3626C36.5266 20.5655 36.4139 20.8394 36.4139 21.125C36.4139 21.4105 36.5266 21.6844 36.7276 21.8873C36.9285 22.0902 37.2013 22.2055 37.4868 22.2083H41.3462L37.9089 30.4586C37.8406 30.6232 37.8138 30.8022 37.8311 30.9796C37.8483 31.157 37.909 31.3274 38.0078 31.4758C38.1066 31.6242 38.2404 31.7459 38.3975 31.8302C38.5545 31.9146 38.7299 31.9589 38.9082 31.9593V31.9589Z" fill="white"/>
</svg>
