<svg width="60" height="60" viewBox="0 0 60 60" fill="none" xmlns="http://www.w3.org/2000/svg">
<g clip-path="url(#clip0_1_8)">
<path d="M21.4906 30.2976L21.4923 30.2992C21.5303 30.3372 21.5316 30.4 21.4915 30.4402M21.4906 30.2976L21.4915 30.4402ZM21.4906 30.2976C21.4528 30.2597 21.3899 30.2583 21.3496 30.2986C21.3117 30.3364 21.3097 30.3994 21.3493 30.4397M21.4906 30.2976L21.3493 30.4397ZM21.4915 30.4402C21.4536 30.478 21.3899 30.4795 21.3493 30.4397ZM21.4915 30.4402L21.3493 30.4397Z" fill="#FF1641"/>
<path d="M21.4906 30.2976L21.4923 30.2992C21.5303 30.3372 21.5316 30.4 21.4915 30.4402M21.4906 30.2976L21.4915 30.4402M21.4906 30.2976C21.4528 30.2597 21.3899 30.2583 21.3496 30.2986C21.3117 30.3364 21.3097 30.3994 21.3493 30.4397M21.4906 30.2976L21.3493 30.4397M21.4915 30.4402C21.4536 30.478 21.3899 30.4795 21.3493 30.4397M21.4915 30.4402L21.3493 30.4397" stroke="#FF1641" stroke-width="2.04879"/>
<path d="M26.7414 19.3744L32.6631 13.4517C35.3847 10.7301 39.0543 8.95637 42.6165 7.79982C48.7981 5.79347 54.6526 5.64902 54.6526 5.64902C54.6526 5.64902 54.5081 11.5035 52.5018 17.6851C51.3452 21.2473 49.5715 24.9169 46.8499 27.6385L29.9326 44.5559L15.7457 30.3691L26.7414 19.3744Z" stroke="#FF1641" stroke-width="2.04879" stroke-miterlimit="10" stroke-linecap="round" stroke-linejoin="round"/>
<path d="M27.4496 42.0732L24.2584 47.393L12.9087 36.0433L18.2284 32.8521" stroke="#FF1641" stroke-width="2.04879" stroke-miterlimit="10" stroke-linecap="round" stroke-linejoin="round"/>
<path d="M40.9283 33.5612L39.864 43.1375L31.3521 51.6494L30.2877 44.2008" stroke="#FF1641" stroke-width="2.04879" stroke-miterlimit="10" stroke-linecap="round" stroke-linejoin="round"/>
<path d="M16.1006 30.014L8.65208 28.9496L17.1639 20.4377L26.7402 19.3734" stroke="#FF1641" stroke-width="2.04879" stroke-miterlimit="10" stroke-linecap="round" stroke-linejoin="round"/>
<path d="M15.7457 44.556L5.29665 55.0051" stroke="#FF1641" stroke-width="2.04879" stroke-miterlimit="10" stroke-linecap="round" stroke-linejoin="round"/>
<path d="M18.5836 47.393L12.3901 53.5866" stroke="#FF1641" stroke-width="2.04879" stroke-miterlimit="10" stroke-linecap="round" stroke-linejoin="round"/>
<path d="M12.9087 41.718L6.71507 47.9116" stroke="#FF1641" stroke-width="2.04879" stroke-miterlimit="10" stroke-linecap="round" stroke-linejoin="round"/>
<path d="M40.4658 26.9293C38.5066 28.8884 35.3306 28.8884 33.3724 26.9293C31.4132 24.9711 31.4132 21.795 33.3724 19.8359C35.3306 17.8777 38.5066 17.8777 40.4658 19.8359C42.424 21.795 42.424 24.9711 40.4658 26.9293Z" stroke="#FF1641" stroke-width="2.04879" stroke-miterlimit="10" stroke-linecap="round" stroke-linejoin="round"/>
<path d="M42.6165 7.79989L52.5018 17.6851" stroke="#FF1641" stroke-width="2.04879" stroke-miterlimit="10" stroke-linecap="round" stroke-linejoin="round"/>
<path d="M24.2585 33.2061L32.7705 41.718" stroke="#FF1641" stroke-width="2.04879" stroke-miterlimit="10" stroke-linecap="round" stroke-linejoin="round"/>
</g>
<defs>
<clipPath id="clip0_1_8">
<rect width="52" height="52" fill="white" transform="translate(4 4)"/>
</clipPath>
</defs>
</svg>
