<svg width="60" height="60" viewBox="0 0 60 60" fill="none" xmlns="http://www.w3.org/2000/svg">
<g clip-path="url(#clip0_1_8)">
<path d="M35.5899 23.753C35.0392 23.753 34.5921 24.2 34.5921 24.7508C34.5921 25.3016 35.0392 25.7486 35.5899 25.7486C36.1407 25.7486 36.5877 25.3016 36.5877 24.7508C36.5877 24.2 36.1407 23.753 35.5899 23.753Z" fill="#FF1641"/>
<path d="M54.5763 49.0693L41.2575 35.7506C43.4273 32.4823 44.5702 28.6976 44.5702 24.7508C44.5702 13.747 35.6179 4.79468 24.6141 4.79468C13.6102 4.79468 4.65793 13.747 4.65793 24.7508C4.65793 35.7547 13.6102 44.707 24.6141 44.707C28.561 44.707 32.3457 43.564 35.6138 41.3945L39.2952 45.0759L39.2968 45.0774L48.9324 54.713C49.6866 55.4671 50.6887 55.8824 51.7544 55.8824C52.8202 55.8824 53.8223 55.4671 54.576 54.7134C55.3303 53.9597 55.7457 52.9575 55.7457 51.8912C55.7457 50.8248 55.3303 49.8226 54.5763 49.0693ZM35.1445 39.2916C32.0646 41.5287 28.4232 42.7114 24.6141 42.7114C14.7106 42.7114 6.65354 34.6543 6.65354 24.7508C6.65354 14.8474 14.7106 6.79029 24.6141 6.79029C34.5175 6.79029 42.5746 14.8474 42.5746 24.7508C42.5746 28.56 41.3921 32.2011 39.1549 35.2812C38.0378 36.8209 36.6844 38.1745 35.1445 39.2916ZM37.2379 40.1962C38.27 39.352 39.2152 38.4068 40.0594 37.3747L42.8903 40.2056C42.029 41.2221 41.0853 42.1657 40.0688 43.0271L37.2379 40.1962ZM53.1652 53.3019C52.788 53.6792 52.287 53.8868 51.7544 53.8868C51.2217 53.8868 50.7208 53.6792 50.3436 53.3019L41.4836 44.4419C42.4944 43.5745 43.4376 42.6313 44.3051 41.6204L53.1654 50.4808C53.3514 50.6654 53.4988 50.8853 53.5992 51.1273C53.6995 51.3694 53.7508 51.6291 53.75 51.8912C53.7508 52.1534 53.6994 52.413 53.5991 52.6552C53.4986 52.8973 53.3512 53.1172 53.1652 53.3019Z" fill="#FF1641"/>
<path d="M24.6141 8.7859C15.8109 8.7859 8.64917 15.9477 8.64917 24.7508C8.64917 33.554 15.8109 40.7157 24.6141 40.7157C33.4172 40.7157 40.579 33.554 40.579 24.7508C40.579 15.9477 33.4172 8.7859 24.6141 8.7859ZM24.6141 38.7201C16.9114 38.7201 10.6448 32.4535 10.6448 24.7508C10.6448 17.0482 16.9114 10.7815 24.6141 10.7815C32.3168 10.7815 38.5834 17.0482 38.5834 24.7508C38.5834 32.4535 32.3168 38.7201 24.6141 38.7201Z" fill="#FF1641"/>
<path d="M35.796 20.4676C34.9368 18.2312 33.4407 16.3193 31.4695 14.9384C29.4513 13.5245 27.0808 12.7771 24.6141 12.7771C24.063 12.7771 23.6162 13.224 23.6162 13.7749C23.6162 14.3259 24.063 14.7728 24.6141 14.7728C28.7149 14.7728 32.46 17.3489 33.9332 21.1833C34.0055 21.3717 34.1333 21.5338 34.2997 21.6481C34.466 21.7624 34.663 21.8235 34.8648 21.8236C34.9872 21.8235 35.1083 21.8009 35.2224 21.7569C35.7368 21.5592 35.9937 20.982 35.796 20.4676Z" fill="#FF1641"/>
</g>
<defs>
<clipPath id="clip0_1_8">
<rect width="52" height="52" fill="white" transform="translate(4 4)"/>
</clipPath>
</defs>
</svg>
