<svg width="382" height="367" viewBox="0 0 382 367" fill="none" xmlns="http://www.w3.org/2000/svg">
<path d="M215.448 364.76C200.543 357.705 194.604 340.933 192.503 325.312C192.149 322.718 191.405 320.021 192.252 317.531C193.1 315.041 195.711 313.009 198.218 313.71C200.301 314.289 201.52 316.381 202.912 318.032C204.763 320.26 207.21 321.915 209.966 322.804C211.765 323.384 213.9 323.565 215.378 322.389C217.401 320.773 217.107 317.643 216.692 315.067C215.845 310.289 215.015 305.511 214.203 300.733C213.617 298.184 213.445 295.557 213.693 292.952C214.073 290.359 215.465 287.765 217.799 286.693C220.133 285.621 223.41 286.494 224.352 288.932C224.63 289.981 224.838 291.047 224.975 292.123C225.225 293.186 225.926 294.284 226.989 294.413C228.052 294.543 228.977 293.635 229.626 292.745C231.839 289.693 233.084 286.036 234.208 282.414C235.332 278.792 236.386 275.1 238.323 271.849C240.259 268.599 243.216 265.798 246.873 264.933C250.53 264.069 254.852 265.711 256.383 269.178C257.913 272.645 256.435 276.699 254.654 280.036C251.949 284.978 248.545 289.503 244.547 293.471C243.75 294.106 243.175 294.978 242.905 295.961C242.637 297.776 244.556 299.212 246.363 299.488C248.386 299.799 250.443 299.246 252.492 299.142C254.541 299.039 256.867 299.557 257.956 301.33C259.452 303.785 257.714 306.923 255.855 309.11C252.122 313.468 247.668 317.152 242.689 320.003C240.908 321.015 239.014 321.966 237.709 323.557C236.404 325.147 235.876 327.62 237.104 329.28C238.331 330.94 240.813 331.121 242.732 330.412C244.651 329.703 246.25 328.329 248.023 327.3C251.343 325.363 255.959 324.827 258.751 327.507C259.622 328.444 260.264 329.571 260.625 330.798C260.987 332.025 261.059 333.32 260.835 334.579C260.375 337.088 259.414 339.479 258.008 341.608C253.531 349.304 247.093 355.676 239.352 360.074C231.614 364.31 224.127 366.376 215.456 364.768" fill="#F5F5F5"/>
<path d="M217.808 354.333C218.954 345.436 220.611 336.612 222.77 327.905L224.43 321.049C224.974 318.793 225.519 316.562 226.159 314.418C227.452 310.304 228.97 306.263 230.706 302.315C232.34 298.528 234.026 294.984 235.625 291.69C237.225 288.396 238.79 285.353 240.328 282.647C242.731 278.355 245.471 274.262 248.524 270.406C249.605 269.04 250.478 268.011 251.074 267.319C251.36 266.991 251.593 266.731 251.757 266.533C251.922 266.334 251.999 266.273 252.008 266.282C251.946 266.381 251.876 266.477 251.801 266.567L251.144 267.38C250.573 268.089 249.726 269.109 248.671 270.518C245.685 274.412 242.994 278.524 240.622 282.82C239.109 285.535 237.571 288.578 235.98 291.872C234.389 295.165 232.729 298.71 231.113 302.497C229.391 306.445 227.89 310.485 226.617 314.6C225.951 316.735 225.415 318.923 224.888 321.205L223.228 328.069C221.074 336.758 219.409 345.562 218.24 354.437" fill="#E0E0E0"/>
<path d="M226.306 314.384C226.118 314.048 225.97 313.691 225.865 313.321C225.605 312.638 225.268 311.592 224.871 310.373C224.075 307.866 223.09 304.364 222.018 300.508C220.946 296.653 219.917 293.169 219.078 290.687C218.663 289.443 218.318 288.431 218.075 287.748C217.93 287.393 217.817 287.026 217.738 286.65C217.947 286.973 218.118 287.318 218.248 287.679C218.551 288.345 218.94 289.339 219.398 290.566C220.323 293.039 221.404 296.506 222.484 300.379C223.565 304.252 224.473 307.641 225.199 310.269C225.536 311.462 225.813 312.465 226.064 313.269C226.177 313.633 226.258 314.006 226.306 314.384Z" fill="#E0E0E0"/>
<path d="M258.423 302.575C258.005 302.749 257.571 302.879 257.126 302.964C256.262 303.18 255.077 303.491 253.59 303.923C250.608 304.788 246.536 306.067 242.101 307.71C237.666 309.353 233.715 311.021 230.862 312.301C229.444 312.932 228.312 313.476 227.525 313.848C227.13 314.063 226.716 314.243 226.289 314.384C226.646 314.108 227.031 313.871 227.438 313.675C228.199 313.252 229.314 312.664 230.715 311.946C233.507 310.58 237.45 308.86 241.893 307.209C245.686 305.79 249.55 304.569 253.469 303.552C254.973 303.154 256.201 302.895 257.057 302.73C257.506 302.636 257.964 302.584 258.423 302.575Z" fill="#E0E0E0"/>
<path d="M218.11 353.668C218 353.555 217.901 353.43 217.816 353.296L217.047 352.198C216.381 351.23 215.456 349.821 214.341 348.057C212.093 344.53 209.154 339.559 205.981 334.026C202.808 328.493 199.93 323.505 197.742 319.943L195.149 315.715L194.457 314.565C194.366 314.438 194.293 314.298 194.241 314.151C194.241 314.151 194.353 314.263 194.535 314.514C194.716 314.764 195.002 315.171 195.304 315.62C195.97 316.58 196.895 317.989 198.019 319.761C200.258 323.289 203.206 328.251 206.379 333.784C209.552 339.317 212.431 344.305 214.609 347.876L217.203 352.094C217.479 352.553 217.713 352.959 217.894 353.244C217.987 353.374 218.06 353.517 218.11 353.668Z" fill="#E0E0E0"/>
<path d="M259.763 332.011C259.642 332.118 259.505 332.205 259.357 332.271L258.155 332.911L253.694 335.236C249.925 337.207 244.755 339.982 239.049 343.017C233.343 346.051 228.148 348.826 224.352 350.711C222.45 351.653 220.894 352.44 219.822 352.898L218.525 353.469C218.383 353.544 218.232 353.602 218.076 353.642C218.2 353.538 218.336 353.451 218.482 353.382L219.693 352.743L224.154 350.409C227.914 348.446 233.084 345.671 238.79 342.628C244.496 339.585 249.7 336.827 253.487 334.942C255.389 334 256.945 333.213 258.017 332.755L259.262 332.184C259.419 332.101 259.588 332.043 259.763 332.011Z" fill="#E0E0E0"/>
<path d="M107.348 179.19C107.348 179.19 97.0774 180.616 102.844 203.111C108.61 225.606 113.503 237.208 113.503 237.208C113.503 237.208 114.273 242.3 110.166 242.144C106.06 241.989 97.6826 238.686 94.8383 243.087C91.8989 247.686 94.4752 253.219 100.89 259.02C107.305 264.821 120.981 278.039 122.209 279.241C123.437 280.443 124.336 282.915 121.517 283.253C118.699 283.59 98.7114 281.247 98.1754 290.8C97.6394 300.353 118.241 313.563 120.463 315.05C122.685 316.537 123.056 317.695 122.538 318.992C122.019 320.289 115.397 318.862 109.682 318.421C103.968 317.98 97.259 318.49 97.4059 324.023C97.5529 329.556 108.377 343.562 139.932 353.97L154.879 357.835L165.919 346.959C188.138 322.242 190.567 304.719 187.947 299.843C185.328 294.967 179.302 297.863 174.513 301.079C169.723 304.295 164.709 308.86 163.637 307.995C162.565 307.131 162.288 305.938 163.481 303.543C164.674 301.148 175.991 279.449 170.769 271.426C165.548 263.403 149.364 275.351 146.77 276.449C144.177 277.547 143.71 274.936 144.177 273.311C144.643 271.685 149.917 253.426 152.632 245.17C155.346 236.914 154.828 230.845 149.986 228.321C145.318 225.891 139.707 232.946 136.214 235.125C132.722 237.303 130.872 232.531 130.872 232.531C130.872 232.531 129.35 220.039 123.177 197.648C117.005 175.256 107.158 179.268 107.158 179.268" fill="#EBEBEB"/>
<path d="M154.87 361.552C150.401 345.126 142.94 315.733 136.413 290.497C129.886 265.262 123.955 242.508 119.563 226.03C117.367 217.799 115.586 211.143 114.376 206.517C113.771 204.226 113.295 202.437 112.967 201.209L112.604 199.826C112.526 199.515 112.5 199.351 112.5 199.351C112.5 199.351 112.561 199.498 112.656 199.809C112.751 200.12 112.88 200.595 113.053 201.183C113.408 202.411 113.918 204.183 114.558 206.466C115.854 211.056 117.687 217.704 119.918 225.935C124.387 242.361 130.378 265.193 136.905 290.376C143.433 315.56 150.833 344.979 155.225 361.457" fill="#E0E0E0"/>
<path d="M106.371 248.222C106.716 248.364 107.046 248.541 107.356 248.749C107.97 249.112 108.852 249.666 109.95 250.357C112.103 251.749 115.033 253.746 118.223 256.003L126.367 261.812L128.848 263.541C129.161 263.736 129.451 263.965 129.713 264.224C129.364 264.083 129.031 263.907 128.719 263.697C128.105 263.334 127.223 262.781 126.125 262.08C123.99 260.671 121.085 258.622 117.895 256.374L109.708 250.625L107.218 248.896C106.912 248.702 106.628 248.476 106.371 248.222Z" fill="#E0E0E0"/>
<path d="M130.966 263.507C130.854 263.438 134.701 257.222 139.551 249.623C144.401 242.023 148.438 235.92 148.551 235.989C148.663 236.058 144.816 242.283 139.957 249.882C135.099 257.481 131.079 263.559 130.966 263.507Z" fill="#E0E0E0"/>
<path d="M139.249 302.652C139.488 302.354 139.764 302.086 140.07 301.857L142.395 299.817C144.358 298.088 147.064 295.702 149.951 292.952C152.839 290.203 155.381 287.636 157.196 285.759C158.061 284.895 158.769 284.126 159.349 283.538C159.61 283.248 159.9 282.984 160.213 282.751C160.022 283.081 159.789 283.386 159.522 283.659C159.055 284.221 158.354 285.016 157.473 285.984C155.744 287.929 153.219 290.549 150.314 293.298C147.41 296.047 144.678 298.416 142.655 300.076C141.635 300.941 140.805 301.563 140.217 302.004C139.919 302.255 139.594 302.473 139.249 302.652Z" fill="#E0E0E0"/>
<path d="M113.961 293.722C114.31 293.764 114.653 293.848 114.981 293.973L117.722 294.837C120.021 295.572 123.194 296.618 126.687 297.794C130.18 298.97 133.335 300.076 135.609 300.897L138.297 301.883C138.632 301.988 138.954 302.13 139.257 302.307C138.908 302.271 138.565 302.19 138.237 302.065L135.496 301.2C133.197 300.465 130.024 299.419 126.531 298.235C123.039 297.05 119.883 295.952 117.609 295.14L114.921 294.146C114.583 294.048 114.261 293.906 113.961 293.722Z" fill="#E0E0E0"/>
<path d="M116.883 329.21C117.328 329.277 117.765 329.387 118.189 329.539L121.699 330.611C124.655 331.536 128.727 332.841 133.223 334.32C137.718 335.798 141.773 337.147 144.704 338.158L148.162 339.369C148.592 339.506 149.011 339.677 149.415 339.879C148.967 339.813 148.527 339.703 148.101 339.55L144.591 338.478C141.635 337.553 137.563 336.248 133.067 334.769C128.572 333.291 124.517 331.934 121.595 330.931L118.137 329.712C117.705 329.583 117.285 329.415 116.883 329.21Z" fill="#E0E0E0"/>
<path d="M148.706 339.403C149.011 339.03 149.349 338.685 149.718 338.374L152.579 335.686C154.991 333.412 158.311 330.257 161.882 326.669C165.452 323.081 168.608 319.753 170.873 317.332L173.553 314.462C173.868 314.095 174.212 313.754 174.581 313.442C174.33 313.848 174.04 314.23 173.717 314.583C173.129 315.3 172.247 316.312 171.123 317.557C168.919 320.047 165.807 323.418 162.219 327.006C158.631 330.594 155.303 333.723 152.813 335.937C151.568 337.034 150.556 337.925 149.839 338.53C149.486 338.852 149.107 339.144 148.706 339.403Z" fill="#E0E0E0"/>
<path d="M62.7382 45.0419L54.3005 42.4483C54.3005 42.4483 52.0873 49.5374 44.687 47.3675C43.2543 46.973 41.9797 46.1429 41.0395 44.9921C40.0994 43.8413 39.5402 42.4267 39.4394 40.9441C39.3286 39.6938 39.5179 38.4352 39.9916 37.2729C40.4652 36.1105 41.2095 35.078 42.1626 34.2613C44.3326 32.3421 48.1365 31.175 53.5051 33.9501L59.4444 14.9306L51.1018 12.337L47.6437 23.4807C47.6437 23.4807 34.9871 22.8496 30.967 35.7397C27.1199 48.0764 37.2867 54.396 42.0243 55.8744C45.6207 56.9983 58.2514 59.9722 62.7382 45.0419Z" fill="#F5F5F5"/>
<path d="M52.2321 8.37848L60.6995 11.0206L63.1665 3.11448L54.6992 0.472326L52.2321 8.37848Z" fill="#F5F5F5"/>
<path d="M86.0196 23.5673L89.3999 22.7028C89.2967 22.3189 89.2718 21.9182 89.3265 21.5244C89.3813 21.1307 89.5147 20.752 89.7187 20.4109C89.9228 20.0697 90.1933 19.7731 90.5143 19.5386C90.8353 19.3041 91.2001 19.1365 91.5872 19.0458C92.1504 18.8758 92.7525 18.8852 93.3101 19.0726C93.8678 19.26 94.3533 19.6162 94.6995 20.0919C94.9933 20.4869 95.1896 20.9457 95.2722 21.4311C95.3549 21.9164 95.3215 22.4144 95.1749 22.8843C94.8551 23.9823 93.8263 25.1753 91.4402 25.3741L93.4545 32.9906L96.7916 32.1261L95.6158 27.6651C96.8813 26.9019 97.8606 25.7435 98.4027 24.3687C98.9449 22.9939 99.0197 21.4789 98.6157 20.0573C97.319 15.1123 92.5641 15.1382 90.6881 15.631C89.2357 15.9681 84.3857 17.6194 86.0196 23.5673Z" fill="#EBEBEB"/>
<path d="M97.9691 33.2367L94.5645 34.1493L95.4164 37.3275L98.821 36.4149L97.9691 33.2367Z" fill="#EBEBEB"/>
<path d="M365.096 111.065L368.381 112.25C368.519 111.878 368.73 111.537 369.002 111.248C369.273 110.959 369.6 110.727 369.962 110.566C370.325 110.404 370.716 110.317 371.112 110.31C371.509 110.302 371.903 110.374 372.272 110.521C372.825 110.699 373.31 111.044 373.66 111.508C374.009 111.972 374.207 112.533 374.226 113.114C374.246 113.61 374.148 114.104 373.941 114.555C373.734 115.006 373.422 115.401 373.033 115.708C372.168 116.426 370.62 116.815 368.546 115.622L365.857 123.03L369.108 124.206L370.681 119.884C372.157 119.975 373.621 119.58 374.85 118.758C376.079 117.937 377.005 116.735 377.485 115.336C379.214 110.529 375.315 107.858 373.473 107.192C372.064 106.639 367.136 105.247 365.096 111.065Z" fill="#EBEBEB"/>
<path d="M368.621 125.708L365.321 124.513L364.205 127.594L367.506 128.789L368.621 125.708Z" fill="#EBEBEB"/>
<path d="M16.4516 148.689L23.3678 146.009C23.3678 146.009 21.12 140.174 27.1458 137.727C28.299 137.239 29.5752 137.121 30.7985 137.389C32.0217 137.657 33.1317 138.298 33.9755 139.223C34.6933 139.992 35.2194 140.92 35.5108 141.931C35.8023 142.942 35.8509 144.008 35.6527 145.041C35.2204 147.444 33.3184 150.228 28.3129 151.188L34.3645 166.862L41.2807 164.216L37.7362 155.035C37.7362 155.035 46.3814 148.828 42.3268 138.194C38.3932 128.027 28.3301 129.186 24.4657 130.681C21.4831 131.831 11.593 136.474 16.4516 148.689Z" fill="#F5F5F5"/>
<path d="M42.5912 167.407L35.613 170.095L38.1243 176.614L45.1025 173.925L42.5912 167.407Z" fill="#F5F5F5"/>
<path d="M367.802 175.066L362.875 176.959C362.875 176.959 364.465 181.101 360.195 182.83C359.377 183.171 358.474 183.253 357.608 183.065C356.742 182.876 355.955 182.426 355.353 181.775C354.845 181.23 354.472 180.572 354.266 179.855C354.061 179.138 354.027 178.383 354.169 177.651C354.48 175.922 355.829 173.986 359.356 173.329L355.12 162.185L350.244 164.061L352.751 170.571C350.977 171.928 349.697 173.831 349.11 175.987C348.523 178.142 348.66 180.431 349.5 182.501C352.276 189.703 359.382 188.89 362.148 187.827C364.241 187.005 371.243 183.72 367.802 175.066Z" fill="#F5F5F5"/>
<path d="M349.279 161.803L354.224 159.897L352.447 155.283L347.501 157.188L349.279 161.803Z" fill="#F5F5F5"/>
<path d="M381.721 366.238C381.721 366.367 296.263 366.463 190.869 366.463C85.4753 366.463 0 366.367 0 366.238C0 366.108 85.4407 366.013 190.869 366.013C296.298 366.013 381.721 366.117 381.721 366.238Z" fill="#263238"/>
<path d="M54.8193 343.786C55.6838 340.604 53.5484 337.414 51.2142 335.141C48.88 332.867 46.0876 330.775 44.8686 327.723C42.8975 322.778 45.543 316.381 42.1886 312.257C40.2089 309.836 36.6643 309.023 34.9093 306.43C34.0979 305 33.5613 303.432 33.3273 301.805C31.4618 293.591 27.4217 286.031 21.6303 279.915C21.2399 287.231 22.8255 294.517 26.2209 301.009C27.5782 303.603 29.2554 306.127 29.679 309.023C30.4138 313.718 27.7857 318.533 28.9441 323.167C30.2669 328.441 36.1888 331.977 36.4655 337.406C36.7075 341.996 32.7048 346.051 33.0074 350.616C33.2498 352.57 33.9585 354.438 35.0736 356.062C38.6181 361.967 43.8399 366.03 51.7416 365.9L61.4242 366.238L54.8193 343.786Z" fill="#FF1641"/>
<g opacity="0.3">
<path d="M54.8193 343.786C55.6838 340.604 53.5484 337.414 51.2142 335.141C48.88 332.867 46.0876 330.775 44.8686 327.723C42.8975 322.778 45.543 316.381 42.1886 312.257C40.2089 309.836 36.6643 309.023 34.9093 306.43C34.0979 305 33.5613 303.432 33.3273 301.805C31.4618 293.591 27.4217 286.031 21.6303 279.915C21.2399 287.231 22.8255 294.517 26.2209 301.009C27.5782 303.603 29.2554 306.127 29.679 309.023C30.4138 313.718 27.7857 318.533 28.9441 323.167C30.2669 328.441 36.1888 331.977 36.4655 337.406C36.7075 341.996 32.7048 346.051 33.0074 350.616C33.2498 352.57 33.9585 354.438 35.0736 356.062C38.6181 361.967 43.8399 366.03 51.7416 365.9L61.4242 366.238L54.8193 343.786Z" fill="black"/>
</g>
<path d="M63.3782 366.436C64.265 366.573 65.1688 366.556 66.0496 366.385C67.119 366.222 68.17 365.956 69.1878 365.589C70.5934 365.101 71.908 364.382 73.0782 363.462C73.7822 362.896 74.3322 362.162 74.6775 361.327C74.9667 360.392 75.1182 359.419 75.1271 358.44C75.1466 357.393 75.2245 356.348 75.3605 355.31C75.5426 354.205 75.9423 353.147 76.5362 352.198C77.6774 350.192 79.5794 348.29 80.1845 345.567C80.7897 342.844 80.3747 339.991 79.9252 337.086C79.4756 334.181 79.0607 331.034 80.15 327.991C81.2393 324.948 83.3141 322.225 84.3775 318.819C85.4408 315.412 84.9394 311.66 85.1642 308.003C85.2305 306.146 85.6593 304.319 86.4264 302.626C87.2045 300.897 88.2937 299.298 89.141 297.499C90.87 293.851 91.164 289.719 91.6308 285.664C91.8642 283.624 92.089 281.558 92.3224 279.483C92.4696 277.385 92.8317 275.308 93.4031 273.284C94.059 271.244 94.8326 269.244 95.72 267.293C96.177 266.284 96.5528 265.241 96.8439 264.172C97.0067 263.066 97.1106 261.952 97.1551 260.835C97.2582 258.598 97.1714 256.357 96.8957 254.135C96.6364 251.905 96.2301 249.691 95.988 247.452C95.988 247.314 95.988 247.184 95.988 247.063L95.9361 246.622L95.5471 246.813C93.503 247.861 91.7281 249.367 90.36 251.213C89.0181 253.02 87.9383 255.008 87.1526 257.118C85.5359 261.276 84.9567 265.633 84.144 269.792C83.3314 273.95 82.294 278.039 80.1672 281.497C79.1039 283.226 77.8157 284.8 76.7092 286.477C75.5075 288.114 74.6864 289.998 74.3058 291.992C73.7266 296.09 75.983 299.687 75.5161 303.318C75.3055 305.096 74.7159 306.809 73.7871 308.341C72.9225 309.888 71.8765 311.323 70.8909 312.758C69.892 314.166 69.0239 315.662 68.2974 317.228C67.6135 318.76 67.2095 320.403 67.1043 322.078C66.8709 325.346 67.3291 328.441 67.1043 331.363C66.8344 334.148 66.0208 336.853 64.7096 339.325C63.5425 341.702 62.237 343.855 61.1477 345.947C60.6031 346.985 60.093 348.005 59.6781 349.034C59.2854 350.021 58.9957 351.047 58.8135 352.094C58.5242 353.922 58.5009 355.783 58.7444 357.618C58.9984 360.177 59.9559 362.616 61.5108 364.664C61.7486 364.974 62.0117 365.263 62.2976 365.529C62.4885 365.729 62.7 365.909 62.9287 366.065C63.2918 366.333 63.482 366.454 63.482 366.454C62.7908 365.908 62.1617 365.287 61.6059 364.604C60.1217 362.548 59.2251 360.127 59.0124 357.601C58.7922 355.789 58.833 353.955 59.1334 352.155C59.3154 351.133 59.6052 350.133 59.9979 349.172C60.436 348.132 60.9295 347.116 61.4763 346.129C62.5742 344.054 63.8883 341.91 65.0813 339.515C66.4317 337.005 67.272 334.251 67.5539 331.415C67.8132 328.432 67.3637 325.32 67.6057 322.138C67.7171 320.517 68.1121 318.928 68.7728 317.444C69.5038 315.911 70.3719 314.447 71.3664 313.069C72.352 311.634 73.398 310.199 74.2971 308.617C75.2839 307.028 75.915 305.243 76.1472 303.387C76.6141 299.522 74.3749 295.909 74.9542 292.096C75.3331 290.189 76.1271 288.389 77.2797 286.823C78.3777 285.171 79.6745 283.598 80.7378 281.826C82.9424 278.272 84.0057 274.105 84.8097 269.93C85.6137 265.754 86.2102 261.432 87.801 257.351C88.5661 255.3 89.6167 253.368 90.9219 251.611C92.238 249.839 93.945 248.396 95.9102 247.392L95.4693 247.141C95.4693 247.271 95.4693 247.4 95.5125 247.539C95.7546 249.804 96.1609 252.017 96.377 254.23C96.65 256.418 96.7339 258.625 96.6277 260.826C96.584 261.908 96.4859 262.988 96.3338 264.06C96.0544 265.094 95.6901 266.103 95.2445 267.077C94.3524 269.048 93.5731 271.069 92.9103 273.129C92.3341 275.184 91.9691 277.293 91.821 279.422C91.5962 281.506 91.3628 283.572 91.138 285.612C90.6712 289.684 90.3686 293.747 88.7174 297.266C87.8528 298.995 86.8154 300.646 86.0114 302.41C85.2202 304.166 84.7796 306.061 84.7146 307.986C84.4985 311.721 84.9826 315.378 83.9711 318.68C82.9596 321.983 80.8589 324.732 79.7955 327.853C78.7321 330.974 79.1212 334.276 79.588 337.172C80.0549 340.069 80.5217 342.921 79.8992 345.489C79.2768 348.057 77.4959 349.976 76.3374 352.034C75.7266 353.024 75.3182 354.126 75.1357 355.275C75.0051 356.325 74.9358 357.382 74.9282 358.44C74.9296 359.394 74.7898 360.344 74.5133 361.258C74.193 362.05 73.6787 362.749 73.0176 363.29C71.8789 364.208 70.5966 364.932 69.2224 365.434C68.218 365.821 67.1787 366.11 66.1188 366.298C65.471 366.416 64.8146 366.479 64.1563 366.488C63.6116 366.436 63.3782 366.436 63.3782 366.436Z" fill="#263238"/>
<path d="M93.9651 252.406C93.9189 252.499 93.8868 252.598 93.87 252.7L93.6625 253.564C93.4723 254.334 93.2389 255.484 92.8758 256.919C92.5127 258.354 91.6222 259.979 90.8701 261.976C89.9892 264.224 89.2216 266.515 88.5704 268.841C87.8269 271.434 87.1786 274.287 86.4869 277.365C85.8992 280.643 84.8575 283.823 83.3919 286.814C82.5966 288.387 81.6629 289.978 80.9972 291.724C80.2992 293.508 79.8314 295.373 79.6053 297.275C79.1136 301.213 78.4152 305.124 77.5132 308.989C75.5767 316.917 73.7266 324.473 72.0408 331.354C70.3549 338.236 68.7642 344.391 67.4502 349.596C66.1361 354.8 65.1419 358.95 64.4157 361.915C64.0785 363.333 63.8105 364.448 63.6203 365.269C63.5425 365.624 63.4733 365.909 63.4215 366.134C63.4119 366.235 63.4119 366.336 63.4215 366.436C63.4717 366.347 63.5095 366.251 63.5339 366.151C63.5944 365.918 63.6808 365.641 63.7846 365.287C64.0007 364.483 64.3033 363.367 64.6923 361.958C65.4704 359.019 66.5683 354.843 67.9256 349.699C69.2829 344.555 70.865 338.331 72.6373 331.492C74.4096 324.654 76.2078 317.046 78.1616 309.11C79.0579 305.234 79.739 301.312 80.2019 297.361C80.4228 295.505 80.8759 293.684 81.5505 291.941C82.2335 290.212 83.1067 288.664 83.902 287.073C85.6311 283.918 86.314 280.529 86.997 277.477C87.68 274.425 88.2851 271.538 88.994 268.962C89.703 266.385 90.4465 264.086 91.1899 262.097C91.9334 260.109 92.7547 258.466 93.1092 256.979C93.4636 255.492 93.6279 254.386 93.7835 253.59C93.8411 253.233 93.893 252.945 93.9391 252.726C93.9651 252.51 93.9823 252.406 93.9651 252.406Z" fill="#263238"/>
<path d="M65.0901 366.48C71.4097 362.719 73.2252 351.307 70.5884 344.443C67.9516 337.579 63.3351 331.302 62.6262 323.98C62.0729 318.352 63.923 312.577 62.6262 307.078C60.8539 299.652 53.6092 293.903 53.6957 286.269C53.7389 281.99 56.1769 277.961 55.978 273.682C55.7446 268.443 51.7159 264.276 49.2261 259.659C45.4049 252.579 45.1542 244.219 43.8488 236.317C42.5433 228.416 39.5261 219.891 32.4889 215.992C31.4515 222.727 29.6792 227.344 30.2325 236.464C30.44 239.741 34.2439 245.974 34.7626 253.193C35.0739 257.515 35.2813 261.786 35.5493 266.074C35.8173 270.362 36.0767 274.512 37.5723 278.42C38.7221 281.419 40.5636 284.143 41.4195 287.238C43.0188 293.056 40.9094 299.341 42.2062 305.254C43.3041 310.251 46.7622 314.548 47.4711 319.614C48.4567 326.729 43.8574 334.129 46.2089 340.916C47.3847 344.288 50.1511 346.968 50.9378 350.469C51.5517 353.166 50.886 356.028 51.4393 358.734C52.3038 363.108 60.6551 366.514 65.1074 366.229" fill="#FF1641"/>
<path d="M34.2176 222.641C34.2058 222.767 34.2058 222.894 34.2176 223.021C34.2176 223.306 34.304 223.669 34.3559 224.128C34.5029 225.105 34.6671 226.531 34.9957 228.381C35.3242 230.231 36.3097 232.323 37.0705 234.848C37.8313 237.372 38.6785 240.26 39.3874 243.493C40.0963 246.726 40.7188 250.331 41.3499 254.196C41.981 258.06 42.6726 262.27 44.5919 266.299C45.4564 268.313 46.4765 270.336 47.1854 272.498C47.9118 274.71 48.359 277.004 48.5168 279.327C48.8702 284.256 49.4907 289.162 50.3755 294.024C52.312 304.001 54.1535 313.502 55.8306 322.156C57.5078 330.81 59.1936 338.53 60.5423 345.066C61.8909 351.601 62.9975 356.823 63.767 360.506L64.6315 364.699C64.7352 365.148 64.813 365.503 64.8822 365.78C64.9056 365.906 64.9403 366.031 64.9859 366.151C65.0012 366.025 65.0012 365.897 64.9859 365.771C64.9341 365.486 64.8736 365.131 64.7957 364.673C64.6055 363.67 64.3375 362.252 64.0004 360.454C63.2742 356.763 62.2713 351.489 60.9659 344.979C59.6605 338.469 58.113 330.663 56.3926 322.043C54.6722 313.424 52.9345 303.888 50.9893 293.92C50.104 289.059 49.4806 284.152 49.122 279.224C48.9574 276.853 48.4956 274.511 47.7474 272.256C46.9779 270.06 45.9664 268.028 45.076 266.022C43.174 262.054 42.4824 257.913 41.8254 254.066C41.1683 250.219 40.5372 246.605 39.7851 243.355C39.033 240.104 38.2117 237.199 37.3644 234.709C36.5172 232.22 35.5749 230.11 35.1945 228.303C34.8141 226.496 34.6326 225.044 34.451 224.084C34.3646 223.635 34.2954 223.272 34.2435 222.986C34.2417 222.871 34.2331 222.755 34.2176 222.641Z" fill="#263238"/>
<path d="M339.1 42.0422H335.642C335.645 42.4344 335.568 42.8231 335.418 43.1853C335.267 43.5474 335.045 43.8757 334.766 44.1506C334.486 44.4255 334.154 44.6415 333.789 44.7857C333.424 44.9299 333.034 44.9995 332.642 44.9902C332.063 45.011 331.492 44.8506 331.009 44.5313C330.525 44.2121 330.153 43.7499 329.945 43.2093C329.763 42.7591 329.69 42.2722 329.732 41.7884C329.774 41.3045 329.93 40.8375 330.187 40.4255C330.775 39.4573 332.054 38.5841 334.371 38.9904V31.2097H330.974V35.7571C329.58 36.1675 328.358 37.0241 327.498 38.1954C326.638 39.3666 326.185 40.7879 326.21 42.241C326.21 47.2725 330.723 48.4396 332.66 48.4396C334.138 48.4742 339.169 48.1198 339.1 42.0422Z" fill="#FF1641"/>
<path d="M330.948 29.6361H334.397V26.4114H330.948V29.6361Z" fill="#FF1641"/>
<path d="M357.956 37.4429C357.967 37.2961 357.967 37.1487 357.956 37.002C357.956 36.6907 357.956 36.2671 357.956 35.7225C357.956 35.4458 357.956 35.1259 357.912 34.7801C357.869 34.4343 357.817 34.0539 357.757 33.6563C357.696 33.2586 357.636 32.7917 357.567 32.3335L357.203 30.8638C356.561 28.3328 355.51 25.9237 354.091 23.7315C352.031 20.4851 349.254 17.7542 345.973 15.749C342.692 13.7437 338.996 12.5173 335.167 12.1642C334.017 12.0627 332.862 12.0396 331.709 12.0951C331.13 12.0951 330.533 12.0951 329.98 12.2075L328.199 12.4755C325.755 12.9296 323.391 13.7363 321.179 14.8702C318.87 16.092 316.748 17.6379 314.876 19.4608C312.961 21.4024 311.359 23.6308 310.13 26.0657C308.808 28.5761 307.941 31.3013 307.571 34.1144C307.463 34.8272 307.403 35.5463 307.39 36.2671C307.332 36.9889 307.318 37.7135 307.346 38.4371C307.535 43.0747 308.984 47.5733 311.539 51.4481V51.1801C310.338 54.18 309.153 57.128 307.995 59.9982L307.787 60.5256L308.332 60.37L317.755 57.7764L317.531 57.7246C320.704 60.1272 324.401 61.7447 328.32 62.4449C330.137 62.7837 331.99 62.8969 333.835 62.782C334.725 62.7687 335.613 62.6849 336.49 62.5313L337.778 62.3325C338.201 62.2547 338.642 62.125 339.023 62.0299C344.83 60.5584 349.923 57.0677 353.391 52.183C354.684 50.3835 355.723 48.4139 356.477 46.3302C356.642 45.872 356.797 45.4656 356.944 45.0161C357.091 44.5665 357.169 44.1516 357.264 43.7625C357.359 43.3735 357.463 42.9758 357.549 42.6127C357.636 42.2496 357.662 41.8952 357.714 41.558C357.791 40.8923 357.912 40.3044 357.938 39.8289C357.964 39.3535 357.938 38.8953 357.938 38.5322C357.938 38.1691 357.938 37.9443 357.938 37.7454C357.938 37.5466 357.938 37.4774 357.938 37.4774C357.925 37.5663 357.925 37.6566 357.938 37.7454C357.938 37.9443 357.938 38.2036 357.878 38.5322C357.817 38.8607 357.826 39.3189 357.791 39.8203C357.757 40.3217 357.627 40.9096 357.523 41.5493C356.699 46.3341 354.503 50.7765 351.201 54.337C347.9 57.8975 343.636 60.4228 338.927 61.6063C338.521 61.7014 338.115 61.8224 337.7 61.9002L336.429 62.0904C335.572 62.2335 334.705 62.3115 333.835 62.3238C332.024 62.4193 330.207 62.3003 328.424 61.9694C324.597 61.2651 320.988 59.6752 317.885 57.3269L317.781 57.2404H317.652L308.22 59.834L308.548 60.2057L312.101 51.3962L312.153 51.2579L312.075 51.1283C310.373 48.5526 309.165 45.6825 308.514 42.6646C308.215 41.2645 308.036 39.8415 307.978 38.4111C307.949 37.7049 307.963 36.9975 308.021 36.293C308.026 35.5895 308.084 34.8872 308.194 34.1923C308.526 31.445 309.342 28.7784 310.606 26.3165C311.807 23.9368 313.367 21.7558 315.231 19.8498C317.062 18.0602 319.141 16.5433 321.404 15.3457C323.566 14.221 325.882 13.4199 328.277 12.9682L330.006 12.7002C330.585 12.6138 331.164 12.6224 331.735 12.5792C332.862 12.5256 333.991 12.5458 335.115 12.6397C338.881 12.9694 342.522 14.1528 345.762 16.1002C349.002 18.0476 351.756 20.7077 353.815 23.8785C355.241 26.0324 356.31 28.403 356.979 30.8984L357.368 32.3508C357.446 32.809 357.515 33.2153 357.584 33.6476C357.653 34.0799 357.705 34.4257 357.765 34.7715C357.826 35.1173 357.809 35.4285 357.835 35.7052C357.835 36.2412 357.904 36.6648 357.93 36.976C357.913 37.132 357.922 37.2896 357.956 37.4429Z" fill="#263238"/>
<path d="M100.146 139.396H150.073C150.073 139.396 150.073 97.4754 193.636 96.7319C216.26 96.3343 227.992 111.161 232.764 122.512C238.297 135.696 236.62 150.721 229.202 162.954C220.739 176.916 202.497 190.948 168.85 185.017L168.53 296.255H217.903V230.309C217.903 230.309 287.143 212.414 287.143 136.076C287.143 63.0674 228.104 47.2986 196.368 46.2784C178.714 45.7165 172.317 44.9557 150.479 48.0593C122.65 52.0361 99.5586 84.352 100.146 139.396Z" fill="#FF1641"/>
<path d="M218.5 319.441H168.392V366.238H218.5V319.441Z" fill="#FF1641"/>
<path opacity="0.1" d="M218.5 319.441H168.392V366.238H218.5V319.441Z" fill="black"/>
<path opacity="0.1" d="M100.146 139.396H150.073C150.073 139.396 150.073 97.4754 193.636 96.7319C216.26 96.3343 227.992 111.161 232.764 122.512C238.297 135.696 236.62 150.721 229.202 162.954C220.739 176.916 202.497 190.948 168.85 185.017L168.53 296.255H217.903V230.309C217.903 230.309 287.143 212.414 287.143 136.076C287.143 63.0674 228.104 47.2986 196.368 46.2784C178.714 45.7165 172.317 44.9557 150.479 48.0593C122.65 52.0361 99.5586 84.352 100.146 139.396Z" fill="black"/>
<path d="M79.4583 139.396H129.393C129.393 139.396 129.393 97.4752 172.956 96.7317C195.581 96.334 207.312 111.161 212.076 122.512C217.618 135.696 215.94 150.721 208.523 162.954C200.059 176.916 181.498 189.607 147.851 183.703V296.255H197.223V230.309C197.223 230.309 266.463 212.413 266.463 136.076C266.463 63.0672 200.984 46.1139 172.965 46.1139C151.533 46.1398 78.5159 51.3183 79.4583 139.396Z" fill="#FF1641"/>
<path opacity="0.3" d="M79.4583 139.396H129.393C129.393 139.396 129.393 97.4752 172.956 96.7317C195.581 96.334 207.312 111.161 212.076 122.512C217.618 135.696 215.94 150.721 208.523 162.954C200.059 176.916 181.498 189.607 147.851 183.703V296.255H197.223V230.309C197.223 230.309 266.463 212.413 266.463 136.076C266.463 63.0672 200.984 46.1139 172.965 46.1139C151.533 46.1398 78.5159 51.3183 79.4583 139.396Z" fill="black"/>
<path d="M197.82 319.441H147.712V366.238H197.82V319.441Z" fill="#FF1641"/>
<path opacity="0.3" d="M197.82 319.441H147.712V366.238H197.82V319.441Z" fill="black"/>
<path d="M178.593 96.9565C178.346 96.9778 178.097 96.9778 177.849 96.9565C177.357 96.9565 176.648 96.7922 175.723 96.7836C173.107 96.6551 170.486 96.7651 167.89 97.1121C164.041 97.5993 160.254 98.4889 156.591 99.7662C154.431 100.521 152.328 101.428 150.297 102.481C148.102 103.578 146.034 104.914 144.133 106.466C142.245 108.032 140.552 109.82 139.093 111.792C137.709 113.615 136.447 115.526 135.315 117.515C133.424 120.902 131.925 124.492 130.845 128.218C130.114 130.732 129.61 133.307 129.341 135.912C129.237 136.828 129.211 137.554 129.186 138.039C129.186 138.288 129.163 138.537 129.116 138.782C129.094 138.535 129.094 138.286 129.116 138.039C129.116 137.546 129.116 136.82 129.194 135.895C129.393 133.262 129.853 130.655 130.569 128.114C131.608 124.345 133.088 120.712 134.978 117.29C136.113 115.28 137.38 113.348 138.773 111.506C140.245 109.503 141.958 107.688 143.874 106.103C145.798 104.53 147.892 103.176 150.116 102.066C152.159 100.994 154.277 100.069 156.453 99.2993C160.149 98.0269 163.972 97.1574 167.856 96.7058C170.468 96.3847 173.107 96.3239 175.731 96.5242C176.445 96.5698 177.155 96.6564 177.858 96.7836C178.107 96.8239 178.352 96.8817 178.593 96.9565Z" fill="#263238"/>
<path d="M253.824 88.0606C253.824 88.0606 253.763 88.0001 253.66 87.8704C253.556 87.7407 253.4 87.516 253.227 87.2653L251.576 84.931C251.222 84.4296 250.841 83.8504 250.392 83.2539L248.836 81.3606L247.055 79.1733C246.406 78.4125 245.646 77.6777 244.885 76.8737C244.124 76.0697 243.346 75.2138 242.464 74.3925C241.582 73.5712 240.64 72.7326 239.672 71.8681C239.188 71.4359 238.712 71.0036 238.193 70.5454L236.585 69.2745C235.487 68.41 234.398 67.5455 233.214 66.681C228.051 62.9874 222.575 59.7533 216.848 57.0156L212.292 54.9581L207.771 53.229C206.292 52.6152 204.788 52.1829 203.336 51.6988C201.883 51.2147 200.466 50.7219 199.013 50.3847L194.881 49.3041C193.541 48.9496 192.209 48.7335 190.939 48.4396C189.668 48.1456 188.44 47.8863 187.238 47.7393L183.78 47.2379C181.593 46.8661 179.587 46.7883 177.841 46.6154C176.977 46.5463 176.112 46.4512 175.394 46.4166L173.337 46.3647L170.484 46.2696H169.74H169.49C169.573 46.2566 169.657 46.2566 169.74 46.2696H170.484H173.337H175.403C176.155 46.2696 176.977 46.3734 177.858 46.4339C179.587 46.5808 181.628 46.6414 183.815 46.9958L187.273 47.4627C188.475 47.601 189.702 47.9122 190.982 48.1456C192.261 48.379 193.575 48.6211 194.95 49.0101L199.1 50.0822C200.535 50.4107 201.953 50.9467 203.422 51.3876C204.892 51.8285 206.388 52.2521 207.866 52.9091L212.413 54.6382L216.995 56.7044C222.752 59.4483 228.25 62.7063 233.421 66.4389C234.614 67.3034 235.704 68.2285 236.801 69.0844L238.409 70.2515C238.928 70.6837 239.404 71.116 239.888 71.5828L242.672 74.1764C243.536 75.0409 244.314 75.9054 245.084 76.6922C245.853 77.4789 246.588 78.2483 247.236 79.0177L248.965 81.2222L250.504 83.1415C250.945 83.7466 251.317 84.3345 251.663 84.8705C252.337 85.882 252.864 86.6774 253.236 87.248L253.642 87.8791C253.71 87.9315 253.771 87.9925 253.824 88.0606Z" fill="#263238"/>
<path d="M248.62 195.262C248.517 195.449 248.392 195.623 248.248 195.78L247.055 197.189C246.562 197.821 245.94 198.573 245.17 199.411C244.401 200.25 243.579 201.235 242.577 202.256C241.574 203.276 240.502 204.417 239.283 205.567C238.064 206.717 236.741 207.927 235.332 209.189C229.151 214.584 222.376 219.256 215.137 223.117C213.459 223.981 211.877 224.846 210.347 225.511C208.817 226.177 207.391 226.86 206.076 227.413C204.762 227.966 203.552 228.425 202.497 228.831C201.443 229.237 200.518 229.566 199.757 229.808L198.028 230.37C197.827 230.45 197.618 230.508 197.405 230.543C197.592 230.436 197.789 230.349 197.993 230.283L199.722 229.644C200.474 229.376 201.382 229.03 202.428 228.598C203.474 228.165 204.685 227.733 205.981 227.119C207.278 226.505 208.713 225.926 210.209 225.174C211.704 224.422 213.304 223.627 214.972 222.753C218.266 220.938 221.819 218.811 225.407 216.356C228.995 213.901 232.22 211.316 235.09 208.878C236.499 207.633 237.848 206.466 239.049 205.29C240.251 204.114 241.375 203.051 242.369 202.031C243.363 201.011 244.236 200.068 245.015 199.238C245.793 198.408 246.432 197.682 246.951 197.077L248.161 195.703C248.302 195.543 248.455 195.396 248.62 195.262Z" fill="#263238"/>
<path d="M196.35 292.33C196.22 292.33 196.117 278.446 196.117 261.32C196.117 244.193 196.22 230.301 196.35 230.301C196.48 230.301 196.575 244.185 196.575 261.32C196.575 278.454 196.471 292.33 196.35 292.33Z" fill="#263238"/>
<path d="M198.252 363.065C198.123 363.065 198.028 353.322 198.028 341.305C198.028 329.288 198.123 319.536 198.252 319.536C198.382 319.536 198.477 329.28 198.477 341.305C198.477 353.331 198.373 363.065 198.252 363.065Z" fill="#263238"/>
<path d="M247.4 132.765C246.536 134.494 249.76 135.912 251.619 136.474C253.515 136.94 255.478 137.074 257.42 136.872C260.014 136.733 262.668 136.491 264.907 135.212C266.868 133.997 268.435 132.241 269.42 130.154C270.39 128.075 271.158 125.906 271.711 123.679C271.711 123.679 251.282 125.011 247.4 132.765Z" fill="#FF1641"/>
<g opacity="0.4">
<path d="M247.4 132.765C246.536 134.494 249.76 135.912 251.619 136.474C253.515 136.94 255.478 137.074 257.42 136.872C260.014 136.733 262.668 136.491 264.907 135.212C266.868 133.997 268.435 132.241 269.42 130.154C270.39 128.075 271.158 125.906 271.711 123.679C271.711 123.679 251.282 125.011 247.4 132.765Z" fill="black"/>
</g>
<path d="M305.099 127.232C308.467 129.621 312.503 130.886 316.631 130.846C318.611 130.956 320.562 130.342 322.121 129.117C322.787 128.503 323.288 127.725 323.971 127.137C324.438 126.739 324.983 126.437 325.424 126.013C325.656 125.813 325.836 125.558 325.946 125.271C326.056 124.985 326.093 124.675 326.055 124.371C325.884 123.62 325.463 122.949 324.862 122.469C322.519 121.137 319.718 121.189 317.02 121.25C314.321 121.367 311.655 121.888 309.11 122.797C307.018 123.506 304.831 124.526 303.767 126.428" fill="#FF1641"/>
<g opacity="0.4">
<path d="M326.055 124.371C325.749 123.641 325.211 123.034 324.524 122.642C322.182 121.31 319.718 121.189 317.02 121.25C314.321 121.367 311.655 121.888 309.11 122.797C307.018 123.506 304.831 124.526 303.767 126.428L305.099 127.232C308.467 129.621 312.503 130.886 316.631 130.846C318.611 130.956 320.562 130.341 322.121 129.117C322.787 128.503 323.288 127.725 323.971 127.137C324.438 126.739 324.983 126.437 325.424 126.013C325.656 125.813 325.836 125.558 325.946 125.271C326.056 124.985 326.093 124.675 326.055 124.371Z" fill="black"/>
</g>
<path d="M265.21 158.26L308.306 158.831C308.394 158.83 308.48 158.81 308.558 158.77C308.637 158.73 308.705 158.673 308.757 158.602C308.809 158.532 308.844 158.45 308.858 158.363C308.873 158.277 308.868 158.188 308.842 158.104L303.785 142.335C303.785 142.335 304.528 134.451 305.557 124.976C307.122 110.582 309.205 92.4871 309.231 92.539C306.283 84.2742 288.889 82.8737 288.889 82.8737L269.065 84.0494L268.374 82.8823L262.668 85.5364C261.423 86.1154 260.227 86.7918 259.089 87.5594C255.319 90.0751 246.242 95.8588 244.582 102.299C240.752 117.212 247.236 133.855 247.236 133.855L251.403 130.595C252.453 129.786 253.556 129.05 254.706 128.391L263.057 150.773C262.56 151.087 262.139 151.507 261.825 152.003C261.511 152.5 261.312 153.06 261.241 153.643C261.172 155.459 262.106 157.638 265.21 158.26Z" fill="#FF1641"/>
<g opacity="0.3">
<path d="M283.701 131.875C285.067 124.526 284.35 116.97 283.615 109.536C281.229 115.587 281.315 122.503 278.782 128.503C278.472 129.137 278.245 129.808 278.108 130.5C278.042 130.848 278.059 131.206 278.158 131.546C278.258 131.885 278.436 132.197 278.678 132.454C279.37 133.085 280.408 132.739 281.324 132.636C282.144 132.479 282.943 132.224 283.701 131.875Z" fill="black"/>
</g>
<g opacity="0.4">
<path d="M267.803 148.888C271.261 150.09 274.944 147.851 278.601 147.453C281.021 147.194 283.442 147.747 285.846 148.136C290.705 148.922 295.65 149.045 300.542 148.499C301.293 148.458 302.028 148.267 302.704 147.937C303.053 147.699 303.339 147.38 303.536 147.006C303.733 146.632 303.836 146.216 303.836 145.793C295.692 144.929 287.557 144.462 279.413 143.623C277.386 143.278 275.31 143.345 273.31 143.822C270.855 144.583 268.987 146.511 267.258 148.422" fill="black"/>
</g>
<path d="M324.81 121.535C321.291 113.607 308.885 91.6831 308.885 91.6831L299.281 103.726L301.52 127.371C301.52 127.371 306.594 121.708 320.781 121.596C321.812 121.637 322.821 121.908 323.733 122.39C324.646 122.872 325.439 123.551 326.055 124.379L324.81 121.535Z" fill="#FF1641"/>
<path d="M267.137 117.342C266.452 115.662 265.908 113.926 265.512 112.155C264.975 110.43 264.582 108.663 264.336 106.873C265.011 108.557 265.552 110.291 265.953 112.06C266.49 113.786 266.886 115.552 267.137 117.342Z" fill="#263238"/>
<path d="M298.554 102.126C298.867 102.347 299.156 102.599 299.419 102.879C300.182 103.616 300.898 104.402 301.563 105.23C303.798 107.963 305.369 111.176 306.153 114.619C306.56 116.522 306.651 118.479 306.421 120.411C306.205 122.183 305.868 123.74 305.643 125.054C305.418 126.368 305.28 127.44 305.211 128.183C305.209 128.57 305.168 128.955 305.09 129.333C305.029 128.947 305.011 128.556 305.038 128.166C305.076 127.106 305.174 126.05 305.332 125.002C305.513 123.679 305.816 122.106 306.015 120.368C306.215 118.479 306.113 116.571 305.712 114.714C304.938 111.336 303.436 108.167 301.312 105.429C299.73 103.302 298.485 102.196 298.554 102.126Z" fill="#263238"/>
<path d="M289.753 156.358C289.453 156.492 289.136 156.585 288.811 156.635C288.442 156.732 288.066 156.804 287.687 156.851C287.246 156.911 286.745 157.006 286.183 157.032C284.866 157.153 283.54 157.153 282.223 157.032C280.612 156.867 279.02 156.548 277.468 156.081C275.925 155.585 274.431 154.946 273.007 154.171C271.853 153.527 270.757 152.783 269.731 151.949C269.281 151.603 268.918 151.24 268.59 150.938C268.306 150.682 268.038 150.411 267.786 150.125C267.545 149.902 267.339 149.646 267.172 149.364C267.232 149.304 268.157 150.341 269.93 151.698C270.965 152.486 272.061 153.191 273.206 153.808C274.614 154.547 276.084 155.164 277.598 155.649C279.123 156.108 280.685 156.432 282.266 156.617C283.558 156.756 284.859 156.797 286.157 156.738C288.379 156.617 289.736 156.289 289.753 156.358Z" fill="#263238"/>
<path d="M303.058 151.448C303.262 151.838 303.377 152.269 303.395 152.71C303.533 153.764 303.454 154.835 303.162 155.857C302.865 156.902 302.263 157.835 301.433 158.537C300.802 159.064 300.318 159.228 300.292 159.185C300.266 159.142 300.672 158.856 301.217 158.32C301.916 157.591 302.424 156.7 302.695 155.727C303.387 153.445 302.894 151.456 303.058 151.448Z" fill="#263238"/>
<path d="M300.715 154.491C300.903 155.38 300.828 156.304 300.499 157.152C300.171 157.999 299.603 158.732 298.865 159.263C298.77 159.168 299.574 158.312 300.075 156.989C300.577 155.666 300.586 154.499 300.715 154.491Z" fill="#263238"/>
<path d="M293.004 126.048C292.546 126.822 292.031 127.562 291.465 128.261C291.018 129.042 290.512 129.788 289.952 130.491C290.118 129.579 290.51 128.723 291.093 128.002C291.554 127.199 292.211 126.526 293.004 126.048Z" fill="#263238"/>
<path d="M263.42 105.109C262.761 104.723 262.124 104.301 261.509 103.847C258.435 101.827 254.945 100.524 251.299 100.035C250.536 99.979 249.777 99.878 249.026 99.732C249.791 99.6263 250.568 99.6263 251.334 99.732C255.079 100.052 258.666 101.388 261.708 103.596C262.346 104.019 262.922 104.528 263.42 105.109Z" fill="#263238"/>
<path d="M308.885 91.3978C307.338 92.6438 305.892 94.0112 304.562 95.487C303.338 97.062 302.242 98.7331 301.286 100.484C301.388 99.8951 301.59 99.328 301.882 98.8068C302.508 97.5105 303.292 96.2967 304.217 95.1931C305.144 94.0917 306.207 93.1127 307.381 92.2796C307.828 91.9013 308.337 91.6029 308.885 91.3978Z" fill="#263238"/>
<path d="M291.094 84.2742C291.172 84.3989 291.236 84.5323 291.284 84.6719C291.452 85.0634 291.588 85.4682 291.69 85.8822C292.055 87.4228 292.055 89.0273 291.69 90.5679C291.152 92.8678 289.921 94.947 288.163 96.5245C285.944 98.4042 283.117 99.4121 280.209 99.3601C277.299 99.3701 274.464 98.4391 272.126 96.706C270.263 95.2838 268.752 93.453 267.708 91.3546C267.005 89.9496 266.51 88.4498 266.239 86.9023C266.159 86.4854 266.107 86.0638 266.083 85.6401C266.059 85.4913 266.059 85.3394 266.083 85.1906C266.083 85.1906 266.178 85.7957 266.42 86.8677C266.756 88.3716 267.288 89.8248 268.002 91.1903C269.057 93.2255 270.555 94.9981 272.385 96.3775C274.638 98.0456 277.363 98.9539 280.166 98.9711C282.968 99.0225 285.696 98.0653 287.852 96.2737C289.55 94.7541 290.754 92.7608 291.31 90.5506C291.694 89.0587 291.747 87.5006 291.465 85.9859C291.301 84.8448 291.042 84.2915 291.094 84.2742Z" fill="#263238"/>
<g opacity="0.3">
<path d="M294.119 127.578C294.119 127.146 294.05 126.636 293.669 126.42C293.549 126.359 293.415 126.327 293.28 126.327C293.145 126.327 293.012 126.359 292.891 126.42C292.649 126.55 292.435 126.726 292.26 126.938C291.244 127.996 290.458 129.253 289.952 130.63L294.188 130.258C294.162 129.385 294.145 128.469 294.119 127.578Z" fill="black"/>
</g>
<g opacity="0.3">
<path d="M308.185 118.665C307.759 116.241 306.697 113.973 305.107 112.095C306.94 118.077 306.326 121.457 305.297 125.555L305.522 124.985C306.707 122.59 308.505 121.086 308.185 118.665Z" fill="black"/>
</g>
<path d="M299.721 319.632L297.137 358.406L280.278 358.207L277.624 317.894L299.721 319.632Z" fill="#FFBE9D"/>
<path d="M297.612 353.305V354.429C297.612 354.429 316.631 362.071 316.813 365.667L279.042 365.46L279.63 352.898C285.258 355.535 291.145 355.864 297.612 353.305Z" fill="#FF1641"/>
<path d="M283.46 356.927C283.101 357.036 282.795 357.271 282.597 357.589C282.4 357.908 282.326 358.287 282.388 358.656C282.48 359.025 282.712 359.344 283.035 359.545C283.357 359.747 283.745 359.816 284.117 359.737C284.502 359.622 284.83 359.368 285.038 359.025C285.245 358.681 285.318 358.272 285.241 357.878C285.104 357.505 284.827 357.2 284.469 357.027C284.11 356.854 283.699 356.828 283.322 356.953" fill="white"/>
<path d="M279.042 365.46L279.18 362.443L315.352 363.757C315.352 363.757 317.029 364.501 316.83 365.676L279.042 365.46Z" fill="#263238"/>
<path d="M297.75 354.533C297.75 354.714 296.816 354.792 295.909 355.397C295.001 356.002 294.508 356.754 294.344 356.685C294.18 356.616 294.456 355.544 295.572 354.852C296.687 354.161 297.793 354.334 297.75 354.533Z" fill="#263238"/>
<path d="M301.701 356.192C301.744 356.374 300.94 356.676 300.309 357.454C299.678 358.233 299.496 359.054 299.306 359.045C299.116 359.037 299.012 357.991 299.816 357.048C300.62 356.106 301.692 356.063 301.701 356.192Z" fill="#263238"/>
<path d="M303.923 360.947C303.75 360.947 303.499 360.083 303.983 359.054C304.467 358.025 305.323 357.653 305.401 357.8C305.479 357.947 304.943 358.492 304.536 359.331C304.13 360.169 304.113 360.93 303.923 360.947Z" fill="#263238"/>
<path d="M296.643 36.0597C297.62 33.6391 296.436 30.7083 294.335 29.1436C292.121 27.6861 289.421 27.1611 286.822 27.6825C284.258 28.2201 281.776 29.0921 279.439 30.2761C278.353 29.1802 276.983 28.4079 275.483 28.0454C273.983 27.683 272.411 27.7446 270.944 28.2235C269.477 28.7024 268.172 29.5796 267.174 30.7573C266.177 31.935 265.527 33.3667 265.296 34.8926C264.361 34.6574 263.38 34.681 262.458 34.9611C261.535 35.2412 260.707 35.7672 260.061 36.4825C259.415 37.1979 258.976 38.0756 258.791 39.0216C258.606 39.9676 258.682 40.946 259.011 41.852L270.699 45.9585L283.459 68.4361C285.345 70.045 287.752 70.9129 290.231 70.8778C292.709 70.8426 295.091 69.9069 296.93 68.2452C298.77 66.5835 299.942 64.3093 300.228 61.847C300.514 59.3846 299.894 56.9023 298.485 54.8631C299.2 54.2273 299.807 53.4799 300.283 52.6499C301.303 52.0469 302.192 51.2473 302.9 50.2974C303.608 49.3476 304.12 48.2665 304.407 47.117C305.539 42.1114 301.666 36.6476 296.643 36.0597Z" fill="#263238"/>
<path d="M288.906 82.8737C288.18 79.2168 287.678 76.7097 287.687 76.7356C287.696 76.7615 294.603 74.0556 294.102 64.4335C293.86 59.644 292.036 52.0967 290.341 45.9759C288.82 40.4603 283.676 34.3827 278.238 36.1376L261.751 44.1777C260.1 44.7137 259.815 46.2698 260.204 47.9557V48.8202L266.61 75.3264L269.316 87.1704C269.893 89.6024 271.359 91.7303 273.426 93.1352C275.494 94.54 278.012 95.12 280.486 94.7609C281.836 94.5709 283.134 94.1069 284.299 93.3972C285.464 92.6875 286.472 91.7473 287.261 90.6341C288.049 89.5209 288.602 88.2583 288.885 86.9238C289.168 85.5894 289.175 84.2111 288.906 82.8737Z" fill="#FFBE9D"/>
<path d="M290.281 52.3733C290.35 52.6801 290.299 53.0018 290.138 53.272C289.978 53.5422 289.719 53.7404 289.416 53.8257C289.264 53.8684 289.104 53.8797 288.947 53.859C288.789 53.8383 288.638 53.7859 288.501 53.7052C288.365 53.6244 288.246 53.5169 288.152 53.389C288.058 53.2611 287.991 53.1156 287.955 52.9612C287.886 52.6556 287.937 52.3351 288.098 52.0662C288.259 51.7974 288.518 51.6009 288.82 51.5175C288.972 51.4734 289.132 51.4608 289.289 51.4804C289.446 51.5 289.598 51.5514 289.734 51.6315C289.871 51.7116 289.99 51.8186 290.084 51.9462C290.178 52.0737 290.245 52.219 290.281 52.3733Z" fill="#263238"/>
<path d="M289.529 50.5318C289.408 50.722 288.361 50.2465 287.082 50.5318C285.802 50.8171 284.99 51.647 284.817 51.5174C284.644 51.3877 284.817 51.1456 285.171 50.7652C285.647 50.2626 286.266 49.9185 286.944 49.7797C287.612 49.6355 288.31 49.7113 288.932 49.9958C289.416 50.1946 289.58 50.454 289.529 50.5318Z" fill="#263238"/>
<path d="M277.728 55.2088C277.797 55.5145 277.746 55.835 277.585 56.1038C277.424 56.3726 277.165 56.5692 276.863 56.6526C276.714 56.696 276.558 56.7094 276.403 56.692C276.249 56.6746 276.099 56.6268 275.963 56.5512C275.827 56.4756 275.708 56.3738 275.611 56.2517C275.515 56.1297 275.444 55.9897 275.402 55.8399C275.333 55.5332 275.384 55.2115 275.545 54.9413C275.706 54.671 275.964 54.4728 276.267 54.3875C276.417 54.3442 276.574 54.3312 276.729 54.3491C276.884 54.3671 277.033 54.4157 277.169 54.4921C277.305 54.5686 277.425 54.6713 277.521 54.7943C277.617 54.9174 277.687 55.0583 277.728 55.2088Z" fill="#263238"/>
<path d="M277.096 53.5836C276.984 53.7738 275.929 53.2897 274.65 53.5836C273.37 53.8776 272.558 54.6902 272.385 54.5692C272.212 54.4481 272.385 54.1974 272.739 53.8084C273.217 53.3103 273.835 52.9695 274.512 52.8315C275.18 52.6895 275.876 52.7621 276.5 53.039C276.958 53.2465 277.157 53.4799 277.096 53.5836Z" fill="#263238"/>
<path d="M283.607 61.7102C284.241 61.3605 284.914 61.0877 285.612 60.8975C285.932 60.7938 286.235 60.6641 286.243 60.4307C286.198 60.0868 286.051 59.7645 285.82 59.5057L284.324 57.206C282.232 53.9295 280.641 51.2149 280.771 51.1544C280.901 51.0939 282.708 53.6615 284.8 56.938L286.261 59.2549C286.548 59.6095 286.704 60.0523 286.702 60.5085C286.676 60.6329 286.623 60.75 286.547 60.8516C286.471 60.9532 286.373 61.0368 286.261 61.0964C286.092 61.1859 285.911 61.2528 285.725 61.2952C285.041 61.5293 284.328 61.669 283.607 61.7102Z" fill="#263238"/>
<path d="M287.687 76.7355C283.314 77.7238 278.753 77.4784 274.512 76.0266C274.512 76.0266 279.042 81.9399 288.18 79.1129L287.687 76.7355Z" fill="#FB6E88"/>
<path d="M277.313 51.7508C277.226 52.1226 275.904 52.1139 274.399 52.4857C272.895 52.8574 271.702 53.4193 271.46 53.1254C271.356 52.9871 271.529 52.624 271.987 52.2609C272.596 51.748 273.32 51.3892 274.097 51.2148C274.867 51.0321 275.669 51.0321 276.44 51.2148C277.053 51.3272 277.373 51.5779 277.313 51.7508Z" fill="#263238"/>
<path d="M289.036 46.4513C288.828 46.7971 287.722 46.7106 286.442 46.9613C285.163 47.2121 284.151 47.6443 283.849 47.3936C283.71 47.2639 283.849 46.9354 284.22 46.5291C284.791 46.049 285.481 45.7323 286.217 45.6127C286.942 45.4668 287.692 45.5206 288.387 45.7683C288.915 46.0104 289.122 46.2784 289.036 46.4513Z" fill="#263238"/>
<path d="M265.823 37.9874C266.015 38.924 266.41 39.8069 266.981 40.5734C267.552 41.34 268.285 41.9714 269.127 42.4228C269.97 42.8742 270.901 43.1345 271.856 43.1853C272.81 43.236 273.764 43.0759 274.65 42.7164C276.016 42.1631 277.434 41.1257 278.817 41.6271C280.2 42.1285 280.771 44.0996 282.094 44.8345C284.039 45.9238 286.416 44.0391 288.586 44.2293C290.315 44.3763 291.621 45.699 292.961 46.8229C294.301 47.9467 296.151 48.794 297.664 47.9813C297.317 46.5376 296.804 45.1391 296.133 43.8143C295.457 42.4806 294.339 41.4232 292.969 40.8231C292.209 40.5205 291.387 40.4167 290.661 40.045C289.096 39.2496 288.396 37.4514 287.263 36.0941C286.52 35.2388 285.583 34.5731 284.53 34.1521C283.478 33.7311 282.34 33.5671 281.212 33.6735C279.344 33.8637 277.572 34.806 275.688 34.7282C274.296 34.6677 272.964 34.0452 271.572 34.0712C268.866 34.0712 266.835 36.4918 265.331 38.7482" fill="#263238"/>
<path d="M274.936 39.9673C273.691 39.8722 271.149 39.6129 270.31 38.731C269.459 37.7782 268.371 37.0658 267.157 36.6653C265.944 36.2647 264.646 36.19 263.394 36.4487C262.152 36.819 261.062 37.5783 260.284 38.6148C259.505 39.6513 259.081 40.9103 259.072 42.2064C257.559 42.5756 256.174 43.3464 255.063 44.4374C253.952 45.5285 253.157 46.8993 252.761 48.405C252.358 49.9814 252.345 51.6318 252.721 53.2146C253.098 54.7973 253.853 56.2649 254.922 57.4912C255.441 58.1406 255.915 58.8252 256.34 59.5401C255.754 60.2673 255.238 61.0489 254.801 61.8743C252.821 66.2488 258.19 67.926 258.19 67.926C258.19 70.8653 260.913 70.848 262.651 70.8394C264.388 70.8308 265.348 75.4732 266.705 75.2917L265.331 60.9666C265.532 61.0448 265.746 61.0859 265.962 61.0876C269.238 61.1481 268.383 54.9408 267.328 53.3069C268.304 52.0917 269.128 50.762 269.783 49.3474C270.377 47.1848 270.418 44.9079 269.904 42.7251C271.002 42.5868 275.472 40.0019 274.936 39.9673Z" fill="#263238"/>
<path d="M265.763 61.7273C265.651 61.2722 265.426 60.8527 265.109 60.508C264.791 60.1633 264.391 59.9047 263.947 59.7562C263.502 59.6077 263.027 59.5743 262.566 59.6589C262.105 59.7436 261.673 59.9436 261.311 60.2404C260.446 60.9839 259.988 62.2288 260.507 64.3123C261.907 69.8798 267.207 67.3294 267.172 67.1738C267.137 67.0182 266.368 64.027 265.763 61.7273Z" fill="#FFBE9D"/>
<path d="M264.942 65.488C264.942 65.488 264.864 65.5831 264.717 65.6955C264.512 65.8523 264.255 65.9235 263.999 65.8944C263.36 65.8252 262.625 65.0299 262.348 64.0184C262.216 63.5457 262.19 63.05 262.27 62.566C262.279 62.378 262.333 62.1948 262.428 62.0323C262.523 61.8697 262.656 61.7325 262.815 61.6323C262.92 61.5757 263.041 61.5577 263.158 61.5814C263.275 61.6051 263.38 61.669 263.455 61.762C263.567 61.8916 263.558 62.0127 263.593 62.0213C263.628 62.03 263.688 61.8916 263.593 61.6755C263.527 61.5473 263.42 61.4442 263.29 61.3816C263.107 61.3075 262.903 61.3075 262.72 61.3816C262.503 61.4847 262.315 61.641 262.175 61.8359C262.034 62.0309 261.945 62.2582 261.916 62.4968C261.804 63.0412 261.824 63.6047 261.976 64.1394C262.073 64.6414 262.315 65.1037 262.674 65.4683C263.032 65.8328 263.49 66.0833 263.991 66.1883C264.153 66.1949 264.316 66.1649 264.465 66.1006C264.615 66.0363 264.748 65.9392 264.855 65.8166C264.968 65.6264 264.968 65.4967 264.942 65.488Z" fill="#FB6E88"/>
<path d="M295.615 53.9555C295.615 53.9555 296.125 53.5664 296.834 52.7019C297.812 51.4563 298.412 49.956 298.563 48.3793C298.677 47.303 298.572 46.2146 298.252 45.1806C297.882 43.9944 297.198 42.9307 296.272 42.1029C295.203 41.1689 293.908 40.5308 292.515 40.2517C291.123 39.9727 289.682 40.0625 288.336 40.5122C288.076 40.5986 287.834 40.7283 287.592 40.832C287.35 40.9358 287.134 41.0914 286.909 41.2211L286.563 41.4113V41.0309C286.556 40.3612 286.307 39.7166 285.863 39.2154C285.408 38.7289 284.85 38.3508 284.229 38.1088C283.055 37.6195 281.754 37.5225 280.52 37.8321C278.134 38.3768 276.111 39.4661 274.201 39.6909C272.702 39.9513 271.161 39.643 269.878 38.8263C269.54 38.5934 269.247 38.3004 269.014 37.9618C268.875 37.7284 268.806 37.5987 268.823 37.5901C269.137 38.017 269.52 38.3882 269.956 38.688C271.218 39.4166 272.701 39.6653 274.132 39.3883C275.127 39.201 276.1 38.9113 277.036 38.5238C278.135 38.0846 279.261 37.7178 280.408 37.4258C281.047 37.2712 281.705 37.2043 282.362 37.227C283.055 37.2636 283.737 37.4216 284.376 37.6938C285.037 37.9763 285.628 38.4014 286.105 38.9387C286.616 39.524 286.904 40.2712 286.918 41.0482L286.572 40.858L287.29 40.443C287.558 40.3393 287.808 40.2009 288.085 40.1058C289.504 39.6197 291.027 39.5181 292.498 39.8111C293.97 40.1042 295.337 40.7815 296.462 41.7744C297.434 42.6546 298.146 43.785 298.52 45.0423C298.908 46.3747 298.96 47.7825 298.672 49.1401C298.384 50.4977 297.764 51.7629 296.869 52.823C296.584 53.1479 296.262 53.4381 295.909 53.6875C295.822 53.7884 295.723 53.8784 295.615 53.9555Z" fill="#455A64"/>
<path d="M294.491 34.4084C293.923 34.1203 293.318 33.9137 292.692 33.7946C291.978 33.6969 291.25 33.765 290.566 33.9935C289.679 34.2646 288.909 34.8246 288.378 35.5842L288.162 35.8868L288.033 35.541C287.581 34.4782 286.855 33.5551 285.928 32.8667C285.001 32.1783 283.907 31.7496 282.759 31.6247C280.956 31.5569 279.18 32.0723 277.693 33.0944C276.426 33.92 275.08 34.6151 273.673 35.1692C272.703 35.536 271.659 35.6607 270.63 35.5323C270.356 35.4817 270.087 35.4065 269.826 35.3076C269.653 35.2297 269.558 35.1865 269.566 35.1692C269.575 35.1519 269.955 35.2816 270.656 35.3508C271.65 35.4129 272.646 35.2504 273.569 34.8753C274.936 34.2792 276.247 33.5617 277.485 32.7313C278.251 32.2562 279.062 31.8594 279.906 31.5469C280.835 31.2083 281.827 31.0813 282.811 31.1751C284.037 31.309 285.204 31.7729 286.187 32.5173C287.171 33.2617 287.934 34.2589 288.396 35.4026H288.059C288.653 34.5902 289.502 33.9999 290.471 33.7255C291.207 33.5121 291.982 33.4736 292.736 33.6131C293.213 33.7037 293.67 33.8794 294.084 34.1318C294.232 34.2042 294.369 34.2974 294.491 34.4084Z" fill="#455A64"/>
<path d="M283.105 64.2692C282.903 64.1004 282.668 63.9761 282.415 63.9046C282.161 63.8331 281.896 63.8159 281.635 63.8542C281.331 63.9192 281.044 64.0475 280.792 64.2307C280.54 64.4139 280.33 64.6479 280.174 64.9176C280.174 64.9176 280.131 64.9608 280.123 64.9868C280.003 65.1842 279.949 65.4139 279.967 65.6438C280.005 65.8942 280.103 66.1316 280.254 66.3351C280.405 66.5386 280.603 66.7019 280.831 66.8109C281.197 66.9961 281.611 67.064 282.016 67.0052C282.421 66.9464 282.799 66.7638 283.097 66.4824C283.379 66.1837 283.537 65.7887 283.539 65.3775C283.541 64.9664 283.385 64.57 283.105 64.2692Z" fill="#FF1641"/>
<path d="M283.537 66.9577C283.468 66.9577 283.391 66.6984 283.157 66.3439C282.876 65.8687 282.456 65.4913 281.953 65.2624C281.451 65.0336 280.89 64.9645 280.347 65.0644C279.924 65.125 279.664 65.246 279.638 65.1855C279.613 65.125 279.811 64.9175 280.278 64.7532C280.889 64.5566 281.552 64.5935 282.137 64.857C282.728 65.12 283.195 65.5996 283.442 66.197C283.624 66.6465 283.598 66.9491 283.537 66.9577Z" fill="#263238"/>
<path d="M265.893 68.0297C265.893 68.0297 266.143 68.462 265.815 69.119C265.629 69.5122 265.302 69.8208 264.898 69.9835C264.647 70.0736 264.377 70.1041 264.112 70.0726C263.846 70.0411 263.592 69.9485 263.368 69.802C263.141 69.6636 262.948 69.4746 262.806 69.2497C262.663 69.0248 262.575 68.77 262.547 68.5052C262.521 68.0782 262.646 67.6556 262.901 67.3121C263.351 66.7416 263.852 66.7243 263.852 66.7761C263.852 66.828 263.472 66.975 263.169 67.4937C262.994 67.7843 262.921 68.1251 262.962 68.462C262.994 68.6593 263.069 68.8472 263.181 69.0129C263.293 69.1786 263.439 69.318 263.61 69.4216C263.779 69.5295 263.969 69.6007 264.167 69.6305C264.365 69.6603 264.567 69.648 264.76 69.5945C265.079 69.4802 265.354 69.2685 265.547 68.9893C265.884 68.4533 265.823 68.0297 265.893 68.0297Z" fill="#FF1641"/>
<path d="M262.979 67.6927C263.022 67.6927 262.979 67.9867 262.573 68.1769C262.373 68.2598 262.154 68.2839 261.941 68.2463C261.728 68.2086 261.531 68.1109 261.372 67.9645C261.212 67.8181 261.099 67.6293 261.043 67.4203C260.988 67.2113 260.994 66.9908 261.06 66.785C261.145 66.5512 261.306 66.3531 261.518 66.223C261.873 66.0069 262.141 66.0934 262.132 66.1452C262.123 66.1971 261.925 66.2576 261.708 66.4738C261.602 66.6066 261.537 66.7679 261.522 66.9374C261.507 67.107 261.542 67.2772 261.624 67.4267C261.705 67.5763 261.828 67.6985 261.979 67.7781C262.129 67.8577 262.3 67.8912 262.469 67.8743C262.763 67.8138 262.919 67.6582 262.979 67.6927Z" fill="#FF1641"/>
<path d="M272.48 144.471C272.48 144.471 293.886 145.716 306.542 145.828C316.337 145.923 320.712 143.321 322.666 137.019C324.308 131.736 320.781 121.596 320.781 121.596C314.15 121.596 310.061 122.547 305.799 124.544L306.931 129.177L272.42 132.151L272.48 144.471Z" fill="#FFBE9D"/>
<path d="M314.124 134.123C313.196 132.916 312.111 131.837 310.899 130.915C309.599 130.12 308.198 129.503 306.732 129.083C307.194 129.016 307.664 129.058 308.107 129.204C309.195 129.461 310.226 129.915 311.15 130.544C312.076 131.174 312.876 131.972 313.51 132.895C313.994 133.604 314.176 134.097 314.124 134.123Z" fill="#FB6E88"/>
<path d="M264.648 124.509C264.648 124.509 258.025 126.1 253.158 129.35L258.345 143.407C260.074 148.024 265.357 150.324 269.584 147.903C276.094 144.177 278.394 133.318 278.394 133.318L285.543 102.299L273.691 94.8732L264.691 124.509" fill="#FFBE9D"/>
<path d="M273.647 94.8731L274.131 84.6717L271.477 74.2975C271.33 73.7269 271.261 73.0093 271.728 72.6635C271.959 72.486 272.245 72.3942 272.537 72.4036C272.828 72.4131 273.108 72.5232 273.327 72.7154C274.045 73.4589 277.503 82.5277 277.503 82.5277C277.503 82.5277 282.751 79.3809 283.684 79.2252C284.618 79.0696 285.785 81.8966 285.863 82.1127C285.897 82.7463 285.897 83.3812 285.863 84.0147C285.863 84.0147 289.105 84.1098 289.399 84.5507C289.635 85.4514 289.759 86.3776 289.771 87.3085C289.771 87.3085 291.145 87.7494 291.361 88.7869C291.577 89.8243 292.027 91.536 291.361 91.9164C290.696 92.2968 289.347 93.0403 289.347 93.0403C289.347 93.0403 288.802 98.3312 288.655 98.8153C288.508 99.2995 285.474 102.273 285.474 102.273L273.647 94.8731Z" fill="#FFBE9D"/>
<path d="M262.616 148.111C262.616 148.111 262.936 148.301 263.61 148.517C264.596 148.826 265.639 148.909 266.662 148.759C268.305 148.525 269.843 147.816 271.088 146.719C272.734 145.226 274.124 143.474 275.203 141.532C275.839 140.39 276.374 139.195 276.803 137.961C277.252 136.603 277.625 135.22 277.918 133.82C278.592 130.907 279.327 127.768 280.105 124.431C281.661 117.766 283.408 110.314 285.292 102.282V102.222H285.336C285.932 101.634 286.529 101.037 287.125 100.415C287.419 100.104 287.713 99.7925 287.99 99.4726C288.128 99.3084 288.275 99.1441 288.387 98.9799C288.475 98.8172 288.525 98.637 288.534 98.4525C288.768 96.7235 288.949 94.9339 289.14 93.127V93.0146L289.243 92.9628L290.894 92.0377C291.016 91.9599 291.206 91.8735 291.284 91.8043C291.366 91.7296 291.421 91.629 291.439 91.519C291.479 91.2323 291.479 90.9413 291.439 90.6545C291.355 90.0205 291.225 89.3935 291.05 88.7785C290.756 88.2407 290.262 87.8401 289.676 87.6633L289.529 87.6114V87.4644C289.529 86.963 289.477 86.4443 289.416 85.9342C289.393 85.6787 289.355 85.4248 289.304 85.1734C289.284 85.0627 289.249 84.9551 289.2 84.8536C289.2 84.793 289.2 84.8536 289.148 84.8017C289.101 84.777 289.052 84.7568 289.001 84.7412C287.961 84.5146 286.901 84.3958 285.837 84.3867H285.612V84.1619C285.612 83.6259 285.612 83.0294 285.612 82.4329C285.577 82.2294 285.506 82.0335 285.405 81.8537C285.318 81.6462 285.215 81.4473 285.111 81.2399C284.908 80.8394 284.671 80.4575 284.402 80.0987C284.28 79.9314 284.131 79.7854 283.961 79.6664C283.898 79.6134 283.821 79.5802 283.74 79.571C283.658 79.5618 283.576 79.5769 283.503 79.6146C283.085 79.7748 282.677 79.9625 282.284 80.1765C280.676 81.041 279.102 81.9055 277.564 82.8392L277.339 82.9775L277.244 82.7355C276.431 80.6866 275.618 78.6636 274.823 76.6838C274.425 75.6896 274.036 74.6954 273.639 73.7185C273.577 73.4997 273.456 73.3025 273.287 73.1496C273.119 72.9967 272.911 72.8943 272.688 72.854C272.481 72.7854 272.257 72.7891 272.053 72.8645C271.849 72.94 271.676 73.0826 271.564 73.269C271.456 73.4544 271.411 73.6696 271.434 73.8828C271.434 74.073 271.555 74.3669 271.607 74.6003C271.745 75.1017 271.875 75.5945 272.005 76.0873C272.264 77.0815 272.515 78.0584 272.774 79.0267C273.281 80.9747 273.78 82.8767 274.27 84.7325V84.793C274.097 88.3433 273.933 91.7438 273.777 94.9944V94.9771L265.901 120.602L263.679 127.734C263.42 128.538 263.221 129.169 263.083 129.61C262.944 130.051 262.858 130.241 262.858 130.241C262.858 130.241 262.901 130.016 263.022 129.593L263.567 127.699C264.068 126.031 264.786 123.619 265.694 120.541C267.561 114.351 270.215 105.516 273.422 94.8647V94.908C273.572 91.6689 273.725 88.2684 273.881 84.7066V84.7671C273.388 82.9084 272.878 81.0064 272.368 79.0699L271.59 76.1305C271.46 75.6377 271.33 75.1363 271.192 74.6436C271.118 74.3847 271.057 74.1221 271.01 73.8568C270.979 73.5567 271.042 73.2542 271.192 72.9923C271.352 72.7226 271.599 72.5154 271.892 72.4044C272.182 72.3195 272.49 72.3099 272.784 72.3764C273.079 72.443 273.352 72.5835 273.578 72.7848C273.795 72.9884 273.956 73.2445 274.045 73.5283L275.229 76.4936C276.033 78.482 276.837 80.505 277.659 82.5453L277.339 82.4329C278.886 81.5165 280.442 80.6001 282.085 79.7442C282.5 79.5272 282.927 79.3338 283.365 79.165C283.501 79.1082 283.65 79.0874 283.797 79.1045C283.945 79.1259 284.086 79.1789 284.212 79.2601C284.42 79.4095 284.604 79.5903 284.756 79.7961C285.045 80.1744 285.297 80.5797 285.509 81.0064C285.621 81.2226 285.725 81.4301 285.82 81.6462C285.943 81.8751 286.025 82.1238 286.062 82.381C286.062 82.9948 286.062 83.5654 286.062 84.1101L285.846 83.8767C286.957 83.8841 288.064 84.0116 289.148 84.257C289.223 84.283 289.295 84.3148 289.364 84.3521C289.459 84.4039 289.537 84.4819 289.589 84.5769C289.656 84.7172 289.706 84.8653 289.736 85.0178C289.788 85.2945 289.822 85.5538 289.857 85.8218C289.909 86.3492 289.944 86.8679 289.969 87.3866L289.814 87.1791C290.167 87.2828 290.496 87.4574 290.78 87.6923C291.064 87.9271 291.297 88.2173 291.465 88.5451C291.655 89.202 291.793 89.8726 291.88 90.5508C291.94 90.8969 291.94 91.2507 291.88 91.5968C291.842 91.8065 291.732 91.9962 291.569 92.1328C291.427 92.2278 291.28 92.3144 291.128 92.3922L289.485 93.2481L289.598 93.0838C289.399 94.8907 289.217 96.6629 288.975 98.4179L288.923 98.7551C288.903 98.8916 288.847 99.0201 288.759 99.1268C288.632 99.3161 288.49 99.4953 288.336 99.6628C288.042 99.9913 287.748 100.311 287.471 100.622C286.874 101.245 286.278 101.841 285.673 102.429L285.733 102.326C283.831 110.348 282.068 117.801 280.486 124.466C279.699 127.794 278.947 130.933 278.255 133.837C277.959 135.248 277.578 136.64 277.114 138.004C276.669 139.25 276.12 140.456 275.471 141.609C274.367 143.576 272.944 145.347 271.261 146.848C269.979 147.952 268.401 148.656 266.722 148.871C265.678 149.012 264.615 148.905 263.619 148.56C263.365 148.467 263.12 148.354 262.884 148.223L262.616 148.111Z" fill="#FB6E88"/>
<path d="M285.871 84.0406C285.871 84.1011 285.577 84.1357 285.119 84.153C284.537 84.164 283.958 84.2336 283.39 84.3605C282.842 84.4952 282.337 84.7657 281.92 85.1472C281.609 85.4411 281.471 85.6918 281.402 85.6659C281.333 85.6399 281.402 85.3287 281.687 84.931C282.09 84.4276 282.65 84.0744 283.278 83.9282C283.883 83.7791 284.511 83.7497 285.128 83.8417C285.595 83.9023 285.871 83.9801 285.871 84.0406Z" fill="#FB6E88"/>
<path d="M283.365 84.136C283.252 84.0928 283.244 83.8248 283.365 83.5395C283.486 83.2542 283.659 83.0553 283.771 83.0986C283.883 83.1418 283.901 83.4098 283.771 83.6951C283.641 83.9804 283.451 84.1792 283.365 84.136Z" fill="#FB6E88"/>
<path d="M289.918 87.274C289.078 87.5336 288.202 87.6534 287.324 87.6284C287.048 87.6192 286.773 87.6764 286.523 87.7952C286.274 87.9141 286.056 88.0911 285.889 88.3114C285.664 88.6658 285.742 88.9598 285.673 88.9771C285.604 88.9944 285.396 88.6918 285.612 88.1731C285.731 87.881 285.948 87.6395 286.226 87.4901C286.546 87.3145 286.9 87.2084 287.264 87.1789C288.146 87.0437 289.047 87.076 289.918 87.274Z" fill="#FB6E88"/>
<path d="M289.347 90.3863C289.468 90.3863 289.537 91.0261 289.503 91.8128C289.468 92.5995 289.338 93.222 289.217 93.222C289.096 93.222 289.019 92.5736 289.053 91.7868C289.088 91.0001 289.217 90.3777 289.347 90.3863Z" fill="#FB6E88"/>
<path d="M292.935 113.668L293.704 111.023C293.739 110.902 293.806 110.792 293.896 110.704C293.987 110.616 294.099 110.553 294.221 110.522C294.343 110.491 294.471 110.492 294.593 110.525C294.714 110.558 294.825 110.622 294.915 110.711L295.926 111.74L296.549 109.242C296.585 109.097 296.665 108.968 296.778 108.87C296.891 108.773 297.031 108.713 297.179 108.698C297.327 108.683 297.476 108.714 297.606 108.786C297.736 108.859 297.841 108.969 297.906 109.103L299.315 112.06L292.935 113.668Z" fill="white"/>
<path d="M299.332 113.192C298.365 113.66 297.338 113.991 296.28 114.178C295.257 114.512 294.192 114.698 293.116 114.731C295.107 113.932 297.199 113.414 299.332 113.192Z" fill="white"/>
<path d="M247.919 98.4349C247.919 98.4349 247.599 98.7635 247.15 99.4637C246.546 100.461 246.149 101.569 245.983 102.723C245.736 104.441 245.684 106.181 245.827 107.91C245.922 109.873 246.078 112.017 246.32 114.264C246.729 118.103 247.338 121.918 248.144 125.693C248.446 127.146 248.723 128.287 248.913 129.151C249 129.515 249.078 129.817 249.138 130.076C249.199 130.336 249.207 130.405 249.207 130.405C249.207 130.405 249.164 130.301 249.103 130.094C249.043 129.886 248.948 129.523 248.853 129.169C248.637 128.365 248.343 127.206 247.988 125.754C247.148 121.98 246.522 118.161 246.112 114.316C245.87 112.068 245.723 109.916 245.637 107.953C245.506 106.223 245.569 104.483 245.827 102.766C246.013 101.597 246.436 100.479 247.072 99.481C247.306 99.0958 247.591 98.744 247.919 98.4349Z" fill="white"/>
<path d="M266.117 86.6604L265.918 86.7642L265.347 87.0408C264.855 87.2742 264.137 87.62 263.281 88.0955C261.05 89.3399 258.883 90.696 256.789 92.1588C254.316 93.8878 252.129 95.4613 250.53 96.6024L248.636 97.9424L248.109 98.2969C248.05 98.3439 247.986 98.3845 247.919 98.4179C247.968 98.3599 248.026 98.3102 248.092 98.271L248.593 97.8906L250.452 96.4987C252.034 95.3316 254.212 93.7063 256.685 92.0118C258.783 90.5428 260.966 89.1976 263.221 87.9832C264.085 87.525 264.811 87.1964 265.322 86.9803L265.901 86.7382C266.074 86.6777 266.074 86.6518 266.117 86.6604Z" fill="white"/>
<path d="M307.346 92.2882C307.292 92.2582 307.242 92.2203 307.199 92.1758L306.81 91.8387C306.328 91.4319 305.823 91.0538 305.297 90.7061C303.542 89.5872 301.68 88.6459 299.738 87.8964C297.803 87.1297 295.826 86.4716 293.816 85.9253C293.038 85.7092 292.416 85.5536 291.975 85.4498L291.482 85.3202C291.422 85.3078 291.364 85.2874 291.309 85.2596H291.491L291.992 85.3547C292.433 85.4412 293.064 85.5795 293.842 85.7784C295.871 86.2904 297.863 86.9344 299.808 87.7062C301.76 88.4555 303.625 89.4181 305.366 90.5765C306.091 91.0672 306.756 91.6418 307.346 92.2882Z" fill="white"/>
<path d="M266.359 158.277C266.242 158.256 266.128 158.218 266.022 158.165C265.722 158.033 265.433 157.877 265.158 157.698C264.692 157.419 264.286 157.051 263.962 156.615C263.639 156.178 263.405 155.683 263.273 155.156C263.036 154.093 263.154 152.981 263.61 151.992C263.742 151.685 263.91 151.394 264.112 151.128C264.25 150.946 264.345 150.859 264.354 150.868C264.118 151.237 263.907 151.621 263.723 152.018C263.321 152.989 263.227 154.061 263.455 155.087C263.702 156.1 264.319 156.985 265.184 157.568C265.901 158.087 266.377 158.243 266.359 158.277Z" fill="white"/>
<path d="M263.61 148.914C263.794 149.258 263.93 149.624 264.016 150.004C264.151 150.367 264.233 150.749 264.258 151.136C264.062 150.801 263.922 150.436 263.843 150.056C263.702 149.691 263.623 149.305 263.61 148.914Z" fill="white"/>
<path d="M275.299 342.749L301.667 342.62L301.191 251.456L300.94 158.718L265.21 158.26L258.786 170.363C256.158 175.229 254.483 180.552 253.85 186.046C253.418 190.247 256.564 203.907 257.654 207.365L267.483 238.54L275.299 342.749Z" fill="#263238"/>
<path d="M308.678 158.831L337.656 237.822C339.373 242.912 339.943 248.318 339.326 253.653C338.709 258.989 336.919 264.122 334.086 268.685L300.439 334.389L281.523 310.719L309.672 251.931L284.86 211.688L289.036 158.952L300.724 158.761L308.678 158.831Z" fill="#263238"/>
<path d="M298.537 185.293C298.537 185.293 298.537 185.432 298.537 185.7C298.537 185.968 298.58 186.383 298.615 186.893C298.675 187.956 298.753 189.486 298.857 191.466C299.056 195.469 299.332 201.218 299.722 208.316C300.111 215.413 300.439 223.877 300.871 233.3C301.079 238.003 301.304 242.94 301.528 248.058C301.693 250.651 301.623 253.245 301.649 255.838C301.675 258.432 301.649 261.164 301.649 263.879C301.649 285.604 301.719 305.272 301.745 319.528C301.745 326.634 301.745 332.392 301.745 336.395C301.745 338.374 301.745 339.913 301.745 340.985C301.745 341.487 301.745 341.85 301.745 342.178C301.745 342.507 301.745 342.585 301.745 342.585C301.745 342.585 301.745 342.446 301.745 342.178V340.985C301.745 339.913 301.745 338.392 301.693 336.395C301.693 332.392 301.623 326.643 301.572 319.536C301.511 305.281 301.433 285.613 301.347 263.887C301.347 261.173 301.347 258.493 301.347 255.847C301.347 253.202 301.399 250.591 301.234 248.066C301.018 242.957 300.802 238.021 300.603 233.318C300.206 223.912 299.843 215.448 299.549 208.324C299.255 201.201 299.039 195.478 298.874 191.475C298.805 189.504 298.753 187.965 298.719 186.893C298.719 186.383 298.719 186.028 298.719 185.7C298.719 185.371 298.537 185.293 298.537 185.293Z" fill="#455A64"/>
<path d="M297.871 160.387C297.972 160.665 298.033 160.956 298.053 161.251C298.148 161.804 298.252 162.608 298.373 163.611C298.597 165.608 298.839 168.383 298.978 171.452C299.116 174.522 299.125 177.305 299.081 179.32C299.081 180.322 299.021 181.144 298.978 181.706C298.987 181.997 298.952 182.289 298.874 182.57C298.765 181.49 298.728 180.404 298.762 179.32C298.762 177.305 298.667 174.539 298.528 171.47C298.39 168.401 298.2 165.643 298.053 163.689C297.93 162.593 297.869 161.49 297.871 160.387Z" fill="#455A64"/>
<path d="M292.062 162.168C292.105 162.228 291.612 162.453 291.474 163.153C291.435 163.343 291.446 163.54 291.505 163.725C291.564 163.909 291.669 164.076 291.811 164.208C291.982 164.367 292.195 164.473 292.425 164.515C292.655 164.556 292.892 164.531 293.108 164.441C293.315 164.335 293.488 164.172 293.607 163.972C293.726 163.771 293.787 163.542 293.782 163.309C293.774 163.115 293.717 162.927 293.615 162.762C293.514 162.597 293.372 162.461 293.203 162.366C292.851 162.196 292.459 162.127 292.07 162.168C292.07 162.168 292.157 162.055 292.382 161.986C292.706 161.907 293.047 161.94 293.35 162.081C293.591 162.182 293.8 162.347 293.953 162.559C294.105 162.772 294.196 163.022 294.214 163.283C294.249 163.605 294.181 163.929 294.021 164.211C293.862 164.492 293.617 164.717 293.323 164.852C293.03 164.988 292.7 165.028 292.383 164.966C292.065 164.905 291.774 164.746 291.552 164.51C291.368 164.328 291.238 164.098 291.175 163.847C291.113 163.595 291.12 163.331 291.197 163.084C291.284 162.76 291.479 162.477 291.751 162.28C291.923 162.159 292.053 162.142 292.062 162.168Z" fill="#455A64"/>
<path d="M278.23 160.603C278.357 160.875 278.436 161.168 278.463 161.467C278.602 162.243 278.628 163.035 278.541 163.819C278.416 164.985 278.079 166.119 277.547 167.165C276.903 168.465 275.95 169.587 274.771 170.432C273.592 171.278 272.224 171.821 270.786 172.014C269.635 172.186 268.463 172.142 267.328 171.885C266.56 171.718 265.821 171.442 265.132 171.063C264.872 170.94 264.632 170.777 264.423 170.579C265.379 171.009 266.375 171.342 267.397 171.574C268.627 171.829 269.896 171.827 271.125 171.568C272.353 171.308 273.515 170.797 274.536 170.065C275.557 169.334 276.416 168.399 277.057 167.32C277.699 166.24 278.11 165.039 278.264 163.793C278.366 162.731 278.354 161.662 278.23 160.603Z" fill="#455A64"/>
<path d="M312.153 168.176C311.589 168.241 311.018 168.173 310.485 167.977C309.179 167.566 308.006 166.814 307.087 165.799C306.16 164.788 305.524 163.545 305.246 162.202C305.11 161.654 305.11 161.082 305.246 160.534C305.324 160.534 305.332 161.165 305.592 162.133C305.942 163.384 306.579 164.536 307.453 165.498C308.326 166.46 309.412 167.205 310.623 167.675C311.522 168.029 312.162 168.09 312.153 168.176Z" fill="#455A64"/>
<path d="M322.45 253.331C322.016 253.826 321.498 254.238 320.92 254.55C320.312 254.935 319.651 255.227 318.957 255.415C318.084 255.646 317.163 255.622 316.303 255.346C314.793 254.776 313.499 253.748 312.603 252.406C312.191 251.902 311.851 251.343 311.591 250.746C312.058 251.192 312.481 251.681 312.854 252.208C313.772 253.425 315.011 254.362 316.433 254.913C317.158 255.107 317.916 255.151 318.659 255.043C319.402 254.934 320.115 254.675 320.755 254.282C321.301 253.933 321.867 253.616 322.45 253.331Z" fill="#455A64"/>
<path d="M315.844 258.371C314.823 257.313 313.91 256.155 313.121 254.913C312.212 253.758 311.419 252.515 310.752 251.205C311.781 252.259 312.697 253.418 313.484 254.663C314.401 255.811 315.192 257.055 315.844 258.371Z" fill="#455A64"/>
<path d="M271.546 188.346C271.425 188.389 271.123 187.896 270.855 187.23C270.587 186.565 270.474 186.003 270.587 185.951C270.699 185.899 271.01 186.4 271.27 187.066C271.529 187.732 271.659 188.346 271.546 188.346Z" fill="#FAFAFA"/>
<path d="M288.284 190.749C288.154 190.749 288.059 190.325 288.059 189.798C288.059 189.27 288.154 188.838 288.284 188.838C288.414 188.838 288.509 189.27 288.509 189.798C288.509 190.325 288.405 190.749 288.284 190.749Z" fill="#FAFAFA"/>
<path d="M281.402 199.844C281.281 199.844 281.143 199.325 281.099 198.659C281.056 197.994 281.099 197.458 281.238 197.449C281.376 197.44 281.506 197.968 281.549 198.633C281.592 199.299 281.523 199.835 281.402 199.844Z" fill="#FAFAFA"/>
<path d="M268.832 206.5C268.728 206.578 268.374 206.258 267.907 205.93C267.44 205.601 267.042 205.35 267.042 205.229C267.042 205.108 267.613 205.178 268.14 205.558C268.668 205.938 268.936 206.5 268.832 206.5Z" fill="#FAFAFA"/>
<path d="M290.99 214.981C290.886 214.912 290.99 214.54 291.284 214.117C291.577 213.693 291.845 213.451 291.949 213.52C292.053 213.589 291.949 213.97 291.655 214.385C291.361 214.8 291.093 215.05 290.99 214.981Z" fill="#FAFAFA"/>
<path d="M277.313 217.376C277.192 217.376 277.088 216.658 277.088 215.785C277.088 214.912 277.192 214.186 277.313 214.186C277.434 214.186 277.537 214.903 277.537 215.785C277.537 216.667 277.408 217.376 277.313 217.376Z" fill="#FAFAFA"/>
<path d="M272.835 227.076C272.766 227.171 272.316 226.972 271.832 226.618C271.348 226.263 270.968 225.9 271.08 225.796C271.192 225.693 271.607 225.9 272.091 226.255C272.576 226.609 272.913 226.972 272.835 227.076Z" fill="#FAFAFA"/>
<path d="M286.684 230.448C286.736 230.56 286.459 230.794 286.062 230.975C285.664 231.157 285.301 231.2 285.249 231.087C285.197 230.975 285.482 230.742 285.88 230.56C286.278 230.379 286.641 230.335 286.684 230.448Z" fill="#FAFAFA"/>
<path d="M277.313 246.268C277.209 246.32 276.76 245.654 276.319 244.773C275.878 243.891 275.61 243.13 275.722 243.044C275.835 242.957 276.284 243.657 276.717 244.539C277.149 245.421 277.391 246.173 277.313 246.268Z" fill="#FAFAFA"/>
<path d="M292.589 244.799C292.477 244.738 292.676 244.159 293.021 243.493C293.367 242.827 293.756 242.343 293.886 242.404C294.016 242.464 293.799 243.044 293.445 243.709C293.091 244.375 292.693 244.859 292.589 244.799Z" fill="#FAFAFA"/>
<path d="M285.889 258.19C285.759 258.19 285.777 257.49 285.638 256.677C285.5 255.865 285.292 255.216 285.413 255.156C285.534 255.095 285.949 255.709 286.088 256.608C286.226 257.507 286.01 258.216 285.889 258.19Z" fill="#FAFAFA"/>
<path d="M278.714 265.841C278.627 265.928 278.195 265.599 277.754 265.115C277.313 264.631 277.028 264.173 277.123 264.086C277.218 264 277.642 264.328 278.082 264.812C278.523 265.297 278.809 265.755 278.714 265.841Z" fill="#FAFAFA"/>
<path d="M296.125 268.746C296.038 268.659 296.358 268.193 296.842 267.7C297.327 267.207 297.776 266.887 297.871 266.974C297.966 267.06 297.638 267.536 297.162 268.02C296.687 268.504 296.22 268.832 296.125 268.746Z" fill="#FAFAFA"/>
<path d="M286.114 280.201C285.993 280.201 285.993 279.518 286.114 278.722C286.235 277.927 286.425 277.305 286.555 277.322C286.684 277.339 286.676 277.996 286.555 278.792C286.434 279.587 286.235 280.218 286.114 280.201Z" fill="#FAFAFA"/>
<path d="M279.379 285.76C279.267 285.82 278.886 285.371 278.514 284.757C278.143 284.143 277.952 283.599 278.056 283.538C278.16 283.478 278.54 283.919 278.921 284.532C279.301 285.146 279.483 285.691 279.379 285.76Z" fill="#FAFAFA"/>
<path d="M295.606 292.771C295.684 292.875 295.243 293.316 294.621 293.757C293.998 294.198 293.454 294.474 293.376 294.37C293.298 294.267 293.748 293.826 294.362 293.385C294.975 292.944 295.537 292.676 295.606 292.771Z" fill="#FAFAFA"/>
<path d="M282.085 301.874C281.964 301.831 282.085 301.14 282.197 300.275C282.31 299.41 282.241 298.702 282.37 298.684C282.5 298.667 282.725 299.393 282.638 300.318C282.552 301.243 282.197 301.926 282.085 301.874Z" fill="#FAFAFA"/>
<path d="M287.488 314.946C287.384 315.024 287.021 314.73 286.667 314.289C286.312 313.848 286.114 313.425 286.209 313.347C286.304 313.269 286.667 313.563 287.021 314.004C287.376 314.445 287.583 314.868 287.488 314.946Z" fill="#FAFAFA"/>
<path d="M281.584 323.712C281.48 323.782 281.004 323.271 280.52 322.563C280.036 321.854 279.734 321.231 279.829 321.162C279.924 321.093 280.408 321.603 280.892 322.312C281.376 323.021 281.687 323.643 281.584 323.712Z" fill="#FAFAFA"/>
<path d="M297.845 312.707C297.733 312.664 297.741 312.344 297.845 311.998C297.949 311.652 298.182 311.393 298.303 311.436C298.424 311.479 298.407 311.799 298.303 312.154C298.2 312.508 297.966 312.759 297.845 312.707Z" fill="#FAFAFA"/>
<path d="M290.67 333.585C290.557 333.525 290.773 332.911 290.946 332.141C291.119 331.372 291.18 330.724 291.309 330.715C291.439 330.706 291.569 331.407 291.387 332.236C291.206 333.066 290.773 333.654 290.67 333.585Z" fill="#FAFAFA"/>
<path d="M295.338 199.982C295.226 200.034 294.949 199.688 294.725 199.204C294.5 198.72 294.405 198.287 294.517 198.235C294.629 198.184 294.906 198.529 295.131 199.013C295.356 199.498 295.468 199.93 295.338 199.982Z" fill="#FAFAFA"/>
<path d="M283.365 173.061C283.434 173.164 282.829 173.649 282.18 174.34C281.532 175.032 281.091 175.672 280.978 175.611C280.866 175.551 281.16 174.747 281.843 174.038C282.526 173.329 283.278 172.948 283.365 173.061Z" fill="#FAFAFA"/>
<path d="M294.024 172.784C293.894 172.784 293.696 172.291 293.393 171.703C293.09 171.115 292.814 170.631 292.909 170.545C293.004 170.458 293.471 170.839 293.773 171.496C294.076 172.153 294.137 172.715 294.024 172.784Z" fill="#FAFAFA"/>
<path d="M260.74 181.524C260.627 181.472 260.74 180.902 261.008 180.245C261.276 179.588 261.57 179.078 261.691 179.129C261.812 179.181 261.691 179.743 261.423 180.409C261.155 181.075 260.887 181.567 260.74 181.524Z" fill="#FAFAFA"/>
<path d="M261.82 194.578C261.734 194.674 261.241 194.397 260.714 193.956C260.187 193.515 259.849 193.092 259.901 192.988C259.953 192.884 260.48 193.169 261.008 193.61C261.535 194.051 261.898 194.483 261.82 194.578Z" fill="#FAFAFA"/>
<path d="M283.658 162.695C283.546 162.695 283.304 162.418 283.131 161.977C282.958 161.536 282.906 161.113 283.019 161.113C283.131 161.113 283.373 161.389 283.546 161.83C283.719 162.271 283.771 162.652 283.658 162.695Z" fill="#FAFAFA"/>
<path d="M304.571 169.075C304.45 169.075 304.459 168.531 304.571 167.917C304.684 167.303 304.908 166.819 305.029 166.845C305.15 166.871 305.142 167.398 305.029 168.012C304.917 168.626 304.692 169.101 304.571 169.075Z" fill="#FAFAFA"/>
<path d="M309.482 178.957C309.369 178.905 309.525 178.265 309.836 177.513C310.147 176.761 310.485 176.199 310.597 176.242C310.709 176.285 310.597 176.934 310.251 177.686C309.905 178.438 309.603 179 309.482 178.957Z" fill="#FAFAFA"/>
<path d="M305.98 186.928C305.868 186.98 305.453 186.383 305.055 185.596C304.658 184.81 304.433 184.109 304.545 184.057C304.658 184.006 305.064 184.602 305.462 185.389C305.859 186.176 306.093 186.867 305.98 186.928Z" fill="#FAFAFA"/>
<path d="M313.467 194.898C313.355 194.855 313.467 194.354 313.657 193.783C313.847 193.213 314.15 192.78 314.271 192.824C314.392 192.867 314.271 193.368 314.081 193.939C313.891 194.509 313.623 194.942 313.467 194.898Z" fill="#FAFAFA"/>
<path d="M306.776 202.705C306.672 202.774 306.404 202.541 306.188 202.195C305.972 201.849 305.868 201.504 305.98 201.434C306.093 201.365 306.343 201.599 306.568 201.953C306.793 202.308 306.879 202.645 306.776 202.705Z" fill="#FAFAFA"/>
<path d="M308.202 218.82C308.116 218.898 307.571 218.474 307 217.851C306.43 217.229 306.041 216.667 306.136 216.581C306.231 216.494 306.767 216.926 307.338 217.549C307.908 218.171 308.297 218.733 308.202 218.82Z" fill="#FAFAFA"/>
<path d="M316.977 209.561C316.882 209.639 316.407 209.206 315.923 208.584C315.439 207.962 315.127 207.408 315.222 207.33C315.318 207.253 315.793 207.694 316.277 208.307C316.761 208.921 317.081 209.492 316.977 209.561Z" fill="#FAFAFA"/>
<path d="M321.792 222.33C321.68 222.278 321.879 221.63 322.233 220.886C322.588 220.143 322.959 219.572 323.098 219.624C323.236 219.676 323.02 220.333 322.666 221.076C322.311 221.82 321.905 222.39 321.792 222.33Z" fill="#FAFAFA"/>
<path d="M311.556 232.842C311.444 232.903 311.046 232.427 310.493 231.917C309.94 231.407 309.43 231.053 309.481 230.923C309.533 230.793 310.19 231.027 310.796 231.589C311.401 232.151 311.66 232.782 311.556 232.842Z" fill="#FAFAFA"/>
<path d="M312.196 243.675C312.196 243.796 311.764 243.9 311.237 243.9C310.709 243.9 310.286 243.796 310.286 243.675C310.286 243.554 310.709 243.45 311.237 243.45C311.764 243.45 312.196 243.554 312.196 243.675Z" fill="#FAFAFA"/>
<path d="M322.718 240.649C322.605 240.588 322.83 240.044 322.994 239.369C323.158 238.695 323.228 238.107 323.357 238.098C323.487 238.09 323.625 238.721 323.435 239.473C323.245 240.225 322.813 240.718 322.718 240.649Z" fill="#FAFAFA"/>
<path d="M333.169 244.289C333.057 244.332 332.737 243.718 332.461 242.931C332.184 242.145 332.054 241.47 332.167 241.436C332.279 241.401 332.608 241.998 332.884 242.784C333.161 243.571 333.29 244.245 333.169 244.289Z" fill="#FAFAFA"/>
<path d="M331.501 259.158C331.397 259.098 331.665 258.372 332.098 257.533C332.53 256.694 332.962 256.063 333.092 256.124C333.221 256.184 332.936 256.911 332.495 257.741C332.054 258.57 331.613 259.236 331.501 259.158Z" fill="#FAFAFA"/>
<path d="M321.965 267.881C321.853 267.925 321.498 267.328 321.17 266.541C320.841 265.755 320.677 265.08 320.798 265.028C320.919 264.977 321.265 265.582 321.585 266.368C321.905 267.155 322.078 267.881 321.965 267.881Z" fill="#FAFAFA"/>
<path d="M311.401 271.262C311.401 271.383 311.038 271.486 310.597 271.486C310.156 271.486 309.802 271.383 309.802 271.262C309.802 271.141 310.165 271.037 310.597 271.037C311.029 271.037 311.401 271.141 311.401 271.262Z" fill="#FAFAFA"/>
<path d="M317.453 285.172C317.34 285.172 317.098 284.696 316.917 284.039C316.735 283.382 316.701 282.812 316.822 282.786C316.943 282.76 317.176 283.261 317.358 283.918C317.539 284.575 317.574 285.103 317.453 285.172Z" fill="#FAFAFA"/>
<path d="M309.802 280.503C309.698 280.443 309.802 280.037 310.087 279.596C310.372 279.155 310.657 278.852 310.761 278.913C310.865 278.973 310.761 279.388 310.476 279.829C310.191 280.27 309.914 280.573 309.802 280.503Z" fill="#FAFAFA"/>
<path d="M309.646 295.814C309.525 295.814 309.352 295.235 309.266 294.483C309.179 293.731 309.205 293.117 309.326 293.1C309.447 293.082 309.62 293.679 309.706 294.431C309.793 295.183 309.767 295.797 309.646 295.814Z" fill="#FAFAFA"/>
</svg>
