<svg width="60" height="60" viewBox="0 0 60 60" fill="none" xmlns="http://www.w3.org/2000/svg">
<path d="M55.1712 31.7518C55.0851 31.5907 54.9568 31.456 54.8001 31.3622C54.6434 31.2683 54.4642 31.2188 54.2814 31.2188H53.2264V29.557C53.2228 25.5126 50.8047 21.8611 47.0825 20.2794C50.2561 18.1085 51.0689 13.7759 48.8981 10.6022C46.7271 7.42867 42.3945 6.61582 39.2209 8.78667C36.0473 10.9577 35.2344 15.2903 37.4052 18.4639C37.8927 19.1764 38.5084 19.7921 39.2209 20.2794C35.4987 21.8612 33.0805 25.5126 33.0769 29.557V31.217H31.2808C31.0134 31.217 30.7569 31.3233 30.5678 31.5124C30.3787 31.7015 30.2724 31.958 30.2724 32.2255C30.2724 32.4929 30.3787 32.7494 30.5678 32.9385C30.7569 33.1276 31.0134 33.2338 31.2808 33.2338H52.3949L40.1099 51.6161H33.2526V49.1468C33.2467 43.7821 29.9075 38.9859 24.8781 37.1189C29.0511 34.6628 30.4431 29.2887 27.987 25.1157C25.5308 20.9427 20.1568 19.5508 15.9838 22.0069C11.8107 24.4631 10.4188 29.837 12.875 34.0101C13.6304 35.2936 14.7003 36.3635 15.9838 37.1189C10.9536 38.9855 7.61333 43.7816 7.6069 49.1468V51.6161H5.21017C4.94274 51.6161 4.68624 51.7223 4.49713 51.9114C4.30802 52.1005 4.20178 52.357 4.20178 52.6244C4.20178 52.8919 4.30802 53.1484 4.49713 53.3375C4.68624 53.5266 4.94274 53.6329 5.21017 53.6329H40.6492C40.8151 53.6328 40.9784 53.5918 41.1246 53.5136C41.2709 53.4354 41.3956 53.3224 41.4877 53.1846L55.1199 32.7856C55.2211 32.634 55.2793 32.4578 55.2882 32.2758C55.2973 32.0937 55.2568 31.9127 55.1712 31.7518ZM38.2065 14.559C38.1941 11.8277 40.3982 9.60361 43.1293 9.59123C45.8605 9.57886 48.0846 11.7829 48.097 14.514C48.1093 17.2452 45.9053 19.4693 43.1742 19.4817H43.1518C40.4281 19.485 38.2158 17.2828 38.2065 14.559ZM51.2095 31.217H35.0937V29.557C35.0559 25.1067 38.6331 21.4684 43.0834 21.4306C47.5337 21.393 51.1719 24.9701 51.2096 29.4203C51.2101 29.4659 51.2101 29.5114 51.2096 29.557L51.2095 31.217ZM13.6804 29.6036C13.663 25.8754 16.671 22.8388 20.3992 22.8212C24.1276 22.8036 27.1641 25.8119 27.1817 29.5402C27.1991 33.2684 24.191 36.3049 20.4627 36.3225L20.4283 36.3226C16.7115 36.3257 13.6932 33.3204 13.6804 29.6036ZM31.238 51.6161H9.62368V49.1468C9.58024 43.1781 14.3835 38.3044 20.3521 38.2608C26.3208 38.2172 31.1945 43.0206 31.2381 48.9893C31.2385 49.0417 31.2385 49.0944 31.2381 49.1468L31.238 51.6161Z" fill="#FF1641"/>
<path d="M26.1619 14.8268L30.0516 16.8316C30.2053 16.9105 30.3767 16.9485 30.5494 16.942C30.722 16.9356 30.8901 16.8851 31.0375 16.7951C31.185 16.7051 31.3069 16.5788 31.3916 16.4281C31.4762 16.2775 31.5208 16.1077 31.5209 15.935V9.42858C31.5209 7.20079 29.7151 5.39489 27.4873 5.39489H18.6995C16.4717 5.39489 14.6658 7.20079 14.6658 9.42858V10.7949C14.6675 13.0219 16.4725 14.827 18.6995 14.8285L26.1619 14.8268ZM16.6827 10.7949V9.42858C16.6827 8.31474 17.5857 7.41167 18.6997 7.41167H27.4891C28.603 7.41167 29.5061 8.31462 29.5061 9.42858V14.2805L26.8709 12.9218C26.7282 12.8486 26.5702 12.8103 26.4099 12.8101H18.6997C17.5864 12.8101 16.6837 11.9081 16.6827 10.7949Z" fill="#FF1641"/>
</svg>
