<svg width="60" height="60" viewBox="0 0 60 60" fill="none" xmlns="http://www.w3.org/2000/svg">
<g clip-path="url(#clip0_1_8)">
<path d="M36.83 22.1038L32.7679 21.514L30.9511 17.8321C30.8677 17.6632 30.7388 17.521 30.5788 17.4217C30.4189 17.3222 30.2343 17.2695 30.046 17.2695C29.8576 17.2695 29.6731 17.3222 29.5131 17.4217C29.3532 17.521 29.2243 17.6632 29.1409 17.8321L27.324 21.514L23.2608 22.1038C23.0744 22.1308 22.8991 22.2093 22.755 22.3305C22.6108 22.4519 22.5035 22.6111 22.4452 22.7902C22.3868 22.9694 22.3797 23.1613 22.4248 23.3443C22.4699 23.5272 22.5652 23.6939 22.7001 23.8254L25.6396 26.6908L24.9453 30.7371C24.9205 30.882 24.9277 31.0305 24.9662 31.1724C25.0047 31.3142 25.0738 31.4459 25.1686 31.5583C25.2634 31.6706 25.3814 31.7609 25.5147 31.8229C25.648 31.8849 25.7932 31.917 25.9402 31.917C26.1042 31.9157 26.2656 31.8746 26.4101 31.7969L30.0438 29.8904L33.6775 31.7969C33.844 31.8851 34.0318 31.925 34.2198 31.912C34.4077 31.8991 34.5882 31.8338 34.7411 31.7235C34.8938 31.6132 35.0126 31.4624 35.0842 31.288C35.1556 31.1138 35.1769 30.923 35.1456 30.7371L34.4513 26.6908L37.3908 23.8254C37.5499 23.6702 37.6532 23.4669 37.685 23.247C37.7644 22.6951 37.3817 22.1834 36.83 22.1038ZM32.6602 25.6074C32.5425 25.7219 32.4544 25.8636 32.4038 26.02C32.3532 26.1764 32.3415 26.3427 32.3698 26.5046L32.8072 29.0583L30.5138 27.8526C30.3682 27.7776 30.2066 27.7391 30.0428 27.7405C29.8791 27.7418 29.7181 27.783 29.5739 27.8604L27.2804 29.0661L27.719 26.5124C27.7472 26.3505 27.7356 26.1842 27.6849 26.0278C27.6344 25.8715 27.5464 25.7298 27.4285 25.6152L25.5735 23.8063L28.1372 23.434C28.2992 23.4104 28.4531 23.348 28.5855 23.2519C28.718 23.1558 28.8251 23.0289 28.8976 22.8822L30.0438 20.5584L31.19 22.8822C31.2625 23.0289 31.3696 23.1558 31.5021 23.2519C31.6346 23.348 31.7885 23.4105 31.9504 23.434L34.5153 23.7995L32.6602 25.6074Z" fill="#FF1641"/>
<path d="M30.0438 11.6818C22.7896 11.6818 16.9089 17.5625 16.9089 24.8167C16.9089 32.0709 22.7896 37.9516 30.0438 37.9516C37.2947 37.9435 43.1708 32.0675 43.1787 24.8167C43.1787 17.5625 37.298 11.6818 30.0438 11.6818ZM30.0438 35.9329C23.9045 35.9329 18.9276 30.956 18.9276 24.8167C18.9276 18.6774 23.9045 13.7005 30.0438 13.7005C36.1803 13.7073 41.1532 18.6802 41.16 24.8167C41.16 30.9561 36.1831 35.9329 30.0438 35.9329Z" fill="#FF1641"/>
<path d="M48.5305 27.5386L46.6419 28.253C46.9358 29.0301 47.3014 29.9969 47.1758 30.3838C47.0344 30.819 46.1788 31.3764 45.4228 31.8686C44.5256 32.4541 43.505 33.118 42.8041 34.0825C42.1031 35.0469 41.7723 36.2413 41.4885 37.2843C41.2643 38.1042 40.9884 39.1247 40.6306 39.3849C40.2728 39.6451 39.2366 39.5879 38.3877 39.5476C37.3032 39.4959 36.074 39.4354 34.9177 39.8144C33.7963 40.1778 32.8644 40.9359 32.039 41.6009C31.3312 42.173 30.5282 42.8212 30.045 42.8212C29.5617 42.8212 28.7586 42.173 28.0498 41.5988C27.2244 40.9315 26.2891 40.1756 25.1721 39.8134C24.5329 39.6059 23.8162 39.5095 22.9158 39.5095C22.4997 39.5095 22.0925 39.5285 21.7001 39.5477C20.8579 39.588 19.8103 39.6374 19.4638 39.385C19.1173 39.1328 18.8291 38.1021 18.6048 37.2822C18.3211 36.238 18.0003 35.056 17.2904 34.0803C16.5804 33.1046 15.57 32.4529 14.6705 31.8664C13.9158 31.3742 13.0601 30.8168 12.9187 30.3817C12.7931 29.997 13.1598 29.0292 13.4537 28.2508C13.8429 27.2224 14.2825 26.0571 14.2825 24.8168C14.2825 23.5764 13.8417 22.4112 13.4526 21.3828C13.1587 20.6056 12.7931 19.6377 12.9176 19.2519C13.0589 18.8168 13.9145 18.2593 14.6705 17.766C15.5677 17.1805 16.5871 16.5165 17.2892 15.5532C17.9913 14.5898 18.3209 13.3944 18.6048 12.3514C18.8291 11.5315 19.1049 10.511 19.4627 10.2508C19.8205 9.99065 20.8568 10.0478 21.7001 10.0881C22.7845 10.1397 24.0149 10.2003 25.1767 9.82128C26.2982 9.45793 27.229 8.6998 28.0556 8.03473C28.7577 7.46055 29.5607 6.81337 30.0439 6.81337C30.5272 6.81337 31.3303 7.46044 32.0379 8.03462C32.8633 8.70185 33.7986 9.45781 34.9167 9.82117C36.0741 10.1968 37.3044 10.1385 38.3934 10.088C39.2356 10.0487 40.2831 9.99942 40.6296 10.2507C40.9761 10.502 41.2588 11.5303 41.4831 12.3513C41.7668 13.3954 42.0875 14.5774 42.7975 15.5531C43.5074 16.5288 44.5179 17.1816 45.4174 17.767C46.1722 18.2592 47.0278 18.8166 47.1703 19.2518C47.2959 19.6376 46.9292 20.6053 46.6353 21.3826C46.2461 22.411 45.8054 23.5774 45.8054 24.8167C45.8054 26.0559 46.2462 27.2223 46.6353 28.2507L47.5796 27.894L48.5238 27.5374C48.1637 26.5864 47.824 25.6881 47.824 24.8167C47.824 23.9452 48.1604 23.047 48.5227 22.0959C48.9903 20.8622 49.4333 19.688 49.0889 18.6282C48.7268 17.5146 47.6041 16.7834 46.5186 16.0758C45.7336 15.561 44.9125 15.0294 44.4293 14.3655C43.9459 13.7016 43.6801 12.7405 43.43 11.822C43.0766 10.5233 42.7437 9.2963 41.8117 8.61894C40.8798 7.94156 39.6292 8.00888 38.2925 8.07163C37.3358 8.11652 36.3456 8.16355 35.5392 7.90113C34.7766 7.65328 34.0285 7.0488 33.3063 6.46448C32.2867 5.64371 31.2415 4.79469 30.0438 4.79469C28.8462 4.79469 27.8009 5.64371 26.7803 6.46573C26.058 7.05005 25.3101 7.65339 24.5474 7.90124C23.741 8.16253 22.7944 8.11879 21.7941 8.07175C20.4573 8.00898 19.1946 7.94953 18.2738 8.61905C17.353 9.28856 17.0088 10.5255 16.6555 11.8231C16.4053 12.7416 16.1475 13.6915 15.6562 14.3666C15.165 15.0417 14.3575 15.5622 13.5669 16.0769C12.4813 16.7845 11.3587 17.5158 10.9965 18.6294C10.6522 19.6892 11.0951 20.859 11.5628 22.0982C11.9217 23.0492 12.2615 23.9475 12.2615 24.8178C12.2615 25.6881 11.925 26.5863 11.5628 27.5386C11.0951 28.7723 10.6522 29.9475 10.9965 31.0062C11.3587 32.121 12.4813 32.8522 13.5669 33.5598C14.3519 34.0746 15.1729 34.6061 15.6551 35.2701C16.1373 35.934 16.4042 36.8951 16.6543 37.8136C16.8696 38.6076 17.0794 39.3748 17.4226 40.0061L13.3337 50.463C13.2702 50.6254 13.25 50.8016 13.2749 50.9742C13.2998 51.1468 13.369 51.31 13.4757 51.4478C13.5825 51.5858 13.7231 51.6937 13.884 51.761C14.0448 51.8284 14.2204 51.853 14.3935 51.8323L20.1131 51.1482L23.8489 55.5287C23.9624 55.6616 24.1085 55.7628 24.2729 55.8223C24.4373 55.8818 24.6143 55.8975 24.7866 55.868C24.9589 55.8384 25.1206 55.7647 25.2558 55.654C25.3911 55.5431 25.4952 55.3992 25.558 55.236L29.6346 44.8061C29.9061 44.8514 30.1831 44.8514 30.4545 44.8061L34.53 55.236C34.5936 55.3985 34.6982 55.5418 34.8336 55.6518C34.969 55.7618 35.1307 55.8348 35.3027 55.8637C35.4748 55.8927 35.6514 55.8765 35.8153 55.8168C35.9793 55.7572 36.125 55.656 36.2381 55.5232L39.9739 51.1427L45.6934 51.8267C45.866 51.8471 46.0409 51.8226 46.2013 51.7556C46.3616 51.6886 46.5019 51.5813 46.6086 51.4441C46.7154 51.307 46.7848 51.1446 46.8103 50.9727C46.8359 50.8008 46.8166 50.6252 46.7544 50.463L42.6639 40.004C43.007 39.3726 43.2157 38.6055 43.4322 37.8115C43.6811 36.8929 43.939 35.9431 44.4314 35.2679C44.9237 34.5928 45.7301 34.0724 46.5207 33.5577C47.6063 32.8501 48.73 32.1188 49.0911 31.0052C49.4354 29.9453 48.9936 28.7766 48.5305 27.5386ZM24.2871 52.9359L21.296 49.4267C21.188 49.3002 21.0504 49.2024 20.8954 49.1419C20.7404 49.0815 20.573 49.0603 20.4078 49.0802L15.8276 49.6286L19.0452 41.3991C19.8471 41.6549 20.7992 41.61 21.7929 41.5629C22.163 41.5449 22.5455 41.527 22.9144 41.527C23.5962 41.527 24.1154 41.5921 24.5473 41.7323C25.3099 41.9802 26.0568 42.5835 26.7802 43.169C27.1167 43.4393 27.4531 43.7118 27.7985 43.954L24.2871 52.9359ZM44.2598 49.6286L39.6807 49.0802C39.5155 49.0605 39.3479 49.0818 39.193 49.1425C39.038 49.2032 38.9004 49.3011 38.7925 49.4278L35.8003 52.937L32.2866 43.9561C32.6321 43.7117 32.9708 43.4391 33.3049 43.1711C34.0272 42.5867 34.7752 41.9835 35.5378 41.7356C36.3432 41.4743 37.2885 41.518 38.2922 41.5651C39.296 41.6122 40.238 41.6559 41.0399 41.4013L44.2598 49.6286Z" fill="#FF1641"/>
</g>
<defs>
<clipPath id="clip0_1_8">
<rect width="39.2281" height="52" fill="white" transform="translate(10 4)"/>
</clipPath>
</defs>
</svg>
