<svg width="47" height="42" viewBox="0 0 47 42" fill="none" xmlns="http://www.w3.org/2000/svg">
<path d="M4.31348 17.8772L8.27312 33.6031M42.2683 17.8772L38.3182 33.565M22.0279 6.0061L13.2448 21.1436L5.85643 16.7434M24.5539 6.0061L33.3369 21.1436L40.7373 16.7364" stroke="white" stroke-width="2.5" stroke-miterlimit="10" stroke-linecap="round" stroke-linejoin="round"/>
<path d="M23.291 6.24394C24.6245 6.24394 25.7056 5.16287 25.7056 3.82931C25.7056 2.49574 24.6245 1.41467 23.291 1.41467C21.9574 1.41467 20.8763 2.49574 20.8763 3.82931C20.8763 5.16287 21.9574 6.24394 23.291 6.24394Z" stroke="white" stroke-width="2.5" stroke-miterlimit="10" stroke-linecap="round" stroke-linejoin="round"/>
<path d="M3.70553 17.8771C5.03909 17.8771 6.12016 16.7961 6.12016 15.4625C6.12016 14.1289 5.03909 13.0479 3.70553 13.0479C2.37196 13.0479 1.29089 14.1289 1.29089 15.4625C1.29089 16.7961 2.37196 17.8771 3.70553 17.8771Z" stroke="white" stroke-width="2.5" stroke-miterlimit="10" stroke-linecap="round" stroke-linejoin="round"/>
<path d="M42.8762 17.8771C44.2097 17.8771 45.2908 16.7961 45.2908 15.4625C45.2908 14.1289 44.2097 13.0479 42.8762 13.0479C41.5426 13.0479 40.4615 14.1289 40.4615 15.4625C40.4615 16.7961 41.5426 17.8771 42.8762 17.8771Z" stroke="white" stroke-width="2.5" stroke-miterlimit="10" stroke-linecap="round" stroke-linejoin="round"/>
<path d="M27.338 33.6098H39.9328V40.5854H6.64893V33.6098H19.2892M28.0428 24.0848L23.2908 29.2853L18.5389 24.0849L23.2908 18.8844L28.0428 24.0848Z" stroke="white" stroke-width="2.5" stroke-miterlimit="10" stroke-linecap="round" stroke-linejoin="round"/>
</svg>
