<svg width="45" height="44" viewBox="0 0 45 44" fill="none" xmlns="http://www.w3.org/2000/svg">
<path d="M22.3536 5.5911C22.8315 5.5911 23.219 5.20361 23.219 4.72563V0.865478C23.219 0.387493 22.8315 0 22.3536 0C21.8756 0 21.4881 0.387493 21.4881 0.865478V4.72563C21.4882 5.20361 21.8757 5.5911 22.3536 5.5911ZM43.5091 29.7331L41.9802 28.2085C41.4363 27.6653 40.7114 27.3661 39.939 27.3661C39.4451 27.3661 38.971 27.489 38.5508 27.7192L35.6697 24.8415L35.81 24.7013C36.9789 23.5302 36.9784 21.6271 35.8099 20.4599C35.3986 20.0463 34.8746 19.763 34.3034 19.6452C34.3826 19.3715 34.4228 19.0881 34.4227 18.8032C34.4227 17.9992 34.1104 17.2454 33.5451 16.6824C33.1338 16.2688 32.6098 15.9855 32.0386 15.8677C32.1178 15.5941 32.158 15.3106 32.1579 15.0257C32.1579 14.2217 31.8456 13.4679 31.2794 12.9041C30.8676 12.4922 30.3444 12.2097 29.7741 12.0915C30.0694 11.0734 29.8171 9.92795 29.0161 9.12564C28.3494 8.46177 27.4448 8.17645 26.5729 8.26892L20.8637 7.18826C19.9929 7.02308 18.9056 6.91386 18.2192 7.53991C18.1759 7.57944 18.1317 7.62491 18.0882 7.67552C17.024 7.2876 15.7827 7.5186 14.9304 8.3699C14.365 8.9346 14.0536 9.6881 14.0536 10.4916C14.0536 10.7811 14.0946 11.0637 14.1727 11.3337C13.6025 11.4512 13.0795 11.7339 12.6688 12.1466C12.1023 12.7108 11.7899 13.4634 11.7893 14.266C11.789 14.5517 11.8292 14.836 11.9088 15.1104C11.3381 15.2277 10.8145 15.5101 10.403 15.9225C9.83647 16.4884 9.52452 17.2424 9.52452 18.0455C9.52452 18.6606 9.70817 19.2466 10.0485 19.7416C9.61416 19.8889 9.21966 20.1344 8.89563 20.4589C7.72602 21.6271 7.72559 23.5303 8.8964 24.7031L9.03622 24.8423L6.15473 27.7186C5.08386 27.2144 3.76446 27.4033 2.88076 28.2859L1.3509 29.8114C0.806745 30.3549 0.507166 31.0799 0.50708 31.8527C0.50708 32.6256 0.806745 33.3507 1.3509 33.8942L3.26018 35.8012C3.59834 36.139 4.14637 36.1387 4.4841 35.8005C4.82192 35.4624 4.82158 34.9143 4.48342 34.5766L2.57414 32.6696C2.3574 32.4532 2.23804 32.163 2.23804 31.8528C2.23804 31.5426 2.3574 31.2526 2.57362 31.0366L4.10357 29.511C4.48582 29.1292 5.07089 29.0723 5.51518 29.3379C5.60363 29.4712 5.72745 29.5772 5.87277 29.6441L14.6464 38.4049C14.6889 38.4982 14.7477 38.5832 14.82 38.656C14.8907 38.7265 14.9732 38.7842 15.0636 38.8265C15.2502 39.037 15.3527 39.3088 15.3517 39.59C15.3517 39.9003 15.2323 40.1903 15.0156 40.4068L13.4872 41.9334C13.0356 42.383 12.301 42.3829 11.8508 41.9347L9.94149 40.0253C9.6035 39.6873 9.05556 39.6873 8.71757 40.0253C8.37957 40.3633 8.37957 40.9112 8.71757 41.2492L10.6282 43.16C11.1906 43.7201 11.9291 44 12.668 44C13.4071 44 14.1465 43.7197 14.7096 43.1591L16.2389 41.6316C16.7831 41.088 17.0827 40.363 17.0827 39.59C17.0827 39.0384 16.9293 38.5116 16.6441 38.0573L19.8871 34.8183L19.8975 34.8078C20.2688 34.4239 21.3029 34.4957 22.3029 34.5652C23.0135 34.6146 23.8056 34.6695 24.5796 34.5803L28.1309 38.1274C27.9008 38.5468 27.778 39.0203 27.778 39.5135C27.778 40.2856 28.0777 41.0101 28.6218 41.5537L30.1513 43.0812C30.6951 43.6245 31.42 43.9237 32.1924 43.9237C32.9647 43.9237 33.6896 43.6245 34.2335 43.0812L43.5097 33.8163C44.0538 33.2728 44.3535 32.5479 44.3535 31.7749C44.3534 31.0021 44.0538 30.2771 43.5091 29.7331ZM20.5414 8.88896L24.2957 9.59958L22.0486 11.8459C21.7009 11.6788 21.2245 11.3672 20.7018 10.8672C19.9864 10.1828 19.4746 9.39264 19.4281 8.89979L19.428 8.89902L19.4279 8.89876C19.425 8.87044 19.4238 8.84198 19.4241 8.81351C19.5373 8.78601 19.8379 8.7555 20.5414 8.88896ZM16.1536 9.5946C16.592 9.15657 17.2732 9.10604 17.7686 9.44154C18.0494 10.6187 19.0535 11.6856 19.5053 12.1179C19.8401 12.4383 20.9144 13.3988 21.9988 13.6628C22.1471 13.8756 22.2262 14.1289 22.2253 14.3883C22.2253 14.729 22.0943 15.0476 21.8555 15.2862C21.6173 15.5247 21.2982 15.656 20.9569 15.656C20.6155 15.656 20.2964 15.5247 20.0571 15.285L20.057 15.285L20.0566 15.2845L16.1535 11.3885C15.9155 11.1508 15.7845 10.8323 15.7845 10.4916C15.7846 10.1509 15.9156 9.8323 16.1536 9.5946ZM13.892 13.3713C14.1302 13.1328 14.4489 13.0014 14.7897 13.0014C15.131 13.0014 15.4508 13.1331 15.6905 13.3725L18.8334 16.5091C19.3283 17.0048 19.3283 17.8114 18.8351 18.3054C18.5957 18.5439 18.2755 18.6752 17.9335 18.6752C17.5916 18.6752 17.2714 18.5439 17.033 18.3064L17.0329 18.3064L14.6486 15.9225C14.6449 15.9188 14.6408 15.9154 14.637 15.9116L13.8911 15.166C13.6518 14.9269 13.52 14.6078 13.5203 14.2673C13.5206 13.9279 13.6519 13.6104 13.892 13.3713ZM11.6262 17.1472C11.8645 16.9093 12.1839 16.7782 12.5258 16.7782C12.8648 16.7782 13.1815 16.9074 13.4188 17.1412L15.8104 19.5317C16.0489 19.7693 16.1803 20.0875 16.1803 20.4278C16.1803 20.768 16.0489 21.0863 15.8095 21.3247C15.5713 21.5626 15.2522 21.6937 14.9109 21.6937C14.5691 21.6937 14.249 21.5623 14.0105 21.3247L13.1434 20.4588L13.1428 20.4582L11.6263 18.9434C11.3872 18.7046 11.2556 18.3856 11.2556 18.0453C11.2556 17.7051 11.3872 17.386 11.6262 17.1472ZM10.1189 21.6835C10.3582 21.4445 10.6781 21.3128 11.0195 21.3128C11.3608 21.3128 11.6806 21.4444 11.9199 21.6833L12.7881 22.5505C13.0267 22.788 13.158 23.1062 13.158 23.4465C13.158 23.7869 13.0266 24.105 12.7863 24.3444C12.5482 24.5829 12.2291 24.7143 11.8877 24.7143C11.5463 24.7143 11.2272 24.583 10.9874 24.3427L10.8786 24.2344C10.8772 24.233 10.8761 24.2314 10.8747 24.23L10.8697 24.2256L10.1197 23.4785C9.62481 22.9826 9.62438 22.1774 10.1189 21.6835ZM27.7562 31.5198C27.4184 31.1815 26.8703 31.1813 26.5323 31.519L25.7623 32.2881C25.0306 33.0197 23.7048 32.9276 22.4227 32.8387C21.0305 32.7419 19.5907 32.642 18.6591 33.5985L15.4712 36.7825L7.4994 28.8224L10.3206 26.0063C10.7869 26.2921 11.3249 26.4453 11.8879 26.4453C12.6922 26.4453 13.4464 26.1336 14.0097 25.5692C14.5768 25.0044 14.8892 24.2507 14.8892 23.4466C14.8892 23.4392 14.8887 23.4318 14.8887 23.4243C14.8961 23.4244 14.9036 23.4248 14.9111 23.4248C15.7143 23.4248 16.4679 23.114 17.0319 22.5506C17.5991 21.9858 17.9114 21.2319 17.9114 20.428C17.9114 20.4205 17.9109 20.4131 17.9109 20.4056C17.9185 20.4056 17.926 20.4062 17.9337 20.4062C18.7366 20.4062 19.4906 20.0957 20.0585 19.5301C20.648 18.9396 20.9396 18.1622 20.934 17.3865C20.9418 17.3866 20.9495 17.387 20.9572 17.387C21.7615 17.3869 22.5156 17.0752 23.0798 16.51C23.6452 15.9453 23.9566 15.1918 23.9566 14.3883C23.9566 13.8263 23.8038 13.2891 23.519 12.8238L25.9916 10.3521C26.1692 10.1751 26.3953 10.0547 26.6412 10.006C26.667 10.0032 26.6925 9.99911 26.7176 9.99412C27.0997 9.94144 27.501 10.0593 27.7931 10.3503C28.2881 10.8461 28.2881 11.6527 27.795 12.1467L27.0419 12.8967C27.0394 12.8992 27.0367 12.9014 27.0342 12.9039L26.1669 13.7698C25.8286 14.1075 25.8283 14.6556 26.1661 14.9937C26.504 15.332 27.0519 15.3322 27.39 14.9945L28.1461 14.2394L28.1466 14.2389L28.2609 14.1251C28.7572 13.6333 29.5612 13.6344 30.057 14.1294C30.2956 14.367 30.427 14.6852 30.427 15.0255C30.427 15.3657 30.2956 15.684 30.0551 15.9234L29.2977 16.6823L29.2975 16.6826L28.4302 17.5464C28.0915 17.8837 28.0904 18.4317 28.4277 18.7703C28.765 19.109 29.313 19.11 29.6516 18.7728L30.5229 17.9051C30.761 17.6666 31.0801 17.5352 31.4214 17.5352C31.7629 17.5352 32.082 17.6665 32.3219 17.9068C32.5605 18.1444 32.6918 18.4627 32.6918 18.803C32.6918 19.1432 32.5605 19.4614 32.3205 19.7004L30.8106 21.2109C30.4727 21.549 30.4728 22.0969 30.8108 22.4348C30.891 22.5153 30.9864 22.5791 31.0914 22.6225C31.1964 22.666 31.309 22.6883 31.4226 22.6881C31.6442 22.6881 31.8657 22.6036 32.0347 22.4345L32.7747 21.6943C32.7789 21.6902 32.7835 21.6867 32.7877 21.6825C33.0258 21.4439 33.3449 21.3126 33.6862 21.3126C34.0277 21.3126 34.3468 21.4439 34.5858 21.6834C35.0801 22.1772 35.0797 22.9825 34.5858 23.4773L33.8334 24.2288L33.8325 24.2296L33.8317 24.2305L32.6375 25.4232C32.2994 25.761 32.299 26.309 32.6368 26.6472C32.7171 26.7278 32.8125 26.7917 32.9176 26.8353C33.0227 26.8789 33.1354 26.9012 33.2492 26.9011C33.4704 26.9011 33.6918 26.8167 33.8608 26.648L34.4449 26.0646L37.2445 28.8609L29.2733 36.8223L26.4173 33.9697C26.6226 33.838 26.8132 33.6847 26.9858 33.5123L27.7553 32.7436C28.0937 32.406 28.094 31.858 27.7562 31.5198ZM42.2864 32.5916L33.0102 41.8565C32.7932 42.0733 32.5027 42.1926 32.1923 42.1926C31.8819 42.1926 31.5914 42.0733 31.3743 41.8565L29.8449 40.3289C29.6282 40.1125 29.5088 39.8229 29.5088 39.5135C29.5088 39.2041 29.6282 38.9145 29.8449 38.698L39.1211 29.4331C39.3382 29.2162 39.6286 29.0969 39.9391 29.0969C40.2495 29.0969 40.5399 29.2162 40.7575 29.4336L42.2865 30.9582C42.5032 31.1747 42.6226 31.4646 42.6226 31.7749C42.6225 32.0852 42.5031 32.3752 42.2864 32.5916ZM10.8612 4.86149C10.9415 4.94179 11.0368 5.00545 11.1417 5.04884C11.2466 5.09222 11.359 5.11448 11.4726 5.11432C11.6943 5.11432 11.9161 5.02959 12.0851 4.86021C12.4228 4.52187 12.4223 3.97393 12.0839 3.63628L8.93017 0.488813C8.59192 0.151164 8.0439 0.151594 7.70625 0.490017C7.3686 0.828353 7.36912 1.37629 7.70745 1.71394L10.8612 4.86149ZM33.2346 5.11432C33.4558 5.11432 33.6772 5.02993 33.8462 4.86124L36.9975 1.71368C37.3357 1.37595 37.336 0.827924 36.9982 0.489759C36.6605 0.151594 36.1125 0.15125 35.7743 0.489071L32.6229 3.63662C32.2848 3.97436 32.2844 4.52238 32.6222 4.86055C32.7025 4.94113 32.798 5.00503 32.9031 5.04858C33.0081 5.09214 33.1208 5.11448 33.2346 5.11432Z" fill="white"/>
<path d="M5.82887 37.2285C5.49379 37.5693 5.49844 38.1174 5.83935 38.4524L5.84184 38.4548C6.00299 38.6138 6.22032 38.7028 6.44667 38.7025C6.67071 38.7025 6.89475 38.6158 7.06448 38.4432C7.39955 38.1023 7.39362 37.5531 7.05279 37.218C6.71205 36.883 6.16411 36.8877 5.82887 37.2285ZM29.8731 30.273C30.0048 30.273 30.1383 30.243 30.2637 30.1798C30.6905 29.9645 30.8619 29.4441 30.6467 29.0173C30.4314 28.5906 29.9109 28.419 29.4842 28.6343L29.4794 28.6367C29.0527 28.852 28.8836 29.3712 29.0988 29.798C29.2508 30.0995 29.5563 30.273 29.8731 30.273Z" fill="white"/>
</svg>
