<svg width="46" height="46" viewBox="0 0 46 46" fill="none" xmlns="http://www.w3.org/2000/svg">
<path d="M44.1543 12.4837L33.3679 1.69739C32.4381 0.767536 30.9146 0.767536 29.9847 1.69739L25.4427 6.23937C25.2496 6.4325 25.2067 6.73291 25.3426 6.96895C25.4785 7.21214 25.7503 7.33374 26.0221 7.26937C26.5729 7.14062 27.1379 7.30513 27.5385 7.70568C27.8818 8.04901 28.0606 8.52825 28.0106 9.01463C27.9676 9.50817 27.7101 9.94449 27.2881 10.2306C26.7517 10.6025 26.0078 10.6025 25.4713 10.2377C24.892 9.84435 24.6202 9.16484 24.7704 8.50679C24.8013 8.37626 24.7887 8.23918 24.7345 8.11648C24.6803 7.99379 24.5873 7.89221 24.47 7.82728C24.3542 7.76174 24.2201 7.73605 24.0883 7.75414C23.9564 7.77223 23.8342 7.83311 23.7404 7.92742L19.1984 12.4694C18.2685 13.3993 18.2685 14.9228 19.1984 15.8526L23.7404 20.3946C23.9335 20.5877 24.2339 20.6307 24.47 20.4948C24.7131 20.3589 24.8347 20.0871 24.7704 19.8224C24.6488 19.2716 24.8061 18.7066 25.2067 18.306C25.5572 17.9555 26.0364 17.7839 26.5299 17.8339C27.0306 17.884 27.4598 18.1415 27.7459 18.5635C28.1107 19.1 28.1107 19.851 27.7459 20.3875C27.3597 20.9525 26.6801 21.2243 26.0221 21.0741C25.8926 21.0458 25.7575 21.0597 25.6365 21.1137C25.5155 21.1678 25.415 21.2592 25.3497 21.3745C25.2138 21.6177 25.2568 21.911 25.4499 22.1041L29.9919 26.6461C30.4425 27.0967 31.0433 27.3471 31.6871 27.3471C32.3237 27.3471 32.9245 27.0967 33.3823 26.6461L36.9586 23.0697C37.1517 23.6563 37.5451 24.1856 38.0959 24.5575C39.0544 25.2084 40.349 25.2013 41.3075 24.5432C42.0227 24.0497 42.4734 23.2772 42.552 22.426C42.6307 21.5748 42.3232 20.738 41.7223 20.1371C41.4005 19.8153 41.0142 19.5792 40.5922 19.4362L44.1686 15.8598C45.0913 14.9371 45.0913 13.4207 44.1543 12.4837ZM43.2888 15.0015L38.7468 19.5434C38.5537 19.7366 38.5108 20.037 38.6467 20.273C38.7826 20.5162 39.0544 20.6378 39.3262 20.5734C39.8769 20.4447 40.442 20.6092 40.8425 21.0098C41.1859 21.3531 41.3647 21.8323 41.3146 22.3187C41.2717 22.8122 41.0142 23.2486 40.5922 23.5347C40.0557 23.9066 39.3119 23.9066 38.7754 23.5418C38.196 23.1484 37.9242 22.4689 38.0744 21.8109C38.1388 21.5462 38.0172 21.2673 37.774 21.1314C37.5308 20.9954 37.2376 21.0384 37.0445 21.2315L32.5025 25.7735C32.0662 26.2098 31.2937 26.2098 30.8573 25.7735L27.281 22.1971C27.8675 22.004 28.3897 21.6177 28.7616 21.0741C29.4125 20.1228 29.4125 18.8353 28.7616 17.8697C28.524 17.5155 28.2109 17.2183 27.8449 16.9994C27.4788 16.7805 27.0688 16.6454 26.6444 16.6037C25.7932 16.5178 24.9492 16.8254 24.3412 17.4334C24.0193 17.7553 23.7833 18.1415 23.6402 18.5635L20.0639 14.9872C19.6133 14.5365 19.6133 13.7927 20.0639 13.342L23.6402 9.76567C23.8334 10.3522 24.2268 10.8815 24.7775 11.2534C25.736 11.9043 27.0306 11.8972 27.9891 11.2391C28.7044 10.7456 29.155 9.9731 29.2337 9.12192C29.3124 8.27075 29.0048 7.43388 28.404 6.83305C28.0821 6.51118 27.6958 6.27514 27.2738 6.13208L30.8502 2.55572C31.3008 2.1051 32.0447 2.1051 32.4953 2.55572L43.2888 13.3492C43.7394 13.807 43.7394 14.5437 43.2888 15.0015ZM22.9464 26.5388C23.5329 26.3457 24.0551 25.9594 24.427 25.4158C25.0779 24.4645 25.0779 23.177 24.427 22.2114C23.9407 21.489 23.1682 21.0312 22.3098 20.9454C21.4515 20.8595 20.6146 21.1671 20.0067 21.7751C19.6848 22.097 19.4487 22.4832 19.3057 22.9052L15.7293 19.3289C14.8281 18.4276 13.2473 18.4276 12.3461 19.3289L8.76972 22.9052C8.63382 22.4904 8.39778 22.1041 8.06875 21.7822C7.46077 21.1743 6.63105 20.8739 5.77988 20.9525C4.9287 21.0312 4.15621 21.4818 3.66267 22.1971C3.33735 22.6688 3.16195 23.2277 3.15939 23.8007C3.15684 24.3737 3.32726 24.9341 3.64837 25.4087C4.02031 25.9594 4.54961 26.3457 5.13613 26.546L1.55977 30.1223C0.629915 31.0522 0.629915 32.5757 1.55977 33.5056L12.3532 44.299C12.8182 44.764 13.4333 45 14.0484 45C14.6636 45 15.2715 44.764 15.7436 44.299L19.32 40.7227C19.5131 41.3092 19.9065 41.8385 20.4573 42.2104C21.4157 42.8613 22.7104 42.8542 23.6688 42.1961C24.3841 41.7026 24.8347 40.9301 24.9134 40.0789C24.9921 39.2277 24.6845 38.3909 24.0837 37.7901C23.7618 37.4682 23.3756 37.2321 22.9607 37.0891L26.5371 33.5127C27.4669 32.5829 27.4669 31.0593 26.5371 30.1295L22.9464 26.5388ZM25.6573 32.6329L21.1153 37.1749C20.9222 37.368 20.8793 37.6685 21.0152 37.9045C21.1511 38.1477 21.4229 38.2693 21.6947 38.2049C22.2383 38.0762 22.8105 38.2407 23.2111 38.6484C23.5544 38.9917 23.7332 39.4709 23.6832 39.9573C23.6402 40.4509 23.3827 40.8872 22.9607 41.1733C22.4243 41.5452 21.6804 41.5452 21.1439 41.1804C20.5646 40.787 20.2928 40.1075 20.443 39.4495C20.4739 39.319 20.4613 39.1819 20.4071 39.0592C20.3529 38.9365 20.2599 38.8349 20.1426 38.77C20.0268 38.7044 19.8927 38.6787 19.7609 38.6968C19.629 38.7149 19.5068 38.7758 19.413 38.8701L14.871 43.4121C14.4204 43.8627 13.6765 43.8699 13.2259 43.4121L2.4324 32.6258C1.98178 32.1752 1.98178 31.4313 2.4324 30.9807L6.97438 26.4387C7.16751 26.2456 7.21042 25.9451 7.07452 25.7091C7.0222 25.6128 6.9446 25.5326 6.85007 25.4771C6.75553 25.4217 6.64766 25.3931 6.53807 25.3944C6.49515 25.3944 6.44508 25.4015 6.39501 25.4087C5.73696 25.5589 5.05745 25.2871 4.66405 24.7077C4.48671 24.4376 4.39282 24.1213 4.39409 23.7982C4.39536 23.4752 4.49174 23.1596 4.67121 22.8909C4.96447 22.4689 5.39363 22.2114 5.88717 22.1685C6.37356 22.1256 6.85279 22.2972 7.19612 22.6477C7.59667 23.0483 7.76118 23.6133 7.63959 24.1641C7.57521 24.4288 7.69681 24.7077 7.94 24.8436C8.1832 24.9795 8.47646 24.9366 8.66958 24.7435L13.2116 20.2015C13.6479 19.7652 14.4204 19.7652 14.8567 20.2015L19.3987 24.7435C19.5918 24.9366 19.8922 24.9795 20.1283 24.8436C20.2458 24.7808 20.3392 24.6806 20.3935 24.5589C20.4479 24.4371 20.4603 24.3008 20.4287 24.1713C20.3071 23.6205 20.4644 23.0483 20.865 22.6549C21.2155 22.3044 21.6947 22.1327 22.1882 22.1828C22.6889 22.2329 23.1181 22.4904 23.4042 22.9124C23.769 23.4488 23.769 24.1999 23.4042 24.7363C23.018 25.3014 22.3384 25.5732 21.6804 25.423C21.5509 25.393 21.4151 25.4061 21.2938 25.4603C21.1724 25.5145 21.0721 25.6069 21.008 25.7234C20.8721 25.9666 20.915 26.2599 21.1082 26.453L25.6502 30.995C26.1079 31.4384 26.1079 32.1823 25.6573 32.6329ZM33.6827 32.9477C33.4395 32.7045 33.0532 32.7045 32.8172 32.9477C32.5811 33.1908 32.574 33.5771 32.8172 33.8131L34.9845 35.9804C35.1061 36.102 35.2634 36.1592 35.4208 36.1592C35.5781 36.1592 35.7355 36.102 35.8571 35.9804C36.1003 35.7372 36.1003 35.351 35.8571 35.1149L33.6827 32.9477ZM38.568 31.6387L35.3349 31.0665C35.1738 31.039 35.0083 31.0761 34.8744 31.1699C34.7405 31.2636 34.649 31.4064 34.6197 31.5672C34.5625 31.9034 34.7842 32.2181 35.1204 32.2825L38.3534 32.8547C38.3892 32.8618 38.4249 32.8618 38.4607 32.8618C38.754 32.8618 39.0114 32.6544 39.0615 32.354C39.0764 32.2746 39.0754 32.193 39.0586 32.114C39.0418 32.035 39.0095 31.9601 38.9636 31.8936C38.9178 31.8271 38.8592 31.7704 38.7913 31.7266C38.7234 31.6829 38.6475 31.653 38.568 31.6387ZM31.4296 34.7501C31.0934 34.8074 30.8716 35.1292 30.9289 35.4654L31.5011 38.6984C31.5512 38.9989 31.8158 39.2063 32.1019 39.2063C32.1377 39.2063 32.1734 39.2063 32.2092 39.1991C32.5454 39.1419 32.7671 38.82 32.7099 38.4839L32.1377 35.2508C32.1249 35.1711 32.0963 35.0947 32.0536 35.0261C32.0109 34.9575 31.9549 34.8982 31.8889 34.8515C31.823 34.8049 31.7484 34.7719 31.6695 34.7545C31.5906 34.7371 31.509 34.7356 31.4296 34.7501ZM12.0385 13.0345C12.1601 13.1561 12.3175 13.2133 12.4748 13.2133C12.6322 13.2133 12.7896 13.1561 12.9111 13.0345C13.1543 12.7913 13.1543 12.405 12.9111 12.169L10.7439 10.0017C10.6876 9.94396 10.6203 9.89807 10.5459 9.86673C10.4716 9.8354 10.3918 9.81925 10.3111 9.81925C10.2305 9.81925 10.1506 9.8354 10.0763 9.86673C10.002 9.89807 9.9347 9.94396 9.87839 10.0017C9.6352 10.2449 9.6352 10.6311 9.87839 10.8672L12.0385 13.0345ZM14.1843 11.2463C14.2201 11.2463 14.2559 11.2463 14.2916 11.2391C14.6278 11.1819 14.8495 10.86 14.7923 10.5239L14.2201 7.29082C14.206 7.21098 14.1763 7.1347 14.1328 7.06633C14.0892 6.99795 14.0326 6.93883 13.9662 6.89234C13.8997 6.84585 13.8248 6.81289 13.7457 6.79535C13.6665 6.77782 13.5847 6.77604 13.5048 6.79013C13.425 6.80422 13.3487 6.8339 13.2803 6.87747C13.212 6.92104 13.1528 6.97765 13.1063 7.04407C13.0598 7.11049 13.0269 7.18542 13.0094 7.26457C12.9918 7.34373 12.99 7.42556 13.0041 7.50541L13.5764 10.7384C13.6264 11.0317 13.8911 11.2463 14.1843 11.2463ZM7.1532 14.3434L10.3862 14.9156C10.422 14.9228 10.4578 14.9228 10.4935 14.9228C10.7868 14.9228 11.0443 14.7154 11.0944 14.4149C11.1219 14.2538 11.0847 14.0883 10.991 13.9544C10.8972 13.8205 10.7545 13.729 10.5937 13.6997L7.36063 13.1274C7.1995 13.0999 7.03403 13.1371 6.90012 13.2308C6.76621 13.3246 6.67467 13.4673 6.64536 13.6281C6.59529 13.9643 6.82418 14.2862 7.1532 14.3434Z" fill="white" stroke="white"/>
</svg>
