<svg width="34" height="44" viewBox="0 0 34 44" fill="none" xmlns="http://www.w3.org/2000/svg">
<path d="M22.5658 14.9078L19.0672 14.3997L17.5025 11.2286C17.4307 11.0832 17.3196 10.9607 17.1819 10.8751C17.0441 10.7895 16.8852 10.7441 16.723 10.7441C16.5608 10.7441 16.4018 10.7895 16.264 10.8751C16.1263 10.9607 16.0152 11.0832 15.9435 11.2286L14.3787 14.3997L10.8792 14.9078C10.7186 14.9309 10.5677 14.9985 10.4435 15.103C10.3193 15.2075 10.2269 15.3446 10.1767 15.4989C10.1264 15.6532 10.1203 15.8185 10.1591 15.976C10.1979 16.1336 10.2801 16.2771 10.3962 16.3904L12.9279 18.8583L12.33 22.3433C12.3086 22.468 12.3147 22.596 12.348 22.7181C12.3812 22.8403 12.4406 22.9537 12.5222 23.0504C12.6038 23.1472 12.7056 23.225 12.8204 23.2784C12.9351 23.3317 13.0602 23.3594 13.1868 23.3594C13.3281 23.3583 13.467 23.3228 13.5915 23.256L16.7211 21.614L19.8507 23.256C19.994 23.332 20.1558 23.3663 20.3177 23.3552C20.4796 23.344 20.6351 23.2877 20.7666 23.1928C20.8982 23.0978 21.0006 22.9679 21.0621 22.8178C21.1237 22.6676 21.142 22.5033 21.1151 22.3433L20.5171 18.8583L23.0488 16.3904C23.1858 16.2568 23.2748 16.0817 23.3022 15.8923C23.3706 15.417 23.0409 14.9762 22.5658 14.9078ZM18.9745 17.9252C18.8731 18.0239 18.7973 18.1459 18.7537 18.2805C18.7101 18.4152 18.7 18.5585 18.7244 18.6979L19.1011 20.8973L17.1259 19.8589C17.0005 19.7943 16.8613 19.7612 16.7203 19.7623C16.5792 19.7635 16.4406 19.799 16.3163 19.8657L14.3411 20.9041L14.7188 18.7047C14.7432 18.5652 14.7331 18.422 14.6895 18.2873C14.6459 18.1526 14.5701 18.0307 14.4686 17.932L12.871 16.3739L15.079 16.0533C15.2185 16.0331 15.351 15.9793 15.4651 15.8965C15.5792 15.8137 15.6715 15.7044 15.7339 15.5781L16.7211 13.5767L17.7083 15.5781C17.7707 15.7044 17.863 15.8137 17.9771 15.8965C18.0912 15.9793 18.2237 16.0331 18.3632 16.0533L20.5722 16.3682L18.9745 17.9252Z" fill="white"/>
<path d="M16.7211 5.93148C10.4733 5.93148 5.40845 10.9963 5.40845 17.2441C5.40845 23.4918 10.4733 28.5567 16.7211 28.5567C22.9659 28.5497 28.0268 23.489 28.0337 17.2441C28.0337 10.9963 22.9688 5.93148 16.7211 5.93148ZM16.7211 26.8181C11.4335 26.8181 7.14706 22.5316 7.14706 17.2441C7.14706 11.9565 11.4335 7.67009 16.7211 7.67009C22.0062 7.67598 26.2892 11.959 26.295 17.2441C26.295 22.5317 22.0086 26.8181 16.7211 26.8181Z" fill="white"/>
<path d="M32.643 19.5884L31.0164 20.2037C31.2695 20.8731 31.5844 21.7057 31.4762 22.039C31.3545 22.4137 30.6175 22.8938 29.9665 23.3178C29.1937 23.822 28.3148 24.3938 27.7111 25.2244C27.1073 26.0551 26.8225 27.0838 26.578 27.9821C26.3848 28.6882 26.1473 29.5672 25.8391 29.7913C25.531 30.0153 24.6385 29.9661 23.9074 29.9313C22.9734 29.8869 21.9147 29.8347 20.9189 30.1612C19.953 30.4741 19.1503 31.1271 18.4394 31.6999C17.8299 32.1925 17.1383 32.7508 16.7221 32.7508C16.3058 32.7508 15.6141 32.1925 15.0038 31.698C14.2928 31.1233 13.4874 30.4723 12.5253 30.1603C11.9748 29.9816 11.3575 29.8986 10.582 29.8986C10.2236 29.8986 9.87299 29.915 9.53494 29.9314C8.80959 29.9662 7.90737 30.0087 7.60896 29.7914C7.31054 29.5741 7.06225 28.6864 6.86909 27.9802C6.62473 27.081 6.34848 26.0629 5.73703 25.2226C5.12558 24.3823 4.25534 23.821 3.48065 23.3159C2.83064 22.8919 2.09362 22.4118 1.97188 22.0371C1.86368 21.7058 2.17956 20.8723 2.43265 20.2019C2.76786 19.3161 3.14642 18.3126 3.14642 17.2443C3.14642 16.176 2.76678 15.1724 2.43167 14.2867C2.17858 13.6173 1.86368 12.7837 1.9709 12.4514C2.09264 12.0767 2.82956 11.5966 3.48065 11.1716C4.25338 10.6674 5.13136 10.0956 5.73605 9.26596C6.34073 8.43624 6.62463 7.40659 6.86909 6.50829C7.06225 5.80218 7.29985 4.92321 7.60798 4.69915C7.91611 4.47509 8.80861 4.52434 9.53494 4.55906C10.4689 4.6035 11.5286 4.65569 12.5292 4.32922C13.4951 4.01628 14.2968 3.36333 15.0087 2.79053C15.6134 2.29601 16.305 1.73861 16.7212 1.73861C17.1374 1.73861 17.8291 2.29591 18.4385 2.79043C19.1494 3.3651 19.9549 4.01618 20.918 4.32912C21.9148 4.65265 22.9743 4.60242 23.9123 4.55896C24.6376 4.52512 25.5398 4.48264 25.8382 4.69905C26.1367 4.91546 26.3801 5.8011 26.5733 6.5082C26.8177 7.40747 27.0939 8.42554 27.7054 9.26586C28.3168 10.1062 29.1871 10.6684 29.9617 11.1725C30.6118 11.5965 31.3488 12.0766 31.4715 12.4513C31.5797 12.7836 31.2638 13.6172 31.0107 14.2866C30.6755 15.1723 30.296 16.1769 30.296 17.2442C30.296 18.3115 30.6756 19.316 31.0107 20.2018L31.824 19.8946L32.6372 19.5875C32.3271 18.7684 32.0345 17.9947 32.0345 17.2442C32.0345 16.4936 32.3243 15.72 32.6362 14.9009C33.039 13.8384 33.4205 12.8271 33.124 11.9143C32.812 10.9552 31.8452 10.3254 30.9102 9.71594C30.2341 9.27263 29.527 8.8148 29.1107 8.24298C28.6944 7.67116 28.4655 6.8434 28.2501 6.05233C27.9458 4.9338 27.659 3.87708 26.8563 3.29368C26.0537 2.71028 24.9766 2.76826 23.8253 2.82231C23.0014 2.86097 22.1485 2.90148 21.4541 2.67546C20.7973 2.462 20.153 1.94138 19.531 1.43813C18.6529 0.731232 17.7526 0 16.7211 0C15.6896 0 14.7893 0.731231 13.9104 1.43921C13.2883 1.94246 12.6441 2.46209 11.9872 2.67556C11.2928 2.9006 10.4775 2.86293 9.61597 2.82241C8.46458 2.76836 7.37705 2.71715 6.58402 3.29378C5.79098 3.87041 5.49453 4.93576 5.19022 6.05331C4.9748 6.84438 4.7527 7.66253 4.3296 8.24396C3.9065 8.8254 3.21107 9.27361 2.53016 9.71692C1.59518 10.3264 0.628315 10.9562 0.316359 11.9153C0.0198054 12.8281 0.401313 13.8355 0.804109 14.9028C1.11322 15.722 1.40585 16.4956 1.40585 17.2452C1.40585 17.9947 1.11606 18.7683 0.804109 19.5884C0.401313 20.651 0.0198054 21.6632 0.316359 22.575C0.628315 23.5351 1.59518 24.1649 2.53016 24.7744C3.20626 25.2177 3.91336 25.6755 4.32862 26.2473C4.74397 26.8191 4.97382 27.6469 5.18924 28.438C5.37465 29.1218 5.55535 29.7825 5.85092 30.3263L2.32926 39.3324C2.27464 39.4723 2.25721 39.624 2.27866 39.7726C2.3001 39.9213 2.35969 40.0618 2.45162 40.1806C2.54355 40.2994 2.66468 40.3923 2.80321 40.4503C2.94174 40.5084 3.09294 40.5295 3.24207 40.5117L8.16812 39.9226L11.3856 43.6954C11.4834 43.8098 11.6092 43.8969 11.7508 43.9482C11.8924 43.9994 12.0448 44.0129 12.1932 43.9875C12.3416 43.9621 12.4809 43.8986 12.5974 43.8032C12.7138 43.7078 12.8035 43.5837 12.8577 43.4432L16.3687 34.4604C16.6025 34.4993 16.8411 34.4993 17.0748 34.4604L20.5849 43.4432C20.6397 43.5832 20.7297 43.7066 20.8464 43.8013C20.963 43.8961 21.1022 43.959 21.2504 43.9839C21.3986 44.0088 21.5507 43.9949 21.6919 43.9435C21.8331 43.892 21.9585 43.8049 22.056 43.6905L25.2735 39.9177L30.1995 40.5069C30.3482 40.5245 30.4988 40.5034 30.6369 40.4457C30.775 40.3879 30.8958 40.2955 30.9877 40.1774C31.0796 40.0593 31.1395 39.9194 31.1615 39.7714C31.1835 39.6234 31.1669 39.4721 31.1133 39.3324L27.5903 30.3244C27.8859 29.7807 28.0655 29.12 28.252 28.4361C28.4664 27.645 28.6885 26.8269 29.1126 26.2455C29.5366 25.664 30.2311 25.2158 30.912 24.7725C31.847 24.163 32.8149 23.5332 33.1258 22.5741C33.4224 21.6613 33.0419 20.6548 32.643 19.5884ZM11.7631 41.4622L9.18698 38.4399C9.09394 38.3309 8.97542 38.2467 8.84195 38.1946C8.70849 38.1426 8.56423 38.1243 8.422 38.1415L4.47724 38.6138L7.24844 31.526C7.93906 31.7463 8.75907 31.7076 9.61489 31.6671C9.93361 31.6516 10.263 31.6362 10.5808 31.6362C11.168 31.6362 11.6152 31.6922 11.9871 31.813C12.6439 32.0265 13.2872 32.5461 13.9103 33.0503C14.2 33.2831 14.4898 33.5179 14.7873 33.7264L11.7631 41.4622ZM28.9648 38.6138L25.021 38.1415C24.8787 38.1244 24.7344 38.1429 24.6009 38.1951C24.4674 38.2473 24.349 38.3318 24.256 38.4409L21.6789 41.4632L18.6528 33.7283C18.9503 33.5178 19.242 33.283 19.5298 33.0522C20.1518 32.5489 20.796 32.0293 21.4529 31.8158C22.1465 31.5908 22.9607 31.6285 23.8251 31.669C24.6896 31.7096 25.501 31.7472 26.1916 31.5279L28.9648 38.6138Z" fill="white"/>
</svg>
