<svg width="38" height="44" viewBox="0 0 38 44" fill="none" xmlns="http://www.w3.org/2000/svg">
<path d="M37.0808 7.59783C31.0269 5.93906 24.9375 3.35622 19.4708 0.128584C19.3283 0.0444049 19.1658 0 19.0003 0C18.8347 0 18.6723 0.0444049 18.5297 0.128584C12.9053 3.44894 7.14495 5.89206 0.919218 7.59783C0.723557 7.65142 0.550928 7.76782 0.427889 7.92912C0.304851 8.09042 0.238221 8.28767 0.238251 8.49054V17.9476C0.238251 27.6863 4.73097 34.1326 8.5 37.8254C12.5576 41.8013 17.2842 44 19.0003 44C20.7162 44 25.4427 41.8013 29.5003 37.8254C33.2693 34.1327 37.7617 27.6864 37.7617 17.9476V8.49046C37.7617 8.07349 37.483 7.70791 37.0808 7.59783ZM35.9107 17.9475C35.9107 27.0434 31.7203 33.0586 28.2047 36.5031C24.2146 40.4128 19.9484 42.1487 19.0003 42.1487C18.0521 42.1487 13.7857 40.4128 9.79542 36.5031C6.27999 33.0585 2.08943 27.0434 2.08943 17.9475V9.19308C8.04299 7.50269 13.5875 5.14363 19.0004 1.99806C24.2782 5.06018 30.0993 7.53655 35.9107 9.19274V17.9475Z" fill="white"/>
<path d="M10.7963 9.08952C10.6089 8.61386 10.0715 8.3802 9.5958 8.56762C7.93607 9.22132 6.25365 9.81584 4.55171 10.3501C4.36367 10.409 4.19938 10.5265 4.08272 10.6853C3.96607 10.8442 3.90316 11.0361 3.90314 11.2331V14.8074C3.90314 15.3185 4.31761 15.7329 4.82868 15.7329C5.33975 15.7329 5.75423 15.3185 5.75423 14.8074V11.9096C7.27738 11.4167 8.78482 10.8765 10.2744 10.2898C10.75 10.1026 10.9837 9.56519 10.7963 9.08952ZM12.5544 9.26509C12.6786 9.26509 12.8047 9.24008 12.9256 9.18732L12.9426 9.17993C13.4109 8.97471 13.6218 8.42961 13.4166 7.96151C13.2112 7.49324 12.663 7.2814 12.1952 7.48645L12.1803 7.49289C11.7117 7.69751 11.5002 8.24218 11.7048 8.71054C11.8566 9.05824 12.1974 9.26509 12.5544 9.26509ZM30.0276 29.8446C29.5999 29.565 29.0264 29.6853 28.7465 30.1131C27.9838 31.2805 27.089 32.3984 26.0866 33.4354C25.2622 34.2882 24.3747 35.0778 23.4318 35.7974C23.0254 36.1073 22.9472 36.688 23.257 37.0946C23.3434 37.208 23.4548 37.3 23.5826 37.3632C23.7104 37.4264 23.8511 37.4592 23.9936 37.4591C24.1894 37.4591 24.3866 37.3973 24.5542 37.2694C25.5711 36.4933 26.5282 35.6417 27.4174 34.722C28.5011 33.6011 29.4697 32.3911 30.2962 31.1257C30.5759 30.6977 30.4555 30.1241 30.0276 29.8446ZM21.2823 37.2489L21.2292 37.2802C20.7869 37.5364 20.6357 38.1026 20.8918 38.5449C20.9527 38.6501 21.0337 38.7423 21.1302 38.8162C21.2267 38.8901 21.3368 38.9443 21.4543 38.9756C21.5717 39.0069 21.6942 39.0148 21.8147 38.9988C21.9352 38.9827 22.0513 38.9431 22.1565 38.8821L22.2178 38.8461C22.6589 38.5878 22.807 38.0208 22.5487 37.5797C22.2902 37.1388 21.7232 36.9909 21.2823 37.2489ZM12.6913 20.111C12.123 19.5426 11.3671 19.2298 10.5633 19.2298C9.75942 19.2298 9.00352 19.5427 8.43495 20.111C7.26165 21.2845 7.26165 23.1941 8.43495 24.3675L13.9002 29.8326C14.4686 30.4009 15.2244 30.7138 16.0284 30.7138C16.8323 30.7138 17.5881 30.4009 18.1566 29.8325L29.5657 18.4233C30.7389 17.2494 30.739 15.3402 29.5656 14.167C28.9972 13.5987 28.2414 13.2858 27.4373 13.2858C26.6334 13.2858 25.8776 13.5987 25.3091 14.167L16.0283 23.4478L12.6913 20.111ZM26.6181 15.476C26.7255 15.3682 26.8531 15.2826 26.9938 15.2244C27.1344 15.1662 27.2852 15.1365 27.4374 15.1369C27.7471 15.1369 28.0379 15.2573 28.2568 15.476C28.7084 15.9276 28.7084 16.6627 28.2566 17.1145L16.8477 28.5236C16.629 28.7423 16.3379 28.8627 16.0284 28.8627C15.7188 28.8627 15.4278 28.7423 15.209 28.5236L9.74387 23.0586C9.29209 22.6069 9.29209 21.8718 9.74369 21.4202C9.96249 21.2014 10.2536 21.0809 10.5632 21.0809C10.8728 21.0809 11.1637 21.2013 11.3824 21.42L15.3738 25.4114C15.5475 25.5849 15.7828 25.6825 16.0283 25.6825C16.2738 25.6825 16.5091 25.585 16.6826 25.4114L26.6181 15.476Z" fill="white"/>
</svg>
